<?xml version="1.0"?>
<svg xmlns="http://www.w3.org/2000/svg" xmlns:xlink="http://www.w3.org/1999/xlink" version="1.1" width="89.20108" height="102.8067" viewBox="-0.6,-0.77494,89.20108,102.8067">
  <g transform="translate(-196.85251,-133.46822)">
    <g data-paper-data="{&quot;isPaintingLayer&quot;:true}" fill="none" fill-rule="nonzero" stroke="none" stroke-width="none" stroke-linecap="none" stroke-linejoin="miter" stroke-miterlimit="10" stroke-dasharray="" stroke-dashoffset="0" font-family="none" font-weight="none" font-size="none" text-anchor="none" style="mix-blend-mode: normal">
      <g id="Layer_8" stroke-linecap="butt">
        <path d="M216.754,207.506c-2.871,-1.402 -10.511,-2.518 -14.771,-6.695c-9.431,-9.246 -3.824,-21.732 0.704,-21.797c3.611,-0.061 3.363,5.482 4.622,11.145c0.875,3.939 1.673,6.988 6.407,9.674c4.735,2.688 6.918,2.916 6.918,2.916c0,0 3.258,0.791 1.596,2.562c-1.662,1.765 -5.476,2.195 -5.476,2.195z" fill="#faa51d" stroke="#231f20" stroke-width="1.2"/>
        <path d="M201.691,190.588c-1.833,0.719 -2.203,3.024 -2.654,3.688c-0.17,0.252 -0.376,0.445 -0.569,0.588c-3.34,-7.514 0.757,-15.235 4.19,-15.285c3.362,-0.055 3.131,5.106 4.303,10.377c0.108,0.485 0.215,0.954 0.33,1.413c-1.513,-0.5 -4.302,-1.287 -5.6,-0.781z" fill="#ffffff" stroke="none" stroke-width="1"/>
      </g>
      <path d="M245.543,186.473c0,0 1.455,2.342 1.519,4.969c0.065,2.723 -0.351,6.984 1.804,8.158c3.381,1.842 9.959,-0.463 10.174,5.191c0.211,5.652 -10.152,3.623 -13.299,2.547c-2.695,-0.926 -4.559,-1.758 -5.18,-5.182c0,0 -3.764,-13.969 -0.196,-15.59c3.568,-1.621 5.178,-0.093 5.178,-0.093z" fill="#faa51d" stroke="#231f20" stroke-width="1.2" stroke-linecap="butt"/>
      <path d="M207.61,214.584c0,0 1.504,10.391 -5.922,8.387c-5.586,-1.51 -5.705,-20.68 -0.406,-20.691c3.237,-0.006 4.425,2.859 4.425,2.859c0,0 4.385,4.812 6.95,4.312c2.565,-0.502 7.978,-6.703 7.978,-6.703c0,0 2.875,-2.539 6.146,0.023c3.271,2.561 1.521,6.178 1.521,6.178c0,0 -6.07,7.072 -11.014,8.072c-4.945,1.002 -9.375,-2.568 -11.58,-3.451" fill="#faa51d" stroke="#231f20" stroke-width="1.2" stroke-linecap="butt"/>
      <g id="Layer_6" stroke-linecap="butt">
        <path d="M235.435,201.238c0,0 4.866,4.062 8.166,7.52c4.384,4.592 -3.339,15.039 -3.339,15.039c0,0 11.234,6.467 2.998,11c-2.657,1.467 -15.661,-13.225 -15.661,-13.225c0,0 7.979,-7.475 4.972,-10.172c-4.964,-4.449 -10.771,-4.959 -11.6,-9.824c-0.502,-2.957 0.613,-4.502 2.658,-7.053c1.354,-1.689 2.084,-3.182 2.084,-3.182c0,0 1.135,-7.238 4.289,-8.254c3.153,-1.014 8.842,0.057 10.758,0.395c1.914,0.338 6.645,1.877 4.617,9.922c0,0 -1.451,3.771 -2.789,5.762c-1.604,2.389 -2.854,3.924 -4.08,4.867" fill="#faa51d" stroke="#231f20" stroke-width="1.2"/>
        <path d="M243.182,197.631c0,0 -1.375,1.765 -2.157,3.138c-0.785,1.375 -2.701,2.957 -2.701,2.957l-3.383,-2.564c0,0 -6.065,-4.711 -3.334,-7.453c1.575,-1.588 3.922,-4.318 9.024,-1.572c5.101,2.746 2.551,5.494 2.551,5.494" fill="#ffffff" stroke="none" stroke-width="1"/>
      </g>
      <path d="M217.273,188.768c-0.332,2.32 2.416,12.514 -4.95,10.457c-7.364,-2.058 -3.847,-12.084 -2.313,-15.396c1.537,-3.307 4.51,-1.938 7.322,-1.895c5.221,0.08 9.312,-0.896 11.961,3.754c2.65,4.647 -2.787,5.315 -5.801,5.098c-2.439,-0.178 -5.125,-0.334 -6.064,-0.391" fill="#faa51d" stroke="#231f20" stroke-width="1.2" stroke-linecap="butt"/>
      <g id="Layer_2">
        <path d="M247.37,133.851l0.39596,-0.38278c1.6208,1.13215 3.59273,1.79624 5.71977,1.79624c1.16701,0 2.28734,-0.19991 3.3286,-0.56735l0.86668,3.50189c0,0 6.422,4.773 8.348,8.041c3.238,5.49 3.328,9.97 3.328,9.97c0,0 7.08,2.109 8.322,7.823c1.243,5.715 -3.231,16.518 -21.986,20.246c-18.755,3.726 -33.908,-1.366 -40.988,-12.792c-7.076,-11.42 4.125,-25.006 3.479,-24.224l-0.68539,-5.7978c4.03199,-0.17798 7.44358,-2.74356 8.85549,-6.31747l2.6129,1.70527c0,0 4.496,-1.703 9.224,-1.928c1.768,-0.085 4.978,0.088 6.518,0.231z" fill="#faa51d" stroke="#231f20" stroke-width="1.2" stroke-linecap="butt"/>
        <path d="M269.034,156.812c0,0 6.735,1.482 7.977,7.196c1.242,5.715 -3.557,16.4 -21.309,19.635c-4.042,0.803 -9.372,1.307 -12.277,1.14c-5.325,-0.305 -19.377,-5.079 -18.704,-16.532c0.302,-5.153 8.739,-6.081 8.739,-6.081l7.784,-3.417c0,0 6.841,3.228 11.211,2.277c4.367,-0.948 4.367,-4.367 4.367,-4.367l9.115,-2.661l2.483,2.064z" fill="#ffffff" stroke="none" stroke-width="1" stroke-linecap="butt"/>
        <path d="M214.139,166.836c0,0 -3.627,0.48 -5.492,0.587c-1.867,0.106 -5.974,-0.268 -5.974,-0.268" fill="none" stroke="#231f20" stroke-width="1.2" stroke-linecap="butt"/>
        <path d="M285.058,157.577c0,0 -1.828,1.603 -4.543,2.545c-2.31,0.806 -6.859,1.549 -6.859,1.549" fill="none" stroke="#231f20" stroke-width="1.2" stroke-linecap="butt"/>
        <path d="M201.815,157.176c0,0 2.271,0.472 6.405,2.303c3.733,1.653 6.117,3.43 6.117,3.43" fill="none" stroke="#231f20" stroke-width="1.2" stroke-linecap="butt"/>
        <path d="M284.297,169.117c0,0 -1.877,0.166 -4.647,-0.11c-2.807,-0.281 -5.533,-1.385 -5.533,-1.385" fill="none" stroke="#231f20" stroke-width="1.2" stroke-linecap="butt"/>
        <path d="M244.349,135.212c2.84,0.7 3.888,1.469 3.888,1.469" fill="none" stroke="#000000" stroke-width="1" stroke-linecap="round"/>
        <path d="M226.39528,135.04173l5.56072,4.00027" fill="none" stroke="#000000" stroke-width="1" stroke-linecap="butt"/>
      </g>
      <g id="Layer_5" stroke-width="1" stroke-linecap="butt">
        <path d="M263.84,146.366c2.924,4.479 3.033,9.591 0.242,11.415c-2.793,1.825 -7.426,-0.332 -10.354,-4.813c-2.932,-4.48 -3.037,-9.589 -0.244,-11.415c2.791,-1.823 7.429,0.331 10.356,4.813z" fill="#ffffff" stroke="#231f20"/>
        <path d="M263.089,153.522c0,1.08 -0.802,1.956 -1.8,1.956c-0.993,0 -1.803,-0.877 -1.803,-1.956c0,-1.08 0.81,-1.958 1.803,-1.958c0.998,0 1.8,0.878 1.8,1.958" fill="#231f20" stroke="none"/>
      </g>
      <g id="Layer_7" stroke-width="1" stroke-linecap="butt">
        <path d="M239.867,149.619c2.926,4.48 2.619,9.862 -0.681,12.015c-3.302,2.159 -8.351,0.272 -11.276,-4.208c-2.928,-4.48 -2.624,-9.86 0.678,-12.017c3.303,-2.156 8.35,-0.272 11.279,4.21z" fill="#ffffff" stroke="#231f20"/>
        <path d="M238.079,155.507c0,1.081 -0.803,1.957 -1.801,1.957c-0.992,0 -1.803,-0.878 -1.803,-1.957c0,-1.08 0.811,-1.957 1.803,-1.957c0.996,0 1.801,0.877 1.801,1.957" fill="#231f20" stroke="none"/>
      </g>
      <path d="M251.766,158.926c1.854,0 4.555,-0.284 4.697,0.569c0.143,0.855 -1.709,4.203 -2.988,4.345c-1.283,0.142 -6.125,-2.353 -6.195,-3.919c-0.074,-1.566 2.775,-0.995 4.486,-0.995z" fill="#5e4a42" stroke="#000000" stroke-width="1" stroke-linecap="butt"/>
      <path d="M238.774,166.235c0,0 10.347,3.054 14.217,3.897c3.868,0.842 10.851,1.684 10.851,1.684c0,0 -7.99,10.245 -17.328,7.644c-9.338,-2.597 -9.169,-8.485 -7.74,-13.225z" fill="none" stroke="#231f20" stroke-width="1.2" stroke-linecap="butt"/>
      <path d="M241.87681,171.63712c0,-1.38071 1.11929,-2.5 2.5,-2.5c0.06971,0 0.13875,0.00285 0.20702,0.00845c0.06827,-0.0056 0.13731,-0.00845 0.20702,-0.00845c0.79585,0 1.50485,0.37188 1.9627,0.95134c0.20854,0.16477 0.39019,0.36207 0.5373,0.58424c0.26166,0.39517 0.41404,0.86902 0.41404,1.37846c0,0.45211 -0.12001,0.87619 -0.32992,1.24212c0.20991,0.36593 0.32992,0.79001 0.32992,1.24212c0,1.38071 -1.11929,2.5 -2.5,2.5c-1.38071,0 -2.5,-1.11929 -2.5,-2.5c0,-0.31258 0.05737,-0.61177 0.16215,-0.8876c-0.01316,-0.01583 -0.02612,-0.03183 -0.03889,-0.04799c-0.57947,-0.45785 -0.95134,-1.16685 -0.95134,-1.9627z" fill="#ff0000" stroke="none" stroke-width="0.5" stroke-linecap="butt"/>
    </g>
  </g>
</svg>
