<?xml version="1.0"?>
<svg xmlns="http://www.w3.org/2000/svg" xmlns:xlink="http://www.w3.org/1999/xlink" version="1.1" width="92.53881" height="101.12354" viewBox="-0.5,-1.15558,92.53881,101.12354">
  <g transform="translate(-194.41478,-130.647)">
    <g data-paper-data="{&quot;isPaintingLayer&quot;:true}" fill="none" fill-rule="nonzero" stroke="none" stroke-width="none" stroke-linecap="none" stroke-linejoin="miter" stroke-miterlimit="10" stroke-dasharray="" stroke-dashoffset="0" font-family="none" font-weight="none" font-size="none" text-anchor="none" style="mix-blend-mode: normal">
      <g id="Layer_3" stroke-width="1" stroke-linecap="butt">
        <path d="M226.105,201.31c0.809,0.472 2.451,1.324 0.09,4.744c-2.362,3.42 -9.268,4.049 -10.079,4.074c-3.093,0.084 -6.909,0.079 -11.091,-1.312c-12.135,-4.029 -12.209,-17.106 -8.353,-19.194c3.854,-2.087 5.596,6.007 11.048,10.914c2.438,2.194 5.327,3.052 7.742,3.503c3.416,0.638 9.833,-3.201 10.643,-2.729z" fill="#faa51d" stroke="#000000"/>
        <path d="M201.547,193.299c1.661,2.409 4.57,6.396 4.57,6.396c0,0 -3.658,-0.83 -5.733,0.914c-2.081,1.748 0.167,5.188 -1.361,4.15c-1.229,-1.376 -2.865,-2.908 -3.863,-6.398c-0.999,-3.486 0.087,-7.871 2.076,-8.484c2.123,-0.502 2.739,1.111 4.311,3.422z" fill="#ffffff" stroke="none"/>
      </g>
      <g stroke-linecap="butt">
        <path d="M231.217,211.756c0,0 -8.832,6.2 -17.071,8.412l0.086,0.215c1.247,1.824 5.87,7.497 -0.334,9.496c-5.333,1.717 -15.12,-13.104 -10.821,-15.902c2.626,-1.713 4.892,-0.252 4.892,-0.252c0,0 3.474,-1.07 6.001,-2.345c4.303,-2.161 5.784,-3.453 5.784,-3.453c0,0 4.184,-4.306 6.856,-4.137c2.671,0.17 8.059,4.714 4.607,7.966z" fill="#faa51d" stroke="none" stroke-width="1"/>
        <path d="M214.232,220.383c1.247,1.824 5.87,7.497 -0.334,9.496c-5.333,1.717 -15.329,-13.344 -11.03,-16.145c2.626,-1.713 5.101,-0.01 5.101,-0.01c0,0 3.474,-1.072 6.001,-2.348c4.303,-2.161 5.784,-3.453 5.784,-3.453" fill="none" stroke="#231f20" stroke-width="1.2"/>
        <path d="M231.217,211.756c0,0 -10.123,7.107 -18.804,8.819" fill="none" stroke="#231f20" stroke-width="1.2"/>
      </g>
      <path d="M245.106,193.871c0.935,-3.55 1.906,-2.79 1.906,-2.79c0.541,0.406 1.14,0.912 1.729,1.505c1.797,1.8 3.346,5.547 6.858,4.287c3.508,-1.259 5.666,-6.093 9.715,-2.405c4.047,3.691 -3.613,8.374 -6.49,9.817c-2.885,1.436 -5.402,2.784 -8.911,-0.724c-3.509,-3.511 -4.744,-3.676 -4.744,-3.676c-2.007,-1.47 -0.997,-2.473 -0.063,-6.014z" fill="#faa51d" stroke="#231f20" stroke-width="1.2" stroke-linecap="butt"/>
      <g id="Layer_2_1_" stroke-linecap="butt">
        <path d="M235.976,203.517c0,0 7.647,7.712 11.125,10.771c2.12,1.861 6.725,5.794 6.725,5.794c0,0 16.699,-2.879 14.777,6.911c-0.563,2.881 -19.535,0.693 -19.535,0.693c0,0 -7.214,-5.827 -12.045,-10.602c-5.863,-5.797 -10.764,-9.639 -10.764,-9.639c-8.534,-8.292 -1.662,-11.806 1.056,-16.563c2.719,-4.755 5.924,-2.914 9.517,-2.233c3.591,0.678 6.117,0.485 7.67,0.776c3.836,0.72 2.777,4.775 1.902,7.296c0,0 -1.404,3.651 -2.7,5.578c-1.554,2.311 -2.763,3.801 -3.951,4.713" fill="#faa51d" stroke="#231f20" stroke-width="1.2"/>
        <path d="M244.253,200.434c0,0 -1.217,1.826 -2.09,3.04c-0.761,1.332 -2.499,2.979 -2.499,2.979l-3.176,-3.204c0,0 -6.087,-3.956 -3.443,-6.611c1.526,-1.538 3.8,-4.178 8.739,-1.521c4.939,2.657 2.469,5.317 2.469,5.317" fill="#ffffff" stroke="none" stroke-width="1"/>
      </g>
      <path d="M221.748,197.083c1.261,1.977 9.989,7.918 3.06,11.157c-6.927,3.238 -10.796,-6.659 -11.789,-10.17c-0.989,-3.51 2.16,-4.408 4.319,-6.209c4.012,-3.342 6.479,-6.747 11.519,-4.946c5.04,1.797 1.351,5.847 -1.077,7.646c-1.965,1.455 -4.105,3.086 -4.854,3.657" fill="#faa51d" stroke="#231f20" stroke-width="1.2" stroke-linecap="butt"/>
      <g id="Layer_2">
        <path d="M248.37,137.851l7.452,-7.204l2.859,11.552c0,0 6.422,4.773 8.348,8.041c3.238,5.49 3.328,9.97 3.328,9.97c0,0 7.08,2.109 8.322,7.823c1.243,5.715 -3.231,16.517 -21.986,20.246c-18.755,3.726 -33.908,-1.366 -40.988,-12.792c-7.076,-11.42 4.125,-25.006 3.479,-24.224l-2.235,-18.906l13.018,8.496c0,0 4.496,-1.703 9.224,-1.928c1.768,-0.085 4.978,0.088 6.518,0.231z" fill="#faa51d" stroke="#231f20" stroke-width="1.2" stroke-linecap="butt"/>
        <path d="M270.034,160.811c0,0 6.736,1.482 7.978,7.196c1.241,5.716 -3.558,16.401 -21.31,19.635c-4.042,0.803 -9.372,1.308 -12.277,1.141c-5.325,-0.304 -19.377,-5.079 -18.704,-16.532c0.302,-5.153 8.739,-6.081 8.739,-6.081l7.785,-3.417c0,0 6.841,3.228 11.211,2.277c4.367,-0.948 4.367,-4.367 4.367,-4.367l9.115,-2.661l2.482,2.064z" fill="#ffffff" stroke="none" stroke-width="1" stroke-linecap="butt"/>
        <path d="M215.139,170.836c0,0 -3.627,0.48 -5.492,0.587c-1.867,0.106 -5.974,-0.268 -5.974,-0.268" fill="none" stroke="#231f20" stroke-width="1.2" stroke-linecap="butt"/>
        <path d="M286.058,161.577c0,0 -1.828,1.603 -4.543,2.545c-2.31,0.806 -6.859,1.549 -6.859,1.549" fill="none" stroke="#231f20" stroke-width="1.2" stroke-linecap="butt"/>
        <path d="M202.815,161.176c0,0 2.271,0.472 6.405,2.303c3.733,1.653 6.117,3.43 6.117,3.43" fill="none" stroke="#231f20" stroke-width="1.2" stroke-linecap="butt"/>
        <path d="M285.296,173.117c0,0 -1.876,0.166 -4.646,-0.11c-2.807,-0.281 -5.533,-1.385 -5.533,-1.385" fill="none" stroke="#231f20" stroke-width="1.2" stroke-linecap="butt"/>
        <path d="M245.35,139.212c2.84,0.7 3.887,1.469 3.887,1.469" fill="none" stroke="#000000" stroke-width="1" stroke-linecap="round"/>
        <path d="M226.898,138.684l6.058,4.358" fill="none" stroke="#000000" stroke-width="1" stroke-linecap="butt"/>
      </g>
      <g id="Layer_5" stroke-width="1" stroke-linecap="butt">
        <path d="M264.84,150.366c2.924,4.479 3.033,9.591 0.242,11.415c-2.793,1.825 -7.426,-0.332 -10.354,-4.813c-2.933,-4.48 -3.037,-9.589 -0.244,-11.415c2.791,-1.823 7.429,0.331 10.356,4.813z" fill="#ffffff" stroke="#231f20"/>
        <path d="M264.089,157.522c0,1.08 -0.802,1.956 -1.8,1.956c-0.993,0 -1.803,-0.877 -1.803,-1.956c0,-1.08 0.81,-1.958 1.803,-1.958c0.998,0 1.8,0.878 1.8,1.958" fill="#231f20" stroke="none"/>
      </g>
      <g id="Layer_7" stroke-width="1" stroke-linecap="butt">
        <path d="M240.867,153.619c2.926,4.48 2.619,9.862 -0.681,12.015c-3.302,2.159 -8.351,0.272 -11.276,-4.208c-2.928,-4.48 -2.624,-9.86 0.678,-12.017c3.303,-2.156 8.35,-0.272 11.279,4.21z" fill="#ffffff" stroke="#231f20"/>
        <path d="M239.079,159.507c0,1.081 -0.803,1.957 -1.801,1.957c-0.992,0 -1.803,-0.878 -1.803,-1.957c0,-1.08 0.811,-1.957 1.803,-1.957c0.996,0 1.801,0.877 1.801,1.957" fill="#231f20" stroke="none"/>
      </g>
      <path d="M252.766,162.926c1.854,0 4.555,-0.284 4.697,0.569c0.143,0.855 -1.709,4.203 -2.988,4.345c-1.283,0.142 -6.125,-2.353 -6.195,-3.919c-0.074,-1.566 2.775,-0.995 4.486,-0.995z" fill="#5e4a42" stroke="#000000" stroke-width="1" stroke-linecap="butt"/>
      <path d="M239.774,170.235c0,0 10.347,3.054 14.217,3.897c3.868,0.842 10.851,1.684 10.851,1.684c0,0 -7.99,10.245 -17.328,7.644c-9.338,-2.597 -9.169,-8.485 -7.74,-13.225z" fill="none" stroke="#231f20" stroke-width="1.2" stroke-linecap="butt"/>
      <path d="" fill="#ff0000" stroke="#824000" stroke-width="0.5" stroke-linecap="butt"/>
    </g>
  </g>
</svg>
