<?xml version="1.0"?>
<svg xmlns="http://www.w3.org/2000/svg" xmlns:xlink="http://www.w3.org/1999/xlink" version="1.1" width="207.08675" height="194.51676" viewBox="0,0,207.08675,194.51676">
  <g transform="translate(-87.35882,-75.86979)">
    <g data-paper-data="{&quot;isPaintingLayer&quot;:true}" fill="none" fill-rule="none" stroke="none" stroke-width="none" stroke-linecap="butt" stroke-linejoin="miter" stroke-miterlimit="10" stroke-dasharray="" stroke-dashoffset="0" font-family="none" font-weight="none" font-size="none" text-anchor="none" style="mix-blend-mode: normal">
      <path d="M238.9661,126.16081c2.687,-0.91795 6.16046,-0.72124 8.78193,-1.44249c0.39322,0.78682 0.45875,4.58974 0.39322,5.37655c-0.06554,0.78681 -0.26214,1.44249 -0.39322,2.22931c-0.06554,0.52454 -0.39323,0.91795 -0.78645,1.24579c-1.37627,1.11465 -3.14576,1.57362 -4.91525,1.31135c-0.85198,-0.06557 -1.57288,-0.59011 -1.90057,-1.37692c-0.45875,-1.31135 -1.44181,-5.83553 -1.17966,-7.34359z" id="Shape" fill="#ff0000" fill-rule="nonzero" stroke-width="1"/>
      <path d="M238.63842,133.43883c0.06554,0.85238 -0.45876,1.6392 -1.31073,1.90147c-1.31073,0.52454 -2.81808,0.52454 -4.12882,0c-0.58983,-0.26227 -1.04859,-0.65568 -1.31073,-1.24579c-0.45875,-0.98352 -0.7209,-1.96703 -0.78644,-3.01611c-0.06554,-0.52454 -0.78644,-4.39304 -0.52429,-4.98315l7.53672,0.45897c0.06554,0.39341 0.32769,3.80292 0.32769,4.13076c0.06554,0.91795 0.13107,1.8359 0.19661,2.75385z" id="Shape" fill="#ff0000" fill-rule="nonzero" stroke-width="1"/>
      <path d="M229.26667,132.06191c-0.06554,0.32784 -0.19661,0.65568 -0.39322,0.98352c-1.9661,0.45898 -3.47344,-0.19671 -4.71865,-1.6392c-0.65536,-0.85238 -1.04859,-1.77033 -1.24519,-2.81941c-0.13108,-0.32784 -0.98306,-3.54066 -0.65537,-3.8685c1.04859,0.32784 6.22599,1.18022 7.27458,1.57362c0.13108,1.96703 0.06553,3.93406 -0.26215,5.76996z" id="Shape" fill="#ff0000" fill-rule="nonzero" stroke-width="1"/>
      <path d="M254.89153,122.62015c0.19661,1.44249 0,5.76996 -0.39322,7.01575c-0.32769,1.11465 -1.24519,2.0326 -2.35932,2.42601c-0.65536,-0.19671 -1.31074,-0.52454 -1.76949,-0.98351c-0.13108,-0.13114 -0.26215,-0.26227 -0.39322,-0.45898c-0.32769,-0.59011 -1.11412,-5.57326 -1.04859,-6.49121c0.52429,-0.13114 4.58757,-1.50806 5.96384,-1.50806z" id="Shape" fill="#ff0000" fill-rule="nonzero" stroke-width="1"/>
      <path d="M261.64181,114.42418c-0.26214,2.68828 -1.11413,5.31099 -2.35933,7.73699c-1.44181,2.49157 -7.99548,4.32747 -10.68249,4.98315c-6.29153,1.50806 -8.58531,1.96704 -15.13898,1.50806c-5.37401,-0.39341 -13.04181,-1.77033 -16.38418,-6.42564c-3.14577,-4.39304 -3.47344,-11.80219 -2.687,-16.98205c0.54134,-3.48654 1.72897,-5.80224 3.62599,-7.41622c0.0158,-0.00084 0.03161,-0.00169 0.04741,-0.00253c-0.01261,0.01456 -0.00761,0.03289 0.02039,0.05575c1.33034,1.08608 5.20751,1.80834 6.67966,2.22655c3.26068,0.81517 6.7004,-0.60014 9.9601,-1.57482c-0.01599,0.05905 -0.01918,0.12366 -0.0072,0.19483c0.10469,0.62199 1.22792,-0.30765 1.85546,-0.37109c0.54398,-0.055 1.0854,0.12079 1.62995,0.18258c-0.32119,-0.02335 -0.9902,-0.05386 -0.82117,0.08413c1.57763,1.28795 4.90717,0.66967 6.87846,0.66967c4.25409,0 9.16876,-0.63376 12.88253,0.54799c0.35961,0.11443 0.78726,0.20923 1.22804,0.30724c2.61302,3.9478 3.80825,9.00336 3.27236,14.27541zM225.70427,123.04344c5.52284,0 10,-4.47715 10,-10c0,-5.52285 -4.47716,-10 -10,-10c-5.52284,0 -10,4.47715 -10,10c0,5.52285 4.47716,10 10,10zM250.19636,123.04344c5.52284,0 10,-4.47715 10,-10c0,-5.52285 -4.47715,-10 -10,-10c-5.52284,0 -10,4.47715 -10,10c0,5.52285 4.47716,10 10,10z" id="Shape" fill="#dcd2b4" fill-rule="nonzero" stroke-width="1"/>
      <path d="M240.14636,113.04344c0,-5.52285 4.52716,-10.05 10.05,-10.05c5.52284,0 10.05,4.52715 10.05,10.05c0,5.52285 -4.52715,10.05 -10.05,10.05c-5.52284,0 -10.05,-4.52715 -10.05,-10.05z" data-paper-data="{&quot;noHover&quot;:false,&quot;origItem&quot;:[&quot;Path&quot;,{&quot;applyMatrix&quot;:true,&quot;segments&quot;:[[[500.39271,246.08687],[-11.04569,0],[11.04569,0]],[[520.39271,226.08687],[0,11.04569],[0,-11.04569]],[[500.39271,206.08687],[11.04569,0],[-11.04569,0]],[[480.39271,226.08687],[0,-11.04569],[0,11.04569]]],&quot;closed&quot;:true}]}" fill="#ffffff" fill-rule="nonzero" stroke-width="0.5"/>
      <path d="M215.65427,113.04344c0,-5.52285 4.52716,-10.05 10.05,-10.05c5.52284,0 10.05,4.52715 10.05,10.05c0,5.52285 -4.52715,10.05 -10.05,10.05c-5.52284,0 -10.05,-4.52715 -10.05,-10.05z" data-paper-data="{&quot;noHover&quot;:false,&quot;origItem&quot;:[&quot;Path&quot;,{&quot;applyMatrix&quot;:true,&quot;segments&quot;:[[[451.40854,246.08687],[-11.04569,0],[11.04569,0]],[[471.40854,226.08687],[0,11.04569],[0,-11.04569]],[[451.40854,206.08687],[11.04569,0],[-11.04569,0]],[[431.40854,226.08687],[0,-11.04569],[0,11.04569]]],&quot;closed&quot;:true,&quot;fillColor&quot;:[1,1,1]}]}" fill="#ffffff" fill-rule="nonzero" stroke-width="0.5"/>
      <path d="" id="Shape" fill="#ffffff" fill-rule="nonzero" stroke-width="1"/>
      <path d="" id="Shape" fill="#ffffff" fill-rule="nonzero" stroke-width="1"/>
      <path d="" id="Shape" fill="#dcd2b4" fill-rule="nonzero" stroke-width="1"/>
      <path d="" id="Shape" fill="#dcd2b4" fill-rule="nonzero" stroke-width="1"/>
      <path d="" id="Shape" fill="#000000" fill-rule="nonzero" stroke-width="1"/>
      <path d="" id="Shape" fill="#000000" fill-rule="nonzero" stroke-width="1"/>
      <path d="M243.81582,122.09561c-0.19661,0.26227 -0.26215,1.77033 -2.03164,0.85238c-1.76949,-0.91795 -1.57288,-2.68828 -2.81808,-2.49157c-1.2452,0.1967 -1.57288,2.68828 -3.40791,2.68828c-1.83503,0 -1.31073,-2.29487 -1.11412,-3.34395c0.20244,-1.2152 0.52212,-2.39132 0.74779,-3.58872c0.27074,-0.81103 0.44039,-1.6683 0.49401,-2.55688c0.26253,-1.00014 0.61319,-1.98084 1.05199,-2.90276c0.26215,-0.85238 1.04859,-1.44249 1.9661,-1.37692c0.64735,0.09445 1.24752,0.54431 1.79194,1.22901c-0.19565,0.78064 -0.29954,1.59767 -0.29954,2.43896c0,3.06837 1.38195,5.81397 3.55739,7.64834c0.04855,0.52805 0.06977,1.00346 0.06207,1.40383z" id="Shape" fill="#c8bea0" fill-rule="nonzero" stroke-width="1"/>
      <path d="M220.55029,145.89671l2.75254,22.55531l-4.84972,1.24579c-5.11951,-0.84427 -6.95506,-18.45437 -7.37218,-23.42374c0.79077,-0.26589 1.53737,-0.62795 2.22589,-1.07227z" id="Shape" fill="#c8bea0" fill-rule="nonzero" stroke-width="1"/>
      <path d="M266.55706,146.0934c3.34238,6.42564 -2.62147,23.6044 -2.62147,23.6044l-6.35706,-2.75385l-0.39322,-19.9326z" id="Shape" fill="#aaa082" fill-rule="nonzero" stroke-width="1"/>
      <path d="M265.57401,224.31575c0.91751,2.36044 -0.06554,4.65531 -2.22825,5.50769c-1.76949,0.72125 -4.25989,0.06557 -4.98079,-1.96703c-0.39322,-1.18022 -0.13107,-2.49158 0.7209,-3.47509c0.19661,-0.26227 0.45876,-0.45897 0.72091,-0.65568c0.39322,-0.26227 0.78644,-0.45898 1.2452,-0.59011c1.17966,-0.19671 3.47345,-0.52454 4.52203,1.18022z" id="Shape" fill="#aaa082" fill-rule="nonzero" stroke-width="1"/>
      <path d="M257.11978,222.93883c0.65537,0.26227 0.98305,0.98351 0.72091,1.63919c0,0 0,0.06557 -0.06554,0.06557c-0.26214,0.59011 -0.91752,0.91795 -1.50735,0.65568c-0.32769,-0.19671 -0.58983,-0.52454 -0.58983,-0.91795c0,-0.13114 0,-0.1967 0,-0.32784c0,-0.13114 0.06554,-0.26227 0.13108,-0.39341c0.32769,-0.26227 0.7209,-0.85238 1.31073,-0.72125z" id="Shape" fill="#aaa082" fill-rule="nonzero" stroke-width="1"/>
      <path d="M260.13446,222.15202c-2.687,0.19671 -3.47345,0.1967 -4.98079,-3.99964c-1.17966,-3.27839 -0.13107,-8.26154 0.45876,-11.60549c0.58983,-3.47509 1.37627,-7.08131 -0.45876,-10.22857c-1.90057,-3.40953 -1.31073,-6.22894 0.65537,-8.72052c1.04859,-1.31135 6.22599,-1.8359 9.04407,1.90147c2.62147,3.40953 2.94916,10.88425 2.75254,14.35934c-0.19661,5.44213 -4.71865,18.0967 -7.47119,18.29341z" id="Shape" fill="#aaa082" fill-rule="nonzero" stroke-width="1"/>
      <path d="M262.49379,190.61392c1.2452,1.77033 0.06554,3.40952 -1.50734,4.13077c-1.37627,0.59011 -3.01469,0 -3.60452,-1.44249c0,-0.06557 -0.06553,-0.06557 -0.06553,-0.13114c-0.26214,-0.91795 -0.06554,-1.96703 0.52429,-2.75385c0.13108,-0.19671 0.32768,-0.39341 0.52429,-0.52454c0.26214,-0.19671 0.58983,-0.32784 0.91751,-0.45898c0.85197,-0.19671 1.9661,-0.65567 3.2113,1.18022z" id="Shape" fill="#dcd2b4" fill-rule="nonzero" stroke-width="1"/>
      <path d="M224.94125,222.87326c0.19661,0.65568 -0.26215,1.37693 -0.91752,1.50806h-0.06554c-0.65536,0.13114 -1.24519,-0.26227 -1.37627,-0.91795c-0.06554,-0.39341 0.13108,-0.78681 0.39322,-0.98352c0.06554,-0.06556 0.19661,-0.13114 0.26215,-0.13114c0.13108,-0.06557 0.26214,-0.06557 0.39322,-0.06557c0.39322,0 1.11413,0.06557 1.31074,0.59011z" id="Shape" fill="#c8bea0" fill-rule="nonzero" stroke-width="1"/>
      <path d="M215.96271,186.35202c2.75254,-2.29487 7.47119,-1.96704 10.09266,0.52454c2.22825,2.16374 1.57288,7.67143 -1.31073,8.52381c-3.2113,1.6392 -2.22825,4.0652 -1.63842,7.08132c0.65536,3.21282 0.65536,6.49121 1.04859,9.7696c0.26215,2.49158 0.85198,5.63883 -0.13107,8.06483c-0.65536,1.70476 -2.09718,2.36044 -3.67006,2.42601c-0.39322,0 -2.88361,-1.11465 -4.25988,-3.93406c-2.22825,-4.32747 -3.60452,-11.34322 -3.67005,-14.35934c-0.19661,-6.68791 0.78644,-15.80184 3.53898,-18.09671z" id="Shape" fill="#c8bea0" fill-rule="nonzero" stroke-width="1"/>
      <path d="M223.63051,189.0403c0.65536,1.90147 0.06554,3.60623 -1.50734,4.26191c-1.37627,0.59011 -3.01469,-0.00001 -3.60452,-1.4425c0,-0.06557 -0.06554,-0.06556 -0.06554,-0.13114c-0.26215,-0.91795 -0.06554,-1.96703 0.52429,-2.75384c0.13108,-0.19671 0.32769,-0.39341 0.5243,-0.52454c0.26215,-0.19671 0.58983,-0.32784 0.91751,-0.45898c1.04859,-0.26227 2.75254,0.06557 3.2113,1.04908z" id="Shape" fill="#f0e6d2" fill-rule="nonzero" stroke-width="1"/>
      <path d="M216.42147,229.03663c0,-0.19671 -0.06554,-0.52454 -0.13108,-0.78681c-0.13108,-2.42601 0.65537,-3.34395 3.2113,-3.99963c1.17966,-0.32784 2.35932,-0.06557 3.34237,0.65568c1.9661,1.70476 0.58983,4.91759 -1.63842,5.44213l-1.70395,0.45898c-1.17966,-0.19671 -2.35932,-0.52454 -3.08023,-1.77033z" id="Shape" fill="#c8bea0" fill-rule="nonzero" stroke-width="1"/>
      <path d="M283.97796,208.86498c0.42611,-5.51507 0.12422,-11.02591 -0.90564,-16.48072c-0.32768,-1.57362 -1.11412,-11.8022 5.96384,-12.52345c7.07797,-0.72125 5.1774,11.9989 5.1774,14.94945c0,5.01451 -0.11129,10.02901 -0.28258,15.04352M290.91419,208.91398c-0.01896,-2.20504 -0.043,-4.40499 -0.043,-6.629c0,-2.36044 1.04859,-8.19597 -2.42486,-8.91721l-0.91751,0.19671c-1.2452,1.11465 -1.17966,6.62234 -1.31074,8.26154c-0.17431,2.22344 -0.23271,4.44689 -0.19449,6.67034" id="Shape" fill="#c8bea0" fill-rule="nonzero" stroke-width="1"/>
      <path d="M293.89356,229.86718c-0.58211,4.09018 -2.03376,7.8067 -5.31616,10.51268l-1.31074,-0.06557c-2.76398,-3.67724 -3.90527,-8.17282 -4.24663,-12.88269M286.46412,228.44668c-0.01435,1.31195 0.04433,2.57946 0.27826,3.67164l1.17966,1.24579c0.52429,0.26227 1.11412,0.26227 1.63842,0.13114c0.47071,-1.26408 0.81031,-2.52583 1.05199,-3.78788" id="Shape" fill="#c8bea0" fill-rule="evenodd" stroke-width="1"/>
      <path d="M288.44633,168.45202c1.04859,3.99964 4.4565,16.45751 0.78644,19.67033c-2.09717,-0.26227 -2.62147,-4.58974 -2.88362,-6.2945c-0.86363,-5.51121 -2.65005,-11.63789 -4.63086,-17.28105c1.77755,-0.19312 3.41527,-0.85206 4.78855,-1.85222c1.02795,2.81763 1.72673,4.90602 1.93948,5.75744z" id="Shape" fill="#aaa082" fill-rule="nonzero" stroke-width="1"/>
      <path d="M272.52091,139.7989c1.44181,-0.26227 4.98079,2.68828 6.29152,3.8685c0.15285,0.34194 0.30527,0.68525 0.45718,1.02957c-1.85955,0.25215 -3.55671,1.01546 -4.94535,2.14378c-0.48507,-0.95122 -0.82132,-1.53517 -0.95138,-1.66529c-0.85197,-0.85238 -2.29379,-1.11465 -3.14576,-2.09817c-0.58983,-1.6392 1.2452,-2.55714 2.29379,-3.27839z" id="Shape" fill="#aaa082" fill-rule="nonzero" stroke-width="1"/>
      <path d="M282.22034,247.06777c-0.32768,-1.50806 0.19661,-3.08168 1.37627,-4.0652c0.52429,-0.39341 3.60452,-1.90147 5.11187,-1.11465c2.22261,1.08471 3.45872,4.32281 2.78105,6.26319c-0.63637,0.48544 -1.16597,1.03691 -1.60674,1.61861c-1.0935,0.58252 -2.55703,0.97303 -3.79579,0.57644c-1.63842,-0.52454 -3.01469,-2.49158 -3.86666,-3.27839z" id="Shape" fill="#c8bea0" fill-rule="nonzero" stroke-width="1"/>
      <path d="M287.33221,251.65751c0,0.65568 0.06554,1.24578 0.06554,1.83589c0.06554,1.6392 0.06554,3.21282 0.13108,4.85201c0,1.44249 -0.13108,2.81942 -0.52429,4.19634c-0.32768,1.18022 -0.91751,1.50806 -2.22825,1.24579c-0.32768,-0.26227 -0.32768,-0.65568 -0.32768,-0.98352c-0.13108,-1.77033 0,-3.4751 0.39322,-5.17986c0.26214,-1.04908 0.45875,-2.16373 0.7209,-3.27838c0.13108,-0.59011 0.32768,-1.11465 0.52429,-1.6392c0.13108,-0.59011 0.65537,-0.98351 1.2452,-1.04908z" id="Shape" fill="#c8bea0" fill-rule="nonzero" stroke-width="1"/>
      <path d="" id="Shape" fill="#c8bea0" fill-rule="nonzero" stroke-width="1"/>
      <path d="M282.48249,248.57583l1.17966,0.78681c0.06554,1.44249 0,2.95056 -0.26215,4.39305c-0.26214,1.50806 -0.45875,3.01611 -0.58983,4.52417c-0.06554,1.04908 -0.52429,2.03259 -1.31074,2.68827c-0.19661,-0.26227 -0.45875,-0.3934 -0.58983,-0.59011c-0.13108,-0.32784 -0.13108,-0.72125 -0.13108,-1.11465c0.26214,-3.47509 0.91752,-6.88462 1.44181,-10.35971c0.06554,0 0.13107,-0.06557 0.26214,-0.32784z" id="Shape" fill="#c8bea0" fill-rule="nonzero" stroke-width="1"/>
      <path d="M277.63277,252.64103c-0.45875,-0.39341 -0.58983,-1.04908 -0.45876,-1.6392c0.19661,-0.65568 0.32769,-1.37692 0.58983,-2.0326c0.26214,-0.78681 0.65537,-1.50806 0.91751,-2.29487c0.39322,-0.78681 0.85198,-1.50806 1.44181,-2.16374c0.26214,-0.26227 0.58983,-0.45898 0.91752,-0.65568c0.13108,0.26227 0.26214,0.52454 0.26214,0.85238c-0.06554,2.29487 -0.65537,4.52417 -1.57288,6.62234c-0.26214,0.91795 -1.17966,1.44249 -2.09717,1.31136z" id="Shape" fill="#c8bea0" fill-rule="nonzero" stroke-width="1"/>
      <path d="" id="Shape" fill="#dcd2b4" fill-rule="nonzero" stroke-width="1"/>
      <path d="M270.62034,138.35641c0.13108,1.37693 -1.70396,2.88498 -3.99774,3.60622c-2.29379,0.72125 -8.32316,-0.45897 -7.40565,-4.13076c2.55593,-1.83589 6.16046,-2.16374 6.4226,-2.42601c2.49039,0.19671 4.84972,1.50806 4.98079,2.95055z" id="Shape" fill="#dcd2b4" fill-rule="nonzero" stroke-width="1"/>
      <path d="M252.66328,194.22015c-0.26215,4.65531 -6.68475,3.99963 -10.09266,4.13077c-3.60452,0.13114 -8.78191,0.26228 -11.73107,-2.16373c-3.40791,-2.75385 -0.72091,-7.60586 -3.34238,-10.68754c-3.08023,-3.54066 -7.92995,-0.98352 -11.6,-1.8359c-0.45875,-5.96667 14.48361,-3.01612 17.62938,-2.88498c6.9469,0.19671 13.82825,-0.65568 20.70961,-1.44249c2.55593,-0.32784 5.96384,-1.11465 8.45424,-0.52454c2.49039,0.59011 4.4565,3.99964 1.31073,5.44213c-1.90056,0.85238 -5.30847,-0.91795 -7.60226,-0.45898c-3.86667,0.72125 -3.99774,3.21282 -3.73559,10.42527zM233.91978,185.95861c-0.39322,1.18022 0,5.44213 1.70396,6.88461c0.98305,0.85238 2.94916,0.85238 4.71865,1.11465c3.60452,0.52454 5.96384,-0.06557 6.68474,-3.01612c0.45875,-1.96704 0.26215,-2.62271 0.26215,-4.85201c0,-2.22931 -2.35932,-1.96704 -3.2113,-1.6392c-0.85198,0.32784 -0.06554,1.70476 -0.91752,2.36044c-0.65536,0.45898 -3.67005,0.98352 -4.52203,0.13114c-0.85198,-0.85238 0,-1.77033 -1.63842,-2.09817c-1.63842,-0.32784 -2.687,-0.06556 -3.08023,1.11465z" id="Shape" fill="#dcd2b4" fill-rule="nonzero" stroke-width="1"/>
      <path d="M233.91978,179.79524c0.13108,-1.04908 0.45875,-1.70477 1.04859,-1.8359c0.52429,-0.19671 1.04859,-0.32783 1.63842,-0.39341c1.57288,-0.19671 3.2113,0.06556 4.78418,0.06556c1.44181,-0.06557 2.88362,0 4.39096,0h0.7209c0.85198,1.37693 0.26215,3.4751 -0.52429,3.99964c-0.19661,0.06557 -0.32769,0.1967 -0.52429,0.26227c-0.98305,0.32784 -2.03164,0.45898 -3.01469,0.39341c-1.83503,0 -3.67006,-0.06557 -5.50509,-0.1967c-0.58983,0 -1.17966,-0.13114 -1.76949,-0.32784c-0.65536,-0.32784 -1.11412,-0.85238 -1.2452,-1.96703z" id="Shape" fill="#dcd2b4" fill-rule="nonzero" stroke-width="1"/>
      <path d="M232.60904,139.99561c0.13108,-1.04908 0.45875,-1.70477 1.04859,-1.8359c0.52429,-0.19671 1.04859,-0.32783 1.63842,-0.39341c1.57288,-0.19671 3.2113,0.06557 4.78418,0.06557c1.44181,-0.06557 2.88361,0 4.39096,0c0.26215,0 0.5243,0 0.72091,0c0.85198,1.37693 0.26215,3.47509 -0.52429,3.99963c-0.19661,0.06557 -0.32768,0.1967 -0.52429,0.26227c-0.98305,0.32784 -2.03164,0.45898 -3.01469,0.39341c-1.83503,0 -3.67006,-0.06557 -5.57063,-0.19671c-0.58983,0 -1.17966,-0.13113 -1.76949,-0.32784c-0.58983,-0.26227 -1.04859,-0.78681 -1.17966,-1.96703z" id="Shape" fill="#dcd2b4" fill-rule="nonzero" stroke-width="1"/>
      <path d="M180.57288,241.23224c0.06554,-1.04908 0.32769,-2.0326 0.85198,-2.95055c0.65536,-0.98352 1.63842,-1.70477 2.75254,-1.96704c0.91752,-0.26227 1.76949,0.13114 2.62147,0.59011c0.26215,0.19671 0.45876,0.45897 0.52429,0.78681c0.19661,0.85238 0.32769,1.70476 0.39322,2.55714c-0.13108,1.57362 -1.11413,2.95055 -2.62147,3.47509c-0.13108,0.06556 -0.26214,0.06557 -0.39322,0.06557c-1.11413,-0.06556 -2.22825,-0.32784 -3.27684,-0.72125c-0.65536,-0.26227 -0.91752,-0.85238 -0.85198,-1.83589z" id="Shape" fill="#aaa082" fill-rule="nonzero" stroke-width="1"/>
      <path d="M188.37175,257.95202l-1.50734,-0.19671c-0.39322,-0.3934 -0.65537,-0.91795 -0.65537,-1.50806c-0.26215,-2.36044 -0.52429,-4.72088 -0.7209,-7.01575c-0.13108,-1.04908 -0.13108,-2.09817 0,-3.08169c0,-0.52454 0.19661,-0.98351 0.58983,-1.31135c0.39322,-0.13114 0.65537,0.13114 0.85198,0.39341c0.65536,0.85238 1.04858,1.90147 1.17966,2.95055c0.13108,1.44249 0.52429,2.88497 0.65537,4.2619c0.06554,1.31135 0.06554,2.55714 0,3.8685c-0.13108,0.59011 -0.19661,1.11466 -0.39322,1.6392z" id="Shape" fill="#c8bea0" fill-rule="nonzero" stroke-width="1"/>
      <path d="M183.06328,259.3945c-0.65536,-0.3934 -0.98305,-1.04908 -0.98305,-1.77033c-0.06554,-0.91795 -0.13108,-1.83589 -0.19661,-2.75384c-0.19661,-1.96704 -0.26215,-3.86849 -0.19661,-5.83553c0,-0.85238 0.13107,-1.77033 0.19661,-2.62271c0,-0.59011 0.39322,-1.04909 0.98305,-1.18022c0.06554,0.13114 0.19661,0.26227 0.19661,0.45897c0.06554,0.59011 0.26215,1.11465 0.52429,1.6392c0.13108,0.19671 0.19661,0.45897 0.19661,0.72124c0.19661,1.96704 0.65537,3.93407 0.65537,5.96667c0,1.24579 -0.13107,2.49157 -0.39322,3.6718c-0.06554,0.65567 -0.45876,1.31135 -0.98306,1.70476z" id="Shape" fill="#c8bea0" fill-rule="nonzero" stroke-width="1"/>
      <path d="M180.17966,256.57509c-1.11413,-2.16374 -1.31073,-9.50732 -0.26215,-11.80219c0.58983,0.39341 0.91751,1.04908 0.91751,1.77033c0,1.44249 0,2.88498 0,4.32747c0,0.85238 0,1.77033 0.06554,2.62271c0.13108,1.11465 -0.13107,2.2293 -0.7209,3.08168z" id="Shape" fill="#c8bea0" fill-rule="nonzero" stroke-width="1"/>
      <path d="M192.82825,247.52674c-0.7209,-0.19671 -1.31074,-0.72124 -1.57288,-1.44249c-0.19661,-0.32784 -0.32769,-0.65568 -0.39322,-1.04908c-0.52429,-2.0326 -1.2452,-4.0652 -2.09717,-5.96667c-0.06554,-0.19671 -0.13107,-0.39341 -0.13107,-0.52454c0.26215,-0.06557 0.52429,-0.06557 0.7209,-0.06557c0.91752,0.13114 1.70395,0.65568 2.22825,1.50806c0.98305,1.70476 2.03164,3.40952 2.4904,5.37656c0.19661,1.24579 0.06554,1.57362 -1.24519,2.16374z" id="Shape" fill="#c8bea0" fill-rule="nonzero" stroke-width="1"/>
      <path d="M262.36271,269.42638l-1.4418,-0.26227c0,0 2.09717,-38.09487 4.4565,-39.14396c1.04859,0.45898 2.09718,0.98352 2.35932,3.14725c1.2452,10.29414 -5.37401,36.25898 -5.37401,36.25898z" id="Shape" fill="#aaa082" fill-rule="nonzero" stroke-width="1"/>
      <path d="M257.57853,230.15128l0.78644,0.39341c1.57288,5.9011 0.91751,12.78571 0.91751,18.88351c0,5.83553 0.06554,19.34249 0.06554,19.34249l-1.90057,0.39341l-1.50734,-2.81941c0.06554,0 -3.86667,-33.24286 1.63842,-36.19341z" id="Shape" fill="#aaa082" fill-rule="nonzero" stroke-width="1"/>
      <path d="M268.45763,270.08205c0,0 -7.79887,0.52454 -8.3887,0.19671c-1.2452,0 -2.42486,-0.19671 -3.60452,-0.65568l-0.52429,-3.27838c0.98305,-0.32784 1.90057,-0.65568 2.88362,-0.91795c0.06554,0.06557 -0.39323,3.27839 -0.26215,3.08168c0.65537,0.06557 9.6339,0.39341 9.6339,0.39341z" id="Shape" fill="#aaa082" fill-rule="nonzero" stroke-width="1"/>
      <path d="M222.05763,142.42161c4.06328,0.32784 8.12656,0.85238 12.18983,1.6392c0.39322,0.39341 0.52429,0.98352 0.32768,1.50806c-3.01469,1.96704 -8.25763,1.57362 -11.79661,1.77033c-3.66882,0.18986 -10.14611,1.66245 -13.42116,-0.65248c3.14108,-0.46129 5.80738,-2.38294 7.28718,-5.05325c2.16886,0.25456 4.2508,0.67471 5.41307,0.78815z" id="Shape" fill="#dcd2b4" fill-rule="nonzero" stroke-width="1"/>
      <path d="M210.45763,154.74835c-0.58983,-1.31135 -0.91751,-2.49157 -0.26215,-3.80293c6.9469,-1.37692 15.59774,-2.09817 22.6757,-1.37692c1.04859,1.31135 1.11413,1.50806 1.04859,2.68828c-6.88136,3.47509 -16.12203,4.98315 -23.46215,2.49157z" id="Shape" fill="#dcd2b4" fill-rule="nonzero" stroke-width="1"/>
      <path d="M213.21017,161.04286c4.12882,-1.11465 8.25763,-1.90147 12.51752,-2.42601c2.16271,-0.32784 7.53672,-2.62271 9.37175,-1.04908c0.32769,2.55714 -11.73108,5.83553 -13.50056,6.42564c-1.76949,0.59011 -5.57062,1.77033 -7.40565,1.18022c-2.16271,-0.72125 -1.4418,-2.2293 -0.98305,-4.13077z" id="Shape" fill="#dcd2b4" fill-rule="nonzero" stroke-width="1"/>
      <path d="M216.35593,169.6978c3.01469,-1.83589 6.88135,-2.49157 10.22373,-3.73736c2.88361,-1.04908 5.96384,-2.88498 9.10961,-2.75385c-1.2452,3.21282 -18.28475,11.53993 -19.33334,6.49121z" id="Shape" fill="#dcd2b4" fill-rule="nonzero" stroke-width="1"/>
      <path d="M213.66893,154.15824c1.63842,5.57326 3.47345,11.08095 5.63616,16.45751l-2.55593,-0.32784c-5.09738,-3.60997 -7.24164,-19.58885 -7.7013,-23.56067c1.15641,-0.13311 2.25279,-0.4635 3.25463,-0.95665c0.25692,2.81968 0.72429,5.60366 1.36644,8.38765z" id="Shape" fill="#dcd2b4" fill-rule="nonzero" stroke-width="1"/>
      <path d="M245.97853,153.6337l-0.72091,-1.31135c0.13108,-0.45898 0.32769,-0.91795 0.5243,-1.37692c2.42486,-1.90147 9.24068,-0.06557 12.05876,0.13114c3.14576,0.19671 6.16045,0.32784 9.24067,1.11465c0.58983,0.91795 0.91752,1.96703 1.04859,3.08168c-1.37627,3.21282 -7.79888,1.50805 -10.3548,1.24578c-4.06328,-0.32784 -8.06102,-1.31135 -11.79661,-2.88498z" id="Shape" fill="#dcd2b4" fill-rule="nonzero" stroke-width="1"/>
      <path d="M245.65085,145.83113c0.91752,-3.21282 7.1435,-2.0326 9.43729,-1.96703c3.9322,0.13114 7.86441,0.1967 11.73108,0.32783c3.93221,4.19634 -6.61921,4.32748 -7.92994,4.32748c-2.55593,-0.06557 -12.64859,1.04908 -13.23842,-2.68828z" id="Shape" fill="#dcd2b4" fill-rule="nonzero" stroke-width="1"/>
      <path d="M247.02712,157.76447c6.68474,0.52454 13.63163,2.42601 20.25084,3.8685l0.65537,0.98352c0.06554,0.85238 -0.13108,1.70476 -0.52429,2.49157c-2.42486,0.26227 -22.67571,-4.39304 -20.38192,-7.34359z" id="Shape" fill="#dcd2b4" fill-rule="nonzero" stroke-width="1"/>
      <path d="M247.22373,164.78022c0.65536,-2.88498 15.59774,3.14725 17.95706,3.93406l0.45876,1.31136c-1.04859,4.32747 -16.58079,-2.55714 -18.41582,-5.24542z" id="Shape" fill="#dcd2b4" fill-rule="nonzero" stroke-width="1"/>
      <path d="M265.44294,158.35458c0.32768,-3.40953 0.65536,-6.29451 0.26214,-8.58938c-0.19661,-1.77033 -0.78645,-3.40952 -1.63842,-4.91758l3.08023,0.06556c1.90056,2.95055 2.22825,12.39231 1.11412,18.16227c-1.11413,5.50769 -3.2113,7.80256 -3.2113,7.80256l-3.01469,-0.06556c0.45875,-1.50806 3.08023,-8.45824 3.40791,-12.45788z" id="Shape" fill="#dcd2b4" fill-rule="nonzero" stroke-width="1"/>
      <path d="M240.53899,145.24103c0.85198,9.11392 1.4418,18.81795 0.91751,27.80074c-0.58983,1.24579 -1.11413,1.50806 -1.90057,1.04908c-0.78644,-1.96704 -0.52429,-4.65532 -0.52429,-6.88462c0,-2.81941 -0.19662,-5.63882 -0.26215,-8.45824c-0.19661,-4.45861 -0.13107,-8.98279 0.13108,-13.50696z" id="Shape" fill="#c8bea0" fill-rule="nonzero" stroke-width="1"/>
      <path d="M235.49266,173.50074c0.26215,-3.6718 6.4226,-2.16374 8.97853,-2.0326c2.687,6.22894 -8.58531,5.90111 -8.97853,2.0326z" id="Shape" fill="#c8bea0" fill-rule="nonzero" stroke-width="1"/>
      <path d="M236.2791,166.22271c0.26215,-3.6718 5.63616,-2.16374 7.86441,-2.0326c2.42486,6.2945 -7.47119,5.9011 -7.86441,2.0326z" id="Shape" fill="#c8bea0" fill-rule="nonzero" stroke-width="1"/>
      <path d="M236.86893,159.66593c0.26215,-3.6718 5.24294,-3.99964 6.55367,-1.24579c2.03164,4.32747 -6.16045,5.11429 -6.55367,1.24579z" id="Shape" fill="#c8bea0" fill-rule="nonzero" stroke-width="1"/>
      <path d="M236.08249,152.71575c0.26215,-3.6718 5.24294,-3.99963 6.55367,-1.24579c2.03164,4.39304 -6.22599,5.17985 -6.55367,1.24579z" id="Shape" fill="#c8bea0" fill-rule="nonzero" stroke-width="1"/>
      <path d="M236.47571,146.55238c0.19661,-2.95055 4.25988,-3.21282 5.30847,-0.98352c1.63842,3.54066 -4.98079,4.19634 -5.30847,0.98352z" id="Shape" fill="#c8bea0" fill-rule="nonzero" stroke-width="1"/>
      <path d="M241.71865,173.10733c0.13108,0.65568 -0.26215,1.37693 -0.98305,1.50806h-0.06554c-0.65536,0.13114 -1.24519,-0.32784 -1.37627,-0.91795c-0.06554,-0.39341 0.13107,-0.78681 0.45875,-0.98352c0.06554,-0.06557 0.19661,-0.13114 0.26215,-0.13114c0.13108,-0.06557 0.26214,-0.06557 0.39322,-0.06557c0.39322,-0.06557 1.11413,0 1.31074,0.59011z" id="Shape" fill="#dcd2b4" fill-rule="nonzero" stroke-width="1"/>
      <path d="M241.65311,165.89487c0.13108,0.65568 -0.26215,1.37693 -0.98305,1.50806h-0.06553c-0.65536,0.13114 -1.24519,-0.32784 -1.37627,-0.91795c-0.06554,-0.39341 0.13107,-0.78681 0.45875,-0.98352c0.06554,-0.06557 0.19661,-0.13114 0.26215,-0.13114c0.13108,-0.06557 0.26215,-0.06557 0.39322,-0.06557c0.39322,-0.06557 1.11412,0 1.31073,0.59011z" id="Shape" fill="#dcd2b4" fill-rule="nonzero" stroke-width="1"/>
      <path d="M241.52204,159.01026c0.13108,0.65568 -0.26215,1.37693 -0.98305,1.50806h-0.06554c-0.65536,0.13114 -1.24519,-0.32784 -1.37627,-0.91795c0,-0.39341 0.13107,-0.78681 0.45875,-0.98352c0.06554,-0.06557 0.19662,-0.13114 0.26215,-0.13114c0.13108,-0.06557 0.26214,-0.06557 0.39322,-0.06557c0.45875,-0.06557 1.17966,0 1.31073,0.59011z" id="Shape" fill="#dcd2b4" fill-rule="nonzero" stroke-width="1"/>
      <path d="M240.99774,152.06008c0.13108,0.65568 -0.26215,1.37692 -0.98305,1.50805h-0.06554c-0.65536,0.13114 -1.2452,-0.32783 -1.37627,-0.91795c-0.06554,-0.39341 0.13108,-0.78681 0.45876,-0.98352c0.06554,-0.06557 0.19661,-0.13114 0.26215,-0.13114c0.13108,-0.06557 0.26214,-0.06556 0.39322,-0.06556c0.39322,-0.06557 1.11413,0 1.31073,0.59011z" id="Shape" fill="#dcd2b4" fill-rule="nonzero" stroke-width="1"/>
      <path d="M240.67006,146.02784c0.13108,0.65568 -0.26215,1.37692 -0.98305,1.50806h-0.06554c-0.65536,0.13114 -1.24519,-0.32783 -1.37627,-0.91795c-0.06554,-0.39341 0.13107,-0.78681 0.45875,-0.98352c0.06554,-0.06557 0.19661,-0.13114 0.26215,-0.13114c0.13108,-0.06557 0.26214,-0.06557 0.39322,-0.06557c0.39322,-0.06557 1.17966,0 1.31073,0.59011z" id="Shape" fill="#dcd2b4" fill-rule="nonzero" stroke-width="1"/>
      <path d="M216.02825,234.08535c0.26215,-0.72125 0.39322,-1.31136 0.98305,-1.57363c0.65536,-0.06557 1.11413,0.32784 1.63842,0.65568c4.39096,10.55641 5.50508,23.07986 7.66779,34.22638h-1.2452c-2.4904,-4.19633 -3.4079,-8.26154 -4.52203,-12.91685c-1.50734,-6.81905 -3.53898,-13.37582 -4.52203,-20.39157z" id="Shape" fill="#c8bea0" fill-rule="nonzero" stroke-width="1"/>
      <path d="M226.71074,266.9348c0,0 2.55593,-0.91795 2.4904,-1.04908c0.39322,0.65568 0.45875,1.44249 0.26215,2.16373c-0.19661,0.45898 -1.57288,0.59011 -3.40791,0.59011c-1.57288,0 -4.39095,0.32784 -5.83276,-0.39341c0,-0.13113 -0.06554,-0.32784 -0.13108,-0.52454c0.58983,-0.59011 1.9661,-0.45898 2.75254,-0.52454z" id="Shape" fill="#c8bea0" fill-rule="nonzero" stroke-width="1"/>
      <path d="M225.00678,232.18389c1.37627,-0.39341 1.7695,6.03223 2.22825,8.91721c0.45875,3.34395 0.91752,6.68791 1.17966,10.03187c0.32769,3.60622 0.85197,14.75275 0.85197,14.75275l-0.91751,1.90146l-1.50734,-0.13113l-3.01469,-31.14469c-0.06554,0 -0.19661,-3.93407 1.17966,-4.32747z" id="Shape" fill="#c8bea0" fill-rule="nonzero" stroke-width="1"/>
      <path d="M186.22889,203.2393c0.8873,-3.11984 1.69713,-6.2492 2.40501,-9.41255c0.45875,-2.22931 1.17966,-4.58974 0.85197,-6.81905c-0.32769,-2.42601 -1.90056,-10.81867 6.16046,-11.01538c8.06101,-0.19671 1.11412,14.35933 0.65536,15.99853c-1.31686,4.52527 -1.98346,9.4509 -2.87379,14.16479M192.05673,205.01265c1.21528,-5.04581 4.46584,-18.12801 1.49243,-19.11961c-2.29379,0.52454 -3.60452,7.47472 -4.12882,9.44176c-0.65367,2.61595 -1.1743,5.29845 -1.65665,8.00009" id="Shape" fill="#dcd2b4" fill-rule="nonzero" stroke-width="1"/>
      <path d="M191.35225,221.9099c-0.08601,0.62791 -0.18257,1.25509 -0.29349,1.88131c-0.98305,5.04872 -1.11412,9.70403 -6.88135,10.42527c-3.22875,-3.23028 -2.22195,-7.57879 -1.8285,-11.81881M183.70075,222.87856c-0.15154,1.60797 -0.0187,3.10628 0.7388,4.12547l2.22825,0.59011c0.99364,-1.18051 1.45764,-2.83202 1.74054,-4.56401" id="Shape" fill="#dcd2b4" fill-rule="evenodd" stroke-width="1"/>
      <path d="M194.59774,181.5l-0.78644,-0.19671c-1.90057,-5.44213 0.85198,-12.78571 2.03164,-18.03113c0.85198,-3.8685 1.57288,-7.737 2.4904,-11.6055c0.53056,-2.2825 1.14703,-5.46742 2.40576,-7.88488c1.05214,1.07672 2.34539,1.91681 3.79246,2.43297c-1.26507,9.7169 -5.6944,27.58372 -9.93382,35.28525z" id="Shape" fill="#c8bea0" fill-rule="nonzero" stroke-width="1"/>
      <path d="M196.89153,179.59854c0.7209,1.70476 0,3.73736 -1.70396,4.58974c-1.37627,0.59011 -3.01469,0 -3.60452,-1.44249c0,-0.06557 -0.06553,-0.06557 -0.06553,-0.13114c-0.26215,-0.91795 -0.06554,-1.96703 0.52429,-2.75385c0.13108,-0.19671 0.32768,-0.39341 0.52429,-0.52454c0.26215,-0.19671 0.58983,-0.32784 0.91751,-0.45898c1.17966,-0.13114 2.35933,0.13114 3.40791,0.72125z" id="Shape" fill="#c8bea0" fill-rule="nonzero" stroke-width="1"/>
      <path d="M291.52655,184.77839c0.85197,2.29487 -0.13108,4.78644 -2.09717,5.63882c-1.70396,0.72125 -3.73559,-0.06557 -4.4565,-1.77033c0,-0.06557 -0.06553,-0.13114 -0.06553,-0.13114c-0.32768,-1.18022 -0.13108,-2.42601 0.65536,-3.34395c0.19661,-0.26227 0.39323,-0.45897 0.65537,-0.65568c0.32768,-0.26227 0.72091,-0.45898 1.11413,-0.59011c1.44181,-0.19671 2.94915,0.13114 4.19435,0.85238z" id="Shape" fill="#aaa082" fill-rule="nonzero" stroke-width="1"/>
      <path d="M230.44078,117.03776c-1.76776,1.76776 -3.53554,0 -3.53554,0v-0.74218c-2.49203,-2.49203 -4.95819,-5.22628 -7.78301,-7.10949c0,0 -2.08013,-1.38675 -0.69338,-3.46688c1.38675,-2.08012 3.46688,-0.69338 3.46688,-0.69338c1.92976,1.28651 2.81636,2.81637 4.4043,4.4043c1.07636,1.07636 2.92254,2.11169 4.14075,3.3299v0.74218c0,0 1.76776,1.76777 0,3.53553z" fill="#000000" fill-rule="nonzero" stroke-width="0.5"/>
      <path d="M219.49335,117.49655c0,-1.38071 1.11929,-2.5 2.5,-2.5c1.38071,0 2.5,1.11929 2.5,2.5c0,1.38071 -1.11929,2.5 -2.5,2.5c-1.38071,0 -2.5,-1.11929 -2.5,-2.5z" fill="#000000" fill-rule="nonzero" stroke-width="0.5"/>
      <path d="M253.1651,113.31689c-1.25108,0 -2.28753,-0.91899 -2.47111,-2.11874c-0.58282,0.04377 -1.16361,0.10519 -1.73868,0.1913l0.04073,0.334l0.02604,0.08976c0,0 -0.00511,0.00064 -0.01489,0.00163l0.00394,0.03225c-2.89389,0.82682 -4.88624,1.63398 -7.33547,3.1162c-0.51406,0.39469 -1.02604,0.78885 -1.53854,1.16079c-0.23631,0.23295 -0.47453,0.45419 -0.72865,0.57783l0.03098,0.06197l-2.92375,1.46188c-0.34741,0.18291 -0.74312,0.28642 -1.16302,0.28642c-1.38071,0 -2.5,-1.11929 -2.5,-2.5c0,-0.90175 0.47744,-1.692 1.19332,-2.13175l2.07365,-1.3196c0.20218,-0.80844 1.4061,-0.89479 2.10915,-1.34219v0c0.76476,-0.48667 1.50541,-0.92459 2.24051,-1.32349c0.64061,-0.46671 1.29214,-0.92258 1.97897,-1.33845c2.81598,-1.70504 6.01169,-2.24466 9.23246,-2.40419v-0.06218h1.01563l1.49432,-1.49432l1.93451,1.9345c0.54135,0.34518 1.02428,0.96103 1.02428,2.05982c0,1.40763 -0.79257,2.02269 -1.4852,2.29144c-0.03441,1.35072 -1.14016,2.43511 -2.49917,2.43511z" fill="#000000" fill-rule="nonzero" stroke-width="0.5"/>
      <path d="M246.21199,116.01218c0,-1.38071 1.11929,-2.5 2.5,-2.5c1.38071,0 2.5,1.11929 2.5,2.5c0,1.38071 -1.11929,2.5 -2.5,2.5c-1.38071,0 -2.5,-1.11929 -2.5,-2.5z" fill="#000000" fill-rule="nonzero" stroke-width="0.5"/>
      <path d="M87.38451,233.27733c0,-0.25412 0.02582,-0.4824 0.07223,-0.68748l-0.09792,-0.34273l0.22823,-0.06521c0.59524,-1.40458 2.29745,-1.40458 2.29745,-1.40458h2.96873c0.31597,0 0.61826,0.05862 0.89657,0.16558c0.71716,0.24366 1.60343,0.84591 1.60343,2.33442c0,1.48852 -0.88627,2.09076 -1.60343,2.33443c-0.08548,0.03285 -0.17321,0.06114 -0.26291,0.08456l-4.75448,1.35843l-0.53398,-1.86893c-0.45009,-0.36485 -0.81394,-0.95474 -0.81394,-1.90849z" fill="#ffffff" fill-rule="nonzero" stroke-width="0.5"/>
      <path d="M101.48602,121.20747c0,-1.38071 1.11929,-2.5 2.5,-2.5c1.38071,0 2.5,1.11929 2.5,2.5c0,1.38071 -1.11929,2.5 -2.5,2.5c-1.38071,0 -2.5,-1.11929 -2.5,-2.5z" fill="#ffffff" fill-rule="nonzero" stroke-width="0.5"/>
      <path d="M262.65959,93.74664c0.01336,0.038 0.02662,0.07606 0.0398,0.11417c0.08324,-0.06474 0.16731,-0.12929 0.25221,-0.19371c-0.07133,-0.05183 -0.1423,-0.10221 -0.21279,-0.14948c-0.0261,0.07654 -0.05246,0.1529 -0.07922,0.22902zM238.95816,110.642c-1.1901,0.20107 -5.43861,1.23953 -6.57423,0.44833c-1.25716,-0.87587 -2.04225,-2.28466 -3.06338,-3.42698c-0.97255,-2.43137 -1.0038,-4.56217 -0.3499,-6.38726c-0.4076,-0.03253 -0.81884,-0.04724 -1.15903,-0.2538c-0.21162,-0.12849 0.26916,-0.74237 0.02158,-0.74242c-0.446,-0.0001 -0.67296,0.67125 -1.11328,0.74218c-1.48188,0.23871 -3.03904,0.50622 -4.50003,0.16206c-0.27809,-0.06551 -0.48319,-0.25788 -0.6501,-0.51037c-0.45491,0.47349 -1.09454,0.76818 -1.803,0.76818c-1.38071,0 -2.5,-1.11929 -2.5,-2.5c0,-0.24589 0.0355,-0.48349 0.10165,-0.70795c0.10729,-0.39663 0.24897,-0.92044 0.40433,-1.49479c-0.01332,-0.01758 -0.02641,-0.03534 -0.03927,-0.05328c-0.45723,-0.58988 -0.86379,-1.56439 -0.0859,-2.78182c0.02281,-0.03635 0.04653,-0.07208 0.07113,-0.10715c0.34164,-0.49566 0.72346,-0.78628 1.10491,-0.94281c0.00231,-0.00853 0.0046,-0.017 0.00687,-0.02541c0.00639,-0.02348 0.01277,-0.04697 0.01914,-0.07046c-0.72232,-0.21682 -1.43227,-0.45841 -2.06113,-0.86232c-0.5903,-0.37915 -0.19822,-1.45766 -0.63505,-2.00665c-0.2777,-0.34899 -1.02373,-0.30527 -1.11328,-0.74218c-0.0646,-0.31519 1.20126,-0.3832 0.87981,-0.39695c-4.92235,-0.21057 -6.55174,2.10665 -8.62394,-4.55429c-0.13249,-0.42587 0.41673,-0.80833 0.74218,-1.11328c0.87442,-0.8193 1.75787,-1.67622 2.82231,-2.22653c0.19641,-0.10154 2.22151,0.06247 2.58808,0.02915c1.86275,-0.1693 3.1949,-0.72082 5.16605,-0.56438c0.83072,0.06593 1.86278,0.05298 2.40381,0.6868c0.06007,0.07037 0.08382,0.14916 0.08256,0.23389c0.17923,0.11334 0.34306,0.24883 0.48763,0.40263c0.1393,-0.34067 0.2731,-0.67659 0.39511,-0.8905c1.20722,-2.11644 2.08277,-4.01823 4.59847,-4.64715c2.83635,-0.4668 5.14614,-0.25092 7.93057,0.71632c0.71537,0.2485 2.33982,1.23966 3.1518,2.17594c0.56605,-0.55352 1.20518,-1.12589 1.86763,-1.43375c0.94372,-0.43858 1.88149,-0.97636 2.91102,-1.12804c0.74439,-0.10967 1.48442,0.24709 2.22655,0.37109c2.62832,0.43917 7.16975,0.20436 9.04932,2.39486c0.00917,0.01068 0.01832,0.02137 0.02747,0.03207c0.73734,0.0686 1.47361,0.13168 2.20272,0.1367l1.6688,0c1.38071,0 2.5,1.11929 2.5,2.5c0,1.28702 -0.97254,2.3469 -2.22282,2.48481l-1.38353,0.17294c-0.18917,0.31322 -0.48106,0.72555 -0.80572,1.15123c5.69821,1.18847 12.44773,2.80163 13.80265,9.32379c0.1258,0.60556 -0.98921,0.74268 -1.48437,1.11328c-0.68676,0.514 -2.59342,1.46747 -3.21092,2.09765c-2.91269,2.9725 -3.17876,7.69181 -6.9434,9.85767c-0.54671,0.31453 -1.23822,-0.2413 -1.85546,-0.37109c-1.9507,-0.41018 -3.76007,-1.05943 -5.56534,-1.81047c-2.59911,3.55551 -6.93463,3.98068 -11.49113,4.75052zM226.59167,83.56603c-0.00448,-0.20845 -0.00591,-0.41672 -0.00532,-0.62423c-0.1153,0.21497 -0.24046,0.43858 -0.3696,0.6601c0.12436,-0.01145 0.24935,-0.02345 0.37492,-0.03586zM226.31061,81.32831c-0.14181,0.13024 0.24823,0.04393 0.55583,0.04257c0.04755,-0.10406 0.09728,-0.20776 0.14568,-0.31162c-0.26378,0.03408 -0.51273,0.09568 -0.70151,0.26905z" fill="#ff7777" fill-rule="nonzero" stroke-width="0.5"/>
    </g>
  </g>
</svg>
