<?xml version="1.0"?>
<svg xmlns="http://www.w3.org/2000/svg" xmlns:xlink="http://www.w3.org/1999/xlink" version="1.1" width="212.51476" height="151.4676" viewBox="0,0,212.51476,151.4676">
  <g transform="translate(-105.3435,-115.42498)">
    <g data-paper-data="{&quot;isPaintingLayer&quot;:true}" fill="none" fill-rule="nonzero" stroke="none" stroke-width="none" stroke-linecap="butt" stroke-linejoin="miter" stroke-miterlimit="10" stroke-dasharray="" stroke-dashoffset="0" font-family="none" font-weight="none" font-size="none" text-anchor="none" style="mix-blend-mode: normal">
      <path d="M239.24138,225.24907c-0.37725,3.7354 -1.27084,5.85631 -2.82171,7.11288c-0.65086,-0.13316 -1.32475,-0.20309 -2.01497,-0.20309c-2.01877,0 -3.89782,0.5982 -5.46956,1.62702c-0.27484,-0.09105 -0.54643,-0.20441 -0.81445,-0.34241c-3.42673,-1.79253 -4.13793,-6.78598 -5.88362,-10.05093c-3.49138,-0.96028 -3.03879,2.68878 -8.01724,2.68878c-8.66379,0 -8.59914,-4.54533 -10.21552,-17.54112c-1.61638,-12.99579 34.00862,-8.96261 34.00862,-8.96261c0,0 1.81034,19.97383 1.22845,25.67149z" id="Shape" fill="#00a0b4" stroke="none" stroke-width="1"/>
      <path d="M217.96983,248.42383c-1.03448,-0.83225 -1.42242,-2.75281 -1.93966,-3.90514c-2.26293,0.25608 -0.45258,3.20094 -0.96982,4.48131c-0.96983,-1.08832 -0.84052,-3.45701 -2.00431,-4.28925c-1.22845,0.06402 -0.32328,3.39299 -0.64655,4.22523l-0.71121,-0.12804c-3.29742,-4.28925 -5.30172,-37.13084 -5.56034,-43.40467l11.18534,-0.57617c0.90517,8.25841 1.61639,41.86822 0.64656,43.59673z" id="Shape" fill="#78c8c8" stroke="none" stroke-width="1"/>
      <path d="M215.06035,226.97757c-2.84483,0.12804 -2.58621,-3.84112 0.12931,-3.96916c2.32758,-0.12804 2.71552,3.84112 -0.12931,3.96916z" id="Shape" fill="#aadcdc" stroke="none" stroke-width="1"/>
      <path d="M211.05173,231.97103c-1.55173,0.06402 -1.42242,-2.11262 0.06465,-2.17664c1.2931,0 1.48707,2.11262 -0.06465,2.17664z" id="Shape" fill="#aadcdc" stroke="none" stroke-width="1"/>
      <path d="M245.18966,222.43225c-1.22845,-3.26495 0.25862,-19.20561 0.25862,-19.20561l25.6681,2.88084c0,0 0.90517,8.38645 1.03448,11.01121c0.32328,11.90748 -3.55604,13.50795 -6.2069,13.44393c-3.68534,-0.12804 -9.56896,-7.5542 -10.79741,-10.17897c-1.48707,-3.26495 -7.62931,-1.15233 -9.9569,2.0486z" id="Shape" fill="#00a0b4" stroke="none" stroke-width="1"/>
      <path d="M270.01724,223.77664c0.06466,3.96916 -0.12931,7.93832 -0.5819,11.84346c-0.25862,2.24066 -0.51724,8.8986 -2.65086,10.37103c-1.03449,-0.44813 0,-2.62476 -1.29311,-3.39299c-1.42242,1.34439 -0.64655,4.99346 -2.78017,5.76169c-0.84051,-1.60047 0.38794,-4.03317 -0.90517,-5.37757h-0.5819c-1.03449,1.15233 -0.64655,3.07289 -1.93965,4.22523c-0.90517,-1.66449 -0.96983,-36.42663 -0.96983,-40.71588l10.60345,4.60934c1.03449,3.7771 1.09913,8.77056 1.09913,12.6757z" id="Shape" fill="#78c8c8" stroke="none" stroke-width="1"/>
      <path d="M262.96983,239.01309c-3.94396,0.51215 -4.07328,-11.52337 -0.32328,-12.09954c3.23276,-0.44813 4.26725,11.58739 0.32328,12.09954z" id="Shape" fill="#aadcdc" stroke="none" stroke-width="1"/>
      <path d="M226.31035,172.04954v-21.19019h27.99569v21.19019z" id="Rectangle-path" fill="#006482" stroke="none" stroke-width="1"/>
      <path d="M246.61207,151.43552c0,0 0.19397,3.20093 -0.51724,4.67336c-0.71121,1.47243 -2.26293,1.40841 -4.13793,0.70421c-1.875,-0.70421 -1.16379,-4.60934 -1.16379,-4.60934z" id="Shape" fill="#ffffff" stroke="none" stroke-width="1"/>
      <path d="M251.84914,171.98552c-0.90517,4.86542 -6.65948,8.70654 -14.87069,7.23411c-6.46552,-1.15233 -11.37931,-3.64907 -10.47414,-8.32243c1.03448,-5.1215 7.43534,-7.93832 14.87069,-6.78598c8.0819,1.15233 12.09052,1.79253 10.47414,7.8743z" id="Shape" fill="#000000" stroke="none" stroke-width="1"/>
      <path d="M275.44828,206.93972c-0.19396,4.60934 0.06465,11.33131 -2.52155,15.36449c-2.58621,4.03318 -7.82328,3.32897 -10.73276,0c-2.39224,-2.68878 -3.42672,-11.58738 -10.60345,-11.01121c-7.17673,0.57617 -0.90517,14.98038 -9.375,18.30935c-4.13793,1.60047 -10.21552,-1.28037 -12.73707,-4.73738c-1.35776,-1.85654 0,-8.32243 -5.17242,-8.8986c-5.17242,-0.57617 -6.85345,4.48131 -10.47414,5.1215c-7.88793,1.40841 -10.28017,-13.37991 -10.60344,-21.31823c-0.11444,-2.49281 -0.24575,-4.94662 -0.35743,-7.3828c6.36208,0.31442 15.03153,0.04011 18.8254,-5.06792c0.41191,-0.55459 -0.14941,-1.43103 0.11496,-2.06927c0.26436,-0.63823 1.28101,-0.86107 1.3819,-1.54448c0.55174,-3.7374 -1.02119,-8.54785 -3.73237,-11.19712c-0.51442,-0.50267 -1.49373,-0.06216 -2.11581,-0.42316c-0.62208,-0.361 -0.72548,-1.42984 -1.41714,-1.62709c-4.52437,-1.29024 -5.00787,1.06247 -8.51567,0.56991c-1.54128,-0.21642 -2.90863,-0.42449 -4.24169,-0.58999c0.45814,-9.86864 0.27568,-20.14331 2.39187,-29.85998c1.30969,0.62976 2.7777,0.9826 4.32813,0.9826c2.9665,0 5.63131,-1.29171 7.46265,-3.34336c0.01975,-0.01219 0.0396,-0.02443 0.05955,-0.03671c0.02399,-0.01477 2.94427,3.58311 3.01057,3.66045c0.96724,1.12845 3.40503,2.83345 4.94844,3.22465c3.39566,0.86069 7.81175,1.96979 11.11445,0.20835c0.8696,-0.46379 3.57005,-2.68209 4.62971,-2.59799c1.39107,0.11041 1.89399,2.28015 3.09114,2.97081c1.72808,0.99697 4.96106,1.95751 6.83363,2.37018c2.78413,0.61355 5.12592,0.46507 7.82681,-0.17252c0.96159,-0.227 1.99186,-1.28772 2.85309,-0.80348c4.17681,2.34846 9.08899,4.76489 13.25804,1.98211c0.7373,5.60588 0.83058,11.21348 0.82143,16.85047c-0.61464,0.03386 -1.2345,0.16714 -1.85999,0.43177c-4.85192,2.05282 -6.90582,5.2754 -9.35145,9.35145l0.0315,0.11552c-0.31244,1.40598 -0.41339,2.82166 -0.30872,4.20941c-0.00004,0.01233 -0.00007,0.02467 -0.00007,0.03701c0,1.92918 0.54629,3.73077 1.49261,5.25851c1.28848,2.50777 3.37694,4.7004 6.21768,6.27187c0.98718,0.5461 3.22872,0.29039 4.42033,0.46532c-0.10352,4.96317 -0.75687,10.04747 -0.99373,14.92557zM240.21121,153.1c-6.72414,-0.38411 -10.73275,3.7771 -10.15086,8.77056c0.5819,4.99346 4.65517,7.42617 9.50431,7.42617c4.84914,0 10.02155,-1.66449 10.21552,-7.49019c0.19396,-5.8257 -3.23276,-8.25841 -9.56896,-8.70654z" id="Shape" fill="#aadcdc" stroke="none" stroke-width="1"/>
      <path d="" id="Shape" fill="#78c8c8" stroke="none" stroke-width="1"/>
      <path d="M216.93535,158.47757c-0.51724,-0.38411 -0.77586,-0.96028 -0.71121,-1.53645c-0.12931,-0.51215 0.06465,-1.08831 0.51724,-1.40841c0.64655,0.19206 0.84052,0.38411 0.90517,1.08832c0.06465,0.70421 0.12931,1.47243 -0.7112,1.85654z" id="Shape" fill="#000000" stroke="none" stroke-width="1"/>
      <path d="M261.87069,157.45327c-0.71121,-0.70421 -0.71121,-1.85654 0,-2.56074v0c0.32328,-0.06402 0.51724,0.12803 0.64655,0.38411c0.32328,0.44813 0.38793,1.0243 0.19396,1.53645z" id="Shape" fill="#000000" stroke="none" stroke-width="1"/>
      <path d="M268.14224,202.45841c4.00862,0.25608 5.04311,16.13271 1.22845,15.94066c-3.29742,-0.19206 -4.20259,-2.0486 -4.39655,-4.22523c-0.38793,-5.1215 -0.84052,-11.9715 3.1681,-11.71542z" id="Shape" fill="#78c8c8" stroke="none" stroke-width="1"/>
      <path d="M258.05604,200.60187c4.00862,0.19206 5.04311,8.06636 1.22845,8.00234c-3.29742,-0.12804 -4.20259,-1.02429 -4.39656,-2.11262c-0.38793,-2.56075 -0.84052,-6.08178 3.1681,-5.88972z" id="Shape" fill="#78c8c8" stroke="none" stroke-width="1"/>
      <path d="M271.24569,200.60187c-3.49986,0.28405 -3.6903,-8.05254 -1.02312,-10.202c0.56142,0.41199 1.1613,0.79613 1.7991,1.14895c0.36211,0.20032 0.893,0.29275 1.47894,0.33812c1.09686,3.03 0.5459,8.4876 -2.25492,8.71492z" id="Shape" fill="#00a0b4" stroke="none" stroke-width="1"/>
      <path d="M222.81897,212.7014c-3.94396,0.19206 -3.68534,-5.31355 0.12931,-5.50561c3.29742,-0.12804 3.81465,5.31355 -0.12931,5.50561z" id="Shape" fill="#006482" stroke="none" stroke-width="1"/>
      <path d="" id="Shape" fill="#78c8c8" stroke="none" stroke-width="1"/>
      <path d="M251.13793,196.56869c-2.78017,0.12804 -2.58621,-3.84112 0.12931,-3.96916c2.39224,-0.12804 2.65086,3.84112 -0.12931,3.96916z" id="Shape" fill="#78c8c8" stroke="none" stroke-width="1"/>
      <path d="M228.70259,186.58178c-2.78017,0.12804 -2.58621,-3.84112 0.12931,-3.96916c2.32758,-0.12804 2.65086,3.84112 -0.12931,3.96916z" id="Shape" fill="#00a0b4" stroke="none" stroke-width="1"/>
      <path d="M212.47414,192.27944c6.2069,0.38411 7.82327,23.81496 1.875,23.49486c-5.10776,-0.25608 -6.59483,-2.94486 -6.85345,-6.20982c-0.5819,-7.5542 -1.22844,-17.66915 4.97845,-17.28504z" id="Shape" fill="#78c8c8" stroke="none" stroke-width="1"/>
      <path d="M211.60088,142.96224l7.41124,15.96267" fill="none" stroke="#000000" stroke-width="0.5"/>
      <path d="M255.49824,155.50434l2.17876,-7.40778" fill="none" stroke="#000000" stroke-width="0.5"/>
      <path d="M224.4597,245.75679l-51.2142,8.19427" fill="none" stroke="#824000" stroke-width="0.5"/>
      <path d="M301.63516,217.85646c-0.58428,-0.09978 -0.60173,1.36454 -1.19272,1.31891c-1.66172,-0.12831 -2.6029,-2.08232 -3.90434,-3.12348c-1.96669,-1.57335 -3.79158,-3.77123 -5.75145,-5.65137c-0.16545,0.03448 -0.33691,0.0526 -0.51259,0.0526c-0.84535,0 -1.59271,-0.41958 -2.04518,-1.06185l-1.41815,-1.9623c-1.98496,-1.0526 -5.68698,-1.02011 -6.94444,-3.03307c-1.41038,-2.25776 -2.65654,-7.0993 -3.33497,-9.81736c-0.23746,-0.95136 -0.23099,-2.24106 -0.37417,-3.47777c-0.42982,-1.13053 -0.90487,-2.24422 -1.47664,-3.3196c-0.69514,-0.48623 -1.62351,-0.62991 -2.32598,-1.12184c-0.35407,-0.24795 -0.70558,-0.50012 -1.05519,-0.75538c-1.13246,-0.23673 -2.23165,-0.53678 -3.12001,-1.17635c-1.14134,-0.8217 -3.55462,-1.75359 -2.94516,-3.02103l-0.5476,-1.09521c-0.11747,-0.22313 -0.2022,-0.46619 -0.24779,-0.72278c-0.6004,-0.3239 -1.17883,-0.948 -1.17883,-2.15053c0,-2.5 2.5,-2.5 2.5,-2.5c2.9846,0 5.73173,0.26263 8.36454,0.95425c0.19377,-1.18784 1.22465,-2.09444 2.46727,-2.09444c0.83411,0 1.57281,0.40849 2.02696,1.03633l1.73662,2.34473l-0.03126,0.02315c0.20498,0.30047 0.42142,0.62545 0.64033,0.96814c0.38484,-0.24182 0.84024,-0.38168 1.3283,-0.38168c1.28702,0 2.3469,0.97254 2.48481,2.22282l0.08279,0.66232c0.09266,0.07221 0.17988,0.14843 0.26072,0.22927c2.36519,2.36519 1.72962,4.9782 3.39842,7.38908c2.43478,4.86957 3.92415,9.59049 7.22455,13.95457c0.46831,0.61924 0.77886,1.40917 1.33343,1.93506c-0.55708,-2.25574 -0.9868,-4.60703 -1.48301,-6.71787c-0.90238,-2.52895 -1.73059,-5.07962 -2.37024,-7.63464l-0.05994,0.01191l-0.10693,-0.53835c-0.02997,-0.09889 -0.05055,-0.19658 -0.05812,-0.2926l-0.60645,-3.05318c-0.03794,-0.17314 -0.05793,-0.353 -0.05793,-0.53753c0,-1.38071 1.11929,-2.5 2.5,-2.5c1.16421,0 2.14255,0.79579 2.42074,1.87308l0.66492,2.3528c0.71893,0.42141 0.45326,1.60385 0.67989,2.40577c0.4569,1.61673 0.9138,3.23345 1.3707,4.85018c0.44887,1.19251 0.90392,2.37795 1.31877,3.55867c0.99981,2.8456 1.72413,6.0665 2.97805,8.79289c0.2002,0.4353 0.75127,1.05133 1.33367,1.69703c2.99235,1.90915 5.99978,4.17689 7.53378,6.55707c1.55202,2.40813 2.28334,4.97018 2.88426,7.7196c0.96598,4.82988 1.1907,9.55563 1.2471,14.3951c0.10906,0.28783 0.15935,0.56047 0.00772,0.78093c0.00741,0.89933 0.01009,1.80296 0.0117,2.71229c0.00218,1.23162 0.3435,3.4714 0.37058,5.3899c0.12971,0.30226 0.20153,0.63525 0.20153,0.98501c0,0.54364 -0.17353,1.04676 -0.46821,1.45698c-0.03079,0.08934 -0.06467,0.17393 -0.10188,0.25331c-2.85528,6.09085 -9.62772,5.0037 -14.61312,1.93019c-3.27238,-0.00185 -5.36972,-0.11334 -8.05984,-3.07038c-0.3197,-0.35142 -0.16267,-0.97888 0,-1.42524c0.68491,-1.87936 1.28756,-3.0848 2.21371,-3.7901c-0.05103,-0.92159 -0.0086,-1.85784 0.06668,-2.76599c0.05685,-0.68589 0.12357,-1.37904 0.19919,-2.07711c-0.94875,-0.87035 -1.98987,-1.93012 -2.40479,-2.88786l-0.04076,-0.00679l0.01081,-0.06488c-0.25029,-0.62221 -0.22566,-1.19777 0.27423,-1.6454l0.27829,-1.66975c0.179,-1.20503 1.21791,-2.12954 2.47274,-2.12954c0.22702,0 0.44698,0.03026 0.65605,0.08697c0.26959,-1.44281 0.56105,-2.86732 0.86601,-4.253c0.0221,-0.10043 0.70619,-2.55225 1.0365,-3.70732l-0.03768,-0.18859c-0.03835,-0.17403 -0.05856,-0.35486 -0.05856,-0.54041c0,-0.97328 0.55618,-1.81666 1.36805,-2.22965c0.23615,-0.34628 0.41251,-0.65863 0.11948,-0.70867zM312.31057,241.85343c-0.42632,0.15798 -0.91573,0.20929 -1.48192,0.13433c0.50109,0.23041 1.01041,0.45834 1.52916,0.69919c-0.01837,-0.28383 -0.03478,-0.56238 -0.04724,-0.83352zM302.5086,242.08594c-0.27428,-0.30636 -0.55145,-0.61078 -0.83802,-0.90863c-0.02362,0.2531 -0.03686,0.50259 -0.03588,0.74635c0.28774,0.04093 0.57966,0.09577 0.8739,0.16227z" fill="#c00000" stroke="none" stroke-width="0.5"/>
      <path d="M281.27442,159.047c-0.69218,2.40227 -3.09445,1.71009 -3.09445,1.71009l-0.58354,-0.49857c-0.92314,1.0787 -2.10332,1.93754 -3.60858,2.45681c-2.47625,0.85424 -4.51053,0.35198 -6.91937,-0.24641c-2.4312,-0.69463 -3.5389,-1.84447 -4.68479,-4.13625l3.57439,-3.49707c0,0 2.03182,0.65611 1.73371,2.63335c0.25105,0.06141 0.50253,0.12157 0.75029,0.19235c0.86958,0.31493 1.84478,0.21889 2.73377,0.47391c0.1351,0.03875 -0.09146,0.4734 0.03849,0.41987c0.90799,-0.374 1.63595,-0.86766 2.21962,-1.4536c-1.99007,-1.8204 -3.15045,-4.05523 -5.24509,-5.91601c-0.45484,-0.40406 -1.06213,-0.65203 -1.42524,-1.14019c-0.12094,-0.16258 0.32956,-0.53084 0.1365,-0.59236c-2.31019,-0.7362 -5.85859,0.14216 -8.29142,-0.01931c-2.2444,-0.14896 -4.51873,-0.45905 -6.60439,-1.29969c-0.53877,-0.21716 -1.08404,-0.41916 -1.6148,-0.65522c-0.10963,-0.04876 -0.25633,-0.08253 -0.40815,-0.11519c-0.00109,2.06847 -0.47566,3.94528 -1.88972,4.50998c-1.54386,0.61653 -3.19273,1.14019 -4.85514,1.14019c-1.09931,0 -1.36439,-1.72971 -1.94635,-2.66235c-0.03273,-0.05245 -0.066,-0.10511 -0.09969,-0.15794c-1.23126,1.88934 -3.28536,2.72789 -5.48648,2.36103c-1.85417,-0.31039 -4.00875,-0.5334 -5.7115,-1.36896c-2.18509,-1.07224 -3.10593,-3.40267 -4.68716,-4.84696c-0.73762,-0.67375 -1.81481,-0.84739 -2.66235,-1.37626c-1.3042,-0.81382 -4.44754,-2.55541 -5.31899,-3.7546c-0.11509,-0.15838 0.6634,-0.3405 0.46813,-0.35471c-1.74093,-0.12672 -3.78203,0.49138 -5.65121,0.60194c-0.72895,0.5868 -1.68023,0.5868 -1.68023,0.5868c-2.60009,0 -5.26034,-0.17695 -7.85048,0c-0.45243,0.03091 -2.21274,0.64599 -2.51179,0.5256c-5.28056,-2.12574 -7.82196,-7.46349 -7.22014,-12.78573c0.07549,-0.66761 -0.11465,-1.4553 0.28505,-1.99533c2.90173,-3.92057 8.22228,-5.80222 12.80509,-6.27961c2.28391,-0.13435 4.46649,-0.18022 6.63801,-0.12679c2.06315,-2.81844 4.99087,-2.55217 8.37599,-3.13198c7.72738,-1.32357 14.43039,-4.37699 22.28143,-1.85546c3.35844,1.25942 10.64816,6.11265 7.40051,10.91847c2.60414,0.85998 5.18452,2.20289 7.68459,2.93985c6.20352,1.82864 14.18578,1.84826 19.51951,5.62854c0.91443,0.6481 4.01505,3.40413 3.71752,4.6566c-0.17864,0.75201 -0.54049,1.43505 -0.94793,2.10094c0.36817,1.73972 0.164,3.72383 0.164,5.45635c0,2.45252 -0.19225,5.34843 -0.99635,7.94941c0.59105,0.2526 2.02336,1.07952 1.46871,3.00449z" fill="#ff7b7b" stroke="none" stroke-width="0.5"/>
      <path d="M211.06957,193.28671c-0.33605,0.31649 -0.82173,0.55965 -1.52273,0.62337c-0.46262,0.04206 -0.84709,-0.00966 -1.16649,-0.12176c-2.77381,2.85038 -4.48169,2.80512 -8.02232,3.31093l-1.51579,0.21654c0,0 0.96171,0.53853 -0.46187,0.11408c-0.51988,1.0366 -1.14152,1.97245 -1.93018,2.67841c-0.93262,0.83483 -2.94304,3.18735 -4.80265,2.3635c-0.22385,-0.09917 0.26818,-0.85692 0.05748,-0.73223c-1.73321,1.02563 -3.41562,3.48245 -4.70722,4.99827c-2.59445,3.04484 -7.58906,10.89642 -5.6323,15.03451c1.61859,4.54449 0.60812,9.79976 0.8702,14.59248c0.29358,5.36872 0.0683,10.86531 0.47591,16.21486c0.20282,2.66185 0.38331,5.31788 0.5701,7.98134c0.00564,0.08042 0.02025,0.1616 0.04053,0.24319c0.1251,0.50332 0.46577,1.02168 0.24452,1.4671l0.2773,1.66383c0.02742,0.14831 0.04176,0.30121 0.04176,0.45746c0,1.38071 -1.11929,2.5 -2.5,2.5c-0.41989,0 -0.81561,-0.10352 -1.16302,-0.28642l-2.2354,-1.1177l0.02612,-0.05225c-2.98225,-1.73921 -6.19494,-4.18444 -8.44848,-6.57453c-0.9187,-0.97437 -2.90087,-4.09208 -3.25052,-5.2821c-0.09897,-0.33683 0.65919,-0.74028 0.39816,-0.97505c-0.77861,-0.70027 -5.18112,-0.88458 -6.12353,-1.04548c-6.45012,-1.10124 -12.89414,-2.33968 -19.37552,-3.23874c-1.52147,-0.21105 -3.06993,-0.38141 -4.54306,-0.66083c-1.36576,0.42482 -3.00817,0.56082 -4.07684,0.68674c-5.1513,0.60698 -10.35148,1.08739 -13.56795,-3.90698c-0.49851,-0.77407 -0.0099,-3.86165 0,-4.84581c0.0323,-3.20997 -0.49576,-6.93627 -1.43461,-9.98753c-0.76497,-2.48615 -1.22792,-5.3785 -2.62615,-7.61066c-1.30698,-2.08649 -3.43984,-3.19748 -4.49015,-5.54139c-0.51459,-1.14838 0.00113,-2.51864 0.08447,-3.77428c0.23078,-3.47699 1.36746,-8.07414 0.55828,-11.49975c-0.28189,-1.19337 -0.14338,-2.58276 -0.86222,-3.57617l-0.69416,-0.5399c-0.51362,-0.27317 -1.09102,-0.48332 -1.27922,-0.99495l-1.95304,-1.51903c-0.59896,-0.45673 -0.98549,-1.17783 -0.98549,-1.9892c0,-1.27327 0.95187,-2.32422 2.18283,-2.48007l1.9771,-0.28244c6.20459,-0.88641 12.32792,-1.80481 18.46464,-3.09009c3.92944,-0.81982 7.84402,-2.31824 11.80077,-2.91844c4.6614,-0.70709 9.44687,-0.19845 14.18371,-1.05721c6.44123,-1.16775 11.96632,-3.50356 18.66221,-3.50356c2.08552,0.03396 3.84057,-0.40689 5.90102,-0.57002c5.36994,-0.42514 10.64527,0.68273 15.62385,-1.53155c0.55045,-0.24482 1.29364,0.03794 1.77895,-0.319c1.01992,-0.75013 1.47425,-2.08696 2.42405,-2.92411c1.74364,-1.53686 4.38133,-2.48395 6.43926,-3.51291c0,0 1.0391,-0.51955 2.05479,-0.14196c0.14664,-0.04767 0.29923,-0.08215 0.45636,-0.10204l2.9952,-0.42789l0.04541,0.31788c4.29987,-0.22615 8.88913,-0.61184 12.1037,2.23027c3.3573,2.96829 -1.04898,10.30793 0.14031,14.00586c0.21221,0.65983 1.41396,5.06553 0.64474,5.7372c-1.29152,1.12773 -2.99689,1.66667 -4.49533,2.5c-1.76406,0 -3.63711,-0.04905 -5.3361,-0.61864c-0.51615,-0.17304 -1.00424,-0.41954 -1.49544,-0.65606c-0.19551,0.20305 -0.6415,0.44956 -1.07503,0.7747zM200.43228,192.00966c0.88881,-0.18922 1.57064,-0.42829 2.09147,-0.47853c-0.43629,-0.08717 -0.9274,-0.1246 -1.49468,-0.19551c0.1221,-0.62559 0.9863,-2.02471 0.36631,-1.87677c-0.68271,0.16291 -0.49898,1.31209 -0.74875,1.96802c-0.07205,0.1892 -0.14333,0.38379 -0.21436,0.58278zM203.47508,191.87757c0.13976,0.18555 0.25174,0.45477 0.34077,0.8327c0.20209,-0.01158 0.68122,0.29801 0.58408,0.13999c-0.28728,-0.4673 -0.58994,-0.76963 -0.92484,-0.97269z" fill="#e00000" stroke="none" stroke-width="0.5"/>
      <path d="M277.4026,176.04993c-0.00816,1.60656 -0.16764,3.26373 -0.69958,4.78049c0.8477,0.79919 1.50203,1.66163 2.20994,3.10535c0.22527,0.45942 0.86719,1.00865 0.5701,1.42524c-1.02425,1.43625 -2.51688,2.52409 -4.03148,3.42848c-0.15413,0.09203 -0.31697,0.15245 -0.48629,0.1894l0.13495,1.36704c0,0 -0.06577,2.49913 -2.5649,2.43337c-2.49913,-0.06577 -2.43337,-2.5649 -2.43337,-2.5649l1.56923,-0.21462l-2.25711,-1.69283c-0.62044,-0.45492 -1.02328,-1.18914 -1.02328,-2.01746c0,-1.38071 1.11929,-2.5 2.5,-2.5h1.42524c0.04182,0 0.08379,-0.00034 0.12588,-0.00098c-0.28751,-0.21956 -0.5544,-0.41827 -0.80036,-0.6073c-0.61086,0.33594 -1.13666,0.57359 -1.34301,0.49854l-1.6653,0.83265c-0.34741,0.18291 -0.74312,0.28642 -1.16302,0.28642c-1.38071,0 -2.5,-1.11929 -2.5,-2.5c0,-0.69036 0.27982,-1.31536 0.73223,-1.76777l1.68611,-1.68611c-0.05756,-0.15161 -0.11247,-0.30192 -0.16502,-0.45125c-2.17906,-0.6904 -1.60859,-2.97225 -1.60859,-2.97225l0.49545,-1.10395c0,-0.47508 -0.12456,-0.96678 0,-1.42524c0.51943,-1.91186 0.9387,-3.05591 1.40831,-3.60863l-0.02634,-0.05268l0.14301,-0.07151c0.17474,-0.16671 0.35783,-0.25662 0.55657,-0.27829l1.53581,-0.76791c0.31626,-0.16651 0.67255,-0.26722 1.05067,-0.28394c0.18184,-0.67672 0.67097,-1.41792 1.90244,-1.66422c2.45145,-0.49029 2.94174,1.96116 2.94174,1.96116c0.40819,2.04095 0.12437,3.65088 0.0282,5.52683c0.99537,0.44407 1.75821,1.124 1.75175,2.39686z" fill="#e00000" stroke="none" stroke-width="0.5"/>
    </g>
  </g>
</svg>
