<?xml version="1.0"?>
<svg xmlns="http://www.w3.org/2000/svg" xmlns:xlink="http://www.w3.org/1999/xlink" version="1.1" width="535.397" height="430.87926" viewBox="0,0,535.397,430.87926">
  <defs>
    <linearGradient x1="0" y1="0" x2="0" y2="0" gradientUnits="userSpaceOnUse" id="color-1">
      <stop offset="0" stop-color="#000000" stop-opacity="0"/>
      <stop offset="1" stop-color="#000000"/>
    </linearGradient>
    <linearGradient x1="0" y1="0" x2="0" y2="0" gradientUnits="userSpaceOnUse" id="color-2">
      <stop offset="0" stop-color="#000000" stop-opacity="0"/>
      <stop offset="1" stop-color="#000000"/>
    </linearGradient>
    <linearGradient x1="-1" y1="0" x2="-1" y2="0" gradientUnits="userSpaceOnUse" id="color-3">
      <stop offset="0" stop-color="#000000" stop-opacity="0"/>
      <stop offset="1" stop-color="#000000"/>
    </linearGradient>
    <linearGradient x1="35.652" y1="186.12329" x2="100.21019" y2="186.12329" gradientUnits="userSpaceOnUse" id="color-4">
      <stop offset="0" stop-color="#b40000"/>
      <stop offset="1" stop-color="#c10000"/>
    </linearGradient>
    <linearGradient x1="0" y1="0" x2="0" y2="0" gradientUnits="userSpaceOnUse" id="color-5">
      <stop offset="0" stop-color="#000000" stop-opacity="0"/>
      <stop offset="1" stop-color="#000000"/>
    </linearGradient>
    <linearGradient x1="0" y1="0" x2="0" y2="0" gradientUnits="userSpaceOnUse" id="color-6">
      <stop offset="0" stop-color="#000000" stop-opacity="0"/>
      <stop offset="1" stop-color="#000000"/>
    </linearGradient>
    <linearGradient x1="0" y1="0" x2="0" y2="0" gradientUnits="userSpaceOnUse" id="color-7">
      <stop offset="0" stop-color="#000000" stop-opacity="0"/>
      <stop offset="1" stop-color="#000000"/>
    </linearGradient>
    <linearGradient x1="0" y1="0" x2="0" y2="0" gradientUnits="userSpaceOnUse" id="color-8">
      <stop offset="0" stop-color="#000000" stop-opacity="0"/>
      <stop offset="1" stop-color="#000000"/>
    </linearGradient>
    <linearGradient x1="0" y1="0" x2="0" y2="0" gradientUnits="userSpaceOnUse" id="color-9">
      <stop offset="0" stop-color="#000000" stop-opacity="0"/>
      <stop offset="1" stop-color="#000000"/>
    </linearGradient>
    <linearGradient x1="0" y1="0" x2="0" y2="0" gradientUnits="userSpaceOnUse" id="color-10">
      <stop offset="0" stop-color="#000000" stop-opacity="0"/>
      <stop offset="1" stop-color="#000000"/>
    </linearGradient>
    <linearGradient x1="0" y1="0" x2="0" y2="0" gradientUnits="userSpaceOnUse" id="color-11">
      <stop offset="0" stop-color="#000000" stop-opacity="0"/>
      <stop offset="1" stop-color="#000000"/>
    </linearGradient>
    <linearGradient x1="0" y1="0" x2="0" y2="0" gradientUnits="userSpaceOnUse" id="color-12">
      <stop offset="0" stop-color="#ffffff"/>
      <stop offset="1" stop-color="#ffffff"/>
    </linearGradient>
  </defs>
  <g transform="translate(34,51.41226)">
    <g data-paper-data="{&quot;isPaintingLayer&quot;:true}" fill="none" fill-rule="nonzero" stroke="none" stroke-width="none" stroke-linecap="butt" stroke-linejoin="miter" stroke-miterlimit="10" stroke-dasharray="" stroke-dashoffset="0" font-family="none" font-weight="none" font-size="none" text-anchor="none" style="mix-blend-mode: normal">
      <path d="M-29,-15h523v394.467h-523z" id="Rectangle-path" fill="#000000" stroke-width="1"/>
      <g id="Group-5" stroke-width="1">
        <path d="M435.713,122.346c-8.346,11.862 -29.116,7.392 -41.491,7.35c-0.084,0.288 -0.192,0.552 -0.288,0.888c-0.293,-0.267 -0.557,-0.565 -0.787,-0.888l-13.089,-0.048c-6.299,2.934 -10.208,3.432 -14.411,9.6c-3.633,5.31 -7.025,9.666 -13.21,12c-11.625,4.386 -26.24,2.574 -38.381,2.292c-14.957,-0.354 -29.896,-1.152 -44.853,-1.362c-7.596,-0.102 -15.21,-0.012 -22.817,-0.066c-5.699,-0.036 -11.757,0.336 -17.161,-1.89c-9.049,-3.78 -11.925,-14.28 -20.379,-18.78c-9.764,-5.196 -22.391,-2.964 -32.983,-2.964c-19.485,0.012 -46.835,-3.372 -56.01,-23.772c-10.706,-23.802 27.795,-24.474 41.077,-26.334c11.078,-1.554 20.055,-4.986 25.975,-14.946c5.512,-9.27 8.725,-16.842 20.734,-17.28c33.967,-1.2 68.409,-0.654 102.418,0c17.413,0.33 34.886,0.72 52.239,2.256c6.005,0.528 13.937,0.888 18.476,5.484c3.273,3.312 3.555,7.98 5.26,12.072c1.831,4.398 5.158,7.014 9.163,9.414c11.613,1.188 33.133,-0.306 39.521,11.934c5.308,10.152 8.082,25.068 0.997,35.04z" id="Shape" fill="#ff0000"/>
        <path d="M492.534,2.79l-11.949,22.134c-12.189,0 -19.881,-4.716 -26.186,-8.004c-9.241,-4.812 -16.026,-8.796 -33.859,-8.796c-10.946,0 -45.034,9.6 -63.047,9c-18.014,-0.6 -37.228,-9 -57.043,-9c-30.022,0 -26.924,14.286 -56.947,14.286c-3.602,0 -6.947,-0.138 -10.015,-0.39c-9.298,-0.684 -18.364,-3.219 -26.666,-7.458c-21.658,-10.638 -43.725,-4.29 -49.501,-1.488c-10.892,5.286 -17.917,12.918 -37.54,12.918c-12.892,0 -19.575,-5.31 -26.035,-9.072c-8.587,-4.992 -16.351,-8.796 -33.476,-8.796c-30.022,0 -30.022,16.8 -60.044,16.8l-34.226,-48l533.355,-1.386z" id="Shape" fill="#000000"/>
        <path d="M461.37,-11.4c-0.114,3.672 39.21,0.438 39.03,3c-1.387,19.95 -61.847,36.6 -146.564,43.2c-23.177,1.8 -46.583,-1.128 -69.724,-3.246c-38.447,-3.528 -111.077,5.106 -123.567,-42.954z" id="Shape" fill="#000000"/>
        <path d="M23.643,60.354c0.426,-4.956 6.203,-6 10.208,-6.6c5.928,-0.899 11.924,-1.266 17.917,-1.098c11.229,0.444 22.517,-0.096 33.733,0.72c6.005,3.816 0.835,8.796 -4.269,10.074c-6.479,1.62 -13.342,1.248 -19.971,1.53c-7.019,0.3 -13.996,0.162 -21.015,0.174c-5.837,0.03 -13.499,0.984 -16.603,-4.8z" id="Shape" fill="#ff0000"/>
        <path d="M148.536,26.754c0.427,-4.956 6.203,-6 10.208,-6.6c5.928,-0.899 11.924,-1.266 17.918,-1.098c11.228,0.444 22.516,-0.096 33.733,0.72c6.004,3.816 0.834,8.796 -4.269,10.074c-6.479,1.62 -13.342,1.248 -19.971,1.53c-7.02,0.3 -13.997,0.162 -21.016,0.174c-5.836,0.03 -13.498,0.984 -16.603,-4.8z" id="Shape" fill="url(#color-1)"/>
        <path d="M21.902,95.262c0.912,-10.512 13.162,-12.744 21.706,-13.956c12.501,-1.8 25.387,-2.826 38.008,-2.334c23.814,0.942 47.76,-0.204 71.556,1.524c12.717,8.094 1.765,18.654 -9.055,21.366c-13.744,3.438 -28.311,2.646 -42.368,3.252c-14.885,0.636 -29.686,0.336 -44.571,0.366c-12.417,0.024 -28.665,2.046 -35.276,-10.218z" id="Shape" fill="#ff0000"/>
        <path d="M423.032,57.93c0.438,-7.602 5.83,-9.258 9.607,-10.2c5.5,-1.338 2.672,-0.834 13.156,-0.702c7.565,0.09 9.817,14.91 3.855,16.464c-6.167,1.608 -4.6,1.572 -11.139,1.65c-5.47,0.096 -12.621,1.626 -15.479,-7.212z" id="Shape" fill="#ff0000"/>
        <path d="M399.614,148.53c0.601,-7.602 8.094,-9.228 13.342,-10.122c7.68,-1.302 3.729,-0.816 18.374,-0.6c10.568,0.132 13.81,14.958 5.476,16.482c-8.604,1.578 -6.413,1.548 -15.552,1.59c-7.625,0.012 -17.599,1.5 -21.64,-7.35z" id="Shape" fill="#ff0000"/>
      </g>
      <g id="Group-4" stroke-width="1">
        <path d="M112.636,-10.8c-0.036,6.426 -2.09,13.05 -7.242,19.278c-15.774,19.086 -43.214,14.382 -54.13,-0.678c-3.645,-5.034 -5.404,-11.652 -5.152,-18.6z" id="Shape" fill="#ffffff"/>
        <path d="M60.481,-4.494c1.877,0 3.577,0.762 4.809,1.992c1.231,1.231 1.994,2.93 1.994,4.806c0,1.876 -0.763,3.575 -1.994,4.806c-1.232,1.23 -2.932,1.992 -4.809,1.992c-1.877,0 -3.578,-0.762 -4.81,-1.992c-1.231,-1.231 -1.993,-2.93 -1.993,-4.806c0,-1.876 0.762,-3.575 1.993,-4.806c1.232,-1.23 2.933,-1.992 4.81,-1.992z" id="Oval" fill="#dcd2b4"/>
        <path d="M74.249,7.566c0.692,0 1.32,0.281 1.774,0.735c0.455,0.454 0.736,1.081 0.736,1.773c0,0.692 -0.281,1.319 -0.736,1.773c-0.454,0.454 -1.082,0.735 -1.774,0.735c-0.693,0 -1.32,-0.281 -1.774,-0.735c-0.455,-0.454 -0.736,-1.081 -0.736,-1.773c0,-0.692 0.281,-1.319 0.736,-1.773c0.454,-0.454 1.081,-0.735 1.774,-0.735z" id="Oval" fill="#dcd2b4"/>
        <path d="M101.792,-0.042c0.692,0 1.319,0.281 1.774,0.735c0.454,0.454 0.735,1.081 0.735,1.773c0,0.692 -0.281,1.319 -0.735,1.773c-0.455,0.454 -1.082,0.735 -1.774,0.735c-0.693,0 -1.32,-0.281 -1.775,-0.735c-0.454,-0.454 -0.735,-1.081 -0.735,-1.773c0,-0.692 0.281,-1.319 0.735,-1.773c0.455,-0.454 1.082,-0.735 1.775,-0.735z" id="Oval" fill="#dcd2b4"/>
      </g>
      <path d="M256.095,-5.616c0.102,52.458 -0.438,180.96 -1.039,189.36c-1.023,0.385 -2.107,0.588 -3.2,0.6c-1.027,-1.002 -0.823,-138.912 -0.042,-189.192z" id="Shape" fill="#460a00" stroke-width="1"/>
      <path d="M155.268,-20.016c0.168,52.458 -0.733,180.96 -1.766,189.36c-1.775,0.389 -3.586,0.59 -5.404,0.6c-1.741,-1.002 -1.393,-138.912 -0.066,-189.192z" id="Shape" fill="#735200" stroke-width="1"/>
      <g id="Group-8" stroke-width="1">
        <path d="M499.355,182.592l-533.355,-1.392l34.226,-48c30.022,0 30.022,16.8 60.044,16.8c17.125,0 24.889,-3.798 33.482,-8.796c6.46,-3.756 13.143,-9.066 26.035,-9.066c19.623,0 26.648,7.632 37.54,12.918c5.776,2.802 27.843,9.144 49.495,-1.494c8.302,-4.236 17.369,-6.77 26.666,-7.452c3.068,-0.258 6.413,-0.396 10.015,-0.396c30.023,0 26.925,14.286 56.947,14.286c19.815,0 39.029,-8.4 57.043,-9c18.013,-0.6 52.101,9 63.047,9c17.833,0 24.618,-3.984 33.859,-8.796c6.305,-3.288 13.997,-8.004 26.186,-8.004l11.949,22.134z" id="Shape" fill="#463c00"/>
        <path d="M193.444,180.48c1.903,-7.134 5.987,-12.39 13.054,-15.156c3.59,-1.404 7.283,-2.268 10.988,-1.95c6.563,0.564 12.225,3.228 15.227,10.512c0.205,0.558 0.571,1.05 0.805,1.602c0.667,1.576 0.969,3.283 0.883,4.992z" id="Shape" fill="#322800"/>
        <path d="M64.354,181.08c4.689,-7.134 14.765,-12.39 32.178,-15.156c8.943,-1.515 18.011,-2.168 27.08,-1.95c16.17,0.564 30.124,3.228 37.54,10.512c0.558,0.558 1.375,1.05 1.975,1.602c1.688,1.614 2.378,3.33 2.168,4.992z" id="Shape" fill="#322800"/>
      </g>
      <g id="Group-3" stroke-width="1">
        <path d="M408.663,12.864c-0.943,8.058 -1.675,16.086 -2.744,24.258c-1.069,8.172 -3.423,16.716 -7.452,23.952c-0.402,0.75 -0.804,1.512 -1.201,2.268l-0.99,-9.09c3.023,-6.483 5.335,-13.275 6.893,-20.256c1.705,-7.911 2.66,-15.964 2.852,-24.054c0.108,-4.092 -0.006,-8.178 0.228,-12.264c0.198,-3.444 -0.336,-7.122 0.444,-10.488c0.845,0.01 1.681,0.162 2.474,0.45c1.417,7.836 0.433,17.352 -0.504,25.224z" id="Shape" fill="#460a00"/>
        <path d="M362.789,20.964c0.779,-0.323 1.607,-0.514 2.449,-0.564c0.925,3.33 0.547,7.032 0.895,10.464c0.414,4.074 0.469,8.16 0.757,12.24c0.538,8.076 1.839,16.084 3.885,23.916c1.897,7.061 4.569,13.89 7.968,20.364c1.801,3.54 4.023,6.834 6.004,10.26c1.982,3.426 3.303,6.996 5.404,10.326c0,1.2 0.523,2.448 0,3.876c-2.318,-2.688 -4.918,-5.148 -7.151,-7.896c-2.522,-3.108 -4.293,-6.69 -6.377,-10.08c-4.341,-7.056 -7.055,-15.492 -8.478,-23.616c-1.423,-8.124 -2.486,-16.092 -3.777,-24.114c-1.267,-7.824 -2.672,-17.286 -1.579,-25.176z" id="Shape" fill="#824600"/>
        <path d="M391.91,-12.918l9.163,-0.996c0.036,1.302 0.036,2.604 0.036,3.906c0,3.378 -0.084,6.756 -0.138,10.14c-0.186,10.764 -0.396,21.504 -0.57,32.304c-0.427,27.222 0.708,54.366 1.051,81.57c0.126,10.314 -0.235,20.64 -0.283,30.942c-0.054,10.458 0.259,21.078 -0.54,31.458c-1.423,0.138 -9.637,1.254 -10.838,1.05z" id="Shape" fill="url(#color-2)"/>
        <path d="M396.678,-13.416c0.168,52.458 -0.733,180.96 -1.765,189.36c-1.785,0.391 -3.607,0.592 -5.434,0.6c-1.742,-1.002 -1.393,-138.912 -0.066,-189.192z" id="Shape" fill="#735200"/>
      </g>
      <g id="Group-2" stroke-width="1">
        <path d="M171.714,32.4c1.507,-2.358 2.792,-4.8 4.455,-7.128c1.813,-2.568 3.357,-5.322 5.014,-7.998c0.642,-1.032 1.243,-2.082 1.921,-3.084c1.567,-2.364 3.201,-4.692 4.804,-7.05c1.07,-1.743 2.32,-3.37 3.729,-4.854c0.81,-0.246 1.555,-0.51 2.317,-0.684c0.317,-0.023 0.635,0.006 0.943,0.084c0,0.264 0.048,0.408 0,0.498c-1.567,2.934 -3.044,5.928 -4.749,8.784c-2.384,4.008 -4.93,7.914 -7.416,11.862c-0.18,0.3 -0.396,0.6 -0.6,0.9c-1.257,1.856 -2.516,3.708 -3.777,5.556c-1.91,2.808 -3.807,5.616 -5.753,8.4c-0.606,0.913 -1.38,1.704 -2.281,2.328l-1.201,-3.6z" id="Shape" fill="#000000"/>
        <path d="M197.773,88.956l4.089,0.768c1.369,0.252 2.744,0.498 4.107,0.786c0.643,0.132 1.273,0.342 1.94,0.528c0.264,0.738 0.498,1.404 0.804,2.28c-0.473,-0.001 -0.947,-0.031 -1.417,-0.09c-3.116,-0.642 -6.226,-1.314 -9.343,-1.956c-0.084,-0.774 -0.18,-1.542 -0.18,-2.316z" id="Shape" fill="#460a00"/>
        <path d="M177.166,88.608c-0.27,1.002 -0.577,1.98 -0.871,2.964c-0.786,2.676 -1.567,5.352 -2.402,8.01c-0.12,0.384 -0.252,0.756 -0.378,1.14c-0.762,-0.066 -1.531,-0.126 -2.294,-0.126c0.331,-0.918 0.649,-1.842 0.901,-2.784c0.447,-1.699 1.032,-3.358 1.747,-4.962c0.871,-1.986 1.586,-4.056 2.402,-6.078c0.222,-0.368 0.479,-0.714 0.769,-1.032c0.354,0.917 0.398,1.924 0.126,2.868z" id="Shape" fill="#460a00"/>
        <path d="M207.032,72.594c-0.012,1.446 -0.114,2.898 -0.192,4.35c-0.024,0.42 -0.15,0.84 -0.15,1.26c-0.09,4.584 -1.723,8.664 -3.849,12.6c-1.9,3.689 -4.732,6.818 -8.214,9.078c-3.405,2.148 -7.013,3.9 -11.084,4.392c-2.408,0.294 -4.84,0.51 -7.242,0.726c-2.968,0.202 -5.902,0.75 -8.742,1.632c-3.479,1.12 -6.732,2.846 -9.607,5.1c-1.478,1.158 -2.973,2.292 -4.396,3.522c-3.733,3.152 -6.961,6.857 -9.571,10.986c-1.039,1.686 -7.512,12.678 -7.758,13.086l-1.375,-17.16c0.006,-0.954 9.625,-12.324 11.817,-13.956c3.447,-2.556 7.254,-4.41 11.09,-6.21c1.099,-0.516 2.246,-0.912 3.387,-1.332c0.568,-0.215 1.152,-0.384 1.747,-0.504c2.024,-0.39 4.053,-0.744 6.401,-1.164c0.903,-0.05 1.782,-0.307 2.57,-0.75c1.681,-0.21 3.537,-0.534 5.404,-0.666c1.572,-0.137 3.117,-0.488 4.593,-1.044c3.723,-1.337 7.125,-3.438 9.986,-6.168c0.17,-0.173 0.35,-0.335 0.54,-0.486c2.912,-2.232 4.846,-5.184 6.455,-8.43c1.391,-2.769 2.264,-5.768 2.576,-8.85c0.066,-0.66 0.234,-1.308 0.366,-2.046c1.666,-0.356 3.404,-0.145 4.936,0.6c0.16,0.464 0.264,0.945 0.312,1.434z" id="Shape" fill="#735200"/>
        <path d="M166.436,-3.096c2.276,-0.366 5.776,1.236 8.052,1.584c0.648,4.914 2.167,17.148 0.979,26.49c-1.646,12.87 -6.005,29.256 -9.986,34.83c-6.449,9 -18.5,16.872 -29.518,18.414c-0.456,-2.586 0.396,-5.022 0.192,-7.578c2.204,-0.906 4.594,-1.056 6.779,-2.076c2.186,-1.02 3.945,-2.436 5.879,-3.726c3.62,-2.304 6.674,-5.395 8.934,-9.042c2.774,-4.428 6.876,-14.922 8.713,-24.276c1.933,-9.834 -0.174,-29.178 -0.024,-34.62z" id="Shape" fill="#735200"/>
        <path d="M63.411,92.562c-0.311,-0.743 -0.102,-1.602 0.516,-2.118c1.471,0.39 3.002,0.744 4.486,1.2c1.801,0.552 3.548,1.23 5.35,1.8c0.978,0.3 2.011,0.426 3.002,0.678c0.991,0.252 1.999,0.504 3.002,0.828c0.982,0.253 1.614,1.206 1.465,2.208c-0.6,0.426 -1.201,0.144 -1.801,0c-1.601,-0.348 -3.203,-0.708 -4.804,-1.08c-0.596,-0.114 -1.181,-0.283 -1.747,-0.504c-1.465,-0.737 -3.005,-1.314 -4.594,-1.722c-1.573,-0.324 -3.134,-0.816 -4.875,-1.29z" id="Shape" fill="#642800"/>
        <path d="M92.094,51.726c0.108,1.338 0.198,2.478 0.301,3.774c-1.073,-0.234 -2.091,-0.667 -3.003,-1.278c-2.852,-1.83 -5.68,-3.702 -8.514,-5.562l-5.62,-3.696c-0.307,-0.198 -0.601,-0.39 -0.913,-0.6c-3.801,-2.7 -7.65,-5.34 -11.409,-8.13c-2.666,-1.992 -5.175,-4.2 -7.745,-6.306c-0.078,-0.066 -0.09,-0.216 -0.186,-0.462c0.255,-0.191 0.539,-0.341 0.84,-0.444c0.775,-0.126 1.567,-0.168 2.402,-0.252c1.869,0.835 3.646,1.863 5.302,3.066c2.402,1.566 4.804,3.096 7.151,4.674c1.009,0.666 1.97,1.41 2.954,2.118c2.558,1.836 5.038,3.798 7.692,5.478c2.366,1.5 4.498,3.288 6.785,4.878z" id="Shape" fill="#642800"/>
        <path d="M98.549,128.604c1.075,-0.27 2.144,0.3 3.086,0.708c3.404,1.377 6.655,3.106 9.698,5.16c2.885,2.141 5.942,4.041 9.138,5.682c0.369,0.215 0.723,0.455 1.057,0.72c0.09,0.78 -0.6,0.744 -1.129,0.558c-1.554,-0.465 -3.071,-1.044 -4.539,-1.734c-5.092,-2.592 -9.913,-5.682 -14.801,-8.634c-1.003,-0.606 -2.078,-1.236 -2.51,-2.46z" id="Shape" fill="#642800"/>
        <path d="M138.137,189.288c-1.465,-0.084 -9.74,-0.816 -11.277,-0.816c0,-23.472 2.594,-129.672 2.108,-159.72c-0.252,-13.854 -0.3,-27.714 -0.06,-41.574c2.636,-0.102 6.28,-0.726 8.64,0.402c1.291,3.972 0.379,9.456 0.601,13.62c0.108,1.896 0.132,3.792 0.18,5.682c0.138,6.81 0.925,175.908 -0.192,182.406z" id="Shape" fill="#735200"/>
        <path d="M133.663,0.054c0.559,51.108 -0.834,188.466 -0.834,188.466c0,0 -8.863,0.678 -13.006,-0.234c-0.799,-5.148 -0.925,-173.856 -0.979,-180.948c-0.042,-1.752 -0.042,-3.51 -0.042,-5.262c-0.006,-0.81 0.054,-1.62 0.054,-2.436z" id="Shape" fill="#735200"/>
        <path d="M120.94,104.694c-12.009,-8.754 -18.218,-16.716 -22.571,-24.894c-2.291,-4.531 -4.166,-9.261 -5.602,-14.13c-1.345,-4.272 -5.326,-19.866 -4.804,-46.164c0.3,-15.36 1.85,-29.892 2.258,-35.4l7.367,2.754c0.847,5.646 -2.912,27.93 -0.636,60.132c0.516,7.29 2.786,14.298 4.419,21.408c1.587,6.57 4.327,12.807 8.094,18.42c2.954,4.536 7.428,7.212 12.009,9.936c0.282,1.308 -0.288,6.972 -0.534,7.938z" data-paper-data="{&quot;origPos&quot;:null}" id="Shape" fill="#824600"/>
        <path d="M121.432,120.846c0.549,2.427 0.899,4.896 1.045,7.38c-2.306,1.248 -13.636,-3.84 -15.678,-4.89c-3.469,-1.808 -6.686,-4.061 -9.571,-6.702c-28.359,-25.41 -26.065,-38.922 -26.822,-46.59l1.867,-1.8l1.622,-0.144c1.285,2.46 1.627,5.4 2.546,7.998c1,2.808 2.156,5.559 3.464,8.238c2.539,5.237 5.812,10.086 9.721,14.4c3.807,4.2 7.584,8.442 11.721,12.312c4.666,4.368 14.039,7.938 20.085,9.798z" id="Shape" fill="#824600"/>
        <path d="M128.322,90.096c1.964,5.22 2.648,8.946 1.567,14.58c-0.696,3.6 -3.302,8.01 -6.725,4.674c0,0 -22.46872,1.7927 -22.20869,-2.47459c0.34843,-5.718 19.92169,-22.94741 27.36669,-16.7794z" data-paper-data="{&quot;origPos&quot;:null}" id="Shape" fill="url(#color-3)"/>
      </g>
      <g id="Group-7" stroke-width="1">
        <path d="M280.929,174.918c-1.591,1.452 -4.587,0.744 -6.496,0.696l-8.287,-0.234c-5.71,-0.174 -11.408,-0.312 -17.136,-0.6c-5.248,-0.264 -10.466,-0.894 -15.702,-1.248c-2.586,-0.176 -5.176,-0.298 -7.77,-0.366c-1.927,-0.048 -4.804,0.444 -6.347,-0.99c3.315,-4.086 9.145,-3.414 13.895,-3.468c5.872,-0.066 11.949,0.36 17.767,-0.468c5.818,-0.828 11.841,-1.494 17.803,-1.002c6.149,0.51 8.761,2.838 12.273,7.68z" id="Shape" fill="#82783c"/>
        <path d="M-10.185,171.6h511.582v198.6h-511.582z" data-paper-data="{&quot;origPos&quot;:null}" id="Rectangle-path" fill="#533b00"/>
        <path d="M260.256,195.312c1.093,-10.914 13.852,-13.056 22.751,-14.202c13.018,-1.674 26.42,-2.58 39.522,-1.89c24.738,1.308 49.639,0.456 74.335,2.58c13.108,8.586 1.579,19.41 -9.703,22.074c-14.333,3.384 -29.458,2.358 -44.073,2.79c-15.474,0.456 -30.851,-0.066 -46.319,-0.24c-12.903,-0.15 -29.812,1.728 -36.513,-11.112z" id="Shape" fill="#ff0000"/>
        <path d="M290.122,268.2c2.474,-9.234 7.746,-16.002 16.885,-19.602c4.635,-1.818 9.403,-2.934 14.207,-2.52c8.484,0.726 15.803,4.17 19.688,13.596c0.301,0.714 0.739,1.356 1.039,2.07c0.862,2.039 1.252,4.246 1.141,6.456z" id="Shape" fill="#ff0000"/>
        <path d="M224.673,277.2c2.474,-9.234 7.746,-16.002 16.885,-19.602c4.635,-1.818 9.403,-2.934 14.207,-2.52c8.484,0.726 15.803,4.17 19.688,13.596c0.301,0.714 0.739,1.356 1.039,2.07c0.862,2.039 1.252,4.246 1.141,6.456z" id="Shape" fill="#ff0000"/>
        <path d="M167.937,269.604c-13.21,3.672 -25.615,2.568 -39.155,2.346c-6.392,-0.071 -12.739,-1.082 -18.836,-3c-5.284,-1.62 -11.571,-1.998 -15.3,-6.6c-5.02,-11.712 27.957,-10.032 32.953,-10.062c7.391,-0.036 14.729,0.798 22.036,1.8c7.626,1.074 15.156,1.272 22.781,1.962l1.339,3.774c-0.504,4.38 -2.311,7.47 -5.818,9.78z" id="Shape" fill="#ff0000"/>
        <path d="M35.652,187.554c0.426,-4.956 6.203,-6 10.208,-6.6c5.927,-0.899 11.924,-1.266 17.917,-1.098c11.228,0.444 22.517,-0.096 33.733,0.72c6.005,3.816 0.835,8.796 -4.269,10.074c-6.479,1.62 -13.342,1.248 -19.971,1.53c-7.019,0.3 -13.996,0.162 -21.016,0.174c-5.836,0.03 -13.498,0.984 -16.602,-4.8z" id="Shape" fill="url(#color-4)"/>
        <path d="M176.662,167.724l0.792,0.264c0.066,1.41 0.132,2.718 0.192,4.002c-0.108,0.09 -0.174,0.186 -0.252,0.198c-0.2,0.013 -0.4,0.013 -0.6,0c-0.106,-0.326 -0.179,-0.662 -0.217,-1.002c0.006,-1.068 0.054,-2.148 0.085,-3.462z" id="Shape" fill="#645a1e"/>
        <path d="M174.548,172.05c-0.204,-0.24 -0.408,-0.372 -0.42,-0.516c-0.073,-0.706 -0.108,-1.415 -0.102,-2.124c0.05,-0.393 0.137,-0.781 0.258,-1.158l0.672,0.348c0.162,2.652 0.162,2.652 -0.408,3.45z" id="Shape" fill="#645a1e"/>
        <path d="M180.246,172.092l-0.87,0.186c-0.571,-1.134 -0.079,-2.208 -0.175,-3.312l0.601,-0.18c0.48,1.092 0.306,2.178 0.444,3.306z" id="Shape" fill="#645a1e"/>
        <path d="M84.288,173.682c-0.204,-0.24 -0.408,-0.366 -0.426,-0.51c-0.071,-0.706 -0.103,-1.415 -0.096,-2.124c0.048,-0.396 0.134,-0.785 0.258,-1.164l0.673,0.354c0.192,2.652 0.192,2.652 -0.409,3.444z" id="Shape" fill="#645a1e"/>
        <path d="M89.993,173.73l-0.871,0.18c-0.564,-1.128 -0.078,-2.202 -0.168,-3.306l0.6,-0.18c0.475,1.086 0.307,2.178 0.439,3.306z" id="Shape" fill="#645a1e"/>
        <path d="M468.696,173.604l-0.685,-0.27c0.114,-1.8 0.421,-3.558 0.174,-5.442l0.847,-0.186c0.028,1.971 -0.084,3.942 -0.336,5.898z" id="Shape" fill="#645a1e"/>
        <path d="M466.414,170.25c0.12,1.062 0.234,2.04 0.36,3.15h-0.912c-0.066,-1.122 -0.126,-2.148 -0.192,-3.3z" id="Shape" fill="#645a1e"/>
      </g>
      <g id="Group" stroke-width="1">
        <path d="M310.171,110.016c1.129,1.734 4.33,5.13 4.245,7.2c-4.623,1.314 -11.126,0.528 -15.743,-0.558c-4.618,-1.086 -9.674,-2.484 -13.937,-4.458c-10.273,-4.8 -17.671,-12.51 -24.516,-21.36c-6.605,-8.484 -11.589,-17.358 -17.107,-26.472c-2.474,-4.08 -4.551,-8.616 -6.695,-12.876c-1.747,-3.48 -6.335,-9 -6.004,-12.984c0.643,-1.068 1.666,-1.854 2.864,-2.202c1.801,2.28 2.744,5.34 4.203,7.878c1.339,2.334 2.6,4.572 3.723,7.02c2.486,5.4 6.353,10.098 8.844,15.516c2.402,1.878 4.047,5.19 5.813,7.632c1.765,2.442 3.602,4.938 5.494,7.374c3.957,5.196 7.992,10.02 13.39,13.8c10.958,7.674 22.234,12.402 35.426,14.49z" id="Shape" fill="url(#color-5)"/>
        <path d="M332.148,90.318c0.384,-1.038 1.459,-1.596 2.329,-2.136c3.069,-2.017 6.339,-3.71 9.758,-5.052c3.402,-1.161 6.703,-2.598 9.871,-4.296c0.389,-0.181 0.79,-0.333 1.201,-0.456c0.697,0.366 0.276,0.906 -0.18,1.248c-1.266,1.013 -2.604,1.931 -4.005,2.748c-5.026,2.712 -10.304,4.926 -15.516,7.278c-1.08,0.48 -2.209,1.002 -3.458,0.666z" id="Shape" fill="url(#color-6)"/>
        <path d="M346.384,44.766c0.835,6.264 -0.642,13.2 -1.561,19.428c-0.944,7.004 -2.505,13.911 -4.665,20.64c-4.203,12.498 -10.844,27.708 -21.767,35.814c-0.492,-2.01 0.325,-4.308 0.481,-6.342c0.171,-2.584 0.159,-5.176 -0.036,-7.758c-0.258,-4.278 -1.063,-9.522 0.12,-13.704c7.067,-5.346 11.661,-12.768 15.221,-20.808c1.94,-4.386 3.699,-8.628 4.612,-13.344c0.858,-4.422 1.201,-9.174 2.666,-13.422c1.585,-0.87 3.134,-0.792 4.929,-0.504z" id="Shape" fill="url(#color-7)"/>
        <path d="M301.381,268.8c0.102,-6.402 1.081,-12.942 1.561,-19.284c0.576,-7.53 15.251,-268.17 17.791,-275.838c2.606,-0.66 5.218,-0.312 7.62,0.174c1.663,1.548 -4.419,72.228 -4.551,74.256c-0.157,2.724 -2.745,66.174 -3.003,68.616c-0.036,0.126 -0.036,0.24 -0.036,0.354c-0.15,1.446 -3.939,56.04 -3.993,58.482c-0.108,4.722 -3.765,72.24 -5.566,93.24z" id="Shape" fill="url(#color-8)"/>
        <path d="M278.107,268.8c2.636,-45.048 14.946,-254.904 16.747,-274.8h26.27c-4.816,74.208 -16.267,249.72 -18.53,274.8z" id="Shape" fill="#3b2a00"/>
        <path d="M295.929,268.8h-13.522l27.05,-171l-13.528,171" id="Shape" fill="#000000"/>
        <path d="M273.238,-9.3c1.405,-1.134 2.774,-3 4.443,-2.874c0.961,5.046 1.057,46.518 1.129,51.654c0.072,5.532 1.309,11.238 2.534,16.614c1.06,5.126 2.966,10.041 5.638,14.544c1.291,2.106 3.363,4.05 4.245,6.36c0.883,2.31 0.817,5.916 0.541,8.4c-4.24,-1.32 -7.98,-8.082 -10.016,-11.724c-2.504,-4.618 -4.28,-9.595 -5.266,-14.754c-2.342,-11.28 -4.257,-56.718 -3.248,-68.22z" id="Shape" fill="url(#color-9)"/>
      </g>
      <path d="M60.12,135.528c-1.068,-2.37 -1.068,-2.37 -1.014,-3.714c4.299,-4.542 10.333,-4.698 16.176,-4.614c3.68,0.054 12.249,0.216 11.408,5.358c-0.72,4.422 -5.662,5.076 -9.409,5.664c-5.861,1.026 -11.897,0.079 -17.161,-2.694z" id="Shape" fill="#ff0000" stroke-width="1"/>
      <g id="Group-6" stroke-width="1">
        <path d="M497.541,259.47v118.038h-511.63v-110.862l14.315,-15.246c38.5,0 66.295,0.756 88.866,2.286c7.98,0.546 41.965,5.052 58.244,6.714c20.775,2.118 54.947,4.2 93.069,4.2c69.16,0 90.116,-1.086 125.494,-4.8c26.053,-2.736 63.756,-8.4 114.686,-8.4z" id="Shape" fill="#a37400"/>
        <path d="M454.225,371.838c-9.991,0.6 -20.043,1.302 -30.022,1.302c-10.256,0.024 -20.428,-0.66 -30.713,-0.288c-9.704,0.348 -109.414,0.348 -119.117,0c-10.298,-0.372 -20.458,0.288 -30.713,0.288c-9.98,-0.018 -20.031,-0.702 -29.993,-1.302c1.615,-8.61 13.462,-15.6 21.052,-17.934c10.292,-3.162 22.054,-2.436 32.718,-2.952c11.679,-0.57 118.337,-0.696 129.097,-0.186c19.424,0.9 41.707,-1.122 55.079,15.9c1.298,1.473 2.197,3.254 2.612,5.172z" id="Shape" fill="url(#color-10)"/>
        <path d="M38.979,287.13c-6.107,11.322 -21.106,9.432 -32.575,9.432h-6.178v-23.652c7.301,0.288 14.362,0.732 18.71,1.332c7.889,1.122 19.202,3.18 20.043,12.888z" id="Shape" fill="#ff0000"/>
        <path d="M461.875,274.242c4.347,-0.6 11.408,-1.044 18.71,-1.332v23.652h-6.179c-11.468,0 -26.468,1.89 -32.574,-9.432c0.84,-9.708 12.153,-11.766 20.043,-12.888z" id="Shape" fill="none"/>
        <path d="M123.318,259.8c-0.09,-1.35 -0.217,-2.4 0.15,-3.6l0.774,0.078v3.156z" id="Shape" fill="#82783c"/>
        <path d="M121.384,258.972h-0.726c-0.301,-0.876 0.15,-1.716 -0.072,-2.616l0.834,-0.294c0.264,1.056 -0.114,1.938 -0.036,2.91z" id="Shape" fill="#82783c"/>
        <path d="M198.668,260.046l0.793,0.27c0.066,1.404 0.126,2.718 0.186,3.996c-0.108,0.09 -0.174,0.186 -0.252,0.198c-0.2,0.016 -0.401,0.016 -0.601,0c-0.105,-0.328 -0.178,-0.666 -0.216,-1.008c0.006,-1.062 0.054,-2.136 0.09,-3.456z" id="Shape" fill="#82783c"/>
        <path d="M196.572,264.372c-0.204,-0.24 -0.408,-0.366 -0.42,-0.51c-0.073,-0.706 -0.107,-1.415 -0.102,-2.124c0.05,-0.396 0.139,-0.785 0.264,-1.164l0.667,0.348c0.138,2.658 0.138,2.658 -0.409,3.45z" id="Shape" fill="#82783c"/>
        <path d="M202.247,264.414l-0.871,0.186c-0.57,-1.134 -0.078,-2.208 -0.174,-3.306l0.6,-0.18c0.481,1.086 0.313,2.172 0.445,3.3z" id="Shape" fill="#82783c"/>
        <path d="M359.414,261.804l-0.684,-0.27c0.114,-1.8 0.42,-3.558 0.174,-5.442l0.846,-0.186c0.028,1.971 -0.084,3.942 -0.336,5.898z" id="Shape" fill="#82783c"/>
        <path d="M357.132,258.45c0.121,1.062 0.235,2.04 0.361,3.15h-0.913c-0.066,-1.122 -0.126,-2.148 -0.192,-3.3z" id="Shape" fill="#82783c"/>
      </g>
      <path d="M184.50125,240.33882c-0.00083,0.2202 -0.00125,0.44059 -0.00125,0.66118c0,0 0,2.5 -2.5,2.5c-2.5,0 -2.5,-2.5 -2.5,-2.5c0,-4.29561 -0.26686,-8.7136 0,-13c0.37858,-6.08074 1.70152,-12.10317 2.00744,-18.19913c0.17992,-3.58514 -0.21035,-6.88266 0.5672,-10.40721c2.14425,-8.57699 4.26774,-17.46804 5.51114,-26.17184c0.40982,-2.86875 0.65516,-5.74777 1.54251,-8.51239c0.16107,-0.50183 0.07515,-1.1881 0.5,-1.5c2.64839,-1.94428 8.043,-2.69511 11.29416,-3.34946c2.70163,-0.5301 5.39878,0.03379 8.07755,-0.35997c3.58891,-0.52756 7.27348,-1.61767 11,-1c2.70694,0.44868 5.25906,1.71215 7.38675,3.41987c0.86282,0.69251 1.42749,1.75128 2.38101,2.31236c0.59216,0.34844 1.39101,0.12606 2.02281,0.39605c2.13293,0.91149 4.15991,2.02614 6.09618,3.29158c1.65215,1.10144 5.00642,3.40992 5.88101,5.31236c0.89115,1.93849 0.90052,4.18825 1.66427,6.18038c0.49815,1.29937 1.67925,2.24784 2.24782,3.51798c1.18864,2.65535 1.65991,5.60422 2.70328,8.31395c0.81051,2.10495 2.57065,4.52249 2.91474,6.77065c0.66634,4.3537 0.20213,9.08874 0.20213,13.4848c0,2.07392 -0.25863,4.43654 0,6.5c0.18929,1.51021 0.92535,1.68746 0.92535,3.39366c0,3.06118 -0.92535,5.98465 -0.92535,9.10634c0,3.34363 0.54566,7.208 0,10.5c-0.4843,2.92182 -1.86712,5.72812 -2.57465,8.60634c-0.80826,3.23303 -2.14362,6.684 -2.5,10c-0.10717,0.99712 0.38628,2.45067 0.07465,3.39366c-1.57943,4.77938 -5.56989,7.67302 -8.98156,11.04107c-0.10213,0.10082 -3.283,3.7267 -3.75067,3.7267c-4.46075,0 -6.74469,-2.67711 -8.76776,-6.26776c-0.9681,-1.71823 -1.51315,-4.06116 -2.24967,-5.89272c-0.61464,-1.53662 -2.44875,-3.71956 -2.85767,-5.26225c-0.37957,-1.43198 -0.62178,-3.18645 -0.75318,-5.06045c-2.17006,4.78567 -3.73179,10.84324 -7.37171,14.48317c-1.78651,1.78651 -5.1727,3.98958 -7.55833,1.60395c-0.87637,-0.87637 -1.38743,-2.0541 -2.08114,-3.08114c-0.11147,-0.33441 -0.21343,-0.68787 -0.30639,-1.05754c-0.43421,1.12603 -0.88646,2.23987 -1.35766,3.33783c-1.07461,2.50402 -2.88841,5.26851 -5.232,6.73244c-0.76306,0.47665 -1.67668,0.65795 -2.53699,0.92122c-0.39968,0.12231 -0.92197,0.51231 -1.23224,0.23224c-1.38011,-1.24579 -2.26983,-2.94527 -3.40475,-4.41791c-0.33769,-1.68847 -1.18491,-3.56603 -1.43293,-5.25721c-0.41557,-2.83368 -0.12533,-5.92093 -0.12533,-8.78163c0,-2.46634 0.83799,-6.70845 0,-9c-0.09309,-0.25456 -0.00116,0.8166 -0.26776,0.76776c-0.98684,-0.18077 -2.05923,-3.36632 -2.10395,-3.47719c-1.07405,-2.66326 -1.10818,-5.31246 -1.62704,-7.95175zM196.67586,333.83987c-0.18234,0.11399 -0.35591,0.23608 -0.44362,0.39236c-0.13934,0.24827 0.13278,-0.0465 0.44362,-0.39236zM182.34047,339.18103c-0.20821,0.04087 -0.41646,0.0816 -0.62463,0.12266c0.01901,0.00171 0.03686,0.00413 0.05338,0.00733c0.15134,0.0293 -0.19447,0.55106 -0.07252,0.45675c0.23019,-0.17802 0.44099,-0.37782 0.64377,-0.58674z" data-paper-data="{&quot;origPos&quot;:null}" fill="#000000" stroke-width="0.5"/>
      <path d="M282.32614,267.52137c2.47863,0.32614 2.1525,2.80477 2.1525,2.80477l-0.05328,1.2802c-0.16667,0.66667 -0.33333,1.33333 -0.5,2c-1.39486,5.50297 -3.02596,10.66527 -3.42536,16.39366c-0.24259,3.47935 0.118,7.01356 0,10.5c-0.09133,2.69851 -1,4.78981 -1,7.5c0,0 0,2.5 -2.5,2.5c-2.5,0 -2.5,-2.5 -2.5,-2.5c0,-2.49883 0.72319,-4.38262 1.12829,-6.79057c0.59035,-3.50903 -0.37643,-7.60042 -0.12829,-11.20943c0.42305,-6.15299 2.11924,-11.68574 3.57464,-17.60634c0.16667,-0.66667 0.33333,-1.33333 0.5,-2l-0.05328,-0.7198c0,0 0.32614,-2.47863 2.80477,-2.1525z" fill="url(#color-11)" stroke-width="0.5"/>
      <path d="M283.64645,86.47488c-2.47487,-0.35356 -2.14645,-2.47487 -2.14645,-2.47487v-1.5c0,-6.59061 1.11534,-13.33699 2.471,-19.96485c-0.51826,-0.75394 -0.46715,-1.67382 -0.46715,-1.67382l0.50906,-3.37839c0.51563,-0.6754 0.99537,-1.29779 1.44653,-1.91694c0.19275,-0.886 0.38423,-1.76799 0.57223,-2.64532c1.21238,-5.37494 1.17479,-10.9961 1.49556,-16.53697c-1.67324,-8.37461 -1.20236,-17.17255 -1.06063,-25.76706l-0.89197,-0.22299l0.98732,-3.94927c0.02654,-0.11698 0.0613,-0.23084 0.10361,-0.34096c0.24367,-0.71716 0.84591,-1.60344 2.33443,-1.60344c1.48852,0 2.09076,0.88628 2.33443,1.60344c0.10696,0.27831 0.16557,0.58059 0.16557,0.89656v4.95736c0.36128,-1.80353 0.71316,-3.60516 1.04032,-5.40458c0,0 0.44722,-2.45967 2.90689,-2.01246c2.45968,0.44721 2.01246,2.90689 2.01246,2.90689c-1.48419,8.16307 -3.47641,16.37163 -4.55003,24.5954c-0.21519,1.64833 -0.35891,3.30609 -0.46976,4.96815c1.02866,5.74321 2.03111,11.35553 -0.28002,17.13458c-0.60375,1.2469 -1.28521,2.36648 -2.02754,3.45148c-1.7865,8.17227 -3.63233,16.68402 -3.63233,24.90317v1.5c0,0 -0.37868,2.82843 -2.85355,2.47487zM291.40924,12c-0.00505,0.16213 -0.01024,0.32439 -0.01553,0.48676c0.03265,-0.16226 0.06524,-0.32452 0.09775,-0.48676z" fill="#000000" stroke-width="0.5"/>
      <path d="M220.03848,175.43777c-0.47225,0.64112 -1.01566,1.24944 -1.21392,1.9821c0.07185,0.17638 0.14551,0.35312 0.20531,0.52703c0.1944,-0.16191 0.39044,-0.32183 0.58877,-0.47897c0.32459,-0.25717 0.62583,-0.53418 0.90779,-0.82756c-0.12812,-0.23731 -0.26125,-0.47026 -0.40341,-0.69535c-0.02818,-0.16908 -0.05636,-0.33817 -0.08454,-0.50725zM224.19988,180.52778c-0.8895,1.05262 -1.82751,1.99563 -2.90349,2.64425c-0.66832,0.40286 -1.42753,0.61853 -2.19359,0.8077c-0.45595,0.64305 -0.91918,1.21875 -1.47716,0.91956c-0.19794,-0.10613 -0.38832,-0.21289 -0.57135,-0.32026c-0.26636,0.064 -0.51611,0.06383 -0.71042,-0.10279c-0.51287,-0.43977 -0.96965,-0.91626 -1.376,-1.42361c-1.12284,-1.0598 -1.68681,-2.1735 -1.86812,-3.34074c-1.49151,-3.96268 -1.31041,-8.74513 -1.02987,-12.7144c0.1175,-1.66252 -0.45034,-3.52701 0.35251,-4.98756c1.19581,-2.17542 3.14451,-3.41229 5.03049,-4.80522c2.8132,-2.07774 5.08602,-4.00302 8.04819,-5.27832c0.03894,-1.34667 1.14284,-2.42639 2.49893,-2.42639c0.88311,0 1.65927,0.45789 2.10402,1.14921c2.65299,-0.53763 5.32029,-1.11779 7.99776,-1.6993c0.4837,-1.67586 1.12344,-3.31659 1.39822,-4.94991c0.26676,-1.5856 0.12752,-3.27792 0.73224,-4.76776c0.38595,-0.95089 2.26526,-2.26526 3,-3c0.08926,0.25592 0.22636,1.03563 0.26776,0.76776c0.25461,-1.64711 0,-3.33334 0,-5c0,-3 0,-6 0,-9c0,-3.79363 0.94063,-9.03172 -0.58013,-12.61325c-2.04066,-4.80594 -5.81923,-7.34649 -1.91987,-12.88675c0.21577,-0.30656 4.6891,0 5,0c3.80848,0 7.98022,-0.45407 11.74133,0.11244c4.86692,0.73307 9.56743,3.09779 14.00925,5.00289c2.64461,1.13428 5.61469,1.48393 8.2482,2.66845c1.88699,0.84874 3.29108,1.86048 4.20834,3.16465c0.25408,-0.54108 0.48388,-1.08873 0.67299,-1.64814c2.44104,-7.22094 2.01778,-15.27646 4.87023,-22.40758c0.66559,-1.64869 2.25349,-3.78706 2.74967,-5.39271c0.39074,-1.26445 0,-3.70917 0,-5c0,-2.8761 0.59813,-6.41669 0.12829,-9.20943c-0.38243,-2.27315 -1.36313,-4.76855 -2,-7c-0.77519,-2.71605 -1.93781,-5.3524 -2.09046,-8.2238c-0.02943,-0.55351 -0.12784,-1.2714 0.28816,-1.6377l0.28076,-1.5957c0.18778,-1.19488 1.22195,-2.10878 2.46957,-2.10878c0.80086,0 1.51376,0.37656 1.9713,0.9623l1.65852,2.08522c0.93986,1.15953 2.12442,2.11488 3.01771,3.31148c0.21617,0.28957 -0.04287,0.89475 0.28539,1.04583c3.5282,1.62387 7.48783,-0.76237 10.88443,-1.55478c2.19772,-0.51272 4.13806,-0.82076 6.39691,-0.44635c0.51995,0.08619 1.36008,-0.00814 1.5,0.5c0.01168,0.04244 0.01532,0.08248 0.01205,0.12047c0.18613,0.13642 0.14555,0.98976 0.19738,0.75124c0.55277,-2.54378 0,-5.8698 0,-8.5c0,-2.90412 -0.5283,-4.65418 -1,-7.5c-0.36325,-2.19156 0,-4.78476 0,-7c0,-7.80298 0.23909,-14.42428 4.35627,-21.28624c0,0 1.28624,-2.14373 3.42997,-0.85749c2.14373,1.28624 0.85749,3.42997 0.85749,3.42997c-0.85749,1.42915 -1.96205,2.73661 -2.57247,4.28747c-1.68121,4.27132 -1.07126,9.92514 -1.07126,14.4263c0,2.2119 -0.36802,4.81245 0,7c0.4284,2.54638 1,4.78509 1,7.5c0,2.35352 0.78092,6.35061 0,8.5c-0.52977,1.45813 -1.21652,3.43697 -2.73224,3.76776c-3.02004,0.6591 -4.97845,-0.67778 -7.76776,-0.26776c-4.43178,0.65145 -9.33856,4.23189 -13.9532,2.10799c-1.21913,-0.56111 -2.32817,-1.40664 -3.34698,-2.37462c0.06276,0.16484 0.12082,0.32412 0.17189,0.47606c1.99233,5.92796 2.62829,11.06284 2.62829,17.29057c0,2.04193 0.54287,5.01651 0,7c-0.68091,2.48784 172.84243,194.84921 171.89272,197.24967c-2.72509,6.81273 -177.26608,-175.4134 -179.60411,-168.4972c-0.94855,2.80591 -2.76268,5.25045 -3.74966,8.03639l-0.649,1.94702c-0.31417,1.02156 -1.26534,1.76412 -2.38994,1.76412c-1.38071,0 -2.5,-1.11929 -2.5,-2.5v-2c-0.65704,-0.64609 0.75507,-4.47833 0,-5c-0.34691,-0.23968 -0.51236,0.91575 -0.92997,0.8575c-0.82535,-0.11513 -1.38374,-0.94441 -2.14373,-1.28624c-1.74946,-0.78688 205.13695,251.85644 203.29473,251.2766c-5.17271,-1.62811 -218.97129,-257.6353 -224.46235,-258.46029c-3.17516,-0.47705 -7.01159,0.11244 -10.25867,0.11244c-0.49111,0 -0.98221,0 -1.47332,0c0.36318,1.17566 0.75415,2.52864 0.84503,2.70943c1.01535,2.01977 1.87129,2.75939 2.55364,5.18423c0.71033,2.52421 0.57465,5.00662 0.57465,7.60634c0,4.66666 0,9.33334 0,14c0,1.66666 0.52063,3.41674 0,5c-0.33999,1.03392 -1.15483,1.84517 -1.73224,2.76776c-0.70023,0.70023 -2.66513,2.08427 -3,3c-0.08926,0.24408 0.59948,-0.49118 0.73224,-0.26776c0.25543,0.42983 0.08176,1.00673 0,1.5c-0.20573,1.24116 -0.44009,2.4839 -0.69212,3.72627c7.1377,-1.49327 14.32642,-2.7905 21.48893,-3.12211l-0.0005,-0.02266l1.86948,-0.04145c0.22087,-0.14072 0.44051,-0.28336 0.6589,-0.4278l1.76012,-1.17341c0.40239,-0.2768 0.88986,-0.43884 1.41519,-0.43884c1.38071,0 2.5,1.11929 2.5,2.5c0,0.34826 -0.07121,0.67988 -0.19986,0.98111l-0.90742,2.26856c0.04019,0.75902 -0.20876,1.53089 -0.92847,2.32119c-0.82849,0.90974 -1.85309,1.72465 -2.99325,2.4699c0.0821,0.26986 0.14846,0.54389 0.19619,0.82216c0.10257,0.59796 -0.8998,0.81413 -1.35627,1.21377c-0.34217,0.29957 -0.67257,0.61447 -1.01497,0.91416c-0.20791,0.48111 -0.56261,0.88395 -1.00765,1.15208l-2.0833,1.30206c-0.31014,0.77347 -1.41333,0.88333 -2.11999,1.325v0c-2.63877,1.64923 -5.19809,3.3608 -7.74751,5.1454c-4.74898,3.32429 -9.32046,6.66966 -14.15832,9.62828l-0.73921,3.00341c-0.24948,1.11758 -1.24717,1.95292 -2.43996,1.95292c-1.1246,0 -2.07576,-0.74256 -2.38994,-1.76412l-0.01515,-0.04543c-1.09975,0.56294 -2.21963,1.10078 -3.3641,1.60943c-1.78349,0.79266 -3.78036,1.13026 -5.73082,1.20013c-0.09763,0.00349 -0.19799,0.01358 -0.30012,0.02778zM227.02625,159.88036c-0.06172,-0.295 -0.31513,-1.47995 -0.49493,-2.66804c-1.85597,1.17507 -3.62895,2.92201 -5.10795,4.01434c-0.67032,0.49508 -1.2312,1.19135 -2.01098,1.48525c-0.33113,0.12481 -0.83198,-0.65959 -1.00245,-0.34948c-0.40142,0.73028 -0.1175,1.66252 -0.17625,2.49378c-0.06961,0.985 -0.21513,2.03314 -0.34301,3.08693c0.60961,-1.75101 1.33579,-3.76653 2.22455,-4.61159c1.64855,-1.56748 3.9772,-2.31725 6.04595,-3.11685c0.28835,-0.11146 0.57672,-0.22291 0.86507,-0.33436zM317.35383,51.07836c-0.04897,0.0478 -0.09063,0.09871 -0.1216,0.15387c-0.09289,0.16551 -0.02405,0.04942 0.1216,-0.15387zM242.42207,167.11664c0.85639,-0.60942 1.71262,-1.21944 2.56943,-1.82872c-0.76692,0.32052 -1.49728,0.71101 -1.9915,1.21209c-0.20236,0.20516 -0.39441,0.41093 -0.57793,0.61664zM237.05449,154.50115c-1.79274,0.3889 -3.57953,0.76966 -5.35877,1.12882c-0.00649,0.03579 -0.01343,0.07178 -0.02068,0.10793c0.16204,0.49114 0.39636,0.96511 0.678,1.4237c0.56304,-0.42042 1.14799,-0.83358 1.76021,-1.24172c0.94896,-0.5676 1.93293,-1.0274 2.94124,-1.41873zM221.9343,171.53302l1.51544,0.62862c0.30098,-0.58265 0.59826,-1.16877 0.90769,-1.74499c-0.60616,-0.16075 -1.12194,-0.54351 -1.45504,-1.05596c-0.3227,0.72411 -0.64539,1.44822 -0.96809,2.17232zM232.58931,173.54124c-0.12784,-0.12804 -0.25277,-0.26059 -0.37836,-0.37566c-0.54395,0.43703 -1.08692,0.86443 -1.6303,1.27381c0.67459,-0.26693 1.34861,-0.57127 2.00867,-0.89814z" fill="url(#color-12)" stroke-width="0.5"/>
      <path d="M348.47573,221.01844c1.03956,-0.79967 1.95328,-0.63443 2.58706,-0.29663c0.03595,-0.22673 0.07098,-0.43034 0.10879,-0.60049c0.78156,-3.51699 1.76081,-6.02648 5.02448,-6.40001c-0.06112,-0.47772 0.01549,-0.89906 0.30394,-1.22131v-1.5c0,-1.38071 1.11929,-2.5 2.5,-2.5c0.69036,0 1.31536,0.27983 1.76776,0.73224l1.57921,1.57922c1.19498,0.1942 3.1278,0.30186 3.42079,0.42078c0.6841,0.27767 2.89272,2.59771 3.4065,2.9804c3.26396,2.43114 5.12448,5.9496 8.06608,8.61675c0.15307,0.13879 0.46214,0.31422 0.85339,0.5111c-0.01331,-1.05524 0.1511,-2.17849 0.51952,-3.42061c0.17088,-0.57612 0.93327,-0.80018 1.5,-1c0.18574,-0.06549 0.38849,0.44047 0.51504,0.28956c2.60651,-3.10827 1.19914,-8.25467 3.69234,-11.54048c-0.26808,-0.3517 -0.44149,-0.6465 -0.40075,-0.7822l-0.98104,-1.47156c-0.27681,-0.40239 -0.43883,-0.88986 -0.43883,-1.41519c0,-1.38071 1.11929,-2.5 2.5,-2.5c0.69036,0 1.31536,0.27983 1.76776,0.73224v0l1.08591,1.0859c5.20135,5.16631 11.59792,5.18186 18.64633,5.18186c2.16667,0 4.33333,0 6.5,0c0.44207,0 0.96253,-0.175 1.43662,-0.2465l0.16971,-0.67886l3.94927,0.98731c1.1133,0.25265 1.94439,1.24829 1.94439,2.43804c0,1.38071 -1.11929,2.5 -2.5,2.5h-1.50154c-0.00231,0.52285 -0.00734,1.05185 -0.01799,1.62025c-0.04877,2.60448 -0.53913,4.92054 -1.04845,7.46714c-0.271,1.35497 -0.85965,2.65439 -0.9611,4.03247c-0.3666,4.97968 2.02907,10.32322 2.02907,15.38015c0,2.66666 0,5.33334 0,8c0,0.30208 0.03995,0.61513 0.08883,0.93063c0.62466,-1.09123 1.26826,-2.21129 1.37684,-2.38373c3.36805,-5.34911 9.26313,-13.85364 15.8021,-7.31467c2.90312,3.78555 3.74367,8.41862 0.02281,12.13948c-0.99588,0.99588 -5.49406,1.91339 -6.79057,2.12829c-1.72663,0.28619 -3.74588,0.04536 -5.54166,0.00539c0.81392,2.87228 1.18242,6.59984 3.30942,8.72684c2.93022,2.93022 5.26205,4.79172 5,9.53553c-0.026,0.47069 -0.61838,0.72326 -1,1c-2.7895,2.02283 -4.55547,2.49752 -7.84789,0.61899c-0.52195,-0.2978 -0.80018,-0.93327 -1,-1.5c-0.06549,-0.18574 0.44047,-0.38849 0.28956,-0.51504c-2.8,-2.348 -4.89122,-0.54185 -7.70896,-4.32346c-0.30331,-0.40707 -0.3517,-1.13045 -0.0294,-1.52265c0.21781,-0.26504 1.17759,0.66087 0.94424,0.4094c-1.51258,-1.62999 -3.71284,-2.65289 -4.88618,-4.54181c-0.64096,-1.03187 0.16566,-2.51093 -0.30305,-3.6316c-0.21468,-0.51331 -0.78412,-0.7896 -1.17618,-1.18441c-0.10221,-0.90904 -1.58943,-0.9512 -2.47196,-1.19189c-2.26569,-0.61791 -4.55793,-1.41468 -6.85402,-1.90058c-5.05475,-1.06967 -10.40936,-0.92047 -15.51529,-1.72392c-1.20492,-0.1896 -2.43702,-0.29859 -3.59538,-0.68066c-0.71485,-0.23578 -0.90493,-1.32541 -1.61325,-1.58013c-0.91045,-0.3274 -2.22062,-0.32151 -3.5356,-0.23679c0.24152,0.62028 0.31482,1.58456 -0.77872,2.58301c-1.84621,1.68568 -3.73791,-0.41851 -3.73791,-0.41851l-1.09871,-1.57932c0.20839,-0.17622 0.87288,-0.41412 0.62518,-0.52868c-1.51273,-0.69959 -3.30446,-0.43779 -4.95668,-0.65669c-2.81431,-0.37286 -5.28264,-0.69672 -7.90696,-1.81191c-1.539,-0.66935 -2.98078,-1.75201 -4.43408,-2.60583c-2.3046,0.16616 -4.91619,-0.54737 -6.99105,-0.88044c-4.47529,-0.7184 -8.73445,-0.36394 -13.18545,-0.86483c-1.82241,-0.20508 -3.58442,-0.79296 -5.3556,-1.3107c-0.01607,-0.00244 -0.03213,-0.00488 -0.0482,-0.00732c-2.57878,-0.39125 -4.99561,-0.68198 -7.5962,-0.68198c-0.83333,0 -1.91075,0.58926 -2.5,0h-2.5c-1.38071,0 -2.5,-1.11929 -2.5,-2.5c0,-1.38071 1.11929,-2.5 2.5,-2.5h1.5c0.33437,0 0.67178,-0.00429 1.01152,-0.01131c0.45884,-0.44227 1.20461,-0.19181 1.90247,-0.05704c1.17831,-0.04015 2.36817,-0.07855 3.54117,-0.05354c-0.91292,-0.14497 -1.64368,-0.48944 -1.84191,-1.29798l-1.46774,-0.97849c-0.68926,-0.44513 -1.14551,-1.2201 -1.14551,-2.10163c0,-1.31889 1.0213,-2.39925 2.31619,-2.49335c-0.10541,-0.00211 -0.2108,-0.00432 -0.31619,-0.00665c-1.09742,-0.02432 -2.2022,0.01445 -3.29057,-0.12829c-0.52257,-0.06853 -1.31439,-0.00672 -1.5,-0.5l-1.44531,-0.48177c-1.02156,-0.31418 -1.76412,-1.26534 -1.76412,-2.38994c0,-1.38071 1.11929,-2.5 2.5,-2.5h3v0.00523c6.09236,0.0428 11.92284,0.35033 18,0.99477c4.5447,0.48193 8.98485,-0.2639 13.41242,0.35161c-0.24178,-0.52785 0.08758,-1.24403 0.08758,-1.85161h0.21706c-0.31396,-0.69163 -0.59175,-1.94278 0.75866,-2.98156zM386.02439,212.26022c-0.15213,0.02919 -0.29451,0.07843 -0.41805,0.16514c-0.23733,0.1666 0.01857,0.0153 0.41805,-0.16514zM425.62959,271.42454c-0.02127,0.0294 -0.04309,0.05786 -0.06549,0.08527c0.15496,0.02927 0.30487,0.03812 0.4359,-0.0098c0.13896,-0.05082 -0.11712,-0.0465 -0.37041,-0.07547z" fill="#3b2a00" stroke-width="0.5"/>
      <path d="M265,285v0v0v0z" fill="#b40000" stroke-width="0"/>
      <path d="M211.19795,198.32305l1.50308,0.49937c3.10652,0.17606 4.86422,-0.27702 6.54923,-1.78778c2.20059,0.55853 4.46311,0.91972 6.16285,1.34465c0,0 2.38289,0.69679 2.98923,-1.72857c0.60634,-2.42535 -1.81417,-3.02949 -1.81417,-3.02949c-1.08774,-0.27194 -2.25178,-0.59752 -3.46898,-0.85898c1.78466,-0.8629 4.55664,-1.02421 6.01922,-1.57184c3.94063,-1.47547 8.5109,-3.57098 11.38114,-6.95749c0.64658,1.05834 1.38437,2.07803 1.88975,3.20702c1.01952,2.27757 1.34583,4.93803 2.24493,7.28226c0.81968,2.13716 149.82477,103.92422 150.09131,106.23776c0.41515,3.60341 -147.19656,-91.14646 -147.19656,-87.4701c0,2.07475 -0.25649,4.44582 0.00104,6.5102c0.19518,1.56455 1.07413,3.03672 1.07413,4.61341c0,0.98709 -0.86405,1.8142 -1.00084,2.79176c-0.71405,5.10252 0.76859,10.56226 -0.08307,15.62448c-0.4006,2.38112 -1.82393,5.00441 -2.43123,7.4003c-0.80982,3.23928 -2.13517,6.68497 -2.50711,10.00559c-0.17093,1.5261 0.44211,3.1623 -0.07675,4.60764c-0.40967,1.14121 -1.56548,1.85601 -2.35645,2.77502c-1.45426,1.68969 -3.54407,3.13277 -5.14465,4.71019c-0.6628,0.65322 -1.32703,1.30785 -1.98702,1.96392c-0.1024,-0.06781 -0.19304,-0.13793 -0.25475,-0.21228c-0.45699,-0.55059 -0.84217,-1.15731 -1.26839,-1.73205c-1.63318,-2.20229 -2.08055,-4.16749 -3.10842,-6.74935c-0.76872,-1.92181 -2.8285,-4.17972 -3.28731,-6.0949c-0.28546,-1.19162 0.36947,-2.5269 0.36947,-3.75223c0,-3.19585 -0.46977,-6.83207 -0.00429,-9.99869c0.15564,-1.05882 0.41844,-2.00968 0.63779,-2.98616c0.04291,-0.14133 0.07475,-0.28032 0.08918,-0.41495c0.04061,-0.19711 0.07783,-0.39565 0.11172,-0.59725l0.15697,0.00012l-0.00261,-2.99869c0,-1.38071 -1.07459,-2.41059 -2.4553,-2.41059c-1.25484,0 -2.30137,0.92732 -2.48037,2.13236l-0.40658,2.42604c-0.56209,0.43904 -0.2965,1.34653 -0.3518,2.1011c-0.00931,0.12706 -0.02803,0.24984 -0.06114,0.36529c-0.40747,1.42103 -1.19733,2.70615 -1.76394,4.07155c-2.10731,5.07814 -5.06423,9.93101 -6.83385,15.11752c-0.83962,2.4608 -1.19903,3.8231 -2.89844,5.52251c-0.31111,0.31111 -0.62301,0.62211 -0.93412,0.93322c-0.00208,-0.01222 -0.00486,-0.02465 -0.00834,-0.03728c-0.13383,-0.48602 -3.19791,-0.62747 -0.41934,-0.41894c-0.65001,-1.95005 -0.37321,-3.63577 -0.37321,-5.70971c0,-2.70391 -0.34614,-5.70466 -0.07031,-8.4287c0.11981,-0.46765 0.26218,-1.03162 0.37747,-1.49795c0.2243,-0.45186 0.48106,-0.79197 0.56249,-1.28324c0.09257,-0.5585 0.1047,-1.16917 0.08679,-1.80301c0.15473,-0.88637 0.28367,-1.77801 0.40096,-2.71636c0.10336,-0.8269 0.78646,-1.7976 0.30943,-2.48088l0.30442,-2.4418c0.01595,-0.11411 0.02403,-0.23075 0.02403,-0.34926c0,-1.38071 -1.12604,-2.50263 -2.50674,-2.50263c-1.1246,0 -2.0302,0.65359 -2.34437,1.67515l-0.98267,2.94483l0.20894,0.06958c-0.07971,0.75728 -0.08257,1.49595 -0.07122,2.23118c-0.10273,1.29712 -0.15929,2.73087 -0.25012,3.1781c-0.20739,1.02125 -0.4421,2.03871 -0.69699,3.05306c-0.13712,0.40208 -0.25489,0.80841 -0.31881,1.22684c-1.12168,4.18906 -2.56399,8.31929 -3.92361,12.3951c-0.93613,2.80629 -2.01174,5.72222 -4.15392,7.72738c-0.20926,0.19588 -0.40598,0.40574 -0.60051,0.61766c-0.42521,-1.78028 -1.24787,-3.64043 -1.4924,-5.40067c-0.37616,-2.70771 0.12186,-5.95281 0.12186,-8.72023c0,-1.97357 0.72846,-5.69819 -0.00391,-7.50255c-0.58346,-1.43749 -1.94981,-2.43421 -2.73659,-3.77129c-1.53247,-2.60434 -1.20279,-6.91152 -1.85009,-9.84737c-0.52126,-2.08504 -1.65716,-4.25949 -1.4299,-6.40187l-0.00108,-2.00268c0,0 -100.46966,-281.82327 -102.89502,-282.42961c-0.20175,-0.05044 100.60848,279.92398 100.43026,279.92004c0.3125,-4.54763 0.7344,-9.112 1.1962,-13.73003c0.39375,-3.93751 -0.45645,-8.41155 0.69739,-12.19622c0.59727,-2.38908 0.78337,-4.80352 1.26182,-7.20997c1.14846,-5.77643 3.18356,-11.20896 4.01236,-17.01055c0.33334,-2.33334 0.67029,-4.66866 1.00362,-7.00199c0.13852,-0.96965 0.3108,-1.94469 0.61148,-2.87676c0.57907,0.03528 1.20413,-0.02733 1.2089,-0.02814c2.33651,-0.39853 4.56222,-1.294 6.89113,-1.73573c3.49783,-0.68633 14.56497,-2.82366 18.12488,-2.6424c10.67974,0.54378 5.54023,18.23424 75.9962,8.3746c24.45531,-3.42229 -42.33345,-3.09354 -66.96758,-4.80646c-42.99483,-2.98961 -51.52365,-9.34437 -9.02228,-2.19407c2.76377,0.46497 4.0816,2.96339 6.23852,4.26847c2.3144,1.40037 4.91298,2.11445 7.30429,3.36794c-1.77387,0.44789 -3.48353,1.28153 -5.05749,2.46201c-2.38289,1.87325 -5.21543,3.12145 -8.09795,4.07602c-1.23278,0.40824 -2.60916,0.57616 -3.87659,0.9825c-0.05404,-0.11597 -0.1018,-0.23186 -0.14038,-0.34758c-1.28792,-3.86375 -4.11239,-8.08807 -8.15439,-9.58195c-0.68246,-0.25223 -167.76456,68.25532 -168.49539,68.49893c-1.86265,0.83007 161.69397,-65.20154 160.50397,-64.50131c-1.23201,0.72495 -2.7501,0.86219 -3.97313,1.6022c-1.54073,0.93224 -2.60422,2.81104 -3.09943,4.47473c-1.61536,5.42693 0.80068,9.99377 3.90512,14.25807c-0.37799,0.87509 -1.11502,1.58049 -1.79257,2.25803l1.76647,0.26899c0,0 -2.49591,-0.00416 -2.49591,2.49584c0,2.5 2.42447,2.43446 2.42447,2.43446l1.77094,-1.7356c0.54471,-0.54471 1.0454,-1.06308 1.48704,-1.60195c0.59289,0.76457 1.17108,1.52508 1.71369,2.28474c0,0 1.45743,2.03113 3.49176,0.57803c2.03433,-1.45309 0.6321,-3.40148 0.6321,-3.40148c-0.77633,-1.08687 -181.85848,26.61231 -182.93988,25.31212c1.44291,-1.07297 183.63239,-31.45701 184.25226,-31.87025c1.30256,-0.86837 -5.24308,39.30359 -3.84882,38.39934c0.24606,1.39414 39.86807,-4.21416 40.89785,-2.91057c0.01647,0.02085 -30.95245,-33.85947 -30.93566,-33.83884c-0.82278,0.04173 -2.96971,0.34276 -2.96971,2.36516c0,2.5 1.68429,2.27495 1.68429,2.27495z" data-paper-data="{&quot;noHover&quot;:false,&quot;origItem&quot;:[&quot;Path&quot;,{&quot;applyMatrix&quot;:true,&quot;segments&quot;:[[[397,520],[0,5],[0,-4.0448]],[[402.95234,515.26693],[-1.64555,0.08347],[-0.03357,-0.04126]],[[402.85259,515.14251],[0.03293,0.04169],[-2.05958,-2.60716]],[[399.06095,506.96297],[0.49212,2.78827],[-2.78851,1.80849]],[[390.7735,512.16025],[2.60512,-1.73675],[-1.23973,0.82649]],[[382.28474,517.89356],[2.88582,-2.14593],[2.1628,2.60039]],[[388.06867,525.09381],[-1.55267,-2.17374],[0,0]],[[386.90619,532.06867],[4.06867,-2.90619],[-4.06867,2.90619]],[[379.93133,530.90619],[0,0],[-1.08523,-1.51932]],[[376.50355,526.33703],[1.18578,1.52913],[-0.88327,1.07773]],[[373.53553,529.53553],[1.08943,-1.08943],[0,0]],[370,533],[[365,528],[0,5],[0,-5]],[370,523],[[366.46447,522.46447],[0,0],[1.35509,-1.35509]],[[370.05627,517.94248],[-0.75599,1.75018],[-6.20888,-8.52859]],[[362.25658,489.41886],[-3.23073,10.85386],[0.99042,-3.32737]],[[368.46447,480.46447],[-3.08145,1.86448],[2.44605,-1.48003]],[[376.41886,477.25658],[-2.46403,1.4499],[2.37999,-1.40045]],[[383.41886,472.25658],[-3.72531,1.66015],[1.46167,-0.48722]],[[392.41886,469.25658],[-1.36491,-0.50446],[8.084,2.98777]],[[408.74342,488.41886],[-2.57584,-7.72751],[0.07715,0.23145]],[[409.02452,489.11401],[-0.10808,-0.23195],[2.53486,-0.81267]],[[416.78732,487.14929],[-2.46556,0.81649],[5.76504,-1.90913]],[[433,479],[-4.76579,3.7465],[3.14793,-2.36095]],[[443.05784,474.26744],[-3.54774,0.89579],[-4.78262,-2.50697]],[[428.46447,467.53553],[4.6288,2.80074],[-4.31385,-2.61017]],[[416,459],[5.52753,0.92994],[-7.54472,-1.2693]],[[394,461],[7.30523,-1.0223],[-4.74773,0.6644]],[[379.77034,461.53284],[4.75131,-0.93228],[-4.65782,0.88346]],[[366,465],[4.67302,-0.79705],[-0.00955,0.00163]],[[363.58401,465.05548],[1.15814,0.07055],[-0.60137,1.86414]],[[362.36396,470.80761],[0.27704,-1.9393],[-0.66667,4.66667]],[[360.36396,484.80761],[0.66667,-4.66667],[-1.6576,11.60318]],[[352.36396,518.80761],[2.29693,-11.55287],[-0.9569,4.8129]],[[349.85071,533.21268],[1.19454,-4.77817],[-2.30767,7.56934]],[[348.46774,557.57196],[0.7875,-7.87503],[-0.92361,9.23606]],[[346.07338,584.99003],[0.62501,-9.09526],[0.35644,0.00786]],[[347.21268,585.14929],[-0.4035,-0.10087],[4.85071,1.21268]],[351,590],[[351,594],[0,0],[-0.45451,4.28476]],[[353.85071,606.78732],[-1.04252,-4.17008],[1.29459,5.87169]],[[357.53553,626.46447],[-3.06493,-5.20869],[1.57355,2.67416]],[[363,634],[-1.16692,-2.87498],[1.46474,3.60873]],[[363,649],[0,-3.94714],[0,5.53483]],[[362.74934,666.43674],[-0.75231,-5.41542],[0.48906,3.52049]],[[365.72842,677.23553],[-0.85041,-3.56055],[0.38906,-0.42385]],[[366.92893,676],[-0.41853,0.39176],[4.28435,-4.01031]],[[375.16362,660.73137],[-1.87226,5.61257],[2.71925,-8.15161]],[[383.00891,635.94042],[-2.24336,8.37812],[0.12784,-0.83687]],[[383.6461,633.48656],[-0.27425,0.80417],[0.50978,-2.02869]],[[385.03861,627.37983],[-0.41479,2.04251],[0.18165,-0.89446]],[[385.53565,621.02218],[-0.20547,2.59424],[-0.0227,-1.47046]],[[385.67516,616.55839],[-0.15942,1.51456],[0,0]],[385.25658,616.41886],[[387.22012,610.52824],[0,0],[0.62835,-2.04312]],[[392,607],[-2.2492,0],[2.76142,0]],[[397,612],[0,-2.76142],[0,0.23702]],[[396.95161,612.69842],[0.0319,-0.22823],[0,0]],[[396.34122,617.58156],[0,0],[0.95407,1.36657]],[[395.72104,622.54295],[0.20672,-1.6538],[-0.23459,1.87671]],[[394.91811,627.97541],[0.30946,-1.77273],[0.03582,1.26768]],[[394.74342,631.58114],[0.18514,-1.117],[-0.16286,0.98256]],[[393.56939,634.34152],[0.44859,-0.90372],[-0.23058,0.93267]],[[392.86416,637.1437],[0.23961,-0.9353],[-0.55165,5.44808]],[[393,654],[0,-5.40782],[0,4.14788]],[[393.74342,665.41886],[-1.30003,-3.9001],[-5.55714,-0.41706]],[[394.58114,666.25658],[-0.26766,-0.97204],[0.00696,0.02527]],[[394.59779,666.33114],[-0.00416,-0.02444],[0.62222,-0.62222]],[[396.46447,664.46447],[-0.62222,0.62222],[3.39883,-3.39883]],[[402.25658,653.41886],[-1.67924,4.92161],[3.53924,-10.37301]],[[415.90501,623.18381],[-4.21462,10.15627],[1.13322,-2.73081]],[[419.42404,615.04194],[-0.81494,2.84207],[0.06621,-0.23089]],[[419.54579,614.31148],[-0.01862,0.25412],[0.1106,-1.50915]],[[420.24604,610.10997],[-1.12418,0.87809],[0,0]],[[421.05452,605.25908],[0,0],[0.358,-2.41007]],[[426,601],[-2.50967,0],[2.76142,0]],[[431,606],[0,-2.76142],[0,0]],[431,612],[[430.68551,612],[0,0],[-0.06776,0.40319]],[[430.46079,613.19507],[0.08122,-0.39422],[-0.02885,0.26926]],[[430.28153,614.02537],[0.08583,-0.28267],[-0.4387,1.95297]],[[429,620],[0.31128,-2.11763],[-0.93096,6.33325]],[[429,640],[0,-6.39171],[0,2.45066]],[[428.21468,647.30992],[-0.57093,-2.38323],[0.91761,3.83036]],[[434.78543,659.50066],[-1.53745,-3.84362],[2.05574,5.16373]],[[441,673],[-3.26637,-4.40458],[0.85243,1.14948]],[[443.53553,676.46447],[-0.91398,-1.10117],[0.12342,0.1487]],[[444.04472,676.88912],[-0.2048,-0.13561],[1.31997,-1.31215]],[[448.01453,672.96267],[-1.32561,1.30644],[3.20116,-3.15485]],[[458.29275,663.547],[-2.90853,3.37939],[1.58193,-1.83802]],[[463,658],[-0.81935,2.28243],[1.03771,-2.89068]],[[463.14929,648.78732],[-0.34187,3.05221],[0.74388,-6.64125]],[[468.14929,628.78732],[-1.61964,6.47857],[1.21459,-4.79177]],[[473,614],[-0.80119,4.76224],[1.70331,-10.12443]],[[473.14929,582.78732],[-1.4281,10.20503],[0.2736,-1.95513]],[[475.14929,577.21268],[0,1.97418],[0,-3.15336]],[[473,568],[0.39036,3.1291],[-0.51507,-4.12876]],[[473,555],[0,4.14949],[0,-7.35272]],[[473.40427,531.9696],[0.8303,7.20683],[-0.53308,-4.62706]],[[467.23375,517.5109],[1.63937,4.27432],[-1.79821,-4.68846]],[[462.75597,502.95786],[2.03905,4.55513],[-1.01076,-2.25799]],[[458.98297,496.5486],[1.29316,2.11668],[-5.74048,6.77304]],[[436.23607,510.47214],[7.88126,-2.95094],[-2.92516,1.09525]],[[424.21405,513.62149],[3.56933,-1.7258],[2.4344,0.52293]],[[431.21268,515.14929],[-2.17548,-0.54387],[0,0]],[[434.85071,521.21268],[1.21268,-4.85071],[-1.21268,4.85071]],[[428.78732,524.85071],[0,0],[-3.39947,-0.84987]],[[416.48776,522.16846],[4.40119,1.11705],[-3.37001,3.02152]],[[403.41886,525.74342],[6.21303,0.35213],[0,0]],[400.41886,524.74342]],&quot;closed&quot;:true}],&quot;origPos&quot;:null}" fill="#fafafa" stroke-width="0.5"/>
    </g>
  </g>
</svg>
