<?xml version="1.0"?>
<svg xmlns="http://www.w3.org/2000/svg" xmlns:xlink="http://www.w3.org/1999/xlink" version="1.1" width="116.51485" height="194.87162" viewBox="0,-0.24991,116.51485,194.87162">
  <defs>
    <radialGradient cx="319.93128" cy="149.75344" r="7.07789" gradientUnits="userSpaceOnUse" id="color-1">
      <stop offset="0" stop-color="#71fd6e"/>
      <stop offset="1" stop-color="#c7e1c0"/>
    </radialGradient>
    <radialGradient cx="263.59607" cy="120.51126" r="6.30277" gradientUnits="userSpaceOnUse" id="color-2">
      <stop offset="0" stop-color="#67ff66"/>
      <stop offset="1" stop-color="#cbe7b7"/>
    </radialGradient>
    <radialGradient cx="261.44428" cy="110.48111" r="16.42197" gradientUnits="userSpaceOnUse" id="color-3">
      <stop offset="0" stop-color="#67ff66"/>
      <stop offset="1" stop-color="#cbe7b7"/>
    </radialGradient>
    <linearGradient x1="276.37909" y1="86.47752" x2="268.30604" y2="105.97347" gradientUnits="userSpaceOnUse" id="color-4">
      <stop offset="0" stop-color="#000000"/>
      <stop offset="1" stop-color="#1a1a1a"/>
    </linearGradient>
    <linearGradient x1="277.76301" y1="83.85888" x2="268.36892" y2="106.54505" gradientUnits="userSpaceOnUse" id="color-5">
      <stop offset="0" stop-color="#000000"/>
      <stop offset="1" stop-color="#1a1a1a"/>
    </linearGradient>
    <radialGradient cx="293.65303" cy="158.49136" r="5.82826" gradientUnits="userSpaceOnUse" id="color-6">
      <stop offset="0" stop-color="#71fd6e"/>
      <stop offset="1" stop-color="#c7e1c0"/>
    </radialGradient>
    <linearGradient x1="266.94945" y1="100.59068" x2="266.15001" y2="102.52128" gradientUnits="userSpaceOnUse" id="color-7">
      <stop offset="0" stop-color="#ff0000"/>
      <stop offset="1" stop-color="#ff3a3a"/>
    </linearGradient>
    <linearGradient x1="279.12264" y1="106.04378" x2="278.3232" y2="107.97438" gradientUnits="userSpaceOnUse" id="color-8">
      <stop offset="0" stop-color="#ff0000"/>
      <stop offset="1" stop-color="#ff3a3a"/>
    </linearGradient>
  </defs>
  <g transform="translate(-211.7189,-81.53654)">
    <g data-paper-data="{&quot;isPaintingLayer&quot;:true}" fill="none" fill-rule="nonzero" stroke="none" stroke-width="none" stroke-linecap="butt" stroke-linejoin="miter" stroke-miterlimit="10" stroke-dasharray="" stroke-dashoffset="0" font-family="none" font-weight="none" font-size="none" text-anchor="none" style="mix-blend-mode: normal">
      <g data-paper-data="{&quot;origPos&quot;:null,&quot;origRot&quot;:0}" stroke="none" stroke-width="1">
        <g data-paper-data="{&quot;origPos&quot;:null}" id="R_Shoe">
          <path d="M278.9676,254.70418c-0.09381,0.64739 1.81823,0.4878 2.2792,0.40813c1.21898,-0.21701 2.84888,-1.15496 3.98725,-1.49964c1.01009,-0.30948 2.18894,-0.48482 3.1946,-0.36281c0.64552,0.07752 2.03489,0.93279 2.3643,1.49688c0.07288,0.12501 0.13324,0.39448 0.14002,0.53718c-0.8428,0.65517 -1.44613,1.6088 -2.2201,2.3654c-1.07326,1.04984 -2.30254,1.96175 -3.66252,2.68756c-1.42249,0.76225 -1.25023,1.0014 -2.78504,1.53937c-1.30615,0.45704 -4.26865,1.43667 -5.59454,1.56755c-2.81581,0.28677 -5.04383,0.87341 -7.87597,0.36914c-0.79678,0.13698 -5.60031,-0.2406 -4.32877,-0.96388c1.11136,-0.63201 4.51534,-1.68353 5.76472,-1.98492c1.84745,-0.44664 3.50689,-1.7383 5.00837,-2.95124c0.71368,-0.57612 1.28169,-1.07221 1.92652,-1.70317c0.57899,-0.56577 1.04847,-0.87 1.37182,-1.57876" id="Fill_8_" fill="#eaa06d"/>
          <path d="M291.11192,255.17912c0.49438,0.8054 0.81158,1.69822 1.12439,2.64289c0.15174,0.46332 0.13987,0.84646 0.20181,1.26117c0.0715,0.45349 0.35585,0.82284 0.42526,1.27596c-0.85594,0.67098 -1.52698,1.50698 -2.4397,2.14034c-0.98472,0.68452 -2.0369,1.29891 -3.03506,1.97157c-2.34373,1.58349 -5.31929,2.29939 -8.10999,2.47066c-1.11046,0.06876 -2.20466,-0.01104 -3.30854,-0.11671c-1.06549,-0.10321 -1.92451,-0.4086 -3.00702,-0.18264c-1.1039,0.22737 -2.04828,0.85429 -3.15914,1.10158c-1.03494,0.23262 -2.21037,0.50606 -3.26217,0.42554c-2.24115,-0.17364 -1.75368,-3.62521 -2.24879,-5.08259c0.47699,0.12073 1.40232,0.31917 1.88404,0.47912c1.03657,0.33582 1.78372,0.25524 2.86594,0.24147c1.15492,-0.0126 2.12674,0.10559 3.27368,0.0795c2.48034,-0.05513 4.93845,-0.54471 7.36792,-1.12389c2.33797,-0.55691 4.51249,-1.34668 6.39959,-2.79925c1.05188,-0.80858 2.01903,-1.72872 2.9719,-2.65353c0.5829,-0.56595 1.19912,-1.98925 1.95982,-2.2275" id="Trim_1_" fill="#bc7240"/>
          <path d="M290.64082,255.02492v0c-1.97838,-2.88139 -4.80122,-1.73219 -7.43696,-0.55046c-0.80347,0.36099 -1.62086,0.72513 -2.5007,0.8561c-0.97013,0.14396 -1.55026,-0.16017 -2.37879,-0.6362c-0.16758,-0.09683 0.29927,-0.20006 0.4235,-0.12899c0.85151,0.49 1.51598,0.67785 2.49243,0.39523c0.55278,-0.15754 1.08365,-0.40868 1.61094,-0.64189c1.0043,-0.44553 2.00281,-0.90717 3.06655,-1.20288c2.10482,-0.58765 3.9519,0.02043 5.19773,1.83227c0.09415,0.13652 -0.38164,0.2097 -0.4747,0.07683zM291.25756,254.90583v0c0.85912,1.76138 1.31756,3.66181 1.91376,5.52225c0.05992,0.18139 -0.42934,0.21597 -0.47498,0.07591c-0.59357,-1.85824 -1.05474,-3.75786 -1.91376,-5.52225c-0.07825,-0.16305 0.4066,-0.21911 0.47498,-0.07591zM284.04562,266.12391v0c-2.63754,0.84924 -5.15669,1.21029 -7.91879,0.9181c-0.86414,-0.09275 -1.70172,-0.26279 -2.57332,-0.27402c-1.14486,-0.01021 -1.99224,0.5363 -3.01525,0.92892c-1.63548,0.62937 -3.34109,0.67996 -5.07462,0.64668c-0.06825,0.00048 -0.19955,-0.00108 -0.24251,-0.07552c-0.83962,-1.61256 -0.58927,-3.44935 -1.16601,-5.14112c-0.0612,-0.17903 0.42488,-0.21761 0.47416,-0.07865c0.4293,1.26286 0.16698,5.06472 1.8315,5.07592c1.48336,0.00861 2.92834,-0.15176 4.28076,-0.79305c0.67835,-0.32178 1.33572,-0.61749 2.07759,-0.73912c1.63212,-0.26759 3.34628,0.25019 4.97605,0.34111c2.09632,0.11663 4.1141,-0.36384 6.09492,-1.00181c0.16281,-0.05241 0.56477,0.09263 0.25553,0.19257zM293.15012,260.51665v0c-2.77578,2.39992 -5.62851,4.42131 -9.10277,5.60972c-0.16291,0.05541 -0.55886,-0.08943 -0.25371,-0.19311c3.40378,-1.16545 6.21052,-3.1682 8.92887,-5.5213c0.10804,-0.09657 0.58598,-0.03263 0.42762,0.10469zM291.11857,255.01161v0c-2.53853,3.96673 -6.96634,6.71053 -11.42359,7.92976c-2.52525,0.68698 -5.151,0.94296 -7.75895,1.05886c-1.22899,0.05348 -2.45563,0.03489 -3.68426,-0.03366c-1.43844,-0.07748 -2.59608,-0.63696 -3.99426,-0.85229c-0.32692,-0.04942 -0.10033,-0.26056 0.12453,-0.22438c0.80993,0.12375 1.54575,0.42814 2.3274,0.66338c1.32171,0.39469 2.95081,0.25686 4.31211,0.23834c2.67711,-0.03339 5.36452,-0.31863 7.97042,-0.93445c4.5207,-1.07259 9.09579,-3.9177 11.6449,-7.89551c0.09184,-0.13437 0.56872,-0.08398 0.4817,0.04994z" id="Outline_13_" fill="#000000"/>
        </g>
        <path d="M280.80008,254.88345c-0.01008,0.03274 0.0924,0.06072 0.20731,0.06716c-0.42465,0.68141 -2.25399,-0.37003 -2.84303,0.08871c-1.05597,0.68491 -0.72065,1.16893 -1.73114,1.98005c-1.15943,0.92681 -2.57404,2.39837 -3.93853,2.93918c-2.52368,0.99872 -4.00634,1.44882 -6.49135,2.16446c-2.64331,0.78653 -1.59832,1.75023 -1.40765,2.09789c-1.29789,1.47042 -5.48267,1.14075 -6.6411,0.36949l0.64663,0.6083c0,0 -0.4812,-1.88412 -1.43379,-1.88862c-0.01065,-0.03882 0.308,-0.47372 0.29735,-0.51256l1.15887,2.25889c-0.36126,-0.15509 -1.30293,-1.29518 -2.99222,-3.9722c-0.54274,-2.00172 -2.04396,-1.77527 -1.70569,-3.82149c0.43454,-2.62856 -0.48474,-3.90871 -1.48757,-6.42809c-1.9811,-4.97705 -3.16084,-10.15759 -4.69192,-15.3031c-0.67337,-2.26301 0.15514,-3.68622 -0.51823,-5.94923c-0.54837,-1.84291 -1.81893,-1.96432 -2.73528,-3.65468c-1.30364,-2.40477 -1.23346,-4.47373 -2.01359,-7.09552c0.55155,-0.4891 -0.81495,-3.74572 -0.79515,-4.26228c0.02313,-0.29725 0.54294,1.94536 0.45282,1.6425c-0.12341,-0.41476 -0.85368,-3.57026 -0.97709,-3.98501c0,0 -0.23064,-0.35106 -0.13288,-0.64878c0.09897,-0.3014 0.24092,-1.21569 0.24092,-1.21569c0,0 0.40403,-1.00324 0.26795,-1.57215c0.26345,-0.19298 -2.51769,-2.1962 -2.26871,-2.40342c0,0 1.63169,-0.46966 0.03244,-2.39123c-0.02413,-0.02899 -2.05246,-4.10013 -2.05246,-4.10013c-0.81446,-2.73717 -1.17709,-5.20007 -1.16113,-5.44805c0.00531,-0.08267 -0.17161,-3.42757 -0.24122,-3.47247c0.73099,-0.6849 0.5483,-3.61733 0.5483,-3.61733c0,0 -1.57876,-2.18638 -0.99567,-2.12579c0.19436,0.02019 3.75033,-0.25025 3.08405,-2.00018c6.67668,-2.53532 11.14515,-3.82123 11.14515,-3.82123l5.53541,14.56241c-0.00256,0.00473 -0.01713,0.00906 -0.01577,0.01361c2.23548,7.48616 4.96222,14.81127 6.9991,22.35949c0.00163,0.00546 0.01391,0.00676 0.01735,0.01169c-0.0001,0.003 -0.00829,0.00544 -0.0063,0.00881c1.29171,2.3691 1.88833,4.85384 2.8726,7.33226c0.92625,2.34007 2.0399,4.62042 3.10834,6.89538c1.07858,2.29574 2.10927,4.56707 2.91981,6.9713c0.45944,1.37085 1.0022,3.08166 2.36659,3.79966c-0.33692,0.02691 -0.67135,0.07884 -0.9974,0.16892c-0.22717,0.06264 0.25586,0.12706 0.35211,0.09743c0.61568,-0.16932 1.41015,-0.17082 2.10706,0.03612c0.07583,0.02501 0.15703,0.0514 0.2355,0.0786c0.68213,0.26387 1.22955,0.75118 1.33005,1.54196c0.08835,0.6933 -0.03677,1.34207 -0.09946,2.03076c-0.11558,1.30705 0.13562,2.33448 1.47694,2.70847c1.52082,0.42763 3.027,0.56622 3.28444,2.46402c0.19615,1.43532 0.12729,3.00599 -0.31277,4.39175z" data-paper-data="{&quot;origPos&quot;:null}" id="Fill_7_" fill="#3d6767"/>
        <path d="M254.44465,258.81785c-0.70534,-0.79223 0.17502,-0.52267 -0.73522,-1.06473c-0.61266,-0.36342 -0.34207,-0.82586 -0.04168,-1.40665c0.40017,-0.7594 -0.14425,-1.35074 -0.45659,-1.9796c-0.00048,-0.00161 -0.00404,-0.00143 -0.00428,-0.00223c-0.00168,-0.00564 -0.00383,-0.01288 -0.00599,-0.02012c-0.01305,-0.02766 -0.02941,-0.05432 -0.04134,-0.08231c-0.00072,-0.00242 0.01058,-0.00489 0.01098,-0.00764c-0.01045,-0.03106 -0.02176,-0.06098 -0.0311,-0.09237c-0.01418,-0.00718 -0.02922,-0.01321 -0.04339,-0.02037c-0.03936,-0.01894 -0.02375,-0.03936 0.01613,-0.05911c-2.26662,-6.90527 -5.17337,-13.66736 -5.67774,-21.04794c0.00002,-0.02015 0.03635,-0.03973 0.08185,-0.05677c0.30344,-4.16001 -4.55313,-8.27386 -5.05208,-12.30987c-0.25053,-2.0155 -1.8162,-7.47223 -2.22471,-9.45212c-0.19467,-0.95794 1.89779,-2.21207 1.78662,-3.14133c0.20357,-0.07873 -1.11733,3.89991 -0.9539,3.8092c0.07948,0.8871 1.32758,5.47804 1.54214,6.37382c0.46692,1.94148 1.2661,3.79109 1.52384,5.77817c0.55244,4.25223 4.30363,4.75643 3.95719,9.14823c-0.00108,0.01258 -0.02984,0.02114 -0.04586,0.03204c0.55079,7.30194 3.42324,14.00943 5.66906,20.85693c2.27682,1.10424 5.30052,2.34712 8.36548,1.17934c0.11722,-0.04714 0.68381,-0.04493 0.41128,0.05894c-3.10407,1.18204 -6.13522,0.30664 -8.58013,-0.78786c0.30709,0.55859 0.65743,1.05613 0.34497,1.76229c-0.13093,0.29649 -0.27873,0.55246 -0.36187,0.85575c-0.15517,0.5954 1.06898,0.72344 1.55493,0.81885c1.09145,0.2122 -0.75182,2.43221 -0.24527,3.20387c1.00799,1.52207 3.2955,1.64885 2.21518,3.43668c0.00403,0.00143 0.01423,-0.00074 0.0174,0.00182c0.63359,0.35283 1.28377,0.64814 2.08883,0.78001c1.21383,0.19856 2.44728,-0.46365 3.44305,-1.0788c0.11384,-0.07066 0.65543,-0.07152 0.50156,0.02245c-2.0345,1.24907 -3.87218,1.4564 -5.64462,0.79742l-0.29528,-0.33745l-0.05393,0.03138c-0.11068,-0.22619 -0.26177,-0.40536 -0.4378,-0.5467c0,0 -1.56025,-3.00151 -1.69256,-3.16572c-0.0441,-0.05474 0.371,-0.85125 -0.90517,-2.28751z" data-paper-data="{&quot;origPos&quot;:null}" id="Outline_11_" fill="#000000"/>
        <path d="M281.20223,249.30644c0.95832,1.3919 0.56695,4.07051 0.09314,5.56939c-0.00935,0.02855 -0.04678,0.04266 -0.08357,0.05559c-0.01136,0.15503 -0.50729,0.40369 -0.50729,0.40369l-0.02666,-0.03964c-0.69342,0.10127 -1.72812,-0.8645 -2.10196,-0.40536c-1.19403,1.46341 -2.55697,2.77885 -4.06211,3.91954c-1.61862,1.22897 -3.37666,1.97609 -5.31054,2.53864c-2.11198,0.61356 -4.36914,1.08894 -6.06924,2.57706c-0.10504,0.09667 -0.52561,0.01565 -0.47648,-0.02573c1.34398,-1.17599 3.00923,-1.73195 4.69435,-2.22445c2.29719,-0.67065 4.40313,-1.31117 6.39615,-2.68425c0.98207,-0.67679 1.87088,-1.48045 2.71654,-2.31588c0.58949,-0.58377 1.1724,-1.63935 1.85892,-2.07358c0.17323,-0.11399 0.36857,-0.1404 0.57587,-0.1099c0.37167,0.05989 1.28698,0.78762 1.56156,0.68113c0.02495,-0.00941 0.07346,-0.01294 0.13142,-0.01135l-0.00517,-0.00738l0.21371,-0.26777c0.44097,-1.38603 0.50983,-2.9567 0.31277,-4.39175c-0.25771,-1.89871 -1.76362,-2.03639 -3.28444,-2.46402c-1.34132,-0.37399 -1.59252,-1.40142 -1.47694,-2.70847c0.06269,-0.68868 0.18781,-1.33746 0.09946,-2.03076c-0.1005,-0.79078 -0.64792,-1.2781 -1.33005,-1.54196c-0.07601,-0.02892 -0.15511,-0.05494 -0.2355,-0.0786c-0.696,-0.20721 -1.49138,-0.20544 -2.10706,-0.03612c-0.09625,0.02963 -0.57928,-0.03479 -0.35211,-0.09743c0.32696,-0.09035 0.66048,-0.14201 0.9974,-0.16892c-1.36439,-0.718 -1.90715,-2.42881 -2.36659,-3.79966c-0.81055,-2.40424 -1.84187,-4.67439 -2.91981,-6.9713c-1.0678,-2.27615 -2.18209,-4.55531 -3.10834,-6.89538c-0.98427,-2.47842 -1.58116,-4.96407 -2.8726,-7.33226c-0.00199,-0.00337 0.0062,-0.00581 0.0063,-0.00881c-0.00345,-0.00492 -0.01573,-0.00622 -0.01735,-0.01169c-2.03661,-7.54731 -4.76336,-14.87242 -6.9991,-22.35949c-0.00135,-0.00455 0.01321,-0.00889 0.01577,-0.01361l-5.53541,-14.56241c0,0 -4.46841,1.28625 -11.14481,3.82151c-0.06469,-0.16977 -0.12712,-0.34503 -0.18735,-0.5268c3.90283,-1.50886 7.99359,-2.93162 11.65105,-3.88518l5.69431,15.15641c2.23584,7.48407 4.96178,14.80644 6.99758,22.35102c0.99438,1.8262 1.69555,3.70297 2.29675,5.6868c0.76531,2.5287 2.02502,4.88354 3.11075,7.2832c1.07124,2.36433 2.28418,4.67856 3.13591,7.13794c0.56107,1.61913 1.00356,3.93564 2.64565,4.82078c0.06026,0.03262 0.10902,0.07659 0.17302,0.10512c0.02402,0.00078 0.04976,0.00402 0.07406,0.00572c0.67128,0.03417 1.333,0.18616 1.93428,0.51472c1.65688,0.90155 0.67071,3.16345 0.84574,4.60108c0.25021,2.03673 3.30605,1.31081 4.34799,2.82055z" id="Outline_11_" fill="#000000"/>
      </g>
      <g data-paper-data="{&quot;origPos&quot;:null}" stroke="none" stroke-width="1">
        <g data-paper-data="{&quot;origPos&quot;:null}" id="L_Shoe">
          <path d="M236.40871,268.60924c0.0076,0.6897 -0.4636,2.02445 -0.99845,2.37215c-0.7239,0.46645 -2.0387,0.96805 -2.8747,1.1381c-3.6613,0.74955 -8.9243,0.779 -12.5704,-0.1387c-0.83505,-0.20995 -1.653,-0.6593 -1.86485,-1.3262c-0.1102,-0.35245 -0.36955,-1.7936 -0.3173,-2.1147c0.0931,-0.59375 1.3661,-1.3509 1.7423,-1.88005c0.40375,-0.56715 1.24735,-1.0241 1.8088,-1.47535c1.13145,-0.91485 2.8709,-1.19225 4.29495,-1.40505c1.62735,-0.2451 3.06755,-0.0228 4.7481,0.456c1.3034,0.3762 2.36265,0.9652 3.5264,1.6302c0.5605,0.323 1.07065,0.57475 1.4079,1.17325c0.2793,0.49305 0.57475,1.2749 1.09725,1.57035" id="Fill_6_" fill="#eaa06d"/>
          <path d="M236.51416,269.95444c0.3781,0.98895 -0.18335,2.8082 -0.46075,3.8589c-0.1349,0.5092 -1.04785,0.66025 -1.49815,0.94525c-0.65265,0.40945 -1.4307,0.43415 -2.17455,0.6137c-1.46585,0.35435 -3.0039,0.57475 -4.5277,0.57475c-1.38605,0 -2.40255,-0.12635 -3.7924,-0.18525c-1.1476,-0.0475 -2.33795,-0.3078 -3.458,-0.5415c-0.92815,-0.1957 -1.9323,-0.3439 -2.5669,-1.0868c-0.76285,-0.89205 -1.16755,-1.90475 -1.3262,-2.98775c-0.11875,-0.8056 -0.3458,-2.17455 0.51965,-2.5289c0.85025,-0.3458 0.7201,1.36325 0.8702,2.03205c0.24415,1.0811 2.01875,1.3547 3.078,1.6302c2.774,0.7239 5.10245,0.83885 7.79665,0.47405c1.5219,-0.2052 3.1122,-0.25365 4.5125,-0.83885c0.4142,-0.1729 1.15235,-0.28785 1.5029,-0.60325c0.35055,-0.3173 0.58805,-0.49495 0.82175,-0.82365c0.08265,0.0209 0.21375,-0.5624 0.25935,-0.5168" id="Trim" fill="#bc7240"/>
          <path d="M236.14271,268.58738v0c-0.18525,-1.1286 -2.7778,-2.2971 -3.6727,-2.7398c-1.5637,-0.77045 -3.24805,-0.95855 -4.96755,-0.90155c-1.81355,0.05795 -3.72875,0.17005 -5.44635,0.78375c-1.62545,0.58045 -2.96685,1.73565 -4.1268,2.9792c-0.11115,0.11685 -0.5662,-0.05605 -0.44745,-0.1805c1.3775,-1.47915 2.9222,-2.6391 4.86875,-3.249c1.8335,-0.57285 4.047,-0.6175 5.95745,-0.60705c1.64065,0.0133 3.28605,0.4142 4.7386,1.1856c0.93005,0.49495 3.37345,1.5694 3.572,2.7911c0.02945,0.17955 -0.45125,0.0931 -0.47595,-0.06175zM218.01861,268.73179v0c0.05605,0.7961 0.03135,1.5903 0.42845,2.3066c0.4579,0.8208 1.9817,1.0298 2.81295,1.1818c1.75275,0.3249 3.54255,0.494 5.32285,0.49115c1.9855,-0.00095 3.97955,-0.2641 5.91755,-0.70205c0.95665,-0.2166 1.87815,-0.5586 2.6752,-1.1381c0.7999,-0.58425 0.73435,-1.46205 0.9652,-2.3161c0.04085,-0.15485 0.45505,-0.038 0.4769,0.0988c0.24415,1.49245 0.13395,3.0153 -0.21375,4.484c-0.13395,0.5643 -0.00855,0.70775 -0.49875,1.08395c-0.46075,0.3496 -1.0279,0.6194 -1.5713,0.8132c-3.08845,1.09535 -6.70225,1.2768 -9.94555,1.0203c-2.44435,-0.19475 -5.79405,-0.40375 -7.201,-2.74835c-0.7068,-1.17515 -1.5086,-4.7766 0.56715,-5.1034c0.14345,-0.019 0.5624,0.20995 0.2964,0.25175c-2.0292,0.3192 -0.8911,4.0641 -0.266,5.1015c0.8113,1.34995 2.5555,1.65015 3.9786,1.9266c1.38415,0.26885 2.8044,0.35625 4.2142,0.3819c2.71795,0.05035 5.59265,-0.21375 8.1719,-1.1286c0.38095,-0.13775 0.74005,-0.35435 1.0887,-0.5567c0.7277,-0.4237 0.60325,-0.78755 0.76855,-1.4839c0.31445,-1.33285 0.36385,-2.76165 0.1387,-4.10875c0.1596,0.03325 0.3173,0.0627 0.4769,0.0988c-0.2584,0.96615 -0.19475,1.67105 -0.99655,2.3693c-0.6897,0.60325 -1.63685,0.88445 -2.49375,1.12575c-2.33605,0.65265 -4.86305,0.83315 -7.277,0.7904c-1.919,-0.03135 -3.94345,-0.2793 -5.7988,-0.77425c-0.6821,-0.1767 -1.32525,-0.4674 -1.8525,-0.9348c-0.68875,-0.6137 -0.5947,-1.76225 -0.6536,-2.5897c-0.019,-0.1919 0.4598,-0.095 0.46835,0.0589z" id="Outline_12_" fill="#000000"/>
        </g>
        <path d="M238.09686,261.95162c-0.96995,1.23405 -1.6093,0.70015 -1.1951,1.99595c0.7923,2.4814 0.03705,3.4618 -0.70015,3.54635c-0.4465,0.05035 -2.3522,-1.88005 -3.1635,-2.18595c-1.672,-1.06875 -2.0881,-1.07255 -4.08785,-1.36515c-2.0957,-0.304 -3.62235,-0.3667 -5.9831,0.2717c-2.11945,0.1938 -3.1958,2.4909 -4.5828,3.496c-0.05225,-0.057 -0.2907,-0.1558 -0.35625,-0.1596c-2.21635,-0.02945 -1.1362,-1.12005 -2.11185,-1.99975c-1.1153,-1.0013 -2.09475,-2.147 -2.907,-3.4086c-0.4674,-0.72865 -0.9101,-1.3585 -0.5738,-2.25245c0.1843,-0.49495 0.4142,-0.96235 0.7334,-1.38605c0.69255,-0.9215 1.52095,-1.72995 2.13275,-2.71605c0.00095,-0.02185 -0.0038,-0.03515 -0.01995,-0.0494c-0.7885,-0.61845 -1.54185,-1.01935 -0.5662,-1.7936c0.61085,-0.4826 0.37525,-0.60515 0.2546,-1.2236c-0.5852,-2.98965 0.6004,-6.1104 1.32715,-8.98035c1.60265,-6.3422 2.9222,-12.85635 3.32405,-19.3952c0,-0.0019 -0.00285,-0.00285 -0.00285,-0.0038c0.9652,-10.23625 1.9342,-20.47725 2.8994,-30.71065c0.15295,0.04845 0.0209,-0.21945 0.0209,-0.21945l1.1153,-12.85445c11.79188,-1.97291 22.06249,-2.42456 26.631,-2.52583c-0.17571,2.50287 -0.78959,4.67826 -1.15672,7.18536c-0.23145,1.58057 0.02257,3.20028 -0.12829,4.79057c-0.16132,1.70049 -1.32246,2.97019 -2.01872,4.45256c-0.55391,1.17929 -0.91282,2.92976 -1.68385,4.17731c-0.25044,-0.08423 -0.5186,-0.12987 -0.79743,-0.12987c-1.38071,0 -2.5,1.11929 -2.5,2.5c0,0.29365 0.05063,0.57547 0.14363,0.83722c-0.05564,0.17711 -0.08973,0.34147 -0.11061,0.47638c-0.05835,0.12653 -0.11821,0.25213 -0.18039,0.37632c-0.38354,3.06838 0.16615,6.21376 -0.14373,9.27049c-0.40744,1.63734 -0.94485,3.3131 -1.31704,5.02226c-0.62986,1.73891 -1.30362,3.46967 -1.59943,5.23436c-0.30621,1.82668 -0.14373,3.846 0.01216,5.86991c-0.8046,0.73898 -0.8046,1.91306 -0.8046,1.91306c0,2.3041 -0.09124,3.75368 0.4148,5.37441c-0.00226,0.00642 -0.00455,0.01283 -0.00683,0.01925c-1.27877,5.11511 -0.40797,11.33499 -0.40797,16.60634c0,1.3092 0.91261,2.47808 1.91451,3.43963c-0.0548,0.47334 -0.099,0.94745 -0.12656,1.4223c-0.29287,0.2762 -0.50771,0.64578 -0.65561,1.01831c-0.58038,1.46182 -0.73293,2.98239 -0.78039,4.51669c-0.10816,-0.15223 -0.19439,-0.30494 -0.25509,-0.45294z" id="Fill_7_" fill="#3d6767"/>
        <path d="" id="Fill_7_" fill="#3d6767"/>
        <path d="M223.65401,180.56039l-1.1153,12.85445c0,0 0.13205,0.2679 -0.0209,0.21945c-0.9652,10.2334 -1.9342,20.4744 -2.8994,30.71065c0,0.00095 0.00285,0.0019 0.00285,0.0038c-0.40185,6.53885 -1.7214,13.053 -3.32405,19.3952c-0.7106,2.80535 -1.8487,5.85105 -1.3528,8.78085c2.546,0.7752 4.86685,2.5175 7.59335,2.53745c2.5726,0.01995 5.07775,-1.2806 7.51165,-1.9494c0.11495,-0.03135 0.5358,0.14725 0.39615,0.1862c-2.6163,0.7182 -5.28485,2.147 -8.0332,1.95605c-2.6923,-0.1862 -4.9248,-1.7822 -7.44705,-2.56025c0.0019,0.0095 0.0019,0.019 0.0038,0.02945c0.12065,0.61845 0.35625,0.741 -0.2546,1.2236c-0.97565,0.7752 -0.2223,1.1761 0.5662,1.7936c0.0152,0.01425 0.0209,0.0285 0.01995,0.0494c-0.61085,0.9861 -1.4402,1.7936 -2.13275,2.71605c-0.31825,0.4237 -0.5491,0.8911 -0.7334,1.38605c-0.3363,0.89395 0.10735,1.5238 0.5738,2.25245c0.8132,1.2616 1.7917,2.4073 2.907,3.4086c0.9766,0.87875 -0.1045,1.9703 2.11185,1.99975l0.58045,-0.2299c3.4238,-5.63825 13.39215,-4.43935 17.3622,0.0855c0.7391,-0.4579 1.3699,-0.8474 1.1704,-1.8658c-0.1824,-0.92815 -0.5206,-1.45255 -0.44555,-2.3351c-1.2597,0.26125 -2.68945,-0.0285 -3.9292,-0.22895c-2.0463,-0.32775 -4.0109,-0.91295 -6.10375,-0.855c-0.0988,0.0019 -0.5453,-0.19095 -0.3078,-0.19855c3.2262,-0.08265 6.2966,1.1685 9.5228,1.17895c0.04845,-0.22895 0.0988,-0.45885 0.1463,-0.6897c-0.31635,-0.1995 -0.6536,-0.35435 -1.0089,-0.4655c-0.54055,-0.1881 -1.0659,-0.38665 -1.6169,-0.55575c-0.85025,-0.25745 -1.7195,-0.44935 -2.58305,-0.646c-1.98455,-0.45505 -3.98525,-0.84645 -6.00875,-1.0754c-0.1216,-0.0133 -0.5168,-0.22895 -0.20425,-0.1938c2.5441,0.28785 5.05495,0.81795 7.54205,1.41835c1.4155,0.342 3.6841,0.7239 4.71295,1.9513c0.61252,-0.50659 1.15038,-1.14103 1.57842,-1.85046c-0.02883,0.30836 -0.04929,0.61786 -0.06405,0.92812c-0.0142,0.01808 -0.02847,0.0361 -0.04282,0.05404c0.00285,0.00285 0.0114,0.0038 0.0133,0.0076c0.00835,0.01177 0.01673,0.02351 0.0251,0.03523c-0.00679,0.15492 -0.01223,0.31002 -0.01666,0.46526c-0.07662,-0.0863 -0.15225,-0.17618 -0.22695,-0.26963c-0.28975,0.3325 -0.5985,0.6422 -0.93575,0.9063c-0.17385,1.159 0.4484,1.95605 0.50065,3.07895c0.03515,0.7581 -0.97185,1.1856 -1.4839,1.5105c-0.09975,0.0608 -0.37145,-0.0133 -0.44175,-0.0988c-3.7449,-4.63315 -13.6572,-5.7095 -16.84255,0.09405c-0.06745,0.10925 -0.4465,-0.0323 -0.4693,-0.11115c-0.05605,0.01995 -0.11115,0.03895 -0.1634,0.05605c0.04275,0.0209 0.07885,0.04275 0.09595,0.0608c0.0209,0.0228 0.0133,0.038 -0.04655,0.03895c-0.00285,0 -0.00285,0.00095 -0.00665,0.00095c-0.03895,-0.00095 -0.07695,-0.0038 -0.1159,-0.00475c-0.60705,-0.0171 -1.1818,-0.1121 -1.634,-0.41895c-0.00665,-0.0038 -0.01235,-0.0095 -0.01805,-0.0133c-0.2508,-0.17385 -0.4655,-0.4104 -0.6213,-0.74385c-0.3553,-0.76665 -0.5719,-1.12765 -1.20745,-1.7537c-0.83695,-0.82745 -1.54755,-1.7746 -2.19735,-2.75215c-0.27645,-0.41325 -0.5282,-0.8417 -0.77995,-1.26825c-0.152,-0.25555 0.21565,-1.0773 0.3135,-1.33095c0.29165,-0.78185 0.8854,-1.4459 1.42025,-2.071c0.33725,-0.3933 0.67545,-0.7828 0.9861,-1.19985c0.4712,-0.6327 -0.16055,-0.8303 -0.5738,-1.21315c-0.3211,-0.2983 -0.28785,-0.62225 0,-0.9139c0.3819,-0.3838 1.00605,-0.58235 0.7163,-1.2407c-0.39615,-0.89965 -0.3116,-1.95985 -0.21755,-2.9317c0.25555,-2.7531 1.22455,-5.4587 1.8734,-8.132c1.3889,-5.73895 2.5061,-11.64035 2.8671,-17.5427c0,-0.00095 -0.0019,-0.0019 -0.0019,-0.00285c0.4408,-4.66735 0.8816,-9.33375 1.3224,-14.0011c0.0779,-0.82555 0.1558,-1.65015 0.2337,-2.47475c0.456,-4.8203 0.91105,-9.6406 1.3661,-14.459l1.17705,-13.2012c0,0 15.17164,-2.52094 27.07765,-2.59204c-0.00786,0.18228 -0.01819,0.36265 -0.03077,0.54136c-4.56877,0.10149 -14.83967,0.55348 -26.63079,2.52568z" id="Outline_11_" fill="#000000"/>
        <path d="M239.21691,255.55529c-0.3705,-1.0868 -1.6207,-1.3186 -2.2116,-2.2002c-0.39805,-0.59185 -0.076,-1.00605 0.29735,-1.539c0.494,-0.69445 0.2033,-1.51145 0.1045,-2.29425c0,-0.0019 -0.00285,-0.00285 -0.00285,-0.0038c0,-0.00665 0,-0.0152 0,-0.02375c-0.0038,-0.0342 -0.01045,-0.0684 -0.0133,-0.1026c0,-0.00285 0.0095,-0.0019 0.01045,-0.00475c-0.00095,-0.03705 -0.00285,-0.07315 -0.00285,-0.1102c-0.0095,-0.01235 -0.01995,-0.02375 -0.02945,-0.0361c-0.0266,-0.03325 -0.0095,-0.05035 0.0266,-0.0589c-0.1672,-8.22035 -0.87305,-16.492 0.4617,-24.65915c0.00475,-0.02185 0.038,-0.03135 0.0779,-0.03515c1.216,-4.4137 1.9171,-8.9338 2.47095,-13.47195c0.2755,-2.2667 0.59565,-4.541 0.73815,-6.82005c0.1387,-2.1432 0.1007,-4.1363 1.0089,-6.13605c0.04845,-0.1121 0.513,0.0494 0.47405,0.13205c-0.84075,1.85725 -0.90915,3.7316 -0.988,5.7323c-0.0874,2.25625 -0.43985,4.5201 -0.703,6.7583c-0.31718,2.70138 -0.68633,5.39791 -1.18192,8.07019c-0.40473,1.15075 -0.76622,2.30415 -0.96205,3.47243c-0.08707,0.51944 -0.13624,1.05445 -0.15845,1.60072c-0.09343,0.35818 -0.19008,0.71568 -0.29013,1.07246c-0.0038,0.0133 -0.0285,0.0133 -0.0437,0.01995c-1.27965,8.09685 -0.58805,16.2982 -0.4237,24.4492c0.02339,0.02941 0.04692,0.05892 0.07058,0.0885c0.00615,0.17019 0.01192,0.33978 0.01722,0.50871c-0.01283,-0.01508 -0.02563,-0.03018 -0.0384,-0.04527c0.01477,0.09369 0.03041,0.18647 0.04543,0.27847c0.01209,0.41897 0.02106,0.83372 0.02553,1.24331c-0.0412,0.16682 -0.10874,0.3334 -0.21251,0.50077c-0.1729,0.2793 -0.3496,0.5092 -0.4864,0.8113c-0.2622,0.59565 0.67355,1.12955 1.03455,1.38985c0.79144,0.56809 1.28092,1.07652 1.50726,2.02974c-0.02077,0.23221 -0.03827,0.46461 -0.05177,0.69718c-0.1056,0.09959 -0.20105,0.21133 -0.28688,0.33096c-0.01231,-0.559 -0.10323,-1.11313 -0.28415,-1.64523z" id="Outline_11_" fill="#000000"/>
      </g>
      <g data-paper-data="{&quot;origPos&quot;:null,&quot;origRot&quot;:0}" stroke="none" stroke-width="1">
        <path d="M311.82021,149.26705c-0.04213,-0.01144 -0.08527,-0.00518 -0.12651,0.0124c-0.21177,-0.19042 -0.4604,-0.38479 -0.7407,-0.58189c0.00195,-0.20493 -0.00159,-0.40991 -0.01298,-0.61491c-0.03119,-0.5627 0.07904,-2.06628 -0.40156,-2.4637c-1.03455,-0.85347 -2.98113,0.26992 -3.84797,-0.84966c-0.01707,-0.02069 -0.04098,-0.01387 -0.06168,-0.02144c-0.6755,-1.74943 -1.58919,-3.21059 -3.89676,-3.71654c-1.86984,-0.41051 -3.90077,-0.37039 -5.80198,-0.53585c-1.98907,-0.17162 -3.98422,-0.36035 -5.95205,-0.70626c-3.90339,-0.68997 -7.28538,-2.00375 -10.5461,-4.24858c-0.0483,-0.0327 -0.09577,-0.06495 -0.14364,-0.09849c-1.14656,-1.88367 -2.35358,-3.83423 -4.53659,-4.59343c-0.21497,-0.07675 -0.49556,0.32978 -0.2544,0.41591c1.75254,0.61078 2.84212,1.99972 3.79349,3.49339c-2.43308,-1.66641 -5.02318,0.08466 -7.75437,-1.09436c-0.20923,-0.08983 -1.43239,-0.15728 -1.20043,-0.05559c3.08512,1.33038 6.85026,0.34918 9.60986,2.20515c0.02604,0.04251 0.06142,0.06096 0.10038,0.06842c0.21132,0.14127 0.42092,0.2838 0.63352,0.42468c2.71292,1.80163 5.57479,3.01773 8.78078,3.66435c3.89242,0.78497 7.8439,0.94717 11.78324,1.32376c2.12537,0.202 3.89375,0.88103 4.75812,2.96682c0.296,0.71139 0.52014,1.4473 0.75259,2.18041c-4.07134,-1.82685 -7.60498,-2.75228 -9.80909,-3.28172c-0.87293,-0.20968 -3.26479,-0.17324 -4.0638,-0.29677c-6.5402,-1.01116 -18.92921,-5.31506 -24.44562,-8.19199c-2.80381,-1.46224 -3.41811,-1.00597 -5.1412,-1.96432l-0.14094,-0.12504l-0.51277,-0.53058l-0.00565,-0.00923l-0.01469,-0.38205l-0.48058,-0.42636l-0.33562,-0.54782l-0.37358,-0.08137l-0.73788,-0.65464l-1.51006,-0.78753l0.03606,-0.05275c1.10521,-0.89683 2.20089,-1.85756 3.42984,-2.58485c1.34312,-0.79418 2.74044,-1.50331 4.09884,-2.27132c1.79766,-0.08999 3.54272,0.6851 5.22081,1.25168c1.66546,0.56 3.32329,1.14281 4.99278,1.69097c3.35039,1.09908 6.75483,2.0185 10.12953,3.03811c3.43347,1.03634 6.76229,2.55274 10.2329,3.42952c3.14992,0.79524 6.34234,1.11658 9.37179,2.37293c2.05218,0.85597 4.61704,2.79359 6.97886,2.31211c1.53633,-0.31414 3.22423,-1.2435 4.27366,0.55523c0.521,0.89314 0.73882,1.79853 0.6038,2.81347c-0.41253,3.13307 -2.6697,8.73486 -6.73162,7.54971z" data-paper-data="{&quot;origPos&quot;:null,&quot;origRot&quot;:0}" id="Fill_4_" fill="#302d63"/>
        <path d="M306.9149,145.53882c0.81266,0.33595 1.97965,0.0767 2.76267,0.23115c0.83083,0.16354 0.88388,1.66335 0.86309,2.65022c-0.87891,-0.56743 -1.99513,-1.15201 -3.22969,-1.72471c-0.1361,-0.38966 -0.26472,-0.77698 -0.39607,-1.15666z" data-paper-data="{&quot;origPos&quot;:null,&quot;origRot&quot;:0}" id="Fill_4_" fill="#302d63"/>
        <path d="M314.02478,137.8596c1.15045,-0.23573 2.2465,-0.99377 3.38265,-0.19338c1.66013,1.17008 1.78121,3.13823 1.39639,4.94648c-0.63063,2.96577 -2.65787,7.39532 -6.27425,7.26645c-0.10344,-0.0046 -0.207,-0.0164 -0.3102,-0.03329c-0.13332,-0.18338 -0.30979,-0.37214 -0.52406,-0.56495c0.04067,-0.01744 0.08335,-0.0234 0.12487,-0.01172c4.06192,1.18517 6.31909,-4.41663 6.73162,-7.54971c0.13418,-1.01538 -0.0828,-1.92033 -0.6038,-2.81347c-1.05071,-1.79833 -2.73734,-0.86936 -4.27367,-0.55523c-2.36138,0.48064 -4.92667,-1.45615 -6.97885,-2.31211c-3.02944,-1.25635 -6.22187,-1.57769 -9.37179,-2.37293c-3.47061,-0.87678 -6.79942,-2.39318 -10.2329,-3.42952c-3.37597,-1.01921 -6.78042,-1.93862 -10.12953,-3.0381c-1.66948,-0.54817 -3.32776,-1.13013 -4.99278,-1.69098c-1.67725,-0.56615 -3.42232,-1.34124 -5.22081,-1.25168c-1.35839,0.76801 -2.75529,1.47628 -4.09884,2.27132c-1.22895,0.72729 -2.32378,1.68847 -3.42984,2.58486l-0.03499,0.05116l-0.26431,-0.13785c-0.0182,-0.00949 -0.03643,-0.01886 -0.05468,-0.0281c0.08622,-0.11048 0.15138,-0.18716 0.18889,-0.21988c0.26843,-0.2168 0.53519,-0.4366 0.80449,-0.65508c0.84327,-0.68628 1.69915,-1.36386 2.62663,-1.93017c0.89054,-0.54271 1.81041,-1.03691 2.73029,-1.5311c0.30275,-0.1614 0.603,-0.32624 0.90369,-0.49192c0.20545,-0.11249 0.41424,-0.22111 0.61805,-0.33661c0.07466,-0.04249 0.12691,-0.04202 0.16222,-0.01933c1.55398,-0.07885 2.96264,0.49078 4.41916,0.96861c1.97289,0.6464 3.93052,1.34056 5.90075,1.99415c3.80099,1.26229 7.68092,2.28075 11.51008,3.46024c3.83968,1.18604 7.49056,2.82862 11.45368,3.57868c1.61454,0.30631 3.18862,0.569 4.76039,1.06621c1.78902,0.56551 3.49113,1.36748 5.17816,2.18194c1.25969,0.60873 2.48802,1.08648 3.90325,0.79706z" data-paper-data="{&quot;origPos&quot;:null,&quot;origRot&quot;:0}" id="Outline_9_" fill="#010101"/>
        <path d="M309.68094,145.77173c-0.78303,-0.15444 -1.95003,0.10481 -2.76267,-0.23114c0.13159,0.37934 0.26025,0.76674 0.39633,1.15659c-0.18313,-0.08497 -0.36888,-0.16968 -0.55685,-0.25404c-0.23242,-0.73301 -0.45651,-1.46881 -0.75249,-2.18012c-0.8652,-2.08623 -2.63275,-2.76483 -4.75812,-2.96682c-3.94017,-0.37702 -7.89082,-0.53879 -11.78324,-1.32376c-3.20559,-0.64534 -6.06785,-1.86272 -8.78078,-3.66435c-0.21176,-0.14044 -0.42221,-0.2834 -0.63352,-0.42468c-0.03768,-0.00786 -0.0739,-0.02675 -0.10038,-0.06842c-2.75958,-1.85597 -6.38458,-0.68633 -9.46885,-2.01627c-0.23152,-0.10253 -0.44535,-0.5796 -0.23614,-0.48977c2.73164,1.17818 6.61686,-0.21557 9.04994,1.45084c-0.95138,-1.49367 -2.0401,-2.88217 -3.79349,-3.49339c-0.24116,-0.08613 0.03943,-0.49266 0.25441,-0.4159c2.18344,0.75835 3.39003,2.70977 4.53659,4.59343c0.0483,0.0327 0.09577,0.06494 0.14364,0.09848c3.26072,2.24483 6.64271,3.55861 10.5461,4.24858c1.96655,0.3463 3.96254,0.53547 5.95205,0.70625c1.90206,0.16589 3.93299,0.12577 5.80198,0.53585c2.30801,0.5051 3.2217,1.96625 3.89676,3.71653c0.0207,0.00758 0.04504,-0.00008 0.06167,0.02145c0.86768,1.12001 2.81343,-0.00382 3.84797,0.84965c0.21158,0.1757 0.30642,0.56909 0.35091,0.99944c0.00256,-0.0008 0.00517,-0.00374 0.00773,-0.00455c2.37944,-0.86658 5.13134,-2.81714 4.53392,-5.65514c-0.37105,0.3047 -0.57762,0.95554 -0.73887,1.34074c-0.20953,0.50037 -0.3995,1.02487 -0.70468,1.47857c-0.15552,0.22425 -0.52961,0.13417 -0.34568,-0.13635c0.60283,-0.88884 0.79132,-2.79518 1.92159,-3.21822c0.01198,-0.00448 0.02086,-0.00304 0.03196,-0.00583c0.01622,-0.0044 0.03157,-0.00711 0.04732,-0.00854c0.01151,-0.0015 0.0234,-0.00173 0.03358,-0.0007c0.01527,0.00153 0.02795,0.006 0.04186,0.01219c0.00802,0.0031 0.01561,0.00707 0.02147,0.01226c0.02772,0.01875 0.05105,0.04591 0.06387,0.09117c0.87565,3.19204 -2.19621,5.51572 -4.85057,6.48214c-0.01282,0.00403 -0.02215,0.00344 -0.03453,0.00664c0.01916,0.42142 0.00919,0.83087 0.02253,1.07032c0.01138,0.20512 0.01481,0.41041 0.0128,0.61556c-0.13085,-0.09208 -0.2686,-0.18475 -0.41277,-0.27789c0.02125,-0.9872 -0.0312,-2.48755 -0.86334,-2.65081z" data-paper-data="{&quot;origPos&quot;:null,&quot;origRot&quot;:0}" id="Outline_9_" fill="#010101"/>
        <g data-paper-data="{&quot;origPos&quot;:null,&quot;origRot&quot;:0}" id="R_Hand">
          <path d="M318.78248,142.04548c0.41887,0.50345 2.11595,0.95351 2.82316,1.19376c0.40098,0.13304 0.81533,0.20342 1.24871,0.45515c0.38118,0.22236 0.76968,0.46355 1.11512,0.71335c0.78354,0.57256 1.28889,1.36218 2.02161,1.95003c0.39438,0.32032 0.7074,0.50285 1.01192,0.93381c0.26835,0.38531 0.54419,0.95346 1.00691,1.12835c-0.14636,0.45938 -0.37006,0.99308 -0.39198,1.45628c-0.02047,0.42753 0.09528,0.8897 0.07947,1.34323c-0.04212,0.99911 0.22369,1.85559 0.29842,2.85457c0.03368,0.44079 -0.15773,1.37488 -0.44426,1.73117c-0.31955,0.39906 -0.7358,0.2152 -1.17848,0.06146c-0.43719,-0.15193 -0.93427,-0.35546 -1.27353,-0.66846c-0.32417,-0.30085 -0.51896,-0.73886 -0.86836,-1.05501c-0.74888,-0.68627 -1.72535,-1.25872 -2.53764,-1.8645c-0.85134,-0.63363 -1.71036,-1.21555 -2.70163,-1.66716c-0.38791,0.71913 1.12875,1.58296 1.48965,2.0476c0.31602,0.40481 0.29302,0.58246 0.16209,1.13346c-0.11622,0.48582 -0.52551,0.96451 -0.52551,0.96451c-0.47806,-0.14754 -0.69597,-0.72405 -1.01517,-1.04266c-0.35,-0.35611 -0.79135,-0.61307 -1.19843,-0.91108c-0.76423,-0.55821 -1.47722,-1.15719 -1.78872,-2.10072c-0.17331,-0.52645 -0.37432,-1.02235 -0.54543,-1.55302c-0.18792,-0.59087 0.21108,-0.86493 0.63062,-1.34684c0.68919,-0.79557 0.84582,-1.23353 1.30735,-2.23355c0.52365,-1.12941 0.93434,-2.26202 1.30714,-3.44116" id="Fill_2_" fill="url(#color-1)"/>
          <path d="M324.53339,144.97613v0c-1.96399,-0.8689 -3.8386,-2.09619 -5.91618,-2.68361c-0.17633,-0.05018 0.11846,-0.44287 0.27447,-0.39687c2.07886,0.58703 3.95089,1.81512 5.91618,2.68362c0.18223,0.0779 -0.12849,0.45798 -0.27447,0.39686zM316.17492,151.42133v0c-0.13595,-0.37412 -0.29744,-0.7219 -0.48814,-1.07529c-0.25675,-0.46712 -0.41884,-0.97808 -0.57973,-1.4852c-0.05126,-0.15852 0.31584,-0.48029 0.3686,-0.31028c0.16172,0.50756 0.32855,1.01564 0.58142,1.48608c0.18734,0.35163 0.35137,0.69861 0.48817,1.07317c0.05895,0.1561 -0.30818,0.47999 -0.37032,0.31151zM316.37825,151.03559v0c1.42914,1.11175 2.67685,2.4214 3.91165,3.74143c0.11889,0.1295 -0.22543,0.48565 -0.33596,0.36479c-1.23567,-1.31835 -2.48334,-2.63011 -3.91248,-3.74187c-0.12793,-0.09779 0.19971,-0.47335 0.3368,-0.36435zM318.93365,150.39041v0c0.07702,0.96375 1.12489,1.53487 1.66699,2.23759c0.64187,0.83189 0.23053,1.70487 -0.38702,2.41031c-0.19763,0.22693 -0.3741,0.0599 -0.18122,-0.16202c1.63518,-1.87401 -1.33684,-2.53577 -1.47918,-4.25357c-0.0127,-0.15233 0.36004,-0.45617 0.38044,-0.23232zM324.07827,154.08916v0c-1.95506,-0.8696 -3.47567,-2.44693 -5.39771,-3.35931c-0.17788,-0.0842 0.13366,-0.46172 0.27362,-0.39729c1.92372,0.91326 3.44225,2.48842 5.39767,3.36143c0.17971,0.07657 -0.1285,0.45799 -0.27359,0.39517zM325.02897,152.08747v0c-1.26165,-1.01584 -2.34792,-2.19949 -3.42233,-3.4059c-0.11757,-0.13203 0.22927,-0.48686 0.33768,-0.36604c1.07353,1.20809 2.15977,2.39387 3.4223,3.40801c0.13002,0.09995 -0.19971,0.47335 -0.33764,0.36392zM326.77025,156.3213v0c-1.26434,-0.43544 -2.11661,-1.21314 -2.87743,-2.29564c-0.10367,-0.15049 0.24798,-0.48781 0.33684,-0.36648c0.74455,1.06437 1.56507,1.83515 2.81421,2.26482c0.1804,0.06087 -0.12029,0.45047 -0.27362,0.39729zM325.38876,151.64618v0c1.0482,1.2238 1.37956,2.89555 2.13758,4.29158c0.07582,0.13812 -0.27758,0.47882 -0.37245,0.31148c-0.74735,-1.37333 -1.07171,-3.03179 -2.09941,-4.2374c-0.11797,-0.13331 0.23095,-0.48599 0.33428,-0.36567zM323.21635,147.27963v0c1.49527,1.34446 3.05817,2.61061 4.50409,4.00862c0.12412,0.12152 -0.21601,0.482 -0.3368,0.36435c-1.44551,-1.39672 -3.00973,-2.66035 -4.50412,-4.0065c-0.12595,-0.11391 0.20916,-0.47913 0.33683,-0.36648zM327.7375,151.06036v0c0.33776,0.74937 0.96148,5.53181 -0.68504,5.18204c-0.1723,-0.03736 0.11231,-0.43107 0.27447,-0.39686c0.68459,0.14596 0.24163,-4.02364 0.03776,-4.47711c-0.06374,-0.14895 0.29372,-0.47897 0.37281,-0.30808zM323.8143,145.68111v0c1.64991,1.09725 2.95851,2.54901 4.12282,4.13979c0.10542,0.14712 -0.24629,0.4887 -0.33852,0.3656c-1.16347,-1.59034 -2.47118,-3.04379 -4.12029,-4.13847c-0.12939,-0.08677 0.18643,-0.46635 0.336,-0.36692zM327.82445,149.72465v0c0.18467,0.40809 0.07197,0.91182 0.09471,1.3469c0.00801,0.1531 -0.36725,0.45562 -0.37828,0.23022c-0.02277,-0.40831 0.08909,-0.88782 -0.0858,-1.27153c-0.06722,-0.14434 0.29195,-0.4756 0.36936,-0.30559zM324.85693,144.56736v0c1.26416,1.11786 2.17961,2.551 3.35176,3.75695c0.11981,0.1257 -0.22286,0.48484 -0.33596,0.36479c-1.173,-1.20638 -2.08676,-2.63865 -3.35092,-3.75651c-0.12683,-0.11223 0.20575,-0.47877 0.33512,-0.36524zM328.09511,148.35721v0c0.09374,0.38317 0.01966,0.79025 -0.09384,1.16606c-0.035,0.10818 -0.13153,0.21319 -0.23722,0.25557c-0.09283,0.03623 -0.1552,-0.0188 -0.12635,-0.11518c0.09973,-0.31657 0.16944,-0.66593 0.08712,-0.99707c-0.041,-0.16175 0.32848,-0.47369 0.37029,-0.30938z" id="Outline_7_" fill="#010101"/>
        </g>
      </g>
      <g data-paper-data="{&quot;origPos&quot;:null,&quot;origRot&quot;:0}" id="Undershirt" stroke="none" stroke-width="1">
        <path d="M220.81823,178.16159c0.00036,-0.00088 -0.00051,-0.00124 -0.00067,-0.00336c1.12415,-2.62535 2.72413,-5.00432 4.01062,-7.54497c0.28828,-0.43793 0.52664,-0.87699 0.79345,-1.43691c0.09418,-0.30443 -0.01865,0.12698 0.35217,-0.06084c0.2952,-0.14921 0.20113,0.4082 0.4991,0.65704c0.43101,0.36458 1.229,0.99012 1.6825,1.31775c1.00452,0.73265 2.43326,1.73454 3.59274,2.21467c2.69022,1.11399 5.17074,2.10619 7.97717,2.88991c3.26534,0.91206 5.75312,0.92325 9.11937,1.13472c2.67133,0.16637 5.75072,-0.60055 8.42427,-0.42709c-0.03366,0.8436 -0.40819,1.70337 -0.66302,2.49755c-0.33214,1.03053 -0.56854,2.09557 -0.84371,3.14249c-0.59876,2.27533 -1.1661,4.54927 -1.52726,6.87158c-0.04468,0.01851 -0.07178,0.05665 -0.02498,0.13978c0.00051,0.00124 0.00051,0.00124 0.00015,0.00212c-0.00294,0.02449 -0.008,0.04913 -0.01182,0.07325c-0.00728,0.04737 0.02601,0.09611 0.06995,0.13899c0.00455,0.07592 -0.01363,0.14962 -0.05082,0.21956c-0.01193,0.02385 -0.02898,0.04764 -0.04215,0.072c-0.72766,0.985 -5.3425,1.27342 -5.68021,1.26211c-3.17334,-0.08634 -6.24479,-0.82352 -9.27566,-1.72074c-0.39462,-0.83484 0.71726,-2.6211 1.0376,-3.33262c0.80577,-1.78449 1.21947,-3.70974 1.65207,-5.60865c0.02597,-0.11983 -0.22821,-0.32791 -0.30867,-0.19568c-0.81804,1.35475 -1.82357,2.58867 -2.63757,3.95847c-0.44697,0.75163 -0.91231,1.49051 -1.34559,2.24884c-0.39238,0.68684 -0.92272,1.27233 -1.30605,1.95469c-0.00503,0.00717 0.00296,0.01768 0.00145,0.0263c-3.59756,-1.31902 -6.91523,-3.19975 -10.17978,-5.18392c-0.58935,-0.35715 -1.3429,-0.74733 -2.09716,-1.19539c-0.69966,-0.44087 -1.41178,-0.93111 -2.01189,-1.4634c-0.76227,-0.73414 -1.27652,-1.59795 -1.2056,-2.64822z" id="Fill_5_" fill="#c0e1e1"/>
        <path d="M254.54108,189.67558c0.41192,1.28722 -3.06571,1.73706 -3.82768,1.839c-3.88405,0.53243 -7.97805,-0.59835 -11.66399,-1.69898c-0.11956,-0.03408 -0.2072,-0.21227 -0.13987,-0.26562c-0.30482,-0.80588 0.38908,-2.01976 0.68662,-2.69857c0.74785,-1.70668 1.27167,-3.43106 1.71542,-5.21534c0.00376,-0.01901 0.00788,-0.03889 0.01376,-0.05805c-0.01042,0.01522 -0.02083,0.03045 -0.03161,0.04655c-0.67551,1.00556 -1.40691,1.97976 -2.03827,3.0252c-0.45048,0.75018 -0.91055,1.49124 -1.34472,2.2492c-0.38932,0.68193 -0.91609,1.26376 -1.29709,1.94298c0.05546,0.097 0.0554,0.20391 -0.09409,0.15023c-4.15611,-1.49479 -7.8495,-3.78918 -11.64568,-6.00172c-1.80637,-1.05338 -4.53894,-2.54684 -4.3785,-4.99031c0.00109,-0.00263 -0.00118,-0.0046 -0.00045,-0.00636c0.15086,-0.35191 0.31365,-0.69785 0.47994,-1.04233c0.66358,-1.37655 1.43061,-2.69998 2.18748,-4.02865c0.82878,-1.45518 1.63898,-2.92011 2.26526,-4.47971c0.06476,-0.16135 0.37657,0.03666 0.32308,0.1708c-0.27466,0.68314 -0.59035,1.34621 -0.922,2.00061c-1.28649,2.54065 -2.88647,4.91961 -4.01062,7.54497c0.00051,0.00124 0.00139,0.0016 0.00103,0.00248c-0.07179,1.04991 0.44333,1.91408 1.2056,2.64822c0.57655,0.55441 1.29194,1.03675 2.01189,1.4634c0.75463,0.44718 1.50782,0.83824 2.09716,1.19539c3.26455,1.98417 6.58222,3.8649 10.17978,5.18392c0.00115,-0.00775 -0.00684,-0.01825 -0.00145,-0.0263c0.38281,-0.6836 0.91367,-1.26785 1.30605,-1.95469c0.43329,-0.75832 0.89863,-1.49721 1.34559,-2.24884c0.81487,-1.36943 1.81952,-2.60372 2.63757,-3.95847c0.08082,-0.1331 0.33552,0.07621 0.30867,0.19568c-0.43348,1.89855 -0.84682,3.82292 -1.65207,5.60865c-0.32034,0.71153 -1.43223,2.49778 -1.0376,3.33262c3.03087,0.89723 6.10268,1.63352 9.27566,1.72074c0.33771,0.01132 4.95256,-0.27711 5.68021,-1.26211c0.01705,-0.02379 0.02934,-0.04851 0.04215,-0.072c0.03719,-0.06994 0.05537,-0.14365 0.05082,-0.21956c-0.04394,-0.04287 -0.07759,-0.09074 -0.06995,-0.13899c0.00382,-0.02412 0.00888,-0.04876 0.01182,-0.07325c0.00036,-0.00088 0.00036,-0.00088 -0.00015,-0.00212c-0.04644,-0.08401 -0.01934,-0.12214 0.02498,-0.13978c0.36116,-2.32231 0.9285,-4.59625 1.52726,-6.87158c0.27481,-1.04605 0.51209,-2.11072 0.84371,-3.14249c0.25483,-0.79418 0.63024,-1.65359 0.66302,-2.49755c0.00076,-0.01922 0.0054,-0.03787 0.00616,-0.05709c0.0022,-0.19651 0.3251,-0.04018 0.32213,0.10357c-0.00953,0.47577 -0.09377,0.96982 -0.2177,1.46949c-0.10147,0.14562 -0.1889,0.30434 -0.25959,0.47507c-0.137,0.33086 -0.19772,0.67427 -0.19024,1.01069c-0.22353,0.6628 -0.45598,1.31342 -0.61492,1.92217c-0.68187,2.59771 -1.36828,5.19148 -1.77459,7.8488z" id="Outline_10_" fill="#000000"/>
      </g>
      <path d="M269.88803,144.94825c1.44581,-2.5703 2.82036,-5.14235 3.75443,-7.96672c0.07107,-0.21632 -0.35821,-0.46091 -0.43909,-0.2209c-1.0537,3.19023 -2.70289,6.02077 -4.30879,8.93299c-0.04005,0.02968 -0.05532,0.06655 -0.05932,0.10602c-0.12213,0.22293 -0.24566,0.44426 -0.36728,0.66844c-1.55588,2.86095 -2.51538,5.81874 -2.87735,9.0692c-0.43936,3.9464 -0.25317,7.89683 -0.28159,11.85402c-0.01416,2.13491 -0.53492,3.95618 -2.53655,5.00076c-1.24336,0.65115 -2.58874,1.07189 -3.82902,1.73048c-0.22409,0.11902 0.12111,0.47481 0.32213,0.3668c0.76883,-0.40654 1.55843,-0.73661 2.31462,-1.07538c-0.17732,0.56545 -0.07123,1.26743 -0.00916,1.90798c-1.14079,0.74672 -1.97404,1.32764 -2.59812,1.96098c-0.19693,0.01261 -0.3713,0.02071 -0.50696,0.02887c-0.94878,0.05646 -1.89621,0.03018 -2.84608,-0.04234c-4.52742,-0.33241 -9.36861,0.27666 -13.78331,-0.97356c-4.43371,-1.25397 -8.63051,-2.87152 -12.61978,-5.16402c-0.79806,-0.459 -1.57381,-1.0414 -2.22396,-1.6962c-0.71678,-0.71736 -1.43017,-1.35105 -0.49192,-2.2437c0.67251,-0.64076 0.98698,-0.99792 1.29995,-1.66931c0.07846,0.48594 0.14973,0.99666 -0.07494,1.4126c-0.11281,0.21034 0.28341,0.505 0.39191,0.30007c0.49432,-0.91813 0.00167,-1.9334 0.02835,-2.92899c0.03576,-1.21113 0.24607,-2.29953 0.74777,-3.34631c0.67979,-0.57156 1.35739,-1.17367 1.70383,-2.0103c0.5784,-1.39681 1.18155,-2.75641 1.79785,-4.09488c0.2945,-0.5787 0.57717,-1.16479 0.84569,-1.76038c0.1849,-0.4103 0.37174,-0.81935 0.56058,-1.22718c0.53751,-1.12355 1.07825,-2.24051 1.61499,-3.3609c1.57743,-3.16511 3.28193,-6.25836 5.12466,-9.29201c0.00415,-0.00754 -0.00245,-0.01644 0.00082,-0.02434c0.00575,-0.00893 0.01701,-0.00632 0.02174,-0.01773c0.37239,-1.00358 0.54323,-2.07417 0.81631,-3.10859c-0.00015,-0.00212 0.00145,-0.00351 0.0013,-0.00563c0.005,-0.01952 0.00912,-0.03941 0.01412,-0.05893c0.02545,-0.09126 -0.04088,-0.17939 -0.12286,-0.24213c-0.50895,-1.2143 -1.04603,-2.36313 -1.22631,-3.69325c-0.02928,-0.21982 -0.48536,-0.39223 -0.44808,-0.11974c0.19624,1.44058 0.77843,2.6667 1.32562,3.98731c-0.25824,1.00355 -0.4337,2.03315 -0.7911,3.00798c-0.53774,0.88607 -1.06468,1.77707 -1.58061,2.67342c0.50652,-1.21118 0.99334,-2.44745 1.45253,-3.7198c0.2916,-0.80797 0.60685,-1.7207 0.37901,-2.54892c-0.24185,-0.87915 -1.71362,-1.25153 -1.67509,-2.16253c0.06667,-1.5759 0.64952,-2.57396 1.22232,-3.50183c0.3009,-0.3689 0.55377,-0.78733 0.74526,-1.24978c0.06722,-0.16234 0.12527,-0.3262 0.17436,-0.491c0.20424,-0.58 0.3036,-1.23594 0.20465,-2.05792c-0.02657,-0.22066 -0.08212,-0.42944 -0.16091,-0.62867c-0.38316,-1.46123 -1.42142,-2.73242 -2.92478,-3.35494c-0.07279,-0.03014 -0.14588,-0.05843 -0.21923,-0.0849c0.12948,-0.23978 0.25926,-0.47937 0.38953,-0.71867c0.71426,-1.31346 1.35557,-2.78302 2.40277,-3.87331c0.24245,-0.10143 0.46902,-0.24086 0.67002,-0.41428c1.98155,-0.43587 3.98683,-0.89065 6.01513,-0.96778c2.45797,-0.09061 4.85863,0.31225 7.24048,0.89959c0.04292,0.01057 0.06218,-0.00613 0.0903,-0.01196c0.20131,0.05765 0.37517,0.09469 0.37517,0.09469l3.62081,0.25724c0,0 0.99762,5.04013 5.32009,6.91536c4.32247,1.87523 5.98233,-1.72104 5.98233,-1.72104l3.8909,2.18493c0.99061,1.022 2.04404,2.02888 2.87668,3.18904c0.90931,1.26801 1.73866,2.5975 2.62324,3.88303c0.13772,0.99058 0.00795,1.98851 -0.20605,2.9751c-2.17287,0.44907 -4.42022,1.92374 -5.11388,3.36523c-0.90377,1.87813 -1.80851,3.78538 -2.51384,5.7515c-0.46444,0.47884 -0.98674,0.91243 -1.52625,1.32706z" data-paper-data="{&quot;origPos&quot;:null,&quot;origRot&quot;:0}" id="Fill_4_" fill="#302d63" stroke="none" stroke-width="1"/>
      <path d="M227.78011,163.02269c-0.05701,0.52752 -0.08318,1.05754 -0.06454,1.58862c-0.03863,0.01382 -0.07623,0.03013 -0.09498,0.07789c-0.24695,0.65349 -0.39605,1.20971 -0.92879,1.67185c-0.40064,0.34924 -1.0681,0.76177 -1.18617,1.30513c-0.26904,0.498 -0.58689,0.91372 -0.94264,1.25468c1.09831,-2.05548 1.89108,-4.49566 2.56335,-6.02554c0.20698,-0.47105 0.55597,-0.86612 0.95941,-1.23949c-0.14771,0.43534 -0.25325,0.88728 -0.30565,1.36686z" data-paper-data="{&quot;origPos&quot;:null,&quot;origRot&quot;:0}" id="Fill_4_" fill="#302d63" stroke="none" stroke-width="1"/>
      <path d="M265.72525,163.02403c-0.0041,-1.99646 0.0083,-4.00048 0.17968,-5.99111c0.34377,-3.94897 1.3548,-7.43346 3.30394,-10.87909c0.02831,-0.051 0.05627,-0.10112 0.08546,-0.15175c0.60546,-0.446 1.21803,-0.8997 1.78485,-1.39286c-0.25754,0.80787 -0.47659,1.62629 -0.64366,2.45726c-0.20297,1.00954 -2.13304,1.92879 -2.352,3.17506c-0.52982,3.01552 -1.10539,5.57946 -1.55892,8.62951c-0.20123,1.35333 0.55647,4.12783 0.18692,5.13899c-0.36581,1.00094 -0.63572,2.09587 -0.89781,3.20528c0.02632,-1.39722 -0.08664,-2.82283 -0.08845,-4.19128z" data-paper-data="{&quot;origPos&quot;:null,&quot;origRot&quot;:0}" id="Fill_4_" fill="#302d63" stroke="none" stroke-width="1"/>
      <path d="M262.327,173.12272c0.0191,-0.01882 0.01021,-0.04204 0.01594,-0.06332c0.89805,-0.44114 1.70838,-0.94263 2.31466,-1.67035c-0.57122,1.49937 -1.37157,2.80815 -2.68433,3.67068c-0.10056,-0.73139 -0.17464,-1.44776 0.35373,-1.93701z" data-paper-data="{&quot;origPos&quot;:null,&quot;origRot&quot;:0}" id="Fill_4_" fill="#302d63" stroke="none" stroke-width="1"/>
      <path d="" data-paper-data="{&quot;origPos&quot;:null}" id="Fill_4_" fill="#302d63" stroke="none" stroke-width="1"/>
      <path d="" data-paper-data="{&quot;origPos&quot;:null}" id="Fill_4_" fill="#302d63" stroke="none" stroke-width="1"/>
      <path d="M279.24594,131.5295c-0.88457,-1.28553 -1.71305,-2.61466 -2.62324,-3.88303c-0.83263,-1.16017 -1.88642,-2.16617 -2.87668,-3.18904l-3.8909,-2.18493c0,0 -1.65986,3.59627 -5.98233,1.72104c-4.32247,-1.87523 -5.32009,-6.91536 -5.32009,-6.91536l-3.62081,-0.25724c0,0 -0.17386,-0.03703 -0.37517,-0.09469c-0.02812,0.00583 -0.04738,0.02254 -0.0903,0.01196c-2.38185,-0.58735 -4.78252,-0.9902 -7.24048,-0.89959c-2.02746,0.0771 -4.03223,0.53233 -6.0127,0.96736c0.1836,-0.15846 0.34586,-0.34528 0.47935,-0.55738c1.69245,-0.36331 3.39022,-0.69438 5.12148,-0.81085c2.44297,-0.16366 4.87609,0.2403 7.24532,0.80597c0.00124,-0.00051 0.00036,-0.00088 0.0016,-0.00139l0.01704,0.00603c0.05206,0.01333 0.10573,0.02527 0.15815,0.03773c0.07319,0.01694 0.14725,0.03424 0.22095,0.05242c0.05418,0.01318 0.09628,0.04809 0.1318,0.08645l4.37569,0.39092c0,0 1.02233,4.87864 5.0787,6.77324c4.05636,1.89459 5.61632,-1.8726 5.61632,-1.8726c0,0 4.08152,2.2361 4.40521,2.54699c0.23958,0.2483 0.48201,0.4947 0.72334,0.74372c0.75784,0.7796 1.50811,1.57252 2.15385,2.44656c0.61898,0.83932 1.19222,1.71213 1.76545,2.58495c0.18742,0.28737 0.37804,0.57195 0.56955,0.85689c0.13014,0.19476 0.25671,0.39318 0.38969,0.58603c0.0489,0.07063 0.05303,0.12273 0.03353,0.15989c0.13276,0.95015 0.01507,1.86697 -0.17621,2.78028c-0.1606,0.0217 -0.32229,0.04955 -0.48439,0.0831c0.21394,-0.98643 0.34375,-1.98446 0.20625,-2.97543z" data-paper-data="{&quot;origPos&quot;:null,&quot;origRot&quot;:0}" id="Outline_9_" fill="#010101" stroke="none" stroke-width="1"/>
      <path d="M238.13803,121.09399c-0.13013,0.23902 -0.25979,0.47835 -0.38914,0.71789c-0.15668,-0.05648 -0.31451,-0.10464 -0.47299,-0.14468c0.37625,-0.69895 0.75404,-1.39704 1.13788,-2.09082c0.27403,-0.496 0.54088,-0.98256 0.83615,-1.44442c0.05171,-0.0704 0.10007,-0.14404 0.14475,-0.22076c0.11567,-0.17182 0.23625,-0.33973 0.36367,-0.50292c0.27011,-0.01974 0.53405,-0.08332 0.78152,-0.18647c-1.04695,1.09082 -1.6881,2.55987 -2.40183,3.87218z" data-paper-data="{&quot;origPos&quot;:null,&quot;origRot&quot;:0}" id="Outline_9_" fill="#010101" stroke="none" stroke-width="1"/>
      <path d="M225.50351,167.66633c0.11894,-0.54301 0.78552,-0.95589 1.18617,-1.30513c0.53274,-0.46214 0.68184,-1.01837 0.92879,-1.67185c0.01875,-0.04776 0.05723,-0.0637 0.09498,-0.07789c-0.0058,-0.14738 0.00038,-0.29392 0.00181,-0.44139c-0.36725,0.4806 -0.88988,0.80559 -1.49855,1.00051c0.07505,-0.19251 0.14839,-0.38176 0.22015,-0.5667c0.78111,-0.38236 1.32681,-1.05853 1.39871,-2.11244c0.00304,-0.04707 0.03026,-0.06562 0.05366,-0.08986c0.0552,-0.25836 0.12501,-0.50987 0.20794,-0.7563c0.25198,-0.23237 0.52478,-0.45654 0.79722,-0.6856c-0.50326,1.04832 -0.71384,2.13744 -0.74964,3.35018c-0.02668,0.99559 0.46634,2.00998 -0.02835,2.92899c-0.10851,0.20493 -0.50472,-0.08973 -0.39191,-0.30007c0.2238,-0.4163 0.15252,-0.92703 0.07494,-1.4126c-0.3121,0.67175 -0.62744,1.02855 -1.29995,1.66931c-0.93825,0.89265 -0.22486,1.52634 0.49192,2.2437c0.65015,0.6548 1.4259,1.2372 2.22396,1.6962c3.99015,2.29286 8.18731,3.90953 12.61978,5.16402c4.41434,1.25109 9.25589,0.64114 13.78331,0.97356c0.94987,0.07252 1.89694,0.09967 2.84608,0.04234c0.13517,-0.00807 0.30869,-0.01605 0.50458,-0.02848c-0.04359,0.04432 -0.08618,0.0889 -0.12777,0.13382c-0.27589,0.06716 -0.539,0.18081 -0.77716,0.33595c-0.65641,0.01953 -1.31536,0.00045 -1.96981,-0.03874c-5.0763,-0.30059 -10.48343,0.2623 -15.37015,-1.36023c-4.40457,-1.46092 -8.87686,-2.80798 -12.68358,-5.56368c-0.66599,-0.48245 -1.97751,-1.41729 -2.40713,-2.3787c-0.46637,0.68438 -1.03801,1.19217 -1.6782,1.54564c0.21328,-0.33111 0.41608,-0.68119 0.60941,-1.04317c0.35424,-0.34035 0.67078,-0.75499 0.93882,-1.25137z" data-paper-data="{&quot;origPos&quot;:null,&quot;origRot&quot;:0}" id="Outline_9_" fill="#010101" stroke="none" stroke-width="1"/>
      <path d="M252.10132,172.4224c0.2164,-0.0235 0.50059,0.37283 0.22889,0.40325c-9.05735,0.99576 -19.43922,-4.84841 -21.67982,-14.00263c0.09144,-0.21991 0.18348,-0.43889 0.27609,-0.65703c1.8247,9.25209 12.15352,15.24484 21.17484,14.25642z" data-paper-data="{&quot;origPos&quot;:null,&quot;origRot&quot;:0}" id="Outline_9_" fill="#010101" stroke="none" stroke-width="1"/>
      <path d="M240.13149,138.94073c0.3574,-0.97483 0.53373,-2.00407 0.7911,-3.00798c-0.54682,-1.32149 -1.12902,-2.54762 -1.32562,-3.98731c-0.03728,-0.2725 0.41844,-0.09921 0.44808,0.11974c0.18028,1.33012 0.71737,2.47895 1.22631,3.69325c0.08198,0.06274 0.14744,0.15051 0.12286,0.24213c-0.005,0.01952 -0.00912,0.03941 -0.01412,0.05893c0.00015,0.00212 -0.00145,0.00351 -0.0013,0.00563c-0.27344,1.0353 -0.44392,2.10501 -0.81631,3.10859c-0.00436,0.01053 -0.01598,0.0088 -0.02174,0.01773c-0.00291,0.00702 0.00369,0.01592 -0.00082,0.02434c-1.83321,3.018 -3.52946,6.09457 -5.10006,9.24262c1.07396,-2.24249 2.13151,-4.49928 3.11473,-6.85072c0.51474,-0.89418 1.04043,-1.783 1.57688,-2.66694z" data-paper-data="{&quot;origPos&quot;:null,&quot;origRot&quot;:0}" id="Outline_9_" fill="#010101" stroke="none" stroke-width="1"/>
      <path d="M233.23973,153.09587c-0.25948,0.57593 -0.53301,1.14261 -0.81792,1.70219c0.44482,-0.96505 0.89639,-1.91923 1.35036,-2.86858c-0.17926,0.38767 -0.35673,0.77646 -0.53244,1.16639z" data-paper-data="{&quot;origPos&quot;:null,&quot;origRot&quot;:0}" id="Outline_9_" fill="#010101" stroke="none" stroke-width="1"/>
      <path d="M261.57876,173.41748c-0.75531,0.33913 -1.54579,0.66884 -2.31462,1.07538c-0.20065,0.10713 -0.54585,-0.24865 -0.32213,-0.3668c1.24028,-0.65859 2.58565,-1.07933 3.82902,-1.73048c2.00199,-1.04546 2.52239,-2.86586 2.53655,-5.00076c0.02879,-3.95807 -0.15777,-7.90762 0.28159,-11.85402c0.36073,-3.24995 1.32147,-6.20825 2.87735,-9.0692c0.12126,-0.2233 0.24514,-0.44551 0.36728,-0.66844c0.00452,-0.03823 0.02015,-0.07597 0.05932,-0.10602c1.6059,-2.91222 3.25545,-5.74364 4.30879,-8.93299c0.08176,-0.23965 0.51016,0.00458 0.43909,0.2209c-0.9332,2.82473 -2.30863,5.39641 -3.75443,7.96672c0.53962,-0.41473 1.062,-0.8483 1.52648,-1.32716c-0.11751,0.32768 -0.22948,0.657 -0.33499,0.98809c-0.56695,0.49316 -1.1797,0.94686 -1.7852,1.3929c-0.02831,0.051 -0.05627,0.10112 -0.08546,0.15175c-1.94914,3.44563 -2.96017,6.93012 -3.30394,10.87909c-0.17189,1.98939 -0.18465,3.99429 -0.17968,5.99111c0.00155,1.37018 0.11461,2.79712 0.08816,4.19513c-0.33607,1.42285 -0.65959,2.86927 -1.15633,4.17159c-0.60612,0.72697 -1.4162,1.22798 -2.31413,1.66865c-0.00573,0.02128 0.00404,0.04486 -0.01594,0.06332c-0.52794,0.48913 -0.45465,1.2044 -0.35421,1.93477c-0.00743,0.00488 -0.01488,0.00974 -0.02234,0.01459c-0.1302,0.08459 -0.25671,0.16698 -0.37963,0.24745c-0.06209,-0.63992 -0.16771,-1.34083 0.0094,-1.90558z" data-paper-data="{&quot;origPos&quot;:null,&quot;origRot&quot;:0}" id="Outline_9_" fill="#010101" stroke="none" stroke-width="1"/>
      <path d="" data-paper-data="{&quot;origPos&quot;:null}" id="Outline_9_" fill="#010101" stroke="none" stroke-width="1"/>
      <path d="" data-paper-data="{&quot;origPos&quot;:null}" id="Outline_9_" fill="#010101" stroke="none" stroke-width="1"/>
      <path d="M267.00649,99.77074c0.2353,0.16427 0.43879,1.29976 0.19931,1.13068c-0.74129,-0.5196 -1.02198,-1.04121 -1.67264,-1.6706c-1.16976,-1.13154 -2.44355,-1.97074 -3.57581,-0.80167c-0.08057,0.08283 0.29472,0.40069 0.39279,0.30043c1.5757,-1.62505 3.00452,-0.1148 4.65634,1.04116z" data-paper-data="{&quot;origPos&quot;:null,&quot;origRot&quot;:0}" id="L_Eyebrow" fill="#000000" stroke="none" stroke-width="1"/>
      <path d="M272.68128,103.33038c0,0 0.28463,0.10849 0.59517,-0.13205c0.16222,-0.12566 0.56608,-0.68521 0.56608,-0.68521c1.9385,0.06136 4.79458,-0.56604 5.08064,1.64589c0.01873,0.14348 0.41942,0.34539 0.4073,0.25297c-0.17349,-1.34013 -2.11458,-1.49954 -3.46588,-1.49265c-0.66785,0.00341 -0.32239,-0.15834 -0.99016,-0.14706c-0.89415,0.0151 -0.54928,0.42763 -1.44308,0.39832c-0.17036,-0.00576 -0.87315,0.15406 -0.75007,0.15978z" data-paper-data="{&quot;origPos&quot;:null,&quot;origRot&quot;:0}" id="R_Eyebrow" fill="#000000" stroke="none" stroke-width="1"/>
      <g data-paper-data="{&quot;origPos&quot;:null,&quot;origRot&quot;:0}" id="Neck" stroke="none" stroke-width="1">
        <path d="M264.62047,123.7708c-3.97339,-1.41707 -5.20441,-4.72154 -5.53748,-5.97817l1.23985,-2.44789l0.41699,-0.82574c0.04294,0.05274 0.08464,0.10599 0.12954,0.15647c1.70532,1.92563 3.94166,4.20277 6.33227,5.24821c0.03738,0.01651 0.06516,0.0239 0.08541,0.02714c0.00088,0.00036 0.00176,0.00073 0.00176,0.00073c0.65712,0.10656 1.34062,0.07495 2.01971,-0.03046c-0.81555,2.02413 1.0405,2.47086 1.48205,2.54677c-0.57105,0.88739 -2.26926,2.69408 -6.1701,1.30294z" data-paper-data="{&quot;origPos&quot;:null}" id="Fill_1_" fill="url(#color-2)"/>
        <path d="M260.32372,115.3451l-1.29173,2.55082l-0.07271,-0.33344l-0.04547,-0.20802l1.27236,-2.4519l0.47785,-0.76661l0.19653,0.14616l-0.11947,0.23637l-0.41735,0.82662" id="L_Side" fill="#000000"/>
        <path d="M270.88531,122.48241c0,0 -2.49859,-0.27067 -1.57555,-2.56183c0.03619,-0.08989 0.0667,-0.17597 0.11355,-0.27173l0.21943,0.09086c0,0 -1.11634,2.02296 1.30737,2.53407l-0.05398,0.17507z" id="R_Side" fill="#000000"/>
      </g>
      <g data-paper-data="{&quot;origPos&quot;:null,&quot;origRot&quot;:0}" id="Collar_3_" stroke="none" stroke-width="1">
        <path d="M269.53667,120.6826c0.20414,-0.11803 -0.14512,-0.45904 -0.32803,-0.35999c-0.05365,0.03023 -0.10436,0.06578 -0.15749,0.09725c0.01411,-0.02912 0.05082,-0.11777 0.03846,-0.08792c-0.256,0.62815 -0.26702,-0.89717 0.27858,-0.89128l0.0198,-0.00311c0.01761,0.03197 0.02974,0.06475 0.07066,0.09506c1.41734,1.06914 3.00713,2.39478 3.87579,3.98938c-2.30808,2.15464 -4.84882,4.21807 -6.89647,6.63273c-0.41508,-1.09831 -0.81578,-2.20404 -1.22429,-3.3058c-0.21053,-0.56428 -0.42019,-1.12819 -0.64313,-1.68732c-0.32083,-0.80943 -0.46383,-1.16683 0.44862,-1.56016c0.70387,-0.30182 1.33924,-0.71632 1.95855,-1.15907c0.11389,-0.08137 0.2283,-0.16149 0.34081,-0.24446c0.72252,-0.53059 1.43556,-1.08053 2.21814,-1.51531z" data-paper-data="{&quot;origPos&quot;:null}" id="R_Fill" fill="#c0e1e1"/>
        <path d="M256.91521,124.56115c-0.02821,-0.13301 -0.0678,-0.2584 -0.18252,-0.3861c-0.00608,-0.00766 -0.01005,-0.01547 -0.01649,-0.02225c-0.41545,-0.83421 -0.80081,-1.67653 -1.06624,-2.54527c-0.1671,-0.55246 -1.60314,-5.13971 -0.90181,-5.3336c0.0168,-0.00333 0.03287,-0.0049 0.0471,-0.01443c1.37467,-0.88879 3.16238,-1.07907 4.76723,-1.30701c0.00287,0.01044 0.00575,0.02089 0.00862,0.03133c0.08748,0.36731 0.19088,0.73094 0.3072,1.09066c0.1665,0.51417 0.35265,1.02311 0.56787,1.52146c0.04995,0.11528 0.10558,0.22675 0.15713,0.34063c0.65833,1.45198 1.48364,2.83841 2.33394,4.15705c0.4509,0.70391 1.0886,1.24971 0.23484,1.88122c-0.61198,0.44989 -1.22505,0.90242 -1.82318,1.37347c-0.96061,0.75795 -1.75915,1.71051 -2.76176,2.41097c-0.51746,-1.06462 -1.1188,-2.12284 -1.67195,-3.19812z" id="L_Fill" fill="#c0e1e1"/>
        <path d="M273.79218,123.74753c-0.00466,0.00629 0.00193,0.0152 -0.005,0.01952c-2.41002,2.25432 -5.08796,4.40078 -7.18865,6.95594c-0.01771,0.02043 -0.04553,0.0305 -0.08083,0.03131c-0.12321,0.03432 -0.29232,-0.07375 -0.33031,-0.20053c-0.53379,-1.37779 -1.02859,-2.77028 -1.54179,-4.15806c-0.23392,-0.62948 -0.87818,-1.56667 -0.81185,-2.31037c-0.93798,0.68095 -1.88386,1.35863 -2.7589,2.11602c-0.80138,0.69124 -1.45607,1.49259 -2.35818,2.06705c-0.14099,0.08968 -0.31851,-0.08253 -0.36954,-0.19518c-1.15516,-2.47207 -2.65066,-4.82493 -3.38497,-7.46411c-0.17559,-0.62384 -1.39599,-4.25192 -0.51549,-4.68727c0.00802,-0.00696 0.01078,-0.0161 0.02092,-0.02321c1.481,-0.95684 3.4152,-1.12347 5.1191,-1.3721c0.15977,-0.0233 0.30987,0.11083 0.34038,0.25816c0.00067,0.00336 0.00133,0.00672 0.002,0.01008c0.68297,3.22251 2.61668,5.88536 4.26285,8.66152c0.24301,-0.15232 0.57173,-0.24343 0.77105,-0.32747c0.512,-0.22087 0.9829,-0.5585 1.44202,-0.87016c0.74791,-0.51494 1.45908,-1.08519 2.22297,-1.57911c0.13923,-0.09041 0.2814,-0.17549 0.42357,-0.26057c0.05313,-0.03147 0.10384,-0.06702 0.15749,-0.09725c0.18204,-0.09942 0.53005,0.24211 0.32715,0.35962c-0.78294,0.43565 -1.49562,0.98471 -2.21814,1.51531c-0.11214,0.08209 -0.22691,0.1631 -0.34081,0.24446c-0.61931,0.44275 -1.25555,0.85689 -1.95855,1.15907c-0.91245,0.39333 -0.77034,0.75037 -0.44862,1.56016c0.22382,0.5595 0.4326,1.12305 0.64313,1.68732c0.40763,1.1014 0.80797,2.208 1.22429,3.3058c2.04713,-2.4159 4.58839,-4.47809 6.89647,-6.63273c-0.86867,-1.59461 -2.45881,-2.91936 -3.87579,-3.98938c-0.04004,-0.02995 -0.05305,-0.0631 -0.07066,-0.09506c-0.09016,-0.15969 0.06355,-0.30991 0.26777,-0.15749c0.24931,0.18755 0.50238,0.38591 0.75662,0.58887c0.06413,0.05123 0.12877,0.10371 0.19341,0.15618c1.23692,1.00574 2.46239,2.18566 3.17038,3.55744c0.00345,0.00657 0.00287,0.01044 0.00544,0.01665c0.01767,0.02685 0.02393,0.04898 0.02625,0.07565c0.0035,0.03127 -0.00331,0.05518 -0.01518,0.07391zM255.65157,121.60613c0.26543,0.86874 0.64991,1.71069 1.0666,2.54439c0.06804,0.13614 0.12936,0.27361 0.19865,0.40923c0.55315,1.07528 1.15449,2.13351 1.67195,3.19812c1.00261,-0.70046 1.80115,-1.65302 2.76176,-2.41097c0.59812,-0.47105 1.21083,-0.9227 1.82318,-1.37347c0.85376,-0.63151 0.21694,-1.17695 -0.23484,-1.88122c-0.84994,-1.31951 -1.67437,-2.70558 -2.33394,-4.15705c-0.05155,-0.11389 -0.10719,-0.22535 -0.15713,-0.34063c-0.21521,-0.49835 -0.40136,-1.00729 -0.56787,-1.52146c-0.1172,-0.36009 -0.21973,-0.72335 -0.3072,-1.09066c-0.00287,-0.01044 -0.00575,-0.02089 -0.00862,-0.03133c-1.60486,0.22795 -3.39293,0.4191 -4.76723,1.30701c-0.01423,0.00953 -0.0303,0.0111 -0.0471,0.01443c-0.70221,0.19352 0.73434,4.78201 0.90181,5.3336z" id="Outline_6_" fill="#000000"/>
      </g>
      <path d="M281.68639,108.01195c0.78934,-0.01657 1.10841,0.22352 0.9597,0.71923c-0.05494,0.23945 -0.12904,0.47302 -0.22581,0.69926c-0.20746,0.43643 -0.44566,0.8478 -0.77306,1.20886c-0.38156,0.41986 -0.79242,0.81114 -1.19749,1.20585c0.33228,-0.86699 0.58226,-1.77113 0.7494,-2.69622c0.00678,-0.00645 0.02382,-0.00042 0.02643,-0.01168c0.09105,-0.36639 0.25179,-0.74711 0.43913,-1.12504c0.00533,-0.00293 0.01689,0.00391 0.0217,-0.00027z" data-paper-data="{&quot;origPos&quot;:null,&quot;origRot&quot;:0}" id="R_Ear" fill="#cbe7b7" stroke="none" stroke-width="1"/>
      <path d="M273.23497,118.26074c-0.62071,0.26737 -1.24805,0.51348 -1.88237,0.70941c-1.36314,0.41647 -2.85921,0.86838 -4.29617,0.64865c-2.26212,-1.00561 -4.51956,-3.274 -6.08021,-5.14178c-1.95673,-2.33409 -3.32177,-5.07404 -3.13298,-8.1844c0.00316,-0.0573 -0.06817,-0.12591 -0.14846,-0.1828c0.00367,-0.02624 0.00528,-0.05745 0.00946,-0.08245c0.10656,-0.0587 0.21261,-0.11863 0.31594,-0.1869c0.07378,-0.04657 -0.26173,-0.386 -0.3898,-0.30022c-0.86734,0.57242 -1.72787,0.68393 -2.38648,-0.4669c-0.23745,-0.40988 -0.48638,-0.81937 -0.6555,-1.26265c-0.2818,-0.7398 -0.51652,-1.566 -0.39705,-2.37099c0.15252,-1.02882 1.60355,-3.57948 2.94739,-3.30372c0.01813,0.00339 0.03626,0.00679 0.05491,0.01143c0.30513,0.08008 0.60407,0.30669 0.87972,0.73856c0.06496,0.09888 0.49077,0.32455 0.35673,0.11687c-0.05837,-0.08998 -0.12055,-0.15583 -0.17977,-0.23382c2.83202,-9.11368 7.54292,-16.06534 20.2084,-9.79247c12.25983,6.07301 4.92281,15.97713 4.36864,16.69465c-0.00285,0.00191 -0.01002,-0.00312 -0.01323,-0.00034c-0.82865,0.68509 -1.54369,1.82338 -1.88401,2.88857c-0.04189,-0.00809 -0.0725,-0.00123 -0.07783,0.03152c-0.49383,3.06733 -1.901,6.29422 -4.57666,8.04781c-0.65084,0.42455 -1.34145,0.81104 -2.05018,1.16431c-0.33203,0.1463 -0.66149,0.29881 -0.9905,0.45767z" data-paper-data="{&quot;origPos&quot;:null,&quot;origRot&quot;:0}" id="Head_Fill" fill="#a86c35" stroke="none" stroke-width="1"/>
      <path d="M283.08012,108.48009c0.03904,1.96671 -1.87142,3.16112 -3.03374,4.47818c-0.01771,0.02043 -0.0531,0.014 -0.08812,0.0067c-0.82584,1.6641 -2.00157,3.12779 -3.61805,4.18585c-1.41806,0.93149 -3.03889,1.60524 -4.63889,2.14675c-0.5798,0.19588 -1.19828,0.38088 -1.82762,0.51512c0.00681,0.0059 0.01026,0.01247 0.01619,0.01801c-0.18561,0.00128 -0.36182,0.02703 -0.52949,0.07687c-0.69486,0.11122 -1.39604,0.14579 -2.06866,0.03692c-0.00088,-0.00036 -0.00176,-0.00073 -0.00176,-0.00073c-0.02061,-0.00237 -0.04891,-0.011 -0.08541,-0.02714c-2.3906,-1.04545 -4.62607,-3.32222 -6.33227,-5.24821c-0.07362,-0.08293 -0.13908,-0.17069 -0.2111,-0.25501c-0.00058,0.00387 -0.00115,0.00775 -0.00173,0.01162c-0.08484,-0.13281 -0.19063,-0.25477 -0.31292,-0.36916c0.00775,0.00115 0.01323,0.00034 0.02061,0.00237c-1.81908,-2.24933 -3.06433,-4.94584 -2.92925,-7.88925c-0.59338,0.2684 -1.21661,0.32085 -1.7682,-0.21191c-0.99369,-0.95746 -1.63147,-2.40197 -1.8619,-3.74257c-0.39302,-2.2665 2.14854,-5.44933 4.03527,-3.87735c0.06794,0.05692 0.13688,0.10398 0.20273,0.1734c0.25318,-0.97891 2.90492,-10.72249 8.47649,-11.87123c3.21379,-0.66191 5.98041,-0.49721 8.74687,0.45504c2.14081,0.73739 4.28434,1.94992 6.63138,3.62203c0.15531,0.11161 0.30981,0.21775 0.46791,0.33257c5.6018,4.08716 3.38731,11.88337 0.8661,14.88544c0,0 -0.01329,0.00478 -0.0333,0.01089c-0.00115,0.00775 0.01013,0.0227 0.00408,0.02739c-0.47064,0.38915 -0.91177,0.93549 -1.26913,1.52784c0.02382,-0.00042 0.04928,0.01012 0.07325,0.01182c0.52835,0.03267 1.06039,0.38666 1.07066,0.96774zM276.27601,116.63788c2.67566,-1.75359 4.08283,-4.98048 4.5763,-8.04693c0.00534,-0.03275 0.03506,-0.03998 0.07783,-0.03152c0.34032,-1.06519 1.05536,-2.20348 1.88401,-2.88857c0.00321,-0.00278 0.01038,0.00224 0.01323,0.00034c0.55417,-0.71752 7.89243,-10.62215 -4.36864,-16.69465c-12.66548,-6.27286 -17.37639,0.6788 -20.2084,9.79247c0.0601,0.07835 0.12228,0.1442 0.17977,0.23382c0.13316,0.20732 -0.2914,-0.01887 -0.35673,-0.11687c-0.27601,-0.43099 -0.57459,-0.65848 -0.87972,-0.73856c-0.01864,-0.00464 -0.03714,-0.00715 -0.05491,-0.01143c-1.34384,-0.27576 -2.79487,2.2749 -2.94739,3.30372c-0.11947,0.80499 0.11525,1.63119 0.39705,2.37099c0.16912,0.44328 0.41805,0.85277 0.6555,1.26265c0.6581,1.14959 1.51791,1.03984 2.384,0.46793c0.00036,-0.00088 -0.00051,-0.00124 -0.00015,-0.00212c0.73832,-0.78728 -0.97422,-1.07896 -1.44645,-1.34648c-0.73687,-0.41309 -1.26999,-1.05748 -1.27922,-1.92913c-0.00133,-0.10852 0.4034,0.10844 0.4073,0.25297c0.01971,1.55153 1.46282,1.48076 2.49376,1.99815c0.51539,0.25763 0.67371,0.83627 0.21652,1.32456c-0.10333,0.06826 -0.20938,0.1282 -0.31594,0.1869c-0.02255,0.01225 -0.04408,0.02699 -0.06663,0.03924c0.02085,0.01172 0.03741,0.02886 0.05717,0.04321c0.08029,0.0569 0.15162,0.12551 0.14846,0.1828c-0.18755,3.10984 1.17625,5.85031 3.13298,8.1844c1.56029,1.86866 3.81897,4.13654 6.08021,5.14178c1.43696,0.21973 2.93266,-0.23131 4.29617,-0.64865c0.63607,-0.1952 1.26341,-0.44131 1.88325,-0.70904c0.3343,-0.14433 0.66479,-0.29435 0.9905,-0.45767c0.70749,-0.35276 1.39897,-0.73889 2.05018,-1.16431zM281.64722,110.63931c0.3274,-0.36106 0.56524,-0.77155 0.77254,-1.2101c0.0964,-0.22536 0.17138,-0.45857 0.22581,-0.69926c0.14923,-0.49448 -0.16984,-0.73456 -0.95918,-0.71799c-0.00394,0.00454 -0.0155,-0.0023 -0.0217,0.00027c-0.18822,0.37756 -0.34896,0.75828 -0.43913,1.12504c-0.00261,0.01126 -0.01877,0.0056 -0.02643,0.01168c-0.16714,0.92509 -0.41712,1.82923 -0.7494,2.69622c0.40595,-0.39434 0.81593,-0.78598 1.19749,-1.20585z" data-paper-data="{&quot;origPos&quot;:null,&quot;origRot&quot;:0}" id="Outline_4_" fill="#000000" stroke="none" stroke-width="1"/>
      <path d="M276.35945,116.53639c-0.6512,0.42543 -1.3495,0.81447 -2.05699,1.16723c-0.32571,0.16331 -0.65943,0.31433 -0.99373,0.45866c-0.61984,0.26773 -1.25317,0.51506 -1.88924,0.71026c-1.3635,0.41734 -2.87208,0.86852 -4.30904,0.6488c-2.26124,-1.00525 -4.54237,-3.28157 -6.10266,-5.15022c-1.95673,-2.33409 -3.33986,-5.10059 -3.15231,-8.21043c0.00316,-0.0573 -0.06844,-0.12679 -0.14873,-0.18369c-0.01976,-0.01435 -0.03638,-0.03172 -0.05723,-0.04344c0.02255,-0.01225 0.04406,-0.02706 0.06661,-0.03932c0.10656,-0.0587 0.2125,-0.11902 0.31583,-0.18728c0.45719,-0.48828 0.29761,-1.07265 -0.21778,-1.33029c-1.03094,-0.51738 -2.47468,-0.45524 -2.49438,-2.00677c-0.0039,-0.14454 -0.30867,-0.35912 -0.30733,-0.25061c0.00922,0.87164 0.54205,1.50873 1.27892,1.92183c0.47223,0.26752 2.18364,0.55292 1.44532,1.34019c-0.00036,0.00088 -0.09658,0.0252 -0.09694,0.02608c-0.86609,0.57191 -1.72664,0.67807 -2.38474,-0.47152c-0.23745,-0.40988 -0.48694,-0.82401 -0.65607,-1.26729c-0.2818,-0.7398 -0.51647,-1.57406 -0.39701,-2.37905c0.15252,-1.02882 1.60671,-3.59314 2.95055,-3.31738c0.01777,0.00427 0.12957,0.04275 0.14822,0.04738c0.30513,0.08008 0.60427,0.30607 0.88027,0.73705c0.06533,0.098 0.3955,0.29118 0.26234,0.08386c-0.05749,-0.08961 -0.11944,-0.15612 -0.17953,-0.23448c2.83202,-9.11368 7.61811,-16.08941 20.2836,-9.81655c12.26107,6.0725 4.94347,16.02886 4.38929,16.74638c-0.00285,0.00191 -0.01002,-0.00311 -0.01323,-0.00033c-0.82865,0.68509 -1.5477,1.83495 -1.88802,2.90014c-0.04277,-0.00846 -0.07261,-0.00101 -0.07794,0.03174c-0.49347,3.06645 -1.92237,6.31545 -4.59803,8.06904z" data-paper-data="{&quot;noHover&quot;:false,&quot;origItem&quot;:[&quot;Path&quot;,{&quot;applyMatrix&quot;:true,&quot;segments&quot;:[[[248.32405,113.29765],[0,0],[1.8012,-2.64385]],[[249.47355,104.1121],[0.71725,3.02195],[-0.0076,-0.0323]],[[249.5334,104.0532],[-0.04275,0.00855],[-0.0931,-1.11435]],[[250.16895,100.6636],[-0.5035,0.95],[0.0019,-0.0038]],[[250.1813,100.65885],[-0.0019,0.00285],[0.2375,-0.87495]],[[239.7579,86.9057],[13.6515,0.9196],[-14.1018,-0.95]],[[224.8334,103.6846],[-0.8702,-9.5038],[0.0855,0.0494]],[[225.08895,103.83185],[-0.0874,-0.0608],[0.20235,0.1406]],[[224.71465,103.86035],[0.09785,0.06555],[-0.4199,-0.2926]],[[223.6193,103.51455],[0.31255,-0.04275],[-0.019,0.00285]],[[223.5642,103.525],[0.01805,-0.00285],[-1.3471,0.25935]],[[222.105,107.705],[-0.2527,-1.0089],[0.1976,0.78945]],[[223.37895,109.7437],[-0.5434,-0.5757],[0.32585,0.34485]],[[224.46765,110.6595],[-0.3762,-0.28785],[1.04785,0.81035]],[[226.8493,110.17975],[-0.5814,0.85975],[0,-0.00095]],[[226.84835,110.17785],[0,0.00095],[0.38095,-1.00985]],[[224.9968,109.4872],[0.53865,0.0665],[-0.83885,-0.09975]],[[223.07685,108.19425],[0.342,0.8018],[-0.04275,-0.09975]],[[223.54995,108.27215],[-0.0589,-0.13205],[0.6118,1.42595]],[[226.61845,109.1642],[-1.15045,-0.0836],[0.57475,0.04085]],[[227.32525,110.30515],[0.2356,-0.62605],[-0.06935,0.1026]],[[227.10485,110.5987],[0.076,-0.095],[-0.01615,0.01995]],[[227.0583,110.66045],[0.01615,-0.01995],[0.02375,0.00285]],[[227.12765,110.6785],[-0.02375,-0.0057],[0.09595,0.02185]],[[227.33475,110.7906],[-0.019,-0.05415],[1.0165,2.945]],[[233.3606,117.1537],[-2.70085,-1.4079],[2.1565,1.12955]],[[240.9454,119.5781],[-2.4738,-0.06365],[1.4117,-0.34675]],[[244.66655,117.33515],[-1.1001,0.90725],[0.513,-0.4237]],[[246.13525,115.95955],[-0.47025,0.4845],[0.25365,-0.26125]],[[246.8753,115.15775],[-0.23845,0.2755],[0.5187,-0.5966]],[[248.32405,113.29765],[-0.4389,0.6422],[0,0]]],&quot;closed&quot;:true,&quot;fillColor&quot;:[0,0,0,1]}],&quot;origPos&quot;:null,&quot;origRot&quot;:0}" fill="url(#color-3)" stroke="none" stroke-width="0.5"/>
      <path d="M255.21072,99.87939c0.40168,-0.84339 1.42479,-0.59761 2.04886,-0.1356c1.03281,0.7711 1.02067,2.12642 1.5162,3.22412c0.06389,0.14368 -0.34151,-0.07664 -0.39291,-0.18841c-0.33831,-0.74983 -0.46055,-1.56956 -0.77213,-2.32683c-0.33957,-0.8213 -1.58571,-1.16662 -2.00883,-0.27145c-0.04452,0.09261 -0.4533,-0.1692 -0.39119,-0.30183z" data-paper-data="{&quot;origPos&quot;:null,&quot;origRot&quot;:0}" id="L_Ear" fill="#000000" stroke="none" stroke-width="1"/>
      <g data-paper-data="{&quot;origPos&quot;:null,&quot;origRot&quot;:0}" id="Hair" stroke="#000000" stroke-width="0.5">
        <path d="M284.30974,104.67383c-0.34135,0.8293 -0.70587,1.85362 -1.51452,2.32901c-0.31573,0.1839 -0.63868,0.33807 -0.94139,0.5253l-0.12185,0.05339c0.10183,-0.11927 0.54857,-0.80827 1.06719,-1.70811c0.08063,0.14547 0.34093,0.24194 0.43371,0.06752c1.51034,-3.03405 3.11434,-7.3074 0.81236,-10.38699c-0.61559,-0.82763 -1.41836,-1.46646 -2.30628,-1.97912c-1.38042,-0.79577 -2.76798,-1.61403 -4.20573,-2.29371c-2.65202,-1.25343 -5.60847,-2.46944 -8.59006,-2.42291c-1.95109,0.03111 -4.47116,0.42812 -5.96279,1.79802c-1.47356,1.34859 -2.93797,3.53177 -2.9717,5.60716c-0.02157,1.25887 0.0519,2.56635 0.10831,3.82564c0.0159,0.45078 0.1549,0.91963 0.14368,1.36637c-0.01602,0.5229 -0.58982,0.65958 -1.06894,0.74394c-0.05862,-1.13476 -0.17704,-2.1822 -0.55207,-3.28039c-0.02332,-0.07032 -0.0876,-0.12367 -0.159,-0.15735c-0.00357,-0.02615 -0.00889,-0.05303 -0.02438,-0.08515c-0.36131,-0.77375 -0.56906,-1.59804 -0.64327,-2.4493c0.00984,-0.01135 0.02622,-0.00868 0.03364,-0.02412c0.05636,-0.1237 0.05248,-0.22607 -0.00566,-0.34886c-0.08662,-0.17571 -0.03652,-0.42333 -0.0131,-0.609c0.04458,-0.33114 0.13982,-0.62073 0.06837,-0.94233c0.07651,-0.43308 0.18731,-0.85709 0.32378,-1.27357c0.02283,-0.02037 0.0308,-0.05203 0.02793,-0.09228c0.00857,-0.02318 0.01327,-0.04694 0.02148,-0.06925c0.02454,-0.07415 -0.01573,-0.14327 -0.07235,-0.2027c-0.01793,-0.44339 0.45455,-0.69297 0.69644,-1.05859c0.03394,-0.04969 0.03462,-0.10596 0.01514,-0.15825c0.2509,-0.45443 0.53136,-0.8884 0.84073,-1.30525c0.03172,0.00285 0.06299,-0.00065 0.0919,-0.01336c0.3564,-0.16294 0.4036,-0.53515 0.59023,-0.83935c0.21001,-0.34078 0.62387,-0.42646 0.84837,-0.75507c0.01974,-0.02781 0.009,-0.05899 0.00989,-0.08845c0.41579,-0.37587 0.84909,-0.72701 1.3106,-1.04693c0.01707,-0.01144 0.02537,-0.02651 0.03543,-0.04085c0.09975,-0.03478 0.19296,-0.08359 0.24632,-0.17768c0.07165,-0.1184 0.10077,-0.26571 0.17784,-0.37981c0.22696,-0.34199 0.83668,-0.35685 1.20982,-0.38639c0.02966,-0.00211 0.05076,-0.01085 0.07186,-0.0196c0.00036,-0.00088 0.00124,-0.00051 0.00124,-0.00051v0c0.00869,-0.0036 0.01701,-0.00632 0.02358,-0.00977c0.60328,-0.28487 1.2298,-0.50664 1.87373,-0.68111c0.11282,0.09504 0.28296,0.13362 0.34278,-0.01332c0.4178,-1.02385 1.81716,-0.4228 2.61331,-0.33167c0.09743,0.01053 0.139,-0.02778 0.1478,-0.08378c0.6261,-0.01219 1.24846,0.00697 1.87019,0.06495c0.08313,0.08481 0.21421,0.1432 0.31466,0.09431c0.75701,-0.3631 1.422,-0.2358 2.05725,0.29356c0.00732,0.00715 0.01389,0.0037 0.02194,0.00909c0.00739,0.00203 0.01047,0.00948 0.01786,0.01151c0.01302,0.00333 0.02567,0.00754 0.03868,0.01088c0.03686,0.01527 0.07212,0.03192 0.10463,0.0279c0.69455,0.17758 1.37944,0.38099 2.05884,0.61502c0.02318,0.00857 0.02951,-0.00423 0.04889,-0.00135c0.02073,0.02195 0.0338,0.04998 0.06555,0.06519c0.44969,0.22014 0.90169,0.39497 1.38821,0.51623c0.56637,0.14199 1.23483,0.28821 1.64054,0.74616c0.00981,0.00612 0.01144,0.01707 0.02248,0.02268c0.00351,0.00145 0.00578,0.00342 0.00929,0.00488c0.05041,0.062 0.1131,0.08693 0.17442,0.09279c0.39645,0.20221 0.79144,0.40793 1.17996,0.62433c0.05853,0.03246 0.10055,0.03033 0.14014,0.0241c0.06872,0.07987 0.17102,0.14074 0.26474,0.12299c0.74669,-0.13705 1.34885,0.79504 1.89345,1.17581c0.01295,0.00845 0.022,0.00397 0.03481,0.0103c0.00856,0.00663 0.0102,0.01759 0.02124,0.02319c0.68899,0.37476 1.92472,0.9389 1.955,1.84908c0.00411,0.14154 0.18261,0.26173 0.31298,0.26224c0.65374,0.4599 0.84973,1.29269 0.95918,2.04646c0.00163,0.01096 0.00838,0.02198 0.01264,0.03403c-0.00988,0.02881 -0.01258,0.06265 0.00324,0.11136c0.21499,0.66278 0.49696,1.34506 0.35485,2.05327c-0.01279,0.06565 0.01804,0.12777 0.06325,0.18248c0.37008,0.93881 0.71988,2.22705 -0.08646,3.02215c-0.06048,0.01197 -0.10402,0.05255 -0.10032,0.14046c0.03943,1.01474 -0.30904,2.09712 -0.93984,2.89292c-0.01254,0.01537 -0.00146,0.03333 -0.00749,0.05037c-0.06311,0.01088 -0.11053,0.05089 -0.10916,0.14194c0.01106,0.67601 -0.24098,1.44358 -0.76966,1.89095c-0.05544,0.04696 -0.06268,0.10668 -0.05035,0.16629z" id="Fill" fill="url(#color-4)"/>
        <path d="M285.57764,102.75165c0.02059,-0.00998 0.04522,-0.00492 0.06206,-0.02571c0.65237,-0.82801 1.01712,-1.94477 0.99178,-3.00097c0.00854,-0.00572 0.02083,-0.00063 0.02833,-0.00883c0.92608,-0.87816 0.53585,-2.36924 0.1207,-3.40281c-0.00617,-0.01489 -0.01679,-0.02649 -0.02581,-0.03948c0.04883,-0.34297 0.24613,-3.50299 0.18839,-3.84458c-0.0843,-0.49868 -0.40098,2.19451 -0.55729,1.71351c-0.00051,-0.00124 -0.00139,-0.0016 -0.00191,-0.00285c-0.00003,-0.01235 0.00485,-0.02164 0.00292,-0.03684c-0.13522,-0.94232 -0.39864,-1.96241 -1.2557,-2.5024c-0.01873,-0.01187 -0.03451,-0.00606 -0.05382,-0.01406c-0.18112,-1.01274 -1.38871,-1.64235 -2.21408,-2.09003c-0.71075,-0.50099 -1.32886,-1.44174 -2.3057,-1.28277c-0.0239,-0.03663 -0.04708,-0.07502 -0.09054,-0.09919c-0.41727,-0.23139 -0.83853,-0.45313 -1.2638,-0.66522c-0.7941,-0.81621 -2.17229,-0.8625 -3.1525,-1.34346c-0.04894,-0.02335 -0.08115,-0.01509 -0.11732,-0.01465c-0.03289,-0.03727 -0.06827,-0.07351 -0.115,-0.08978c-0.47698,-0.16666 -0.96143,-0.31278 -1.44777,-0.44938c-0.21732,-0.0612 -0.43464,-0.1224 -0.65363,-0.17709c-0.06588,-0.05196 -0.13177,-0.10392 -0.19968,-0.14849c-0.60347,-0.40001 -1.25499,-0.51762 -1.94071,-0.30185c-0.0379,0.01207 -0.07674,0.02889 -0.11537,0.04271c-0.02158,-0.00996 1.31205,-1.30808 1.28881,-1.31153c-0.18764,-0.02115 -1.73176,1.26384 -1.9193,1.24993c-0.70027,-0.05451 -1.40091,-0.07833 -2.1039,-0.03937c-0.02331,0.00166 -0.03857,0.00871 -0.05609,0.01379c-0.62791,-0.11503 -1.34626,-0.27985 -1.88735,-0.06074c-0.0633,0.02623 -0.12367,0.05778 -0.18146,0.09555c-0.11238,0.07274 -0.21045,0.173 -0.29787,0.2972c-0.00124,0.00051 -0.00387,-0.00058 -0.00512,-0.00006c-0.77304,0.18578 -1.51432,0.45875 -2.23237,0.7948c-0.38228,0.02678 -0.90459,0.04905 -1.20332,0.28626c-0.15604,0.12355 -0.22831,0.32292 -0.32991,0.48135c-0.03831,0.06023 -0.08672,0.1101 -0.14137,0.15019c-0.04699,0.03401 -0.0931,0.06839 -0.16148,0.07709c-0.1025,0.01411 -0.12815,0.07855 -0.10716,0.15202c-0.47717,0.34532 -0.9306,0.71279 -1.36117,1.11442c-0.04033,0.0378 -0.04636,0.08465 -0.03369,0.13103c-0.21075,0.16876 -0.48589,0.26458 -0.63364,0.50468c-0.12743,0.2084 -0.20426,0.49328 -0.36117,0.68845c-0.00896,0.01171 -0.01983,0.02058 -0.03019,0.03069c-0.00984,0.01135 -0.02561,0.01716 -0.03633,0.02814c-0.07452,-0.02366 -0.14965,-0.02598 -0.19824,0.03924c-0.34275,0.44657 0.78707,-2.45162 0.50169,-1.96637c-0.09866,0.16776 -1.4609,3.42414 -1.55188,3.59618c-0.01608,0.03139 -0.00359,0.06329 -0.00081,0.09632c-0.17295,0.20909 -0.52768,0.07247 -0.66704,0.30472c-0.14451,0.24966 -0.02916,0.79304 0.04369,1.05661c-0.13393,0.41033 -0.24073,0.82469 -0.31908,1.24981c-0.04196,0.02684 -0.06268,0.07687 -0.03297,0.15909c0.11288,0.32334 -0.02712,0.69619 -0.07097,1.02557c-0.0198,0.13472 -0.02973,0.27045 -0.01584,0.40576c0.00945,0.07898 0.06264,0.20382 0.06519,0.29947c-0.04293,0.01924 -0.069,0.05986 -0.06299,0.13226c0.07319,0.95057 0.31058,1.8622 0.71652,2.72435c0.02732,0.06067 0.0771,0.10185 0.13167,0.1265c0.00154,0.00372 0.00045,0.00636 0.002,0.01008c0.09709,0.28698 0.17781,0.57129 0.24354,0.85454c0.01358,0.05909 0.02116,0.11775 0.03386,0.17648c0.17094,0.80391 0.24133,1.60731 0.27638,2.4588c0.00759,0.16046 0.18472,0.29139 0.34192,0.26189c0.32205,-0.06509 0.73649,-0.12483 1.06762,-0.28384c0.02964,-0.01446 0.06067,-0.02732 0.08891,-0.04338c0.21743,-0.12281 0.3868,-0.29842 0.44577,-0.56499c0.14816,-0.68309 -0.14006,-1.68054 -0.14584,-2.38419c-0.00408,-1.12246 -0.26628,-2.38882 -0.04794,-3.49218c0.21464,-1.08947 0.65657,-2.13931 1.27445,-3.06283c1.4282,-2.13546 3.36547,-3.16864 5.92029,-3.47826c3.10305,-0.37462 6.16095,0.65102 8.95172,1.92695c1.60682,0.73323 2.25287,3.73454 3.79931,4.58877c0.81931,0.45237 2.4891,-1.11185 3.07644,-0.36995c2.37628,3.00446 0.75803,7.21535 -0.74264,10.22358c-0.02495,0.05033 -0.01695,0.103 0.00859,0.15059c0.08099,0.14459 0.34217,0.24143 0.43371,0.06752c1.51034,-3.03405 1.91433,-1.42631 -0.38816,-4.50715c-0.61559,-0.82763 3.02837,-6.00209 2.14045,-6.51475c-1.38042,-0.79577 -6.01419,-2.95825 -7.45194,-3.63792c-2.65202,-1.25343 -5.88115,-0.32059 -8.86311,-0.27319c-1.95109,0.03111 -4.19847,-1.72073 -5.68975,-0.35171c-1.47356,1.34859 -2.93797,3.53177 -2.9717,5.60716c-0.0212,1.258 0.0519,2.56635 0.10831,3.82564c0.0159,0.45078 0.15526,0.91875 0.14368,1.36637c-0.01639,0.52378 -0.58982,0.65958 -1.06894,0.74394c-0.05862,-1.13476 -0.1774,-2.18133 -0.55207,-3.28039c-0.0242,-0.07069 -0.08796,-0.1228 -0.159,-0.15735c-0.00357,-0.02615 -0.00889,-0.05303 -0.02438,-0.08515c-0.36131,-0.77375 -0.56906,-1.59804 -0.64327,-2.4493c0.00984,-0.01135 0.02658,-0.00956 0.03364,-0.02412c0.05724,-0.12333 0.05336,-0.22571 -0.00566,-0.34886c-0.08662,-0.17571 -1.30716,-3.48826 -1.28339,-3.6748c0.04458,-0.33114 1.41046,2.4442 1.33866,2.12347c0.07651,-0.43308 0.18643,-0.85746 0.32378,-1.27357c0.02246,-0.01949 0.03043,-0.05115 0.02793,-0.09228c0.00821,-0.02231 0.01291,-0.04607 0.02148,-0.06925c0.02454,-0.07415 -0.01661,-0.14363 -0.07235,-0.2027c-0.01829,-0.44251 0.45419,-0.69209 0.69644,-1.05859c0.03394,-0.04969 0.03426,-0.10509 0.01514,-0.15825c0.2509,-0.45443 0.53136,-0.8884 0.84073,-1.30525c0.03209,0.00198 0.06299,-0.00065 0.0919,-0.01336c0.3564,-0.16294 1.12962,-4.29819 1.31537,-4.60274c0.20913,-0.34115 -0.10128,3.33694 0.12322,3.00833c0.01974,-0.02781 0.009,-0.05899 0.00989,-0.08845c0.41491,-0.37624 0.84909,-0.72701 1.3106,-1.04693c0.01744,-0.01232 0.02537,-0.02651 0.03543,-0.04085c0.09975,-0.03478 0.19296,-0.08359 0.24632,-0.17768c0.07113,-0.11964 0.10026,-0.26695 0.17784,-0.37981c0.22696,-0.34199 0.83704,-0.35773 1.20982,-0.38639c0.02966,-0.00211 0.05076,-0.01085 0.07186,-0.0196c0,0 0.00088,0.00036 0.00124,-0.00051v0c0.00745,-0.00309 1.33158,-3.99693 1.33852,-4.00126c0.60328,-0.28487 -0.08514,3.48484 0.5588,3.31038c0.51961,0.4323 1.8151,-2.86697 2.33339,-3.30086c0.41522,-0.3476 -0.12323,1.8531 0.08094,1.35156c0.4178,-1.02385 -0.25352,1.51353 0.54175,1.6043c0.09707,0.01141 0.92501,-3.76598 0.9338,-3.82198c0.62646,-0.01307 0.46282,3.74429 1.08418,3.80314c0.08313,0.08481 0.21421,0.1432 0.31466,0.09431c0.75701,-0.3631 1.422,-0.2358 2.05725,0.29356c0.00769,0.00627 0.01389,0.0037 0.02194,0.00909c0.00702,0.00291 0.01047,0.00948 0.01786,0.01151c0.01302,0.00333 0.02567,0.00754 0.03868,0.01088c0.03686,0.01527 0.15483,-3.23454 0.18647,-3.23892c1.11535,0.28362 1.20206,0.67368 1.60285,1.75248c0.20227,0.54447 -0.17599,1.93999 0.37292,2.12988c0.02318,0.00857 0.03039,-0.00387 0.04889,-0.00135c0.02161,0.02231 0.0338,0.04998 0.06555,0.06519c0.44969,0.22014 2.06878,-2.42348 2.55582,-2.30098c0.56637,0.14199 0.06686,3.1063 0.47345,3.56462c0.00981,0.00612 0.01232,0.01744 0.02248,0.02268c0.00351,0.00145 0.00578,0.00342 0.00929,0.00488c0.05041,0.062 0.11346,0.08605 0.17442,0.09279c0.39645,0.20221 0.79144,0.40793 1.17996,0.62433c0.05853,0.03246 0.18651,-1.16833 0.22522,-1.17492c0.06909,0.07899 1.03622,-1.56848 1.12994,-1.58622c0.74669,-0.13705 0.39857,3.70327 0.94193,4.08456c0.01295,0.00845 0.022,0.00397 0.03481,0.0103c0.00981,0.00612 0.81942,-1.93416 0.82923,-1.92804c0.68811,0.3744 1.43859,1.49954 1.46887,2.40972c0.00499,0.1419 2.14912,-0.19386 2.27949,-0.19334c0.65374,0.4599 -1.43827,3.13801 -1.32919,3.89266c0.00215,0.0122 0.00889,0.02322 0.01264,0.03403c-0.00988,0.02881 -0.01294,0.06353 0.00324,0.11136c0.21499,0.66278 0.49644,1.34382 0.35485,2.05327c-0.01258,0.06265 3.06842,0.11895 3.1145,0.17402c0.37008,0.93881 -2.32977,2.23412 -3.13487,3.0287c-0.06048,0.01197 2.90963,-0.47842 2.91297,-0.38964c0.03906,1.01561 -3.32232,2.62721 -3.95313,3.42301c-0.01254,0.01537 -0.00182,0.0342 -0.00749,0.05037c-0.06311,0.01088 -0.11053,0.05089 -0.10916,0.14194c0.01018,0.67565 -0.24098,1.44358 -0.76966,1.89095c-0.05544,0.04696 -0.06356,0.10632 -0.05035,0.16629c-0.34135,0.8293 -0.70587,1.85362 -1.51452,2.32901c-0.31573,0.1839 -0.63868,0.33807 -0.94139,0.5253c-0.16354,0.10194 -0.32239,0.20993 -0.46833,0.34383c-0.17379,0.16144 0.21346,0.46781 0.39082,0.3027c0.50547,-0.46829 1.23082,-0.60596 1.71783,-1.09423c0.61899,-0.62076 0.9532,-1.47255 1.283,-2.26653c0.00582,-0.01404 -0.0062,-0.02724 -0.00426,-0.04186c0.53481,-0.51681 0.80782,-1.28289 0.80262,-2.02023z" data-paper-data="{&quot;origPos&quot;:null}" id="Outline" fill="url(#color-5)"/>
      </g>
      <path d="M268.85725,100.52887c0.2353,0.16427 0.43879,1.29976 0.19931,1.13068c-0.74129,-0.5196 -1.02198,-1.04121 -1.67264,-1.6706c-1.16976,-1.13154 -2.44355,-1.97074 -3.57581,-0.80167c-0.08057,0.08283 0.29472,0.40069 0.39279,0.30043c1.5757,-1.62505 3.00452,-0.1148 4.65634,1.04116z" data-paper-data="{&quot;origPos&quot;:null,&quot;origRot&quot;:0}" id="L_Eyebrow" fill="#000000" stroke="none" stroke-width="1"/>
      <path d="M274.53204,104.0885c0,0 0.28463,0.10849 0.59517,-0.13205c0.16222,-0.12566 0.56608,-0.68521 0.56608,-0.68521c1.9385,0.06136 4.79458,-0.56604 5.08064,1.64589c0.01873,0.14348 0.41942,0.34539 0.4073,0.25297c-0.17349,-1.34013 -2.11458,-1.49954 -3.46588,-1.49265c-0.66785,0.00341 -0.32239,-0.15834 -0.99016,-0.14706c-0.89415,0.0151 -0.54928,0.42763 -1.44308,0.39832c-0.17036,-0.00576 -0.87315,0.15406 -0.75007,0.15978z" data-paper-data="{&quot;origPos&quot;:null,&quot;origRot&quot;:0}" id="R_Eyebrow" fill="#000000" stroke="none" stroke-width="1"/>
      <g data-paper-data="{&quot;origPos&quot;:null,&quot;origRot&quot;:0}" id="Nose" fill="#000000" stroke="none" stroke-width="1">
        <path d="M267.0871,110.26924c-0.14442,0.02348 -0.45069,-0.31207 -0.34989,-0.33202c0.47891,-0.08136 0.91545,0.0737 1.39119,0.10926c0.10313,0.00672 0.35373,0.24827 0.32259,0.31352c0.58353,0.37119 1.02607,0.86188 1.70225,1.12851c0.7826,0.30761 1.77942,-0.00143 2.22804,-0.69993c0.06562,-0.10136 0.46547,0.18452 0.39228,0.29919c-0.44053,0.68643 -1.38896,1.00523 -2.17452,0.78174c-0.89458,-0.25322 -1.43435,-0.85923 -2.19545,-1.32554c-0.07566,-0.04573 -0.1324,-0.12474 -0.15723,-0.18644c-0.38822,-0.05074 -0.76393,-0.15902 -1.15927,-0.08829z" id="Outline_3_"/>
        <path d="M268.94447,108.82561c-0.12117,-0.00288 -0.45359,-0.33487 -0.28251,-0.33086c1.47191,0.02855 2.84999,0.39047 3.98043,1.36035c0.25772,0.22188 -0.05608,0.18757 -0.20939,0.05622c-0.97311,-0.83584 -2.24273,-1.06236 -3.48853,-1.08571z" id="Outline_2_"/>
      </g>
      <path d="M265.65535,112.40826c0,0 5.53314,0.17951 7.128,2.16005c0,0 -0.15887,1.22325 -0.63873,1.96743c-0.0212,0.03132 -0.45285,0.50202 -0.49599,0.52426c-0.02649,0.06398 -0.36782,-0.07604 -0.43374,-0.09729c-0.19773,-0.06378 -0.48777,-0.66677 -0.57005,-0.46807c-0.20172,0.48714 -0.0533,-0.60682 -0.53662,-0.33602c-0.42238,0.23536 -0.93081,-0.27434 -1.39717,-0.39959c-0.75342,-0.19682 -1.27267,-0.27799 -1.94185,-0.41256c-0.8286,-0.44934 -1.04884,-0.25862 -1.53742,-0.81196c-0.04787,-0.19976 0.29889,-0.98797 0.28042,-1.18173c-0.34994,-0.48834 -0.2667,-0.38931 0.14314,-0.9445z" data-paper-data="{&quot;origPos&quot;:null,&quot;origRot&quot;:0}" id="Mouth" fill="#700f10" stroke="none" stroke-width="1"/>
      <path d="M265.52016,112.38729c1.49447,-0.00045 3.09521,0.26956 4.48526,0.71743c0.68413,0.22043 1.99403,0.62517 2.50063,1.13505c0.39039,0.39292 -0.29331,0.21067 0.25255,0.30465c-0.02534,0.00904 0.15067,0.53569 0.12584,0.54597c-0.00563,-0.0013 -0.02899,-0.23987 -0.0336,-0.23869c-0.29878,0.07998 -0.49238,0.70051 -0.76061,0.54649c-4.49138,-2.57898 -4.66804,-0.71241 -6.63147,-2.82043c0.00918,-0.04452 0.02363,-0.08687 0.03633,-0.12994z" data-paper-data="{&quot;origPos&quot;:null,&quot;origRot&quot;:0}" id="Teeth" fill="#ffffff" stroke="none" stroke-width="1"/>
      <path d="M265.25389,114.54357c0.02147,-0.03944 0.02105,-0.03097 0.04603,-0.06895c2.55089,0.79798 3.38188,0.99885 3.8598,1.12721c0.15931,0.04279 1.82166,0.94606 1.9809,0.98909c0.29858,0.08069 0.55036,0.1451 0.70514,0.41288c0.00242,0.00409 -0.25347,-0.04593 -0.24857,-0.04287c0.01029,0.02482 -0.30871,0.11863 -0.29718,0.14294c-0.4525,-0.31943 0.34948,-0.28524 -0.20441,-0.28334c-0.71876,0.00247 -1.32766,-0.44431 -1.96735,-0.77206c-1.29975,-0.66594 -2.82263,-0.43614 -3.87928,-1.49298z" data-paper-data="{&quot;origPos&quot;:null,&quot;index&quot;:null,&quot;origRot&quot;:0}" id="Teeth" fill="#ffffff" stroke="none" stroke-width="1"/>
      <path d="M278.22753,158.9975c0.0081,0.00674 0.01618,0.01349 0.02429,0.02022c0.00936,0.02842 0.019,0.05678 0.02888,0.08506c-0.01792,-0.03593 -0.03563,-0.07101 -0.05317,-0.10528z" data-paper-data="{&quot;origPos&quot;:null,&quot;origRot&quot;:0}" id="Fill_4_" fill="#302d63" stroke="none" stroke-width="1"/>
      <path d="" data-paper-data="{&quot;origPos&quot;:null}" id="Fill_4_" fill="#302d63" stroke="none" stroke-width="1"/>
      <path d="" data-paper-data="{&quot;origPos&quot;:null}" id="Outline_9_" fill="#010101" stroke="none" stroke-width="1"/>
      <path d="" data-paper-data="{&quot;origPos&quot;:null}" id="Outline_9_" fill="#010101" stroke="none" stroke-width="1"/>
      <g data-paper-data="{&quot;origPos&quot;:null,&quot;origRot&quot;:0}" stroke="none" stroke-width="1">
        <path d="M281.74575,142.56851c-2.41078,-1.27905 -4.82725,-2.48088 -7.392,-3.4237c-4.92461,-1.80941 -9.69881,-3.89618 -14.36469,-6.29332c-0.00781,-0.0036 -0.01622,0.00362 -0.02433,0.00091c-0.00931,-0.00511 -0.00751,-0.01652 -0.01924,-0.02042c-1.02755,-0.29998 -2.10759,-0.39414 -3.15883,-0.59287c-0.00211,0.0003 -0.0036,-0.0012 -0.00571,-0.0009c-0.01983,-0.0036 -0.03996,-0.00629 -0.05979,-0.00989c-0.09283,-0.01889 -0.17602,0.05354 -0.23276,0.13979c-1.17498,0.59412 -2.28265,1.21165 -3.59656,1.48619c-0.21718,0.04486 -0.35667,0.51206 -0.08752,0.45547c1.42294,-0.29832 2.6045,-0.96635 3.88279,-1.60618c1.0194,0.18612 2.05888,0.28782 3.05668,0.5749c4.44593,2.28187 8.98789,4.30535 13.67543,6.04187c2.80002,1.03314 5.39105,2.32713 8.05392,3.66105c1.01472,0.50697 2.02638,0.86073 3.17248,0.9038c0.53024,0.01931 1.06077,0.00765 1.58918,-0.04874c0.01654,0.03755 0.03548,0.07389 0.08446,0.08919c0.66942,0.1998 1.23483,0.3089 1.73374,0.80739c0.37688,0.37475 0.83589,1.01115 1.38629,1.09023c4.23819,1.91335 3.17229,7.50696 0.52688,10.46118c-1.52869,1.70792 -3.73475,2.86696 -6.09704,2.58527c-1.76083,-0.20863 -3.11706,-1.26884 -4.12586,-2.68697c-0.67814,-0.95564 -1.32335,-2.15764 -2.37447,-2.76283c-1.56736,-0.90719 -3.49616,-1.19777 -5.15506,-1.94119c-1.66221,-0.74552 -3.12777,-1.71195 -4.66001,-2.68554c-3.19849,-2.02885 -6.74362,-3.2269 -10.13993,-4.86904c-3.43748,-1.66584 -6.79841,-3.49244 -10.2662,-5.09729c-1.68026,-0.77856 -3.37703,-1.52257 -5.06209,-2.28971c-0.41128,-0.18703 -0.8363,-0.3664 -1.26128,-0.55235c-0.33379,-0.37502 -0.77884,-0.64891 -1.28351,-0.7698c-0.32312,-0.66257 -0.93055,-1.16125 -1.66382,-1.33688c-0.11503,-0.23587 -0.26608,-0.45096 -0.44602,-0.63811c-0.52329,-1.77047 -1.03352,-3.56143 -1.23454,-5.3935c-0.23557,-2.17032 -0.08017,-4.3233 0.24879,-6.47039c0.47167,-0.23574 0.85848,-0.61625 1.10204,-1.08343l0.47172,-0.00019l0.53415,-0.13378l0.55045,0.01425l0.07108,-0.01583l1.29521,0.43112l0.19548,0.01496l0.17302,0.09218l3.16262,0.78921l0.74399,-0.00031l1.97051,0.65591c-0.93191,3.63339 2.02714,6.24079 5.55582,7.41535c7.40442,2.46465 14.39064,5.90692 21.71317,8.51204c1.77742,0.63235 2.73419,1.85001 4.26366,2.36061c0.55137,0.59132 1.25432,1.05703 2.07544,1.33034c0.07953,0.02648 0.15927,0.05084 0.23914,0.07313c0.0773,0.03003 0.15573,0.0583 0.23526,0.08478c0.1987,0.06614 0.39862,0.11912 0.5988,0.1594c1.46005,0.66572 3.45828,1.21889 3.96201,1.36284c-1.28,-0.0078 -2.44629,-0.25064 -3.61298,-0.87015z" data-paper-data="{&quot;origPos&quot;:null,&quot;origRot&quot;:0}" id="Fill_4_" fill="#302d63"/>
        <path d="M242.08581,136.53922c1.68416,0.76684 3.38093,1.51086 5.06209,2.28972c3.46779,1.60485 6.82872,3.43145 10.2662,5.09729c3.39541,1.64183 6.94142,2.84019 10.13992,4.86904c1.53314,0.9739 2.99779,1.94001 4.66001,2.68554c1.65891,0.74342 3.5877,1.03401 5.15506,1.9412c1.05111,0.60519 1.69631,1.80718 2.37447,2.76282c1.0097,1.41844 2.36503,2.47834 4.12586,2.68697c2.3623,0.28169 4.56836,-0.87736 6.09705,-2.58527c2.64541,-2.95422 3.71161,-8.54873 -0.52688,-10.46118c-0.5501,-0.07997 -1.0094,-0.71545 -1.38628,-1.09022c-0.49891,-0.49847 -1.06434,-0.60759 -1.73375,-0.80739c-0.04898,-0.0153 -0.06761,-0.05254 -0.08445,-0.08919c-0.1466,0.01628 -0.2932,0.02055 -0.4404,0.02962c2.25856,1.4837 1.63965,6.28191 -0.0236,8.0662c-0.22251,0.23833 -0.402,-0.09777 -0.21312,-0.29822c1.76323,-1.89518 2.18313,-7.77992 -1.44621,-7.76845c-0.04717,0.00032 -0.0676,-0.02549 -0.09345,-0.04712c-0.89349,-0.12519 -1.71947,-0.42617 -2.54368,-0.83768c-2.66286,-1.33392 -5.25389,-2.6279 -8.05392,-3.66104c-4.68754,-1.73651 -9.2295,-3.75999 -13.67544,-6.04186c-0.9978,-0.28707 -2.03698,-0.38967 -3.05668,-0.5749c-1.27921,0.63954 -2.46075,1.30756 -3.8828,1.60618c-0.26914,0.05659 -0.12876,-0.41032 0.08753,-0.45547c1.31391,-0.27454 2.42158,-0.89206 3.59656,-1.48619c0.05674,-0.08625 0.13963,-0.15778 0.23276,-0.13979c0.01983,0.0036 0.03996,0.00629 0.05979,0.00989c0.00211,-0.0003 0.0036,0.0012 0.00571,0.0009c1.05214,0.19903 2.13128,0.2929 3.15883,0.59287c0.01082,0.0036 0.00993,0.01532 0.01924,0.02042c0.00721,0.00241 0.01561,-0.00481 0.02433,-0.00091c4.66589,2.39713 9.4392,4.4836 14.36469,6.29331c1.71294,0.62924 3.35713,1.38079 4.98003,2.18732c0.0016,-0.00802 0.00348,-0.01603 0.00567,-0.02404c0.1096,0.06522 0.22231,0.12657 0.33801,0.18384c-0.00308,0.00086 -0.00617,0.00172 -0.00926,0.00258c0.69562,0.34969 1.38854,0.70748 2.07965,1.0737c1.16767,0.61987 2.33358,0.86251 3.61364,0.87016c0.05497,0.01572 0.09144,0.02638 0.10667,0.0316c0.9156,0.3133 1.96283,0.71649 3.0503,1.05763c0.02553,0.02183 0.05141,0.0442 0.07768,0.06709c0.55754,0.6302 1.28171,1.12784 2.13466,1.41735c2.31806,1.77695 2.38489,5.02991 1.20355,7.80061c-0.59843,1.4038 -1.54511,2.68968 -2.713,3.67164c-0.04985,0.04147 -0.0997,0.08296 -0.15015,0.12323c-1.76404,1.41932 -4.01086,2.14428 -6.36128,1.52312c-0.9323,-0.24625 -1.62767,-0.76507 -2.22638,-1.39689c-0.33391,-0.35345 -0.63931,-0.74145 -0.93448,-1.13907c-0.94596,-1.27306 -1.80902,-2.63268 -3.3552,-3.17938c-1.5651,-0.55 -3.13347,-1.02099 -4.65086,-1.70229c-1.80374,-0.80766 -3.37902,-1.96479 -5.05248,-2.9984c-3.32348,-2.05344 -7.1429,-3.28471 -10.64528,-5.00821c-3.55136,-1.7448 -7.04479,-3.6005 -10.6529,-5.23502c-1.30412,-0.59304 -2.61745,-1.17343 -3.92154,-1.7694c-0.10761,-0.26406 -0.25906,-0.50561 -0.44535,-0.7156c0.42424,0.18561 0.84842,0.36467 1.25885,0.55133z" data-paper-data="{&quot;origPos&quot;:null,&quot;origRot&quot;:0}" id="Outline_9_" fill="#010101"/>
        <path d="M236.19665,127.84858c0.20093,1.83129 0.71148,3.62174 1.23414,5.39135c-0.06467,-0.06726 -0.13307,-0.1309 -0.20486,-0.1906c-0.03986,-0.04835 -0.08149,-0.09517 -0.12481,-0.14038c-0.07335,-0.4624 -0.27354,-0.88269 -0.56383,-1.22402c-0.29591,-1.11873 -0.55092,-2.24696 -0.71115,-3.39698c-0.23767,-1.70922 -0.19372,-3.43363 -0.00861,-5.14426c0.3166,-0.41786 0.5049,-0.93839 0.5061,-1.50303c0.00015,-0.06883 -0.00249,-0.13702 -0.0078,-0.20446c0.044,-0.01892 0.08733,-0.03906 0.12998,-0.0604c-0.32921,2.14788 -0.48482,4.30166 -0.24916,6.47278z" data-paper-data="{&quot;origPos&quot;:null,&quot;origRot&quot;:0}" id="Outline_9_" fill="#010101"/>
        <g data-paper-data="{&quot;origPos&quot;:null,&quot;origRot&quot;:0}" id="L_Hand">
          <path d="M292.29633,148.82078c1.47659,-0.61587 2.4114,0.5944 3.65386,1.15415c0.69379,0.31304 1.20664,0.3726 1.96817,0.34074c0.62095,-0.0246 1.52399,-0.06644 2.10818,0.37131c0.09801,1.57354 -2.80719,1.88811 -3.94283,1.74439c0.25433,0.43008 0.90405,0.92671 1.40071,1.11305c0.90831,0.3454 1.41952,-0.57079 2.23984,-0.86045c1.14351,-0.40334 2.25139,-0.55823 3.43176,-0.49174c0.24669,0.81703 -1.53113,1.63402 -2.0636,2.01548c-0.93251,0.66882 -1.10341,1.471 -1.52054,2.52565c-0.19026,0.48135 -0.15917,0.8151 -0.30437,1.29042c-0.1791,0.5922 -0.38851,0.5265 -0.84144,0.77724c-0.4316,0.23481 -0.71745,0.59422 -1.19474,0.75275c-0.43795,0.14559 -0.92278,0.25154 -1.37064,0.37881c-1.85635,0.53253 -4.33041,-1.21214 -5.92953,-1.92464c-0.56188,-0.24911 -0.91523,-0.36972 -0.53963,-0.8875c0.26421,-0.36062 0.651,-0.71647 0.94014,-1.07379c0.66988,-0.83033 1.12645,-1.66658 1.54693,-2.63801c0.71038,-1.64087 0.49655,-2.91155 0.47241,-4.56863" id="Fill_3_" fill="url(#color-6)"/>
          <path d="M296.6099,152.79976v0c0.02584,0.01261 0.05318,0.02371 0.07843,0.03512c-0.09128,0.13884 -0.18223,0.27675 -0.2735,0.41559c-0.28673,-0.32373 -0.95704,-0.51481 -1.33925,-0.71713c-0.10968,-0.05853 0.14853,-0.42214 0.24856,-0.42189c0.98567,0.0107 1.96506,0.0914 2.94526,-0.03189c0.71104,-0.09072 2.00598,-1.19261 0.80511,-1.42612c-0.56093,-0.11062 -1.19505,-0.01031 -1.75681,0.03199c-1.86643,0.1507 -3.27875,-2.11263 -5.08082,-1.80334c-0.09402,0.01777 0.08304,-0.40289 0.22393,-0.42608c1.07811,-0.18281 2.34148,0.80442 3.22673,1.30033c0.82453,0.45869 1.60263,0.51243 2.53661,0.45586c0.52602,-0.02816 1.15716,-0.08942 1.61933,0.2126c0.58027,0.37738 -0.52929,1.50892 -0.77915,1.71811c-0.94057,0.80432 -2.84627,0.40828 -3.96142,0.39854c0.08196,-0.14094 0.1636,-0.28096 0.24706,-0.42038c0.37982,0.20352 1.05253,0.39639 1.33686,0.71832c0.08566,0.09459 -0.15031,0.46962 -0.2729,0.4138c-0.02794,-0.01231 -0.05499,-0.02432 -0.08173,-0.03722c-0.09525,-0.04772 0.14911,-0.47502 0.27771,-0.4162zM302.16317,152.26026v0c-1.39485,-0.05678 -2.44371,0.39909 -3.47946,1.31791c-0.76037,0.67506 -1.4786,0.10758 -2.25777,-0.31298c-0.10246,-0.05613 0.15272,-0.47683 0.2738,-0.41349c0.71966,0.38573 1.4388,0.93248 2.16883,0.28536c0.24474,-0.21791 0.45706,-0.41657 0.74027,-0.59063c0.8851,-0.53842 1.74119,-0.75209 2.78095,-0.71138c0.11956,0.00475 -0.09415,0.43024 -0.22664,0.42519zM302.30597,151.79214v0c1.97597,0.29326 0.31224,1.64885 -0.5134,2.12596c-0.96411,0.55618 -1.64182,1.31382 -2.53619,1.94929c-0.90639,0.64448 -2.36861,0.40207 -3.41015,0.40581c-0.11626,0.00035 0.08454,-0.42542 0.22393,-0.42608c0.76095,-0.00303 1.5105,0.00717 2.27023,-0.05234c0.99164,-0.07643 1.55284,-0.74268 2.21618,-1.38797c0.27958,-0.27439 0.60905,-0.45809 0.94483,-0.6457c0.36492,-0.20293 0.72624,-0.40407 1.07373,-0.63283c0.7289,-0.48429 -0.03851,-0.84385 -0.49788,-0.91366c-0.12769,-0.01947 0.10195,-0.44165 0.22873,-0.42248zM300.7816,154.47972v0c-0.71675,0.80571 -0.74525,2.31713 -1.73787,2.89885c-1.23861,0.72513 -2.64099,0.65182 -4.0325,0.69327c-0.11175,0.00184 0.08575,-0.42002 0.22394,-0.42608c1.18543,-0.03595 2.41265,0.03111 3.527,-0.432c1.05668,-0.44026 1.21459,-2.10884 1.95146,-2.9359c0.22821,-0.25544 0.20521,0.04828 0.06798,0.20186zM299.5497,156.84212v0c-0.04595,0.73664 -0.0047,1.66851 -0.7685,2.04406c-0.98337,0.48469 -2.23648,0.29686 -3.28874,0.51331c-0.08801,0.01776 0.08396,-0.39658 0.22513,-0.42368c0.72574,-0.15291 1.48128,-0.15474 2.21606,-0.2536c0.37491,-0.04943 0.76121,-0.11808 1.10271,-0.28676c0.24269,-0.11847 0.1903,-1.07108 0.20433,-1.28468c0.00927,-0.12107 0.31855,-0.46668 0.309,-0.30866zM298.33274,159.01525v0c-3.00155,2.63743 -6.46989,0.40262 -9.30204,-1.28302c-0.10487,-0.06093 0.16112,-0.48104 0.2747,-0.4132c2.74109,1.6313 6.18004,3.91841 9.11731,1.33266c0.18079,-0.1581 -0.00859,0.29051 -0.08997,0.36354z" id="Outline_8_" fill="#010101"/>
        </g>
      </g>
      <g data-paper-data="{&quot;origPos&quot;:null,&quot;origRot&quot;:0}" id="L_Eye" stroke="none" stroke-width="1">
        <path d="M268.98626,104.26936c-0.05448,-0.01742 -0.09616,-0.02851 -0.15637,-0.02465c-0.32107,0.47987 -1.82231,0.33841 -2.28999,0.27842c-0.90648,-0.11522 -1.88257,-0.64588 -2.63548,-1.17667c-0.5607,-0.39156 -1.006,-0.87311 -0.81545,-1.61884c0.11671,-0.46064 0.51311,-0.74995 0.89259,-0.98353c1.23246,-0.75643 2.75918,-1.05889 3.83324,0.12413c0.42853,0.46741 0.78761,0.9585 0.8572,1.56518c0.07956,0.65708 0.43684,1.25436 0.31104,1.94054" id="L_White" fill="#ffffff"/>
        <path d="M268.60593,104.48511v0v0c0.0753,-1.41348 0.07269,-3.53271 -1.58495,-4.04638c-0.77617,-0.2412 -1.66058,-0.02236 -2.39441,0.24751c-1.16757,0.42342 -1.99211,1.38166 -0.60657,2.5127c1.1422,0.93156 3.21167,1.39675 4.65671,1.23938c0.13407,-0.01338 0.47476,0.32101 0.27107,0.3436c-1.77009,0.19243 -3.90798,-0.48 -5.28393,-1.60193c-0.49913,-0.40616 -0.77881,-0.94252 -0.761,-1.58395c0.01581,-0.65152 0.56251,-0.88167 1.07506,-1.11876c1.02241,-0.47016 2.43631,-0.73605 3.45781,-0.12387c1.52926,0.91807 1.666,2.75558 1.58217,4.37837c-0.00509,0.1439 -0.41821,-0.09503 -0.41197,-0.24668z" id="L_Outline" fill="#000000"/>
      </g>
      <g data-paper-data="{&quot;origPos&quot;:null,&quot;origRot&quot;:0}" id="R_Eye" stroke="none" stroke-width="1">
        <path d="M280.55022,107.10629c-0.004,0.00965 -0.00763,0.01843 -0.01236,0.02984c-0.23697,0.57228 -0.77329,0.80467 -1.42951,0.84243c-0.84941,0.05236 -1.30232,0.02625 -2.10264,-0.26094c-0.80016,-0.28507 -1.53491,-0.5667 -2.18185,-1.09268c-0.30139,-0.24305 -0.30565,-0.28491 -0.12822,-0.61656c0.15072,-0.28204 0.31914,-0.39327 0.55793,-0.60492c0.22807,-0.20066 0.3719,-0.49584 0.62148,-0.65161c0.22155,-0.1427 0.29773,-0.46075 0.53915,-0.56951c0.60725,-0.27705 1.23586,-0.17613 1.87736,0.06997c0.56493,0.21748 1.19971,0.56671 1.53591,1.05346c0.23913,0.34374 1.0056,1.35827 0.77431,1.85475" id="R_White" fill="#ffffff"/>
        <path d="M274.30822,106.28599v0v0c0.81058,-1.29203 1.99213,-2.76976 3.69727,-2.39066c0.99221,0.21858 1.77473,1.08758 2.31127,1.88762c0.21922,0.32727 0.40922,0.69282 0.52251,1.0698c0.21903,0.73745 -0.92849,1.31107 -1.46209,1.3482c-1.69885,0.12219 -3.70932,-0.59722 -4.9845,-1.72163c-0.25224,-0.2227 0.06813,-0.22165 0.22644,-0.08001c1.15165,1.01054 3.18693,1.67749 4.71067,1.41699c1.44931,-0.24712 1.05788,-1.52174 0.48318,-2.33142c-0.52874,-0.74437 -1.2698,-1.33605 -2.21773,-1.3214c-1.31606,0.02467 -2.27648,1.43768 -2.89474,2.42171c-0.07362,0.12067 -0.47449,-0.16769 -0.39228,-0.29919z" id="R_Outline" fill="#000000"/>
      </g>
      <path d="M266.98481,100.60622c0.52478,0.23993 0.75334,0.86 0.51378,1.3839c-0.24029,0.52566 -0.86124,0.75386 -1.38551,0.51517c-0.52406,-0.24168 -0.75401,-0.86336 -0.51093,-1.38581c0.23869,-0.52427 0.8586,-0.75495 1.38266,-0.51326z" data-paper-data="{&quot;origPos&quot;:null,&quot;origRot&quot;:0}" id="R_Pupil" fill="url(#color-7)" stroke="#010101" stroke-width="0.2494"/>
      <path d="M279.15799,106.05932c0.52478,0.23993 0.75334,0.86 0.51378,1.3839c-0.24029,0.52566 -0.86124,0.75386 -1.38551,0.51517c-0.52406,-0.24168 -0.75401,-0.86336 -0.51093,-1.38581c0.23869,-0.52427 0.8586,-0.75495 1.38266,-0.51326z" data-paper-data="{&quot;origPos&quot;:null,&quot;origRot&quot;:0}" id="R_Pupil" fill="url(#color-8)" stroke="#010101" stroke-width="0.2494"/>
      <path d="" id="Outline_11_" fill="#000000" stroke="none" stroke-width="1"/>
      <path d="" id="Outline_11_" fill="#000000" stroke="none" stroke-width="1"/>
      <path d="" id="Outline_11_" fill="#000000" stroke="none" stroke-width="1"/>
    </g>
  </g>
</svg>
