<?xml version="1.0"?>
<svg xmlns="http://www.w3.org/2000/svg" xmlns:xlink="http://www.w3.org/1999/xlink" version="1.1" width="63.76185" height="192.55086" viewBox="0,-0.00763,63.76185,192.55086">
  <defs>
    <radialGradient cx="240.09071" cy="121.86082" r="6.30277" gradientUnits="userSpaceOnUse" id="color-1">
      <stop offset="0" stop-color="#67ff66"/>
      <stop offset="1" stop-color="#cbe7b7"/>
    </radialGradient>
    <radialGradient cx="234.26524" cy="113.417" r="16.42197" gradientUnits="userSpaceOnUse" id="color-2">
      <stop offset="0" stop-color="#67ff66"/>
      <stop offset="1" stop-color="#cbe7b7"/>
    </radialGradient>
    <linearGradient x1="238.8804" y1="85.52576" x2="238.8804" y2="106.6271" gradientUnits="userSpaceOnUse" id="color-3">
      <stop offset="0" stop-color="#000000"/>
      <stop offset="1" stop-color="#1a1a1a"/>
    </linearGradient>
    <linearGradient x1="239.15718" y1="82.57688" x2="239.15718" y2="107.13113" gradientUnits="userSpaceOnUse" id="color-4">
      <stop offset="0" stop-color="#000000"/>
      <stop offset="1" stop-color="#1a1a1a"/>
    </linearGradient>
    <radialGradient cx="260.75" cy="185" r="7.07789" gradientUnits="userSpaceOnUse" id="color-5">
      <stop offset="0" stop-color="#71fd6e"/>
      <stop offset="1" stop-color="#c7e1c0"/>
    </radialGradient>
    <radialGradient cx="212.25" cy="188" r="5.82826" gradientUnits="userSpaceOnUse" id="color-6">
      <stop offset="0" stop-color="#71fd6e"/>
      <stop offset="1" stop-color="#c7e1c0"/>
    </radialGradient>
  </defs>
  <g transform="translate(-208.17793,-82.57686)">
    <g data-paper-data="{&quot;isPaintingLayer&quot;:true}" fill="none" fill-rule="nonzero" stroke="none" stroke-width="none" stroke-linecap="butt" stroke-linejoin="miter" stroke-miterlimit="10" stroke-dasharray="" stroke-dashoffset="0" font-family="none" font-weight="none" font-size="none" text-anchor="none" style="mix-blend-mode: normal">
      <g id="R_Shoe" stroke="none" stroke-width="1">
        <path d="M259.95665,257.50014c-0.27455,0.59375 1.6036,0.9861 2.06815,1.0412c1.23025,0.13965 3.05995,-0.2945 4.24935,-0.3002c1.0564,-0.00855 2.2363,0.1596 3.1654,0.56335c0.5966,0.2584 1.68435,1.4744 1.8392,2.109c0.0342,0.1406 0.0152,0.4161 -0.019,0.5548c-0.99465,0.3876 -1.8449,1.12955 -2.8025,1.634c-1.3281,0.70015 -2.7664,1.2236 -4.2769,1.5314c-1.5808,0.3249 -1.4839,0.60325 -3.1084,0.68115c-1.38225,0.06555 -4.5011,0.1596 -5.80925,-0.0931c-2.78065,-0.5282 -5.08345,-0.60135 -7.65415,-1.8924c-0.80275,-0.09595 -5.2991,-1.8278 -3.8741,-2.1584c1.24545,-0.2888 4.80795,-0.32585 6.0914,-0.2584c1.8981,0.0988 3.857,-0.66595 5.64205,-1.4003c0.84835,-0.34865 1.53425,-0.66215 2.33225,-1.083c0.7163,-0.37715 1.25305,-0.53485 1.7651,-1.12195" id="Fill_8_" fill="#eaa06d"/>
        <path d="M271.46115,261.41889c0.24415,0.91295 0.29355,1.85915 0.32395,2.8538c0.0133,0.48735 -0.10735,0.8512 -0.16625,1.26635c-0.0608,0.45505 0.1064,0.89015 0.0437,1.34425c-1.01175,0.399 -1.89335,1.0089 -2.9488,1.35565c-1.13905,0.37525 -2.32275,0.66405 -3.4713,1.0241c-2.698,0.8493 -5.75415,0.68685 -8.4778,0.0551c-1.08395,-0.2508 -2.10995,-0.63935 -3.13785,-1.05545c-0.9918,-0.4028 -1.72805,-0.9405 -2.83005,-1.03265c-1.1229,-0.0969 -2.20685,0.23465 -3.3421,0.15485c-1.0583,-0.0722 -2.2629,-0.14535 -3.24805,-0.5225c-2.09855,-0.8056 -0.64695,-3.9748 -0.70585,-5.51285c0.42275,0.25175 1.25305,0.70585 1.66915,0.99655c0.89775,0.6175 1.63685,0.75335 2.67805,1.0488c1.11055,0.3173 2.0083,0.70775 3.11505,1.00985c2.39305,0.65455 4.8887,0.88635 7.38245,1.0241c2.3997,0.133 4.70915,-0.0038 6.93215,-0.85785c1.2388,-0.475 2.4282,-1.0811 3.60525,-1.69575c0.7201,-0.3762 1.71665,-1.56465 2.5137,-1.57605" id="Trim_1_" fill="#bc7240"/>
        <path d="M271.0536,261.13674v0c-1.07445,-3.32595 -4.1078,-3.02955 -6.9711,-2.6486c-0.87305,0.11685 -1.76035,0.23275 -2.641,0.10735c-0.9709,-0.1387 -1.4402,-0.59565 -2.09855,-1.2882c-0.133,-0.1406 0.3439,-0.1064 0.4427,-0.00285c0.6764,0.7125 1.2597,1.08205 2.2762,1.08965c0.57475,0.00665 1.1552,-0.08265 1.7271,-0.1558c1.08965,-0.1406 2.17835,-0.2983 3.28225,-0.27835c2.185,0.03705 3.78195,1.14665 4.4593,3.23855c0.0513,0.1577 -0.4256,0.09215 -0.4769,-0.06175zM271.6787,261.19849v0c0.3211,1.93325 0.2185,3.8855 0.25935,5.8387c0.0057,0.19095 -0.4731,0.08455 -0.4769,-0.0627c-0.03895,-1.95035 0.0608,-3.9026 -0.25935,-5.8387c-0.0285,-0.1786 0.4522,-0.09405 0.4769,0.0627zM261.5669,269.89384v0c-2.7702,0.06175 -5.2877,-0.31065 -7.85175,-1.37845c-0.8018,-0.33535 -1.5561,-0.7372 -2.3883,-0.99655c-1.0944,-0.3363 -2.06245,-0.05415 -3.15495,0.0304c-1.74705,0.1368 -3.39625,-0.30115 -5.0483,-0.82745c-0.06555,-0.019 -0.19095,-0.05795 -0.2109,-0.14155c-0.34485,-1.78505 0.41895,-3.47415 0.34865,-5.26015c-0.0076,-0.18905 0.4693,-0.0874 0.4769,0.05985c0.0513,1.33285 -1.2844,4.902 0.3078,5.38745c1.4193,0.4313 2.85,0.6897 4.32915,0.46075c0.74195,-0.11495 1.45635,-0.2109 2.2021,-0.1159c1.64065,0.209 3.13595,1.19415 4.6721,1.7461c1.976,0.70965 4.047,0.8246 6.1275,0.77805c0.171,-0.0038 0.5149,0.24985 0.19,0.25745zM271.89245,267.11604v0c-3.34495,1.5086 -6.6557,2.63245 -10.3246,2.78065c-0.17195,0.00665 -0.51015,-0.2451 -0.1881,-0.25745c3.5948,-0.1463 6.85615,-1.2654 10.1327,-2.7455c0.1311,-0.06175 0.57095,0.13585 0.38,0.2223zM271.5153,261.26024v0c-3.5644,3.078 -8.59085,4.44505 -13.2107,4.34245c-2.6163,-0.06175 -5.206,-0.56525 -7.7387,-1.19795c-1.1932,-0.29925 -2.3636,-0.6669 -3.52165,-1.083c-1.3566,-0.4845 -2.3066,-1.3509 -3.5853,-1.95605c-0.29925,-0.1406 -0.02185,-0.27835 0.18335,-0.17955c0.741,0.3496 1.35945,0.8512 2.04155,1.2996c1.15425,0.75525 2.755,1.08775 4.06505,1.45825c2.57545,0.7315 5.2326,1.22455 7.9059,1.3775c4.63885,0.26125 9.83535,-1.1609 13.41305,-4.2465c0.12635,-0.1026 0.56905,0.0817 0.44745,0.18525z" id="Outline_13_" fill="#000000"/>
      </g>
      <g id="L_Shoe" stroke="none" stroke-width="1">
        <path d="M236.9087,267.57109c0.0076,0.6897 -0.4636,2.02445 -0.99845,2.37215c-0.7239,0.46645 -2.0387,0.96805 -2.8747,1.1381c-3.6613,0.74955 -8.9243,0.779 -12.5704,-0.1387c-0.83505,-0.20995 -1.653,-0.6593 -1.86485,-1.3262c-0.1102,-0.35245 -0.36955,-1.7936 -0.3173,-2.1147c0.0931,-0.59375 1.3661,-1.3509 1.7423,-1.88005c0.40375,-0.56715 1.24735,-1.0241 1.8088,-1.47535c1.13145,-0.91485 2.8709,-1.19225 4.29495,-1.40505c1.62735,-0.2451 3.06755,-0.0228 4.7481,0.456c1.3034,0.3762 2.36265,0.9652 3.5264,1.6302c0.5605,0.323 1.07065,0.57475 1.4079,1.17325c0.2793,0.49305 0.57475,1.2749 1.09725,1.57035" id="Fill_6_" fill="#eaa06d"/>
        <path d="M237.01415,268.91629c0.3781,0.98895 -0.18335,2.8082 -0.46075,3.8589c-0.1349,0.5092 -1.04785,0.66025 -1.49815,0.94525c-0.65265,0.40945 -1.4307,0.43415 -2.17455,0.6137c-1.46585,0.35435 -3.0039,0.57475 -4.5277,0.57475c-1.38605,0 -2.40255,-0.12635 -3.7924,-0.18525c-1.1476,-0.0475 -2.33795,-0.3078 -3.458,-0.5415c-0.92815,-0.1957 -1.9323,-0.3439 -2.5669,-1.0868c-0.76285,-0.89205 -1.16755,-1.90475 -1.3262,-2.98775c-0.11875,-0.8056 -0.3458,-2.17455 0.51965,-2.5289c0.85025,-0.3458 0.7201,1.36325 0.8702,2.03205c0.24415,1.0811 2.01875,1.3547 3.078,1.6302c2.774,0.7239 5.10245,0.83885 7.79665,0.47405c1.5219,-0.2052 3.1122,-0.25365 4.5125,-0.83885c0.4142,-0.1729 1.15235,-0.28785 1.5029,-0.60325c0.35055,-0.3173 0.58805,-0.49495 0.82175,-0.82365c0.08265,0.0209 0.21375,-0.5624 0.25935,-0.5168" id="Trim" fill="#bc7240"/>
        <path d="M236.6427,267.54924v0c-0.18525,-1.1286 -2.7778,-2.2971 -3.6727,-2.7398c-1.5637,-0.77045 -3.24805,-0.95855 -4.96755,-0.90155c-1.81355,0.05795 -3.72875,0.17005 -5.44635,0.78375c-1.62545,0.58045 -2.96685,1.73565 -4.1268,2.9792c-0.11115,0.11685 -0.5662,-0.05605 -0.44745,-0.1805c1.3775,-1.47915 2.9222,-2.6391 4.86875,-3.249c1.8335,-0.57285 4.047,-0.6175 5.95745,-0.60705c1.64065,0.0133 3.28605,0.4142 4.7386,1.1856c0.93005,0.49495 3.37345,1.5694 3.572,2.7911c0.02945,0.17955 -0.45125,0.0931 -0.47595,-0.06175zM218.5186,267.69364v0c0.05605,0.7961 0.03135,1.5903 0.42845,2.3066c0.4579,0.8208 1.9817,1.0298 2.81295,1.1818c1.75275,0.3249 3.54255,0.494 5.32285,0.49115c1.9855,-0.00095 3.97955,-0.2641 5.91755,-0.70205c0.95665,-0.2166 1.87815,-0.5586 2.6752,-1.1381c0.7999,-0.58425 0.73435,-1.46205 0.9652,-2.3161c0.04085,-0.15485 0.45505,-0.038 0.4769,0.0988c0.24415,1.49245 0.13395,3.0153 -0.21375,4.484c-0.13395,0.5643 -0.00855,0.70775 -0.49875,1.08395c-0.46075,0.3496 -1.0279,0.6194 -1.5713,0.8132c-3.08845,1.09535 -6.70225,1.2768 -9.94555,1.0203c-2.44435,-0.19475 -5.79405,-0.40375 -7.201,-2.74835c-0.7068,-1.17515 -1.5086,-4.7766 0.56715,-5.1034c0.14345,-0.019 0.5624,0.20995 0.2964,0.25175c-2.0292,0.3192 -0.8911,4.0641 -0.266,5.1015c0.8113,1.34995 2.5555,1.65015 3.9786,1.9266c1.38415,0.26885 2.8044,0.35625 4.2142,0.3819c2.71795,0.05035 5.59265,-0.21375 8.1719,-1.1286c0.38095,-0.13775 0.74005,-0.35435 1.0887,-0.5567c0.7277,-0.4237 0.60325,-0.78755 0.76855,-1.4839c0.31445,-1.33285 0.36385,-2.76165 0.1387,-4.10875c0.1596,0.03325 0.3173,0.0627 0.4769,0.0988c-0.2584,0.96615 -0.19475,1.67105 -0.99655,2.3693c-0.6897,0.60325 -1.63685,0.88445 -2.49375,1.12575c-2.33605,0.65265 -4.86305,0.83315 -7.277,0.7904c-1.919,-0.03135 -3.94345,-0.2793 -5.7988,-0.77425c-0.6821,-0.1767 -1.32525,-0.4674 -1.8525,-0.9348c-0.68875,-0.6137 -0.5947,-1.76225 -0.6536,-2.5897c-0.019,-0.1919 0.4598,-0.095 0.46835,0.0589z" id="Outline_12_" fill="#000000"/>
      </g>
      <g id="Pants_3_" stroke="none" stroke-width="1">
        <path d="M261.6619,258.19459c-0.019,0.0285 0.07125,0.08455 0.17955,0.1235c-0.60135,0.532 -2.05485,-0.9975 -2.75025,-0.7258c-1.20745,0.3553 -1.0241,0.91485 -2.22395,1.4041c-1.3756,0.55765 -3.15115,1.56465 -4.6132,1.69385c-2.7037,0.2375 -4.25315,0.24605 -6.83905,0.22325c-2.75785,0 -2.0311,1.2217 -1.9475,1.6093c-1.995,1.2464 -4.3548,-0.3515 -4.87065,-1.6093c-0.96995,1.23405 -1.6093,0.70015 -1.1951,1.99595c0.7923,2.4814 0.03705,3.4618 -0.70015,3.54635c-0.4465,0.05035 -2.3522,-1.88005 -3.1635,-2.18595c-1.672,-1.06875 -2.0881,-1.07255 -4.08785,-1.36515c-2.0957,-0.304 -3.62235,-0.3667 -5.9831,0.2717c-2.11945,0.1938 -3.1958,2.4909 -4.5828,3.496c-0.05225,-0.057 -0.2907,-0.1558 -0.35625,-0.1596c-2.21635,-0.02945 -1.1362,-1.12005 -2.11185,-1.99975c-1.1153,-1.0013 -2.09475,-2.147 -2.907,-3.4086c-0.4674,-0.72865 -0.9101,-1.3585 -0.5738,-2.25245c0.1843,-0.49495 0.4142,-0.96235 0.7334,-1.38605c0.69255,-0.9215 1.52095,-1.72995 2.13275,-2.71605c0.00095,-0.02185 -0.0038,-0.03515 -0.01995,-0.0494c-0.7885,-0.61845 -1.54185,-1.01935 -0.5662,-1.7936c0.61085,-0.4826 0.37525,-0.60515 0.2546,-1.2236c-0.5852,-2.98965 0.6004,-6.1104 1.32715,-8.98035c1.60265,-6.3422 2.9222,-12.85635 3.32405,-19.3952c0,-0.0019 -0.00285,-0.00285 -0.00285,-0.0038c0.9652,-10.23625 1.9342,-20.47725 2.8994,-30.71065c0.15295,0.04845 0.0209,-0.21945 0.0209,-0.21945l1.1153,-12.85445c15.97235,-2.67235 29.1536,-2.5536 29.1536,-2.5536l1.15235,15.5363c-0.0038,0.0038 -0.019,0.0038 -0.019,0.00855c0.0076,7.8128 0.532,15.61135 0.33155,23.427c0,0.0057 0.0114,0.01045 0.0133,0.01615c-0.00095,0.00285 -0.0095,0.00285 -0.00855,0.00665c0.5624,2.6391 0.4256,5.1908 0.66215,7.847c0.2204,2.50705 0.63745,5.0103 1.0127,7.4955c0.37905,2.508 0.71915,4.97895 0.81035,7.5145c0.0494,1.44495 0.0817,3.2395 1.18465,4.3168c-0.3306,-0.0703 -0.66595,-0.1159 -1.00415,-0.12255c-0.2356,-0.00475 0.209,0.19475 0.3097,0.1938c0.6384,0.0133 1.4003,0.23845 2.00925,0.63555c0.06555,0.0456 0.13585,0.09405 0.2033,0.1425c0.57855,0.44745 0.96425,1.07065 0.83505,1.85725c-0.11305,0.6897 -0.418,1.27585 -0.6745,1.91805c-0.48355,1.2198 -0.5358,2.2762 0.64315,3.0172c1.3357,0.8436 2.7398,1.406 2.4453,3.2984c-0.22135,1.43165 -0.7353,2.91745 -1.5523,4.12015z" id="Fill_7_" fill="#3d6767"/>
        <path d="M263.6379,252.96389c0.52155,1.6074 -0.6175,4.06315 -1.4991,5.36465c-0.0171,0.0247 -0.057,0.02755 -0.09595,0.02945c-0.0551,0.14535 -0.60135,0.24225 -0.60135,0.24225l-0.01425,-0.0456c-0.6935,-0.1007 -1.4098,-1.32145 -1.89905,-0.988c-1.5618,1.0621 -3.2433,1.9342 -5.01125,2.59825c-1.9019,0.7163 -3.8,0.931 -5.814,0.91865c-2.19925,-0.01425 -4.49825,-0.20235 -6.55215,0.7391c-0.12825,0.0627 -0.50825,-0.1349 -0.44935,-0.16055c1.62355,-0.74385 3.3782,-0.8018 5.1338,-0.79325c2.39305,0.01235 4.5942,-0.00095 6.89605,-0.7486c1.1343,-0.3686 2.2154,-0.8854 3.2642,-1.44495c0.7315,-0.3914 1.59125,-1.2369 2.3731,-1.4573c0.19855,-0.05985 0.3933,-0.02945 0.5833,0.0589c0.33915,0.1634 1.0089,1.12195 1.30245,1.0982c0.0266,-0.0019 0.0741,0.00855 0.1292,0.0266l-0.00285,-0.00855l0.2812,-0.1957c0.81795,-1.2027 1.3319,-2.6885 1.5523,-4.12015c0.2945,-1.89335 -1.1096,-2.4548 -2.4453,-3.2984c-1.17895,-0.741 -1.1267,-1.7974 -0.64315,-3.0172c0.2565,-0.6422 0.56145,-1.22835 0.6745,-1.91805c0.1292,-0.7866 -0.2565,-1.4098 -0.83505,-1.85725c-0.0646,-0.0494 -0.133,-0.0969 -0.2033,-0.1425c-0.608,-0.3971 -1.37085,-0.62225 -2.00925,-0.63555c-0.1007,0.00095 -0.5453,-0.19855 -0.3097,-0.1938c0.33915,0.00665 0.67355,0.05225 1.00415,0.12255c-1.10295,-1.0773 -1.13525,-2.87185 -1.18465,-4.3168c-0.0912,-2.53555 -0.43225,-5.00555 -0.81035,-7.5145c-0.3743,-2.48615 -0.7923,-4.98845 -1.0127,-7.4955c-0.23655,-2.6562 -0.09975,-5.20885 -0.66215,-7.847c-0.00095,-0.0038 0.0076,-0.0038 0.00855,-0.00665c-0.0019,-0.0057 -0.0133,-0.01045 -0.0133,-0.01615c0.20045,-7.8147 -0.32395,-15.61325 -0.33155,-23.427c0,-0.00475 0.0152,-0.00475 0.019,-0.00855l-1.15235,-15.5363c0,0 -13.1822,-0.1178 -29.1536,2.5536l-1.1153,12.85445c0,0 0.13205,0.2679 -0.0209,0.21945c-0.9652,10.2334 -1.9342,20.4744 -2.8994,30.71065c0,0.00095 0.00285,0.0019 0.00285,0.0038c-0.40185,6.53885 -1.7214,13.053 -3.32405,19.3952c-0.7106,2.80535 -1.8487,5.85105 -1.3528,8.78085c2.546,0.7752 4.86685,2.5175 7.59335,2.53745c2.5726,0.01995 5.07775,-1.2806 7.51165,-1.9494c0.11495,-0.03135 0.5358,0.14725 0.39615,0.1862c-2.6163,0.7182 -5.28485,2.147 -8.0332,1.95605c-2.6923,-0.1862 -4.9248,-1.7822 -7.44705,-2.56025c0.0019,0.0095 0.0019,0.019 0.0038,0.02945c0.12065,0.61845 0.35625,0.741 -0.2546,1.2236c-0.97565,0.7752 -0.2223,1.1761 0.5662,1.7936c0.0152,0.01425 0.0209,0.0285 0.01995,0.0494c-0.61085,0.9861 -1.4402,1.7936 -2.13275,2.71605c-0.31825,0.4237 -0.5491,0.8911 -0.7334,1.38605c-0.3363,0.89395 0.10735,1.5238 0.5738,2.25245c0.8132,1.2616 1.7917,2.4073 2.907,3.4086c0.9766,0.87875 -0.1045,1.9703 2.11185,1.99975l0.58045,-0.2299c3.4238,-5.63825 13.39215,-4.43935 17.3622,0.0855c0.7391,-0.4579 1.3699,-0.8474 1.1704,-1.8658c-0.1824,-0.92815 -0.5206,-1.45255 -0.44555,-2.3351c-1.2597,0.26125 -2.68945,-0.0285 -3.9292,-0.22895c-2.0463,-0.32775 -4.0109,-0.91295 -6.10375,-0.855c-0.0988,0.0019 -0.5453,-0.19095 -0.3078,-0.19855c3.2262,-0.08265 6.2966,1.1685 9.5228,1.17895c0.04845,-0.22895 0.0988,-0.45885 0.1463,-0.6897c-0.31635,-0.1995 -0.6536,-0.35435 -1.0089,-0.4655c-0.54055,-0.1881 -1.0659,-0.38665 -1.6169,-0.55575c-0.85025,-0.25745 -1.7195,-0.44935 -2.58305,-0.646c-1.98455,-0.45505 -3.98525,-0.84645 -6.00875,-1.0754c-0.1216,-0.0133 -0.5168,-0.22895 -0.20425,-0.1938c2.5441,0.28785 5.05495,0.81795 7.54205,1.41835c1.4155,0.342 3.6841,0.7239 4.71295,1.9513c2.0216,-1.672 3.23,-4.7367 2.36075,-7.29315c-0.3705,-1.0868 -1.6207,-1.3186 -2.2116,-2.2002c-0.39805,-0.59185 -0.076,-1.00605 0.29735,-1.539c0.494,-0.69445 0.2033,-1.51145 0.1045,-2.29425c0,-0.0019 -0.00285,-0.00285 -0.00285,-0.0038c0,-0.00665 0,-0.0152 0,-0.02375c-0.0038,-0.0342 -0.01045,-0.0684 -0.0133,-0.1026c0,-0.00285 0.0095,-0.0019 0.01045,-0.00475c-0.00095,-0.03705 -0.00285,-0.07315 -0.00285,-0.1102c-0.0095,-0.01235 -0.01995,-0.02375 -0.02945,-0.0361c-0.0266,-0.03325 -0.0095,-0.05035 0.0266,-0.0589c-0.1672,-8.22035 -0.87305,-16.492 0.4617,-24.65915c0.00475,-0.02185 0.038,-0.03135 0.0779,-0.03515c1.216,-4.4137 1.9171,-8.9338 2.47095,-13.47195c0.2755,-2.2667 0.59565,-4.541 0.73815,-6.82005c0.1387,-2.1432 0.1007,-4.1363 1.0089,-6.13605c0.04845,-0.1121 0.513,0.0494 0.47405,0.13205c-0.84075,1.85725 -0.90915,3.7316 -0.988,5.7323c-0.0874,2.25625 -0.43985,4.5201 -0.703,6.7583c-0.5624,4.7899 -1.2882,9.5646 -2.59255,14.2158c-0.0038,0.0133 -0.0285,0.0133 -0.0437,0.01995c-1.27965,8.09685 -0.58805,16.2982 -0.4237,24.4492c1.5371,1.9323 3.6309,4.256 6.3232,3.9786c0.10355,-0.0133 0.55005,0.17195 0.31065,0.19665c-2.7265,0.28025 -4.91245,-1.6473 -6.58445,-3.6233c0.11115,0.7049 0.27075,1.35755 -0.14155,2.02255c-0.1729,0.2793 -0.3496,0.5092 -0.4864,0.8113c-0.2622,0.59565 0.67355,1.12955 1.03455,1.38985c0.8113,0.58235 1.3053,1.102 1.5238,2.10235c0.43795,1.976 -0.2565,4.14485 -1.52855,5.73515c0.00285,0.00285 0.0114,0.0038 0.0133,0.0076c0.41705,0.5871 0.8607,1.1172 1.4649,1.52c0.91105,0.60705 2.03965,0.2869 2.9697,-0.0589c0.1064,-0.0399 0.5339,0.13395 0.39045,0.1862c-2.10805,0.7752 -3.72305,0.2356 -5.04355,-1.41645c-0.28975,0.3325 -0.5985,0.6422 -0.93575,0.9063c-0.17385,1.159 0.4484,1.95605 0.50065,3.07895c0.03515,0.7581 -0.97185,1.1856 -1.4839,1.5105c-0.09975,0.0608 -0.37145,-0.0133 -0.44175,-0.0988c-3.7449,-4.63315 -13.6572,-5.7095 -16.84255,0.09405c-0.06745,0.10925 -0.4465,-0.0323 -0.4693,-0.11115c-0.05605,0.01995 -0.11115,0.03895 -0.1634,0.05605c0.04275,0.0209 0.07885,0.04275 0.09595,0.0608c0.0209,0.0228 0.0133,0.038 -0.04655,0.03895c-0.00285,0 -0.00285,0.00095 -0.00665,0.00095c-0.03895,-0.00095 -0.07695,-0.0038 -0.1159,-0.00475c-0.60705,-0.0171 -1.1818,-0.1121 -1.634,-0.41895c-0.00665,-0.0038 -0.01235,-0.0095 -0.01805,-0.0133c-0.2508,-0.17385 -0.4655,-0.4104 -0.6213,-0.74385c-0.3553,-0.76665 -0.5719,-1.12765 -1.20745,-1.7537c-0.83695,-0.82745 -1.54755,-1.7746 -2.19735,-2.75215c-0.27645,-0.41325 -0.5282,-0.8417 -0.77995,-1.26825c-0.152,-0.25555 0.21565,-1.0773 0.3135,-1.33095c0.29165,-0.78185 0.8854,-1.4459 1.42025,-2.071c0.33725,-0.3933 0.67545,-0.7828 0.9861,-1.19985c0.4712,-0.6327 -0.16055,-0.8303 -0.5738,-1.21315c-0.3211,-0.2983 -0.28785,-0.62225 0,-0.9139c0.3819,-0.3838 1.00605,-0.58235 0.7163,-1.2407c-0.39615,-0.89965 -0.3116,-1.95985 -0.21755,-2.9317c0.25555,-2.7531 1.22455,-5.4587 1.8734,-8.132c1.3889,-5.73895 2.5061,-11.64035 2.8671,-17.5427c0,-0.00095 -0.0019,-0.0019 -0.0019,-0.00285c0.4408,-4.66735 0.8816,-9.33375 1.3224,-14.0011c0.0779,-0.82555 0.1558,-1.65015 0.2337,-2.47475c0.456,-4.8203 0.91105,-9.6406 1.3661,-14.459l1.17705,-13.2012c0,0 17.87235,-2.9697 30.04375,-2.5536l1.13525,16.15095c0.00855,7.8109 0.53295,15.6066 0.3325,23.41845c0.43225,2.03395 0.56905,4.03275 0.5795,6.10565c0.01235,2.64195 0.54815,5.25825 0.9044,7.8679c0.35245,2.57165 0.855,5.1357 0.96995,7.73585c0.076,1.7119 -0.16055,4.0584 1.1609,5.3751c0.04845,0.04845 0.08265,0.1045 0.13585,0.1501c0.0228,0.0076 0.04655,0.01805 0.06935,0.0266c0.63365,0.2242 1.22455,0.5586 1.70715,1.045c1.33095,1.33665 -0.25935,3.22335 -0.5016,4.6512c-0.34105,2.0235 2.7949,2.19925 3.363,3.94345z" id="Outline_11_" fill="#000000"/>
      </g>
      <g id="Undershirt" stroke="none" stroke-width="1">
        <path d="M222.62355,191.49129c0,-0.00095 -0.00095,-0.00095 -0.0019,-0.00285c0.0342,-2.8557 0.6023,-5.6658 0.8189,-8.50535c0.0988,-0.5149 0.15105,-1.01175 0.18335,-1.63115c-0.02945,-0.3173 0.03135,0.12445 0.3021,-0.19095c0.21565,-0.2508 0.342,0.3002 0.7125,0.4161c0.5377,0.17195 1.5143,0.4446 2.05865,0.5738c1.2084,0.2926 2.91175,0.67165 4.1667,0.67165c2.91175,0 5.58315,-0.0323 8.4759,-0.3819c3.36585,-0.4066 5.66865,-1.34805 8.8597,-2.44055c2.53175,-0.8683 5.08345,-2.755 7.61995,-3.6176c0.29165,0.7923 0.27455,1.72995 0.34295,2.5612c0.0874,1.0792 0.27645,2.15365 0.42275,3.2262c0.3173,2.3313 0.6631,4.6493 1.2179,6.9331c-0.0342,0.0342 -0.04465,0.0798 0.0304,0.1387c0.00095,0.00095 0.00095,0.00095 0.00095,0.0019c0.00665,0.02375 0.0114,0.04845 0.0171,0.0722c0.0114,0.04655 0.0608,0.07885 0.1178,0.10165c0.03325,0.0684 0.04465,0.14345 0.03705,0.2223c-0.0019,0.0266 -0.00855,0.0551 -0.0114,0.08265c-0.29545,1.18845 -4.44885,3.2205 -4.7652,3.33925c-2.96495,1.1343 -6.08475,1.6283 -9.2283,1.9589c-0.684,-0.62035 -0.3401,-2.6961 -0.31635,-3.47605c0.06175,-1.957 -0.2926,-3.89405 -0.6194,-5.814c-0.02185,-0.12065 -0.3363,-0.21565 -0.36005,-0.0627c-0.2375,1.56465 -0.69445,3.0894 -0.92245,4.6664c-0.1254,0.86545 -0.27265,1.72615 -0.38285,2.59255c-0.09975,0.7847 -0.36575,1.52855 -0.45885,2.30565c-0.0019,0.00855 0.0095,0.0152 0.0114,0.02375c-3.8285,0.1577 -7.6133,-0.31065 -11.3886,-0.8949c-0.68115,-0.1045 -1.52665,-0.1767 -2.39495,-0.3021c-0.8151,-0.13965 -1.6606,-0.32015 -2.4187,-0.58235c-0.98515,-0.38665 -1.79075,-0.988 -2.12705,-1.9855z" id="Fill_5_" fill="#c0e1e1"/>
        <path d="M258.18585,189.22744c0.87305,1.0317 -2.1679,2.7778 -2.8329,3.1635c-3.38485,1.9779 -7.6,2.49945 -11.4266,2.89275c-0.1235,0.01425 -0.27265,-0.11685 -0.23085,-0.1919c-0.58995,-0.62795 -0.41325,-2.01495 -0.39805,-2.75595c0.038,-1.86295 -0.13775,-3.65655 -0.4104,-5.47485c-0.0038,-0.019 -0.0076,-0.03895 -0.0095,-0.0589c-0.0038,0.01805 -0.0076,0.0361 -0.0114,0.0551c-0.2394,1.1875 -0.54245,2.3674 -0.7258,3.57485c-0.1292,0.86545 -0.27075,1.72615 -0.3819,2.59255c-0.0988,0.779 -0.3629,1.5181 -0.45505,2.2914c0.08835,0.0684 0.1292,0.1672 -0.02945,0.1748c-4.4118,0.209 -8.702,-0.4978 -13.05585,-1.08965c-2.07195,-0.28215 -5.168,-0.61655 -5.9546,-2.9355c0,-0.00285 -0.00285,-0.0038 -0.00285,-0.0057c0.00475,-0.38285 0.0228,-0.76475 0.04465,-1.14665c0.08645,-1.5257 0.2888,-3.0419 0.47975,-4.55905c0.209,-1.66155 0.3971,-3.325 0.37905,-5.00555c-0.0019,-0.17385 0.36195,-0.1102 0.36385,0.0342c0.0076,0.73625 -0.0304,1.46965 -0.08645,2.20115c-0.2166,2.83955 -0.7847,5.64965 -0.8189,8.50535c0.00095,0.00095 0.0019,0.00095 0.0019,0.0019c0.33535,0.9975 1.1419,1.59885 2.12705,1.9855c0.7448,0.29165 1.5903,0.4636 2.4187,0.58235c0.8683,0.12445 1.7138,0.1976 2.39495,0.3021c3.7753,0.58425 7.5601,1.0526 11.3886,0.8949c-0.0019,-0.0076 -0.0133,-0.01425 -0.0114,-0.02375c0.09215,-0.77805 0.3591,-1.52095 0.45885,-2.30565c0.1102,-0.8664 0.25745,-1.7271 0.38285,-2.59255c0.22895,-1.577 0.68495,-3.10175 0.92245,-4.6664c0.02375,-0.1539 0.33915,-0.05795 0.36005,0.0627c0.32585,1.91995 0.6802,3.85605 0.6194,5.814c-0.02375,0.77995 -0.36765,2.8557 0.31635,3.47605c3.14355,-0.3306 6.26335,-0.82555 9.2283,-1.9589c0.31635,-0.11875 4.46975,-2.1508 4.7652,-3.33925c0.00665,-0.0285 0.00855,-0.05605 0.0114,-0.08265c0.0076,-0.07885 -0.0038,-0.1539 -0.03705,-0.2223c-0.057,-0.0228 -0.1064,-0.05415 -0.1178,-0.10165c-0.0057,-0.02375 -0.01045,-0.04845 -0.0171,-0.0722c0,-0.00095 0,-0.00095 -0.00095,-0.0019c-0.07505,-0.05985 -0.0646,-0.10545 -0.0304,-0.1387c-0.5548,-2.2838 -0.9006,-4.6018 -1.2179,-6.9331c-0.1463,-1.0716 -0.3344,-2.14605 -0.42275,-3.2262c-0.0684,-0.83125 -0.05035,-1.7689 -0.34295,-2.5612c-0.00665,-0.01805 -0.0095,-0.03705 -0.01615,-0.0551c-0.07315,-0.1824 0.285,-0.1615 0.33725,-0.02755c0.57475,1.4706 0.46645,3.44185 0.68115,4.997c0.36385,2.66095 0.722,5.32 1.36325,7.9306z" id="Outline_10_" fill="#000000"/>
      </g>
      <g id="Sweater" stroke="none" stroke-width="1">
        <path d="M257.4306,177.58329c-0.02185,-0.09975 -0.13205,-0.1596 -0.2413,-0.1843c-0.0684,-0.1748 -0.1406,-0.32585 -0.22515,-0.42275c-0.0095,-0.0095 -0.0133,-0.076 -0.0152,-0.1444c0.3838,-0.1748 0.7619,-0.361 1.1248,-0.57665c0.4845,-0.28785 1.86865,-0.8854 1.9988,-1.4953c0.27835,-1.31195 -1.61785,-2.51845 -1.026,-3.80475c0.01045,-0.0247 -0.00665,-0.04275 -0.0095,-0.0646c1.2388,-1.4079 2.11185,-2.8937 1.4934,-5.1737c-0.50065,-1.84775 -1.47535,-3.62995 -2.2078,-5.3922c-0.7676,-1.843 -1.52285,-3.6993 -2.1261,-5.60405c-1.1932,-3.78005 -1.5922,-7.38625 -1.1096,-11.31545c0.00665,-0.05795 0.0133,-0.11495 0.0209,-0.1729c1.14,-1.88765 2.31135,-3.85985 1.97505,-6.1465c-0.03135,-0.2261 -0.52155,-0.2869 -0.4864,-0.03325c0.26885,1.83635 -0.45885,3.4447 -1.3433,4.97895c0.35245,-2.9279 0.6384,-5.83015 0.42085,-8.797c-0.0171,-0.22705 -0.5073,-0.2888 -0.4902,-0.0361c0.247,3.35065 -0.1938,6.5968 -0.56335,9.90185c-0.02565,0.04275 -0.02565,0.08265 -0.01425,0.12065c-0.02755,0.2527 -0.057,0.50445 -0.0836,0.7581c-0.34295,3.23855 -0.09785,6.3384 0.8113,9.48005c1.1039,3.81425 2.7873,7.3929 4.275,11.0599c0.8037,1.9779 1.01935,3.85985 -0.43035,5.59075c-0.89965,1.0773 -1.9817,1.98075 -2.87565,3.06375c-0.1615,0.1957 0.29355,0.39235 0.43795,0.21565c0.5548,-0.66975 1.15805,-1.2768 1.7271,-1.8791c0.0779,0.8759 0.8474,1.79075 1.07255,2.55645c0.2926,0.9937 -1.72615,1.88005 -2.4586,2.2363c-0.855,0.41515 -1.7404,0.75335 -2.64575,1.04975c-4.31015,1.425 -8.55,3.8399 -13.10715,4.3738c-4.57615,0.5377 -9.0725,0.64885 -13.63535,0.057c-0.91295,-0.11875 -1.8525,-0.36005 -2.7037,-0.7163c-0.9367,-0.38855 -1.83825,-0.7011 -1.3129,-1.8848c0.3762,-0.8493 0.5301,-1.2996 0.5624,-2.03965c0.2584,0.41895 0.51965,0.86355 0.4712,1.3338c-0.02375,0.2375 0.45505,0.35815 0.4769,0.1273c0.10545,-1.0374 -0.73815,-1.78695 -1.0944,-2.717c-0.532,-1.4003 -0.74575,-2.72935 -0.4959,-4.21325c0.4522,-2.69135 0.82935,-5.3637 0.9139,-8.09495c0.1615,-5.244 0.63365,-10.4329 1.4345,-15.61705c0.00095,-0.00855 -0.00855,-0.01425 -0.00855,-0.0228c0.0019,-0.01045 0.0133,-0.01235 0.0133,-0.0247c-0.0399,-1.0697 -0.29165,-2.1242 -0.4351,-3.1844c-0.00095,-0.0019 0,-0.0038 -0.00095,-0.0057c-0.00285,-0.01995 -0.00665,-0.0399 -0.0095,-0.05985c-0.0114,-0.09405 -0.1064,-0.1501 -0.20615,-0.1767c-0.9348,-0.9272 -1.87055,-1.78315 -2.546,-2.9431c-0.11115,-0.1919 -0.5985,-0.1767 -0.4598,0.0608c0.73245,1.2559 1.73945,2.166 2.75025,3.1768c0.14535,1.026 0.37715,2.0444 0.4199,3.0818c-0.76095,4.93905 -1.2464,9.8876 -1.4136,14.88365c-0.09595,2.983 -0.5054,5.8501 -0.93005,8.79795c-0.16055,1.1229 -0.1767,2.1945 0.1444,3.29555c0.14915,0.5092 0.32775,1.0089 0.54815,1.49245c-0.0304,0.02755 -0.0589,0.057 -0.05795,0.1083c0.02185,0.69825 0.0969,1.2692 -0.2185,1.9c-0.23655,0.47595 -0.6954,1.11245 -0.5966,1.65965c-0.4769,4.62555 -6.12085,5.3808 -9.75935,3.8038c-2.1033,-0.91105 -3.89975,-2.63815 -4.37855,-4.9685c-0.35815,-1.7366 0.21945,-3.35825 1.2464,-4.7633c0.69255,-0.94525 1.62925,-1.93705 1.8715,-3.1255c0.36575,-1.77365 0.0323,-3.6955 0.21375,-5.5043c0.1824,-1.8126 0.6365,-3.50835 1.07635,-5.26965c0.91485,-3.67555 0.93195,-7.4176 1.4174,-11.1587c0.49495,-3.78765 1.1666,-7.55345 1.5941,-11.3506c0.20805,-1.84015 0.3781,-3.68505 0.5738,-5.52615c0.1748,-1.6511 0.19285,-3.44565 0.9405,-4.9571c1.74895,-1.21695 3.5055,-2.48425 5.4454,-3.37535c2.2363,-1.0241 4.60845,-1.57035 7.0338,-1.93895c0.0437,-0.00665 0.0551,-0.02945 0.07885,-0.0456c0.20805,-0.02375 0.38285,-0.05605 0.38285,-0.05605l3.44375,-1.1476c0,0 2.85,4.275 7.56105,4.35385c4.71105,0.07885 4.86875,-3.87885 4.86875,-3.87885l4.4308,0.5301c1.30625,0.56525 2.66475,1.0925 3.8779,1.84585c1.32525,0.82365 2.60015,1.7347 3.90925,2.584c0.91105,1.5523 1.03075,3.458 1.30435,5.2079c0.2736,1.73565 0.52345,3.4751 0.8094,5.20885c0.57475,3.4789 1.3338,6.92265 1.99025,10.38635c0.6688,3.52355 0.86355,7.1763 1.691,10.659c0.75145,3.16065 1.94275,6.13985 2.22965,9.4069c0.19,2.2154 -0.342,5.38555 1.17705,7.25705c0.98895,1.21695 2.5935,2.2838 1.4839,4.04605c-0.551,0.87495 -1.25305,1.48675 -2.2154,1.83635c-2.96875,1.083 -8.9794,1.672 -9.80685,-2.4776z" id="Fill_4_" fill="#302d63"/>
        <path d="M268.5646,174.26304c0.741,0.91105 1.91995,1.53235 1.73565,2.90985c-0.2698,2.01305 -1.9589,3.0305 -3.74015,3.52545c-2.92125,0.81225 -7.7862,1.06305 -9.3442,-2.20305c-0.13775,-0.29545 -0.2128,-0.6251 -0.27645,-0.9443c-0.02565,-0.1368 0.1102,-0.17385 0.247,-0.14725c0.1102,0.0209 0.22135,0.08075 0.24225,0.1805c0.82745,4.1496 6.8381,3.5606 9.80685,2.4776c0.96235,-0.35055 1.6644,-0.9614 2.2154,-1.83635c1.10865,-1.7632 -0.49495,-2.8291 -1.4839,-4.04605c-1.5181,-1.8715 -0.98705,-5.04165 -1.17705,-7.25705c-0.2869,-3.26705 -1.4782,-6.24625 -2.22965,-9.4069c-0.82745,-3.4827 -1.0222,-7.13545 -1.691,-10.659c-0.6574,-3.46465 -1.41645,-6.9084 -1.99025,-10.38635c-0.28595,-1.73375 -0.53675,-3.4732 -0.8094,-5.20885c-0.2736,-1.74895 -0.3933,-3.65465 -1.30435,-5.2079c-1.3091,-0.8493 -2.58305,-1.76035 -3.90925,-2.584c-1.21315,-0.75335 -2.57165,-1.27965 -3.8779,-1.84585l-4.4308,-0.5301c0,0 -0.1577,3.9577 -4.86875,3.87885c-4.71105,-0.07885 -7.56105,-4.35385 -7.56105,-4.35385l-3.44375,1.1476c0,0 -0.1748,0.0323 -0.38285,0.05605c-0.02375,0.01615 -0.03515,0.03895 -0.07885,0.0456c-2.42535,0.3686 -4.7975,0.91485 -7.0338,1.93895c-1.9399,0.8911 -3.69645,2.15935 -5.4454,3.37535c-0.74765,1.5124 -0.7657,3.30695 -0.9405,4.9571c-0.1957,1.84015 -0.36575,3.68505 -0.5738,5.52615c-0.4275,3.79715 -1.09915,7.56295 -1.5941,11.3506c-0.48545,3.74015 -0.50255,7.48315 -1.4174,11.1587c-0.43985,1.76225 -0.89395,3.45705 -1.07635,5.26965c-0.18145,1.8088 0.152,3.73065 -0.21375,5.5043c-0.24225,1.18845 -1.17895,2.18025 -1.8715,3.1255c-1.02695,1.406 -1.60455,3.0267 -1.2464,4.7633c0.4788,2.33035 2.27525,4.05745 4.37855,4.9685c3.6385,1.577 9.2834,0.82175 9.75935,-3.8038c-0.09785,-0.5472 0.36005,-1.1837 0.5966,-1.65965c0.3154,-0.6308 0.24035,-1.20175 0.2185,-1.9c-0.00095,-0.0513 0.0285,-0.08075 0.05795,-0.1083c-0.06175,-0.13395 -0.1121,-0.2717 -0.1672,-0.4085c-0.69445,2.61155 -5.44255,3.5397 -7.6608,2.5251c-0.2964,-0.13585 -0.0342,-0.4123 0.21565,-0.2964c2.35505,1.07445 8.0712,-0.3857 6.9141,-3.82565c-0.0152,-0.04465 0.00285,-0.0722 0.0152,-0.10355c-0.1634,-0.8873 -0.1387,-1.76605 -0.00855,-2.67805c0.42465,-2.94785 0.8341,-5.81495 0.93005,-8.79795c0.1672,-4.99605 0.65265,-9.9446 1.4136,-14.88365c-0.04275,-1.0374 -0.2736,-2.0558 -0.4199,-3.0818c-1.0108,-1.01175 -2.0178,-1.92185 -2.75025,-3.1768c-0.1387,-0.2375 0.34865,-0.25175 0.4598,-0.0608c0.67545,1.15995 1.6112,2.0159 2.546,2.9431c0.09975,0.0266 0.1938,0.08265 0.20615,0.1767c0.00285,0.01995 0.00665,0.0399 0.0095,0.05985c0.00095,0.0019 0,0.0038 0.00095,0.0057c0.14345,1.06115 0.3952,2.1147 0.4351,3.1844c0,0.0114 -0.0114,0.01425 -0.0133,0.0247c0,0.0076 0.0095,0.0133 0.00855,0.0228c-0.80085,5.18415 -1.273,10.3721 -1.4345,15.61705c-0.05605,1.824 -0.24985,3.6214 -0.50255,5.41595c0.0988,-0.01235 0.2128,0.01615 0.26885,0.0988c5.20695,7.89735 17.0791,9.5 25.05435,5.12525c0.19095,-0.1045 0.60515,0.15295 0.36575,0.285c-8.1586,4.47925 -20.3243,2.8937 -25.7374,-5.14045c-0.1121,0.77045 -0.23275,1.5409 -0.36195,2.3123c-0.24985,1.48485 -0.0361,2.81295 0.4959,4.21325c0.35625,0.93005 1.19985,1.67865 1.0944,2.717c-0.02185,0.23085 -0.50065,0.1102 -0.4769,-0.1273c0.0475,-0.47025 -0.21375,-0.91485 -0.4712,-1.3338c-0.03135,0.74005 -0.1862,1.19035 -0.5624,2.03965c-0.52535,1.1837 0.3762,1.49625 1.3129,1.8848c0.8512,0.35625 1.79075,0.59755 2.7037,0.7163c4.5638,0.59185 9.06015,0.47975 13.63535,-0.057c4.55715,-0.53295 8.797,-2.9488 13.10715,-4.3738c0.90535,-0.2964 1.79075,-0.63365 2.64575,-1.04975c0.7334,-0.35625 2.75215,-1.24165 2.4586,-2.2363c-0.22515,-0.7657 -0.99465,-1.68055 -1.07255,-2.55645c-0.5681,0.6023 -1.1723,1.20935 -1.7271,1.8791c-0.1444,0.17575 -0.59945,-0.0209 -0.43795,-0.21565c0.89395,-1.083 1.976,-1.98645 2.87565,-3.06375c1.4497,-1.73185 1.23405,-3.61285 0.43035,-5.59075c-1.4877,-3.66795 -3.1711,-7.24565 -4.275,-11.0599c-0.9101,-3.1407 -1.15425,-6.2415 -0.8113,-9.48005c0.0266,-0.2527 0.05605,-0.5054 0.0836,-0.7581c-0.01045,-0.03705 -0.01045,-0.0779 0.01425,-0.12065c0.36955,-3.30505 0.81035,-6.55215 0.56335,-9.90185c-0.01615,-0.2527 0.4731,-0.19095 0.4902,0.0361c0.2185,2.96685 -0.0684,5.8691 -0.42085,8.797c0.88445,-1.53425 1.61215,-3.14165 1.3433,-4.97895c-0.03515,-0.25365 0.45505,-0.19285 0.4864,0.03325c0.33725,2.28665 -0.83505,4.25885 -1.97505,6.1465c-0.00665,0.05795 -0.0133,0.11495 -0.0209,0.1729c-0.4826,3.9292 -0.0836,7.5354 1.1096,11.31545c0.6023,1.9038 1.35755,3.76105 2.1261,5.60405c0.73245,1.7632 1.70715,3.5454 2.2078,5.3922c0.6194,2.28 -0.25365,3.7658 -1.4934,5.1737c0.00285,0.02185 0.0209,0.0399 0.0095,0.0646c-0.59185,1.28725 1.30435,2.4928 1.026,3.80475c-0.05795,0.26885 -0.3629,0.53485 -0.7239,0.7733c0.0019,0.0019 0.0057,0.00285 0.0076,0.00475c1.86865,1.70905 4.87065,3.2471 7.11075,1.40505c-0.44175,-0.1881 -1.11435,-0.0703 -1.53045,-0.03515c-0.54055,0.0456 -1.09345,0.1197 -1.63685,0.0589c-0.27075,-0.0342 -0.36385,-0.40755 -0.03895,-0.36955c1.06685,0.1235 2.8443,-0.5909 3.74205,0.21565c0.0095,0.00855 0.01235,0.0171 0.01995,0.02565c0.0114,0.01235 0.0209,0.0247 0.02945,0.038c0.00665,0.0095 0.01235,0.01995 0.01615,0.02945c0.0057,0.01425 0.0076,0.02755 0.00855,0.04275c0.00095,0.00855 0.00095,0.0171 -0.00095,0.0247c-0.0038,0.03325 -0.0171,0.0665 -0.0513,0.0988c-2.42535,2.25245 -5.90615,0.60325 -7.99045,-1.3034c-0.0095,-0.0095 -0.0133,-0.01805 -0.02185,-0.02755c-0.3648,0.21185 -0.73245,0.39235 -0.9386,0.5149c-0.3629,0.21565 -0.74195,0.40185 -1.1248,0.57665c-0.62035,0.28215 -1.2597,0.5263 -1.90285,0.7486c-4.8051,1.6644 -9.5855,4.25315 -14.7212,4.62365c-4.6284,0.33535 -9.2758,0.8018 -13.8472,-0.28785c-0.7999,-0.19095 -2.3693,-0.5529 -3.13405,-1.2768c-0.6745,3.23475 -3.9729,4.51345 -7.19815,4.24935c-1.52095,-0.12445 -3.04,-0.61655 -4.34055,-1.41455c-0.0551,-0.0342 -0.1102,-0.0684 -0.16435,-0.10355c-1.9038,-1.2255 -3.30125,-3.12835 -3.4542,-5.55465c-0.0608,-0.96235 0.21185,-1.786 0.62225,-2.5536c0.2299,-0.42845 0.5016,-0.84075 0.78565,-1.2464c0.90915,-1.2996 1.9266,-2.5479 1.957,-4.1876c0.02755,-1.6587 -0.0209,-3.29555 0.1463,-4.95045c0.19665,-1.9665 0.79705,-3.8266 1.24925,-5.74085c0.8987,-3.8019 0.8607,-7.8147 1.38985,-11.68215c0.5339,-3.92065 1.1913,-7.82135 1.60265,-11.761c0.1786,-1.6872 0.3363,-3.38105 0.52725,-5.0673c0.133,-1.18085 0.2527,-2.31135 0.7163,-3.38675c-0.0722,-0.06555 -0.0969,-0.15105 0.00285,-0.2204c0.0437,-0.03135 0.08835,-0.06175 0.133,-0.09215c0.02755,-0.05415 0.0418,-0.1102 0.07125,-0.16435c0.0475,-0.08645 0.15865,-0.0969 0.26125,-0.06935c1.61215,-1.12005 3.23,-2.23155 4.9932,-3.1046c2.1945,-1.08585 4.59705,-1.6435 7.00245,-2.0273c0.00095,-0.00095 0,-0.00095 0.00095,-0.0019l0.01805,-0.00095c0.0532,-0.0076 0.10735,-0.0171 0.16055,-0.02565c0.0741,-0.01235 0.14915,-0.0247 0.2242,-0.0361c0.0551,-0.00855 0.10735,0.0076 0.15485,0.02945l4.19235,-1.3129c0,0 2.81105,4.11635 7.28365,4.3149c4.4726,0.19855 4.4726,-3.87885 4.4726,-3.87885c0,0 4.6265,0.50445 5.0445,0.66785c0.31635,0.13775 0.6346,0.27265 0.95285,0.4104c0.99845,0.43035 1.995,0.8759 2.926,1.4364c0.893,0.53865 1.75655,1.12575 2.6201,1.71285c0.2831,0.1938 0.5681,0.3838 0.85405,0.5738c0.19475,0.13015 0.3876,0.26505 0.58425,0.39235c0.0722,0.04655 0.09595,0.0931 0.09215,0.1349c0.7885,1.3414 0.9348,2.8538 1.18465,4.3662c0.33915,2.0482 0.6289,4.10495 0.96045,6.1541c0.6384,3.9539 1.5295,7.86505 2.25435,11.80565c0.7239,3.95295 0.9557,7.9496 2.12325,11.8104c0.475,1.5732 0.96995,3.09035 1.2559,4.7139c0.32585,1.84775 0.40185,3.7278 0.4598,5.60025c0.04275,1.3984 0.18715,2.70845 1.0982,3.82945z" id="Outline_9_" fill="#010101"/>
      </g>
      <path d="M235.30665,101.39346c0.28025,0.06175 0.90268,1.033 0.61673,0.9684c-0.88368,-0.19646 -1.34258,-0.571 -2.18453,-0.90357c-1.51368,-0.59792 -3.01162,-0.88594 -3.61047,0.62737c-0.04275,0.10735 0.4256,0.25745 0.47785,0.1273c0.8341,-2.10425 2.73202,-1.25555 4.70042,-0.8195z" data-paper-data="{&quot;origPos&quot;:null}" id="L_Eyebrow" fill="#000000" stroke="none" stroke-width="1"/>
      <path d="M241.91157,102.51119c0,0 0.30448,-0.00866 0.49937,-0.34971c0.1018,-0.17816 0.26086,-0.84965 0.26086,-0.84965c1.8145,-0.68495 4.21325,-2.35731 5.3238,-0.42311c0.0722,0.1254 0.51965,0.15865 0.4731,0.0779c-0.67301,-1.1718 -2.52741,-0.57645 -3.77326,-0.0531c-0.61574,0.25866 -0.35844,-0.02295 -0.97109,0.24295c-0.82035,0.35604 -0.34389,0.60524 -1.1809,0.92012c-0.1596,0.05985 -0.74778,0.47639 -0.63188,0.43459z" data-paper-data="{&quot;origPos&quot;:null}" id="R_Eyebrow" fill="#000000" stroke="none" stroke-width="1"/>
      <g data-paper-data="{&quot;origPos&quot;:null}" id="Neck" stroke="none" stroke-width="1">
        <path d="M242.28422,124.48045c-4.21325,0.2109 -6.61485,-2.3712 -7.40335,-3.4048l0.209,-2.736l0.06935,-0.92245c0.05985,0.0323 0.11875,0.06555 0.17955,0.095c2.3123,1.1267 5.2497,2.375 7.8584,2.4263c0.04085,0.00095 0.06935,-0.00285 0.0893,-0.0076c0.00095,0 0.0019,0 0.0019,0c0.6479,-0.15295 1.2673,-0.44365 1.8544,-0.80085c0.0209,2.18215 1.90665,1.8848 2.34365,1.786c-0.1881,1.03835 -1.0659,3.3573 -5.2022,3.5644z" data-paper-data="{&quot;origPos&quot;:null}" id="Fill_1_" fill="url(#color-1)"/>
        <path d="M235.09082,118.33965l-0.21755,2.85095l-0.19475,-0.28025l-0.1216,-0.1748l0.2375,-2.75215l0.1482,-0.8911l0.2375,0.05985l-0.01995,0.2641l-0.06935,0.9234" id="L_Side" fill="#000000"/>
        <path d="M247.57952,120.89325c0,0 -2.41205,0.70585 -2.4358,-1.76415c-0.00095,-0.0969 -0.0057,-0.1881 0.00095,-0.2945h0.2375c0,0 -0.25745,2.29615 2.1774,1.8411l0.0171,0.1824z" id="R_Side" fill="#000000"/>
      </g>
      <g id="Collar_3_" stroke="none" stroke-width="1">
        <path d="M245.6449,119.74634c0.14345,-0.18715 -0.3097,-0.3686 -0.4408,-0.2071c-0.038,0.04845 -0.07125,0.1007 -0.1083,0.1501c0.0019,-0.0323 0.0019,-0.12825 0.0019,-0.09595c0.0038,0.6783 -0.58995,-0.72675 -0.0836,-0.93005l0.0171,-0.01045c0.0285,0.0228 0.05225,0.04845 0.10165,0.0608c1.71855,0.44555 3.69455,1.0621 5.1072,2.20305c-1.30815,2.87375 -2.86615,5.75225 -3.8342,8.7666c-0.8037,-0.85595 -1.59695,-1.72425 -2.3959,-2.5859c-0.4104,-0.4408 -0.81985,-0.8816 -1.23975,-1.3129c-0.6061,-0.6251 -0.87495,-0.9006 -0.1824,-1.6131c0.53485,-0.54815 0.9633,-1.1742 1.3661,-1.8202c0.0741,-0.11875 0.14915,-0.23655 0.22135,-0.35625c0.46455,-0.76665 0.91295,-1.54755 1.46965,-2.24865z" data-paper-data="{&quot;origPos&quot;:null}" id="R_Fill" fill="#c0e1e1"/>
        <path d="M235.46755,128.15859c-0.07695,-0.1121 -0.1615,-0.2128 -0.31635,-0.2869c-0.00855,-0.00475 -0.0152,-0.01045 -0.02375,-0.01425c-0.703,-0.6118 -1.3813,-1.2426 -1.9589,-1.9437c-0.36575,-0.4465 -3.44755,-4.13535 -2.87375,-4.5828c0.01425,-0.0095 0.0285,-0.0171 0.038,-0.03135c0.93005,-1.3471 2.50895,-2.20685 3.9045,-3.03145c0.00665,0.00855 0.0133,0.0171 0.01995,0.02565c0.22135,0.3059 0.456,0.6023 0.7011,0.89015c0.35055,0.41135 0.71725,0.81035 1.10675,1.18845c0.09025,0.0874 0.1843,0.1691 0.2755,0.2546c1.16375,1.08965 2.4567,2.05485 3.7468,2.94785c0.6859,0.47785 1.4839,0.73815 0.9367,1.64825c-0.3933,0.6498 -0.7866,1.30245 -1.159,1.9665c-0.59755,1.0678 -0.9709,2.2534 -1.62925,3.28415c-0.8854,-0.78565 -1.84585,-1.5333 -2.7683,-2.31515z" id="L_Fill" fill="#c0e1e1"/>
        <path d="M250.74925,120.94999c-0.0019,0.0076 0.0076,0.0133 0.00285,0.01995c-1.3642,3.00485 -3.0172,6.01255 -3.9805,9.177c-0.00855,0.02565 -0.0304,0.0456 -0.0627,0.05985c-0.1007,0.07885 -0.2983,0.0437 -0.3819,-0.0589c-1.0203,-1.06875 -2.0102,-2.166 -3.0153,-3.25185c-0.45695,-0.4921 -1.41075,-1.1115 -1.634,-1.824c-0.6061,0.988 -1.22075,1.976 -1.73945,3.01055c-0.47595,0.94525 -0.77425,1.9361 -1.38795,2.812c-0.09595,0.1368 -0.32585,0.0456 -0.4161,-0.03895c-2.01305,-1.84205 -4.29495,-3.44375 -5.9831,-5.6012c-0.4009,-0.5092 -2.9165,-3.39435 -2.26955,-4.13345c0.00475,-0.0095 0.0038,-0.019 0.01045,-0.02945c1.00225,-1.45065 2.72555,-2.3446 4.2047,-3.2262c0.1387,-0.08265 0.3287,-0.01615 0.41325,0.1083c0.0019,0.00285 0.0038,0.0057 0.0057,0.00855c1.8639,2.71605 4.66925,4.4365 7.2523,6.37165c0.16625,-0.2337 0.4351,-0.44365 0.5871,-0.59755c0.38855,-0.39995 0.69445,-0.89205 0.9994,-1.35565c0.494,-0.7619 0.9329,-1.56085 1.4497,-2.30945c0.09405,-0.1368 0.19285,-0.2698 0.29165,-0.4028c0.03705,-0.0494 0.0703,-0.10165 0.1083,-0.1501c0.13015,-0.1615 0.58235,0.0209 0.43985,0.2071c-0.5567,0.70205 -1.0051,1.482 -1.46965,2.24865c-0.0722,0.11875 -0.14725,0.2375 -0.22135,0.35625c-0.4028,0.646 -0.8322,1.27205 -1.3661,1.8202c-0.69255,0.7125 -0.42465,0.988 0.1824,1.6131c0.42085,0.4313 0.82935,0.8721 1.23975,1.3129c0.798,0.86165 1.59125,1.7309 2.3959,2.5859c0.9671,-3.0153 2.52605,-5.89285 3.8342,-8.7666c-1.41265,-1.14095 -3.38865,-1.75655 -5.1072,-2.20305c-0.04845,-0.01235 -0.07315,-0.038 -0.10165,-0.0608c-0.1444,-0.11305 -0.05985,-0.31065 0.18715,-0.24795c0.3021,0.0779 0.6118,0.16435 0.92435,0.2546c0.07885,0.0228 0.15865,0.04655 0.23845,0.0703c1.5276,0.456 3.11125,1.0773 4.2902,2.07385c0.0057,0.00475 0.00665,0.00855 0.0114,0.0133c0.0266,0.01805 0.04085,0.0361 0.0532,0.05985c0.0152,0.02755 0.01805,0.05225 0.01425,0.0741zM233.1695,125.91184c0.5776,0.7011 1.25495,1.3319 1.9589,1.94275c0.11495,0.09975 0.2242,0.2033 0.3401,0.3021c0.92245,0.78185 1.8829,1.5295 2.7683,2.31515c0.65835,-1.03075 1.0317,-2.21635 1.62925,-3.28415c0.3724,-0.66405 0.7657,-1.31575 1.159,-1.9665c0.5472,-0.9101 -0.24985,-1.1704 -0.9367,-1.64825c-1.2901,-0.89395 -2.5821,-1.85915 -3.7468,-2.94785c-0.0912,-0.0855 -0.18525,-0.1672 -0.2755,-0.2546c-0.3895,-0.3781 -0.7562,-0.7771 -1.10675,-1.18845c-0.24605,-0.28785 -0.47975,-0.58425 -0.7011,-0.89015c-0.00665,-0.00855 -0.0133,-0.0171 -0.01995,-0.02565c-1.39555,0.8246 -2.97445,1.6853 -3.9045,3.03145c-0.0095,0.01425 -0.02375,0.02185 -0.038,0.03135c-0.57475,0.44745 2.508,4.13725 2.87375,4.5828z" id="Outline_6_" fill="#000000"/>
      </g>
      <path d="M252.02267,103.39137c0.72295,-0.3173 1.1096,-0.21755 1.16185,0.29735c0.04085,0.24225 0.06175,0.4864 0.0589,0.73245c-0.0247,0.4826 -0.0874,0.9538 -0.25175,1.41265c-0.1919,0.5339 -0.4218,1.0526 -0.64505,1.57225c-0.0247,-0.92815 -0.13965,-1.85915 -0.33915,-2.7778c0.0038,-0.00855 0.02185,-0.0095 0.01995,-0.0209c-0.05605,-0.37335 -0.0532,-0.7866 -0.0247,-1.20745c0.0038,-0.00475 0.0171,-0.00285 0.01995,-0.00855z" data-paper-data="{&quot;origPos&quot;:null}" id="R_Ear" fill="#cbe7b7" stroke="none" stroke-width="1"/>
      <path d="M248.13527,116.09382c-0.4712,0.4845 -0.95665,0.9519 -1.46775,1.3756c-1.1001,0.9063 -2.30945,1.8962 -3.72115,2.24295c-2.47475,-0.06365 -5.4283,-1.2958 -7.5848,-2.4244c-2.70085,-1.4079 -5.0103,-3.41715 -6.02585,-6.3631c-0.019,-0.05415 -0.11115,-0.09025 -0.2071,-0.1121c-0.00665,-0.02565 -0.0171,-0.0551 -0.0228,-0.0798c0.076,-0.095 0.15105,-0.19095 0.2204,-0.29355c0.05035,-0.07125 -0.3895,-0.2565 -0.475,-0.12825c-0.58235,0.8607 -1.33475,1.29295 -2.38355,0.48165c-0.3762,-0.28785 -0.76285,-0.57095 -1.0887,-0.9158c-0.5434,-0.5757 -1.07635,-1.24925 -1.27395,-2.0387c-0.2527,-1.0089 0.1121,-3.92065 1.4592,-4.18c0.01805,-0.0038 0.0361,-0.0076 0.0551,-0.01045c0.31255,-0.04275 0.67545,0.05225 1.09535,0.3458c0.09785,0.0665 0.5776,0.1121 0.3743,-0.0285c-0.08835,-0.0608 -0.171,-0.09785 -0.25555,-0.14725c-0.8702,-9.5038 0.8227,-17.7289 14.9245,-16.7789c13.65055,0.92055 10.6609,12.8782 10.4234,13.75315c-0.0019,0.00285 -0.01045,0.00095 -0.01235,0.00475c-0.5035,0.95 -0.72865,2.27525 -0.63555,3.3896c-0.0418,0.00855 -0.06745,0.0266 -0.05985,0.0589c0.71725,3.0229 0.6517,6.54265 -1.1495,9.1865c-0.4389,0.64125 -0.9291,1.26255 -1.44875,1.8601c-0.2508,0.2622 -0.49685,0.52915 -0.74005,0.8018z" id="Head_Fill" fill="#a86c35" stroke="none" stroke-width="1"/>
      <path d="M253.48947,103.29067c0.7885,1.80215 -0.51965,3.6366 -1.08965,5.29815c-0.00855,0.02565 -0.0437,0.03325 -0.07885,0.0399c-0.12635,1.85345 -0.65265,3.6556 -1.74135,5.2516c-0.9538,1.40315 -2.19355,2.64575 -3.46465,3.7582c-0.46075,0.4028 -0.9614,0.81035 -1.4915,1.17515c0.00855,0.00285 0.01425,0.0076 0.02185,0.01045c-0.171,0.0722 -0.32395,0.1634 -0.4598,0.2736c-0.59945,0.3686 -1.23405,0.6688 -1.89715,0.82555c-0.00095,0 -0.0019,0 -0.0019,0c-0.01995,0.0057 -0.0494,0.00855 -0.0893,0.0076c-2.6087,-0.0513 -5.54515,-1.2996 -7.8584,-2.4263c-0.09975,-0.04845 -0.1938,-0.1045 -0.2926,-0.15485c0.00095,0.0038 0.0019,0.0076 0.00285,0.0114c-0.1292,-0.09025 -0.2736,-0.16245 -0.43035,-0.22135c0.0076,-0.0019 0.01235,-0.00475 0.01995,-0.0057c-2.54125,-1.38225 -4.7234,-3.3972 -5.7247,-6.16835c-0.44555,0.475 -1.0013,0.7619 -1.71475,0.4807c-1.2844,-0.50445 -2.4263,-1.59505 -3.1521,-2.7455c-1.23025,-1.9437 -0.09975,-5.85675 2.24485,-5.1262c0.08455,0.0266 0.16625,0.0437 0.25365,0.08265c-0.1406,-1.0013 -1.41835,-11.0181 3.28985,-14.21105c2.71605,-1.8411 5.3352,-2.7474 8.2555,-2.926c2.26005,-0.13775 4.7044,0.16245 7.5126,0.8094c0.1862,0.0437 0.36955,0.08265 0.55955,0.12825c6.7393,1.63305 7.676,9.68335 6.49515,13.4216c0,0 -0.01045,0.0095 -0.0266,0.0228c0.0019,0.0076 0.01805,0.0171 0.01425,0.02375c-0.28595,0.5396 -0.4845,1.21315 -0.58805,1.89715c0.02185,-0.0095 0.0494,-0.0095 0.0722,-0.0171c0.50065,-0.17195 1.12765,-0.04845 1.35945,0.4845zM250.32407,113.43097c1.8012,-2.64385 1.86675,-6.1636 1.1495,-9.18555c-0.0076,-0.0323 0.0171,-0.05035 0.05985,-0.0589c-0.0931,-1.11435 0.13205,-2.4396 0.63555,-3.3896c0.0019,-0.0038 0.01045,-0.0019 0.01235,-0.00475c0.2375,-0.87495 3.2281,-12.83355 -10.4234,-13.75315c-14.1018,-0.95 -15.7947,7.2751 -14.9245,16.7789c0.0855,0.0494 0.16815,0.08645 0.25555,0.14725c0.20235,0.1406 -0.27645,0.09405 -0.3743,0.0285c-0.4199,-0.2926 -0.7828,-0.38855 -1.09535,-0.3458c-0.019,0.00285 -0.03705,0.0076 -0.0551,0.01045c-1.3471,0.25935 -1.7119,3.1711 -1.4592,4.18c0.1976,0.78945 0.73055,1.463 1.27395,2.0387c0.32585,0.34485 0.7125,0.62795 1.0887,0.9158c1.04785,0.81035 1.80025,0.38 2.38165,-0.47975c0,-0.00095 -0.00095,-0.00095 -0.00095,-0.0019c0.38095,-1.00985 -1.3129,-0.62415 -1.85155,-0.69065c-0.83885,-0.09975 -1.57795,-0.49115 -1.91995,-1.29295c-0.04275,-0.09975 0.4142,-0.05415 0.4731,0.0779c0.6118,1.42595 1.91805,0.80845 3.0685,0.89205c0.57475,0.04085 0.9424,0.5149 0.7068,1.14095c-0.06935,0.1026 -0.1444,0.19855 -0.2204,0.29355c-0.01615,0.01995 -0.0304,0.0418 -0.04655,0.06175c0.02375,0.00285 0.0456,0.01235 0.06935,0.01805c0.09595,0.02185 0.1881,0.05795 0.2071,0.1121c1.0165,2.945 3.325,4.9552 6.02585,6.3631c2.1565,1.12955 5.111,2.36075 7.5848,2.4244c1.4117,-0.34675 2.62105,-1.3357 3.72115,-2.24295c0.513,-0.4237 0.99845,-0.8911 1.4687,-1.3756c0.25365,-0.26125 0.5016,-0.5263 0.74005,-0.8018c0.5187,-0.5966 1.00985,-1.2179 1.44875,-1.8601zM252.99167,105.83382c0.16435,-0.45885 0.22705,-0.9291 0.2508,-1.4136c0.00285,-0.2451 -0.0171,-0.48925 -0.0589,-0.73245c-0.0513,-0.51395 -0.43795,-0.6137 -1.1609,-0.2964c-0.0019,0.0057 -0.0152,0.0038 -0.01995,0.00855c-0.02945,0.42085 -0.0323,0.8341 0.0247,1.20745c0.0019,0.0114 -0.0152,0.01235 -0.01995,0.0209c0.1995,0.91865 0.31445,1.84965 0.33915,2.7778c0.2242,-0.51965 0.45315,-1.03835 0.64505,-1.57225z" data-paper-data="{&quot;origPos&quot;:null}" id="Outline_4_" fill="#000000" stroke="none" stroke-width="1"/>
      <path d="M250.36233,113.30527c-0.4389,0.6422 -0.93523,1.2688 -1.45393,1.8654c-0.23845,0.2755 -0.489,0.5427 -0.74265,0.80395c-0.47025,0.4845 -0.96077,0.95532 -1.47377,1.37902c-1.1001,0.90725 -2.32129,1.90126 -3.73299,2.24801c-2.4738,-0.06365 -5.45227,-1.29406 -7.60877,-2.42361c-2.70085,-1.4079 -5.03717,-3.43476 -6.05367,-6.37976c-0.019,-0.05415 -0.11174,-0.09096 -0.20769,-0.11281c-0.02375,-0.0057 -0.04575,-0.01539 -0.0695,-0.01824c0.01615,-0.01995 0.03035,-0.04186 0.0465,-0.06181c0.076,-0.095 0.1508,-0.19126 0.22015,-0.29386c0.2356,-0.62605 -0.13541,-1.10491 -0.71016,-1.14576c-1.15045,-0.0836 -2.46057,0.52617 -3.07237,-0.89978c-0.0589,-0.13205 -0.42258,-0.21371 -0.37983,-0.11396c0.342,0.8018 1.07803,1.18657 1.91688,1.28632c0.53865,0.0665 2.22905,-0.32458 1.8481,0.68527c0,0.00095 -0.07959,0.06023 -0.07959,0.06118c-0.5814,0.85975 -1.33586,1.28707 -2.38371,0.47672c-0.3762,-0.28785 -0.76515,-0.57502 -1.091,-0.91987c-0.5434,-0.5757 -1.07939,-1.25671 -1.27699,-2.04616c-0.2527,-1.0089 0.10979,-3.93448 1.45689,-4.19383c0.01805,-0.00285 0.13607,-0.01008 0.15507,-0.01293c0.31255,-0.04275 0.67539,0.0516 1.09529,0.3442c0.09785,0.06555 0.47681,0.11771 0.27446,-0.02289c-0.0874,-0.0608 -0.17008,-0.09855 -0.25558,-0.14795c-0.8702,-9.5038 0.88296,-17.77991 14.98476,-16.82991c13.6515,0.9196 10.69977,12.91809 10.46227,13.79304c-0.0019,0.00285 -0.01045,0.00096 -0.01235,0.00476c-0.5035,0.95 -0.72793,2.28748 -0.63483,3.40183c-0.04275,0.00855 -0.06747,0.02684 -0.05987,0.05914c0.71725,3.02195 0.64008,6.57044 -1.16112,9.21429z" data-paper-data="{&quot;noHover&quot;:false,&quot;origItem&quot;:[&quot;Path&quot;,{&quot;applyMatrix&quot;:true,&quot;segments&quot;:[[[248.32405,113.29765],[0,0],[1.8012,-2.64385]],[[249.47355,104.1121],[0.71725,3.02195],[-0.0076,-0.0323]],[[249.5334,104.0532],[-0.04275,0.00855],[-0.0931,-1.11435]],[[250.16895,100.6636],[-0.5035,0.95],[0.0019,-0.0038]],[[250.1813,100.65885],[-0.0019,0.00285],[0.2375,-0.87495]],[[239.7579,86.9057],[13.6515,0.9196],[-14.1018,-0.95]],[[224.8334,103.6846],[-0.8702,-9.5038],[0.0855,0.0494]],[[225.08895,103.83185],[-0.0874,-0.0608],[0.20235,0.1406]],[[224.71465,103.86035],[0.09785,0.06555],[-0.4199,-0.2926]],[[223.6193,103.51455],[0.31255,-0.04275],[-0.019,0.00285]],[[223.5642,103.525],[0.01805,-0.00285],[-1.3471,0.25935]],[[222.105,107.705],[-0.2527,-1.0089],[0.1976,0.78945]],[[223.37895,109.7437],[-0.5434,-0.5757],[0.32585,0.34485]],[[224.46765,110.6595],[-0.3762,-0.28785],[1.04785,0.81035]],[[226.8493,110.17975],[-0.5814,0.85975],[0,-0.00095]],[[226.84835,110.17785],[0,0.00095],[0.38095,-1.00985]],[[224.9968,109.4872],[0.53865,0.0665],[-0.83885,-0.09975]],[[223.07685,108.19425],[0.342,0.8018],[-0.04275,-0.09975]],[[223.54995,108.27215],[-0.0589,-0.13205],[0.6118,1.42595]],[[226.61845,109.1642],[-1.15045,-0.0836],[0.57475,0.04085]],[[227.32525,110.30515],[0.2356,-0.62605],[-0.06935,0.1026]],[[227.10485,110.5987],[0.076,-0.095],[-0.01615,0.01995]],[[227.0583,110.66045],[0.01615,-0.01995],[0.02375,0.00285]],[[227.12765,110.6785],[-0.02375,-0.0057],[0.09595,0.02185]],[[227.33475,110.7906],[-0.019,-0.05415],[1.0165,2.945]],[[233.3606,117.1537],[-2.70085,-1.4079],[2.1565,1.12955]],[[240.9454,119.5781],[-2.4738,-0.06365],[1.4117,-0.34675]],[[244.66655,117.33515],[-1.1001,0.90725],[0.513,-0.4237]],[[246.13525,115.95955],[-0.47025,0.4845],[0.25365,-0.26125]],[[246.8753,115.15775],[-0.23845,0.2755],[0.5187,-0.5966]],[[248.32405,113.29765],[-0.4389,0.6422],[0,0]]],&quot;closed&quot;:true,&quot;fillColor&quot;:[0,0,0,1]}],&quot;origPos&quot;:null}" fill="url(#color-2)" stroke="none" stroke-width="0.5"/>
      <path d="M224.44987,106.00672c0.04845,-0.9329 1.08775,-1.09725 1.8411,-0.90915c1.24925,0.3173 1.75655,1.57415 2.63435,2.39875c0.114,0.1083 -0.34485,0.05985 -0.4351,-0.02375c-0.59945,-0.56335 -1.026,-1.27395 -1.6036,-1.8544c-0.62795,-0.6289 -1.9114,-0.4712 -1.95985,0.51775c-0.0057,0.1026 -0.48355,0.0171 -0.4769,-0.1292z" id="L_Ear" fill="#000000" stroke="none" stroke-width="1"/>
      <g data-paper-data="{&quot;origPos&quot;:null}" id="Hair" stroke="#000000" stroke-width="0.5">
        <path d="M253.16932,99.30355c0.0019,0.8968 0.057,1.98265 -0.50825,2.73125c-0.22135,0.2907 -0.46075,0.5567 -0.6688,0.8455l-0.09215,0.09595c0.04845,-0.14915 0.1976,-0.95665 0.3325,-1.98645c0.13015,0.10355 0.40755,0.0931 0.42655,-0.10355c0.23465,-3.38105 0.0817,-7.94295 -3.22335,-9.90755c-0.8854,-0.52915 -1.8715,-0.81225 -2.888,-0.9462c-1.57985,-0.2071 -3.1749,-0.43225 -4.7633,-0.51015c-2.9298,-0.14345 -6.12655,-0.13585 -8.8635,1.04785c-1.79075,0.7752 -3.9672,2.10615 -4.82125,3.9425c-0.8455,1.80975 -1.36325,4.3871 -0.6004,6.3175c0.4617,1.17135 1.0298,2.35125 1.5637,3.49315c0.18715,0.4104 0.49495,0.7904 0.6555,1.20745c0.18525,0.48925 -0.2926,0.83505 -0.703,1.0963c-0.4883,-1.026 -0.99845,-1.94845 -1.7651,-2.8196c-0.04845,-0.05605 -0.12825,-0.08075 -0.2071,-0.08455c-0.0133,-0.0228 -0.0285,-0.0456 -0.0551,-0.06935c-0.62985,-0.57665 -1.13715,-1.25875 -1.5314,-2.01685c0.00475,-0.01425 0.0209,-0.01805 0.02185,-0.03515c0.00475,-0.13585 -0.038,-0.22895 -0.1387,-0.32015c-0.14725,-0.1292 -0.1957,-0.37715 -0.2451,-0.55765c-0.0855,-0.323 -0.1083,-0.627 -0.29735,-0.8968c-0.095,-0.4294 -0.15485,-0.86355 -0.1881,-1.30055c0.0133,-0.02755 0.00855,-0.05985 -0.0095,-0.09595c-0.00095,-0.0247 -0.0057,-0.04845 -0.00665,-0.0722c-0.0057,-0.0779 -0.06935,-0.12635 -0.1444,-0.1596c-0.1862,-0.4028 0.15485,-0.81415 0.23845,-1.2445c0.01235,-0.0589 -0.00855,-0.11115 -0.04655,-0.152c0.05795,-0.51585 0.15105,-1.0241 0.2774,-1.5276c0.0304,-0.0095 0.05795,-0.0247 0.0798,-0.0475c0.26695,-0.2869 0.16815,-0.64885 0.2242,-1.0013c0.06365,-0.3952 0.41325,-0.6327 0.49495,-1.0222c0.0076,-0.03325 -0.01425,-0.05795 -0.0247,-0.0855c0.24035,-0.50635 0.50635,-0.99655 0.81035,-1.4687c0.0114,-0.0171 0.0133,-0.0342 0.0171,-0.0513c0.07885,-0.0703 0.1463,-0.15105 0.1596,-0.2584c0.0209,-0.1368 -0.00855,-0.28405 0.019,-0.41895c0.07885,-0.4028 0.6365,-0.6498 0.96995,-0.81985c0.0266,-0.0133 0.04275,-0.02945 0.0589,-0.0456c0,-0.00095 0.00095,-0.00095 0.00095,-0.00095v0c0.00665,-0.00665 0.0133,-0.01235 0.01805,-0.01805c0.4484,-0.494 0.9424,-0.9386 1.4706,-1.34615c0.1406,0.04465 0.31255,0.0152 0.3116,-0.14345c-0.0057,-1.1058 1.51715,-1.08585 2.2876,-1.30625c0.09405,-0.02755 0.1178,-0.07885 0.1045,-0.13395c0.5738,-0.2508 1.15615,-0.4712 1.75275,-0.6555c0.10925,0.04655 0.2527,0.05035 0.3268,-0.03325c0.5605,-0.6251 1.2236,-0.7619 2.01305,-0.51585c0.0095,0.0038 0.01425,-0.0019 0.02375,0c0.0076,-0.00095 0.0133,0.00475 0.0209,0.0038c0.0133,-0.0019 0.0266,-0.00285 0.0399,-0.00475c0.0399,0 0.07885,0.0019 0.10735,-0.01425c0.70965,-0.10165 1.42025,-0.17575 2.1375,-0.21945c0.0247,-0.00095 0.02565,-0.0152 0.04465,-0.01995c0.02755,0.01235 0.05035,0.03325 0.0855,0.03515c0.4997,0.03135 0.9842,0.01995 1.4801,-0.05415c0.5776,-0.0855 1.25115,-0.20615 1.8012,0.06175c0.0114,0.0019 0.0171,0.0114 0.02945,0.01235c0.0038,0 0.00665,0.00095 0.01045,0.00095c0.0703,0.038 0.13775,0.03705 0.19665,0.019c0.44365,0.03515 0.8873,0.0741 1.32905,0.1254c0.0665,0.0076 0.1045,-0.01045 0.1387,-0.03135c0.09405,0.0475 0.21185,0.0646 0.29165,0.01235c0.63745,-0.4123 1.5504,0.2185 2.19925,0.36195c0.0152,0.00285 0.02185,-0.00475 0.0361,-0.0038c0.01045,0.00285 0.01615,0.01235 0.0285,0.0133c0.77995,0.08265 2.1375,0.1311 2.5137,0.96045c0.05795,0.1292 0.26885,0.17195 0.3895,0.12255c0.77995,0.1748 1.27965,0.86925 1.66915,1.5238c0.0057,0.0095 0.01615,0.0171 0.0247,0.0266c0.0019,0.0304 0.01235,0.0627 0.0456,0.10165c0.4522,0.5301 0.97375,1.0526 1.1134,1.7613c0.0133,0.06555 0.06555,0.11115 0.12825,0.1444c0.7011,0.7258 1.51715,1.7822 1.07635,2.8253c-0.0513,0.0342 -0.076,0.08835 -0.03895,0.16815c0.42465,0.92245 0.5168,2.0558 0.23845,3.0324c-0.0057,0.019 0.0114,0.03135 0.01235,0.0494c-0.05415,0.0342 -0.08265,0.0893 -0.04655,0.1729c0.26885,0.62035 0.32965,1.42595 0.01235,2.04155c-0.03325,0.0646 -0.0171,0.12255 0.0171,0.1729z" id="Fill" fill="url(#color-3)"/>
        <path d="M253.60536,97.04253c0.0152,-0.0171 0.0399,-0.02185 0.0475,-0.0475c0.28595,-1.0146 0.1957,-2.18595 -0.2318,-3.1521c0.0057,-0.00855 0.019,-0.00855 0.0228,-0.019c0.51965,-1.16565 -0.41135,-2.394 -1.19035,-3.1901c-0.0114,-0.0114 -0.02565,-0.01805 -0.03895,-0.0266c-0.0861,-0.33556 -1.11279,-3.33065 -1.29682,-3.62416c-0.26867,-0.42849 0.46911,2.18096 0.14067,1.79636c-0.00095,-0.00095 -0.0019,-0.00095 -0.00285,-0.0019c-0.00475,-0.0114 -0.0038,-0.02185 -0.0114,-0.03515c-0.48545,-0.8189 -1.1191,-1.6606 -2.11755,-1.8316c-0.02185,-0.0038 -0.0342,0.0076 -0.0551,0.0076c-0.5548,-0.8664 -1.9114,-0.9861 -2.84525,-1.08395c-0.84835,-0.19095 -1.77935,-0.82365 -2.62105,-0.30305c-0.0361,-0.0247 -0.0722,-0.0513 -0.1216,-0.057c-0.47405,-0.05415 -0.9481,-0.09785 -1.42215,-0.1311c-1.04595,-0.4503 -2.337,0.0342 -3.42665,-0.03515c-0.05415,-0.00285 -0.08075,0.0171 -0.114,0.03135c-0.04465,-0.02185 -0.0912,-0.0418 -0.1406,-0.03895c-0.50445,0.0285 -1.00795,0.07885 -1.50955,0.1387c-0.2242,0.0266 -0.4484,0.0532 -0.67165,0.08645c-0.08075,-0.0228 -0.1615,-0.0456 -0.2413,-0.0608c-0.7106,-0.1387 -1.35755,0.0019 -1.90855,0.4636c-0.0304,0.02565 -0.05985,0.05605 -0.09025,0.0836c-0.02375,-0.00095 0.71178,-1.71053 0.68898,-1.70483c-0.18145,0.05225 -1.11648,1.83023 -1.29508,1.88913c-0.66785,0.21755 -1.3243,0.4636 -1.9589,0.76855c-0.0209,0.01045 -0.0323,0.0228 -0.04655,0.0342c-0.62415,0.13395 -1.3509,0.2565 -1.767,0.66595c-0.04845,0.04845 -0.09215,0.1007 -0.1311,0.1577c-0.076,0.1102 -0.12825,0.24035 -0.1615,0.38855c-0.00095,0.00095 -0.0038,0.00095 -0.00475,0.0019c-0.64315,0.4674 -1.2236,1.0032 -1.75845,1.5884c-0.34295,0.171 -0.817,0.3914 -1.00225,0.72485c-0.0969,0.17385 -0.0874,0.3857 -0.12065,0.57095c-0.01235,0.0703 -0.038,0.1349 -0.07315,0.19285c-0.0304,0.0494 -0.05985,0.0988 -0.1197,0.133c-0.0893,0.05225 -0.08835,0.1216 -0.04085,0.18145c-0.30875,0.5016 -0.5871,1.0146 -0.83125,1.5504c-0.0228,0.05035 -0.01045,0.09595 0.019,0.13395c-0.13015,0.23655 -0.3477,0.43035 -0.39235,0.7087c-0.038,0.2413 0,0.5339 -0.0703,0.77425c-0.0038,0.01425 -0.01045,0.0266 -0.01615,0.0399c-0.00475,0.01425 -0.0171,0.02565 -0.0228,0.0399c-0.0779,0.00665 -0.1482,0.03325 -0.16815,0.1121c-0.14582,0.54373 -0.21076,-2.56622 -0.28878,-2.00871c-0.02697,0.19274 -0.03973,3.72255 -0.05797,3.91631c-0.00285,0.03515 0.0209,0.05985 0.0361,0.0893c-0.0798,0.25935 -0.45981,0.26884 -0.49971,0.53674c-0.038,0.28595 0.27646,0.74386 0.44461,0.95951c0.03325,0.43035 0.0931,0.85405 0.18335,1.2768c-0.0285,0.04085 -0.0285,0.095 0.0304,0.1596c0.228,0.25555 0.2413,0.6536 0.3268,0.9747c0.03325,0.13205 0.076,0.26125 0.1406,0.38095c0.03895,0.06935 0.13585,0.16435 0.1748,0.25175c-0.0323,0.0342 -0.04085,0.0817 -0.0076,0.1463c0.4313,0.85025 0.9994,1.6017 1.7043,2.24295c0.04845,0.0456 0.1102,0.0646 0.17005,0.0665c0.00285,0.00285 0.00285,0.0057 0.0057,0.00855c0.1995,0.228 0.38285,0.4598 0.55195,0.69635c0.03515,0.0494 0.0646,0.1007 0.0988,0.1501c0.4655,0.67735 0.8379,1.3927 1.19605,2.166c0.0684,0.14535 0.28215,0.19855 0.4161,0.11115c0.27265,-0.18335 0.6327,-0.3971 0.8778,-0.6707c0.02185,-0.0247 0.0456,-0.04845 0.06555,-0.0741c0.1539,-0.19665 0.2432,-0.4237 0.1957,-0.69255c-0.12445,-0.6878 -0.77235,-1.4991 -1.0469,-2.147c-0.4332,-1.0355 -1.15995,-2.1052 -1.38035,-3.20815c-0.2185,-1.0887 -0.21185,-2.22775 0.0057,-3.3174c0.50255,-2.5194 1.89715,-4.21515 4.13915,-5.47865c2.72365,-1.5333 5.9413,-1.7556 9.0079,-1.64445c1.7651,0.0627 3.51025,2.5885 5.26585,2.7861c0.93005,0.1045 1.87435,-1.97955 2.70085,-1.5188c3.34495,1.86675 3.46085,6.3764 3.22525,9.7299c-0.0038,0.05605 0.02375,0.10165 0.06555,0.13585c0.13015,0.1026 0.4085,0.09215 0.42655,-0.10355c0.23465,-3.38105 1.223,-2.05019 -2.083,-4.01574c-0.8854,-0.52915 0.50166,-6.70406 -0.51484,-6.83801c-1.57985,-0.2071 -6.68841,-0.43225 -8.27681,-0.51015c-2.9298,-0.14345 -5.55637,1.95384 -8.29332,3.13849c-1.79075,0.7752 -4.53738,0.01646 -5.39143,1.85186c-0.8455,1.80975 -1.36325,4.3871 -0.6004,6.3175c0.4617,1.1704 1.0298,2.35125 1.5637,3.49315c0.18715,0.4104 0.49495,0.78945 0.6555,1.20745c0.18525,0.4902 -0.2926,0.83505 -0.703,1.0963c-0.4883,-1.026 -0.99845,-1.9475 -1.7651,-2.8196c-0.0494,-0.05605 -0.12825,-0.0798 -0.2071,-0.08455c-0.0133,-0.0228 -0.0285,-0.0456 -0.0551,-0.06935c-0.62985,-0.57665 -1.13715,-1.25875 -1.5314,-2.01685c0.00475,-0.01425 0.0209,-0.019 0.02185,-0.03515c0.0057,-0.13585 -0.03705,-0.22895 -0.1387,-0.32015c-0.14725,-0.1292 -2.54227,-2.72277 -2.59167,-2.90422c-0.0855,-0.323 2.23827,1.71862 2.04922,1.44977c-0.095,-0.4294 -0.1558,-0.86355 -0.1881,-1.30055c0.0133,-0.0266 0.00855,-0.0589 -0.0095,-0.09595c-0.00095,-0.02375 -0.0057,-0.0475 -0.00665,-0.0722c-0.0057,-0.0779 -0.0703,-0.12635 -0.1444,-0.1596c-0.1862,-0.40185 0.15485,-0.8132 0.23845,-1.2445c0.01235,-0.0589 -0.00855,-0.1102 -0.04655,-0.152c0.05795,-0.51585 0.15105,-1.0241 0.2774,-1.5276c0.0304,-0.01045 0.05795,-0.0247 0.0798,-0.0475c0.26695,-0.2869 -0.60074,-4.40336 -0.54564,-4.75581c0.0627,-0.3952 1.18309,3.12181 1.26479,2.73231c0.0076,-0.03325 -0.01425,-0.05795 -0.0247,-0.0855c0.2394,-0.50635 0.50635,-0.99655 0.81035,-1.4687c0.0114,-0.01805 0.0133,-0.0342 0.0171,-0.0513c0.07885,-0.0703 0.1463,-0.15105 0.1596,-0.2584c0.01995,-0.13775 -0.0095,-0.285 0.019,-0.41895c0.07885,-0.4028 0.6365,-0.65075 0.96995,-0.81985c0.0266,-0.0133 0.04275,-0.02945 0.0589,-0.0456c0,0 0.00095,0 0.00095,-0.00095v0c0.0057,-0.0057 -0.29889,-4.20229 -0.29414,-4.20894c0.4484,-0.494 1.25459,3.25229 1.78279,2.84474c0.64547,0.20062 0.58015,-3.34328 0.89301,-3.94245c0.25064,-0.48001 0.59511,1.75926 0.59187,1.21777c-0.0057,-1.1058 0.34482,1.49538 1.11432,1.27498c0.09405,-0.0266 -0.58617,-3.83336 -0.59947,-3.88846c0.5738,-0.25175 1.86012,3.28236 2.45672,3.09901c0.10925,0.04655 0.2527,0.05035 0.3268,-0.03325c0.5605,-0.6251 1.2236,-0.7619 2.01305,-0.51585c0.0095,0.00285 0.01425,-0.0019 0.02375,0c0.0076,0 0.0133,0.00475 0.0209,0.0038c0.0133,-0.0019 0.0266,-0.00285 0.0399,-0.00475c0.0399,0 -1.09443,-3.04769 -1.06688,-3.06384c1.139,-0.16467 1.36835,0.16254 2.15138,1.00593c0.39519,0.42566 0.57961,1.85973 1.15941,1.82517c0.0247,-0.00095 0.0266,-0.0152 0.04465,-0.01995c0.0285,0.01235 0.05035,0.03325 0.0855,0.03515c0.4997,0.03135 0.9842,-3.03059 1.48105,-3.10374c0.5776,-0.0855 1.2502,2.84439 1.8012,3.11229c0.0114,0.0019 0.01805,0.0114 0.02945,0.01235c0.0038,0 0.00665,0.00095 0.01045,0.00095c0.0703,0.038 0.13775,0.0361 0.19665,0.019c0.44365,0.03515 0.8873,0.0741 1.32905,0.1254c0.0665,0.0076 -0.27467,-1.1508 -0.24142,-1.1717c0.09405,0.04655 0.35731,-1.84559 0.43711,-1.89784c0.63745,-0.4123 1.78506,3.26904 2.43296,3.41344c0.0152,0.00285 0.02185,-0.00475 0.0361,-0.0038c0.0114,0.0019 0.0171,-2.10051 0.0285,-2.09861c0.779,0.08265 1.90284,0.83507 2.27904,1.66442c0.0589,0.1292 1.91145,-1.00133 2.0321,-1.05073c0.77995,0.1748 -0.12829,3.44953 0.26121,4.10503c0.00665,0.01045 0.0171,0.01805 0.0247,0.0266c0.0019,0.0304 0.01235,0.06365 0.0456,0.10165c0.4522,0.5301 0.9728,1.05165 1.1134,1.7613c0.01235,0.0627 2.88048,-1.06403 2.94413,-1.03078c0.7011,0.7258 -1.29778,2.95548 -1.73763,3.99763c-0.0513,0.0342 2.50523,-1.5552 2.54228,-1.47445c0.42465,0.9234 -2.06443,3.6984 -2.34278,4.675c-0.0057,0.019 0.0114,0.0323 0.01235,0.0494c-0.05415,0.0342 -0.08265,0.0893 -0.04655,0.1729c0.2679,0.62035 0.32965,1.42595 0.01235,2.04155c-0.03325,0.0646 -0.01805,0.12255 0.0171,0.1729c0.0019,0.8968 0.057,1.98265 -0.50825,2.73125c-0.22135,0.2907 -0.46075,0.5567 -0.6688,0.8455c-0.1121,0.15675 -0.21755,0.3173 -0.30115,0.49685c-0.0988,0.21565 0.3762,0.35055 0.4769,0.13015c0.28785,-0.62605 0.90535,-1.03075 1.1685,-1.6682c0.3344,-0.81035 0.3173,-1.7252 0.31825,-2.58495c0,-0.0152 -0.01615,-0.0228 -0.01995,-0.03705c0.2964,-0.6821 0.25555,-1.49435 -0.03135,-2.1736z" data-paper-data="{&quot;origPos&quot;:null}" id="Outline" fill="url(#color-4)"/>
      </g>
      <path d="M237.30665,101.38583c0.28025,0.06175 0.90268,1.033 0.61673,0.9684c-0.88368,-0.19646 -1.34258,-0.571 -2.18453,-0.90357c-1.51368,-0.59792 -3.01162,-0.88594 -3.61047,0.62737c-0.04275,0.10735 0.4256,0.25745 0.47785,0.1273c0.8341,-2.10425 2.73202,-1.25555 4.70042,-0.8195z" data-paper-data="{&quot;origPos&quot;:null}" id="L_Eyebrow" fill="#000000" stroke="none" stroke-width="1"/>
      <path d="M243.91157,102.50356c0,0 0.30448,-0.00866 0.49937,-0.34971c0.1018,-0.17816 0.26086,-0.84965 0.26086,-0.84965c1.8145,-0.68495 4.21325,-2.35731 5.3238,-0.42311c0.0722,0.1254 0.51965,0.15865 0.4731,0.0779c-0.67301,-1.1718 -2.52741,-0.57645 -3.77326,-0.0531c-0.61574,0.25866 -0.35844,-0.02295 -0.97109,0.24295c-0.82035,0.35604 -0.34389,0.60524 -1.1809,0.92012c-0.1596,0.05985 -0.74778,0.47639 -0.63188,0.43459z" data-paper-data="{&quot;origPos&quot;:null}" id="R_Eyebrow" fill="#000000" stroke="none" stroke-width="1"/>
      <g id="Nose" fill="#000000" stroke="none" stroke-width="1">
        <path d="M239.3977,111.06239c-0.12445,0.07695 -0.5358,-0.1159 -0.4503,-0.1729c0.41135,-0.2584 0.874,-0.28215 1.32715,-0.4313c0.09785,-0.03325 0.4218,0.09405 0.418,0.16625c0.68115,0.1197 1.27775,0.40375 2.0045,0.3914c0.84075,-0.0152 1.6435,-0.6821 1.79075,-1.4991c0.02185,-0.11875 0.50065,-0.0076 0.4769,0.12635c-0.1444,0.80275 -0.8987,1.46015 -1.71,1.5542c-0.9234,0.1083 -1.65395,-0.2451 -2.53555,-0.38475c-0.0874,-0.0133 -0.17005,-0.0646 -0.2166,-0.1121c-0.3781,0.10165 -0.76665,0.14535 -1.10485,0.36195z" id="Outline_3_"/>
        <path d="M240.56145,109.01799c-0.11305,0.0437 -0.5472,-0.13585 -0.3876,-0.1976c1.37085,-0.53675 2.78255,-0.7296 4.19805,-0.266c0.323,0.1064 0.01995,0.19475 -0.17195,0.13205c-1.21885,-0.39995 -2.47855,-0.1235 -3.6385,0.33155z" id="Outline_2_"/>
      </g>
      <path d="M237.82545,103.77684v0c-1.37275,-0.4655 -4.598,-1.32715 -4.9894,0.7771c-0.03325,0.17955 -1.00035,-0.0399 -0.9595,-0.25745c0.46265,-2.48425 4.73955,-1.23025 6.2738,-0.7106c0.64885,0.21945 0.02755,0.31065 -0.3249,0.19095z" id="L_Eye" fill="#010101" stroke="none" stroke-width="1"/>
      <path d="M244.8184,103.57734v0c1.5352,-0.77995 4.9799,-2.1812 5.7836,0.30305c0.05225,0.1596 -0.8683,0.057 -0.9443,-0.17765c-0.323,-1.00225 -1.08395,-0.89775 -1.95605,-0.6536c-0.6916,0.19665 -1.3452,0.5206 -1.9817,0.8455c-0.2413,0.1254 -0.99275,-0.2717 -0.90155,-0.3173z" id="R_Eye" fill="#010101" stroke="none" stroke-width="1"/>
      <g id="R_Hand" stroke="none" stroke-width="1">
        <path d="M267.05315,180.41714c-0.2527,0.6042 0.133,2.31705 0.247,3.0552c0.06745,0.41705 0.19665,0.817 0.17385,1.31765c-0.0209,0.4408 -0.0551,0.8968 -0.11685,1.3186c-0.14535,0.9595 -0.6118,1.7727 -0.7942,2.6942c-0.10165,0.4978 -0.11875,0.85975 -0.36005,1.32905c-0.21755,0.4161 -0.59375,0.9234 -0.53485,1.41455c-0.475,0.08265 -1.05165,0.1311 -1.4725,0.32585c-0.38855,0.17955 -0.7448,0.4959 -1.15425,0.6916c-0.90535,0.42465 -1.54185,1.0564 -2.39305,1.5846c-0.37525,0.2337 -1.292,0.4959 -1.7404,0.4066c-0.5016,-0.0988 -0.53105,-0.5529 -0.59945,-1.0165c-0.06745,-0.4579 -0.11685,-0.99275 0.0038,-1.4383c0.11685,-0.42655 0.41515,-0.8018 0.5339,-1.2578c0.2622,-0.98135 0.31825,-2.11185 0.47975,-3.1122c0.16815,-1.04785 0.2869,-2.0786 0.22895,-3.16635c-0.817,-0.0114 -0.8816,1.7328 -1.1267,2.26765c-0.2128,0.4674 -0.38095,0.52915 -0.93005,0.66785c-0.4845,0.1216 -1.0982,-0.01995 -1.0982,-0.01995c-0.09025,-0.4921 0.32015,-0.9519 0.45505,-1.38225c0.1539,-0.475 0.17765,-0.98515 0.25365,-1.4839c0.14155,-0.93575 0.34295,-1.8449 1.0355,-2.5574c0.38665,-0.3971 0.7334,-0.80465 1.1248,-1.20175c0.437,-0.43985 0.8645,-0.2128 1.4858,-0.06365c1.0241,0.2432 1.48485,0.17955 2.58495,0.12635c1.24355,-0.05795 2.4377,-0.21755 3.6556,-0.43225" id="Fill_2_" fill="url(#color-5)"/>
        <path d="M267.11395,186.87144v0c-0.13775,-2.1432 0.0836,-4.37285 -0.35625,-6.4866c-0.03705,-0.17955 0.44745,-0.09975 0.4788,0.05985c0.4408,2.1147 0.21755,4.34245 0.35625,6.4866c0.0152,0.1976 -0.4655,0.09785 -0.4788,-0.05985zM257.53415,182.44064v0c0.26885,-0.29355 0.50255,-0.59755 0.7277,-0.93005c0.29545,-0.44365 0.67355,-0.82365 1.0488,-1.2008c0.11685,-0.11875 0.5719,0.05795 0.44555,0.18335c-0.37525,0.3781 -0.7486,0.76095 -1.0488,1.2027c-0.22515,0.3287 -0.45695,0.6346 -0.7258,0.9291c-0.11115,0.12445 -0.5681,-0.0513 -0.44745,-0.1843zM257.9702,182.44254v0c-0.3249,1.78125 -0.90915,3.49315 -1.5086,5.1984c-0.05985,0.1653 -0.53485,0.0247 -0.4788,-0.1292c0.59755,-1.70525 1.1837,-3.4181 1.5086,-5.19935c0.02755,-0.15865 0.51205,-0.0418 0.4788,0.13015zM259.7239,184.40999v0c-0.8189,0.51395 -0.84075,1.70715 -1.21315,2.51275c-0.4408,0.9538 -1.40505,0.99275 -2.3161,0.7714c-0.2926,-0.0703 -0.2261,-0.304 0.05985,-0.2356c2.41775,0.5833 1.6302,-2.3579 3.0875,-3.27845c0.1292,-0.0817 0.57095,0.1083 0.3819,0.2299zM258.8233,190.68189v0c-0.133,-2.1356 0.5624,-4.21325 0.4826,-6.33935c-0.0076,-0.19665 0.4712,-0.095 0.4788,0.0589c0.0798,2.128 -0.61465,4.2028 -0.4845,6.3403c0.0152,0.19475 -0.4655,0.09785 -0.4769,-0.05985zM261.03775,190.59924v0c0.3173,-1.5884 0.8645,-3.0989 1.43735,-4.6094c0.0627,-0.1653 0.5377,-0.02185 0.4807,0.13015c-0.57475,1.5105 -1.12385,3.02195 -1.43925,4.61035c-0.0285,0.1615 -0.51205,0.0418 -0.4788,-0.1311zM258.08895,194.10094v0c-0.19855,-1.3224 0.0969,-2.4377 0.7049,-3.61285c0.0855,-0.1615 0.5472,-0.0057 0.4807,0.1292c-0.59945,1.15235 -0.90345,2.2363 -0.7068,3.54255c0.02945,0.1881 -0.45505,0.10165 -0.4788,-0.0589zM261.5954,190.71419v0c-0.6004,1.4953 -1.92945,2.56215 -2.81675,3.8798c-0.0874,0.1311 -0.5529,-0.0247 -0.4484,-0.1862c0.8721,-1.2977 2.1926,-2.3522 2.78635,-3.8209c0.06365,-0.16625 0.5377,-0.01995 0.4788,0.1273zM264.4625,186.76884v0c-0.50065,1.9475 -0.9006,3.91875 -1.47155,5.84725c-0.05035,0.16625 -0.52725,0.03135 -0.4788,-0.13015c0.57,-1.92755 0.9671,-3.8988 1.46965,-5.8463c0.04275,-0.16435 0.52155,-0.0361 0.4807,0.1292zM263.2009,192.52584v0c-0.50825,0.646 -4.46025,3.4105 -4.9115,1.78885c-0.04655,-0.17005 0.43415,-0.09975 0.4788,0.05985c0.18715,0.6745 3.67935,-1.64635 3.98715,-2.0368c0.1026,-0.1254 0.5605,0.03895 0.44555,0.1881zM266.15635,186.55984v0c-0.20995,1.9703 -0.89205,3.8019 -1.76415,5.56985c-0.0817,0.1615 -0.5472,0.0076 -0.4807,-0.1311c0.8721,-1.767 1.5561,-3.5986 1.76415,-5.567c0.0171,-0.15485 0.4997,-0.05035 0.4807,0.12825zM264.42545,191.98529v0c-0.27645,0.35245 -0.7752,0.48545 -1.15045,0.7068c-0.13205,0.0779 -0.5738,-0.11495 -0.37905,-0.22895c0.3515,-0.209 0.8284,-0.33155 1.08775,-0.66405c0.0969,-0.12635 0.5567,0.03895 0.44175,0.1862zM267.626,186.96929v0c-0.4066,1.6378 -1.254,3.1122 -1.78125,4.70915c-0.05605,0.16435 -0.53295,0.0266 -0.4788,-0.1292c0.52725,-1.5979 1.37465,-3.0704 1.78125,-4.7082c0.04085,-0.16435 0.51965,-0.03895 0.4788,0.12825zM265.76305,191.59294v0c-0.2964,0.2603 -0.6916,0.38285 -1.0773,0.456c-0.1121,0.019 -0.24985,-0.01805 -0.3363,-0.09215c-0.07505,-0.06555 -0.0551,-0.1463 0.0437,-0.1653c0.3268,-0.05795 0.6688,-0.1577 0.92435,-0.3838c0.12445,-0.11115 0.5719,0.0722 0.44555,0.18525z" id="Outline_7_" fill="#010101"/>
      </g>
      <g id="L_Hand" stroke="none" stroke-width="1">
        <path d="M220.99715,183.65854c1.0507,1.2065 0.1976,2.4757 0.0589,3.83135c-0.0779,0.75715 0.02755,1.26255 0.2983,1.97505c0.21945,0.5814 0.54435,1.425 0.3135,2.11755c-1.46205,0.58995 -2.67805,-2.0672 -2.90035,-3.1901c-0.32775,0.37715 -0.59375,1.15045 -0.6137,1.68055c-0.04085,0.9709 0.9899,1.1666 1.5238,1.85345c0.74385,0.9576 1.2407,1.95985 1.5504,3.1008c-0.6973,0.4921 -2.03395,-0.9367 -2.56405,-1.32145c-0.9291,-0.67355 -1.7442,-0.58235 -2.8766,-0.64505c-0.5168,-0.0285 -0.82365,0.1064 -1.3205,0.11875c-0.61845,0.0171 -0.62225,-0.20235 -1.0032,-0.5529c-0.3591,-0.33535 -0.7904,-0.49305 -1.09155,-0.89585c-0.27645,-0.36955 -0.5301,-0.7961 -0.7923,-1.18085c-1.09155,-1.59315 -0.21755,-4.4916 -0.04655,-6.2339c0.0589,-0.6118 0.06175,-0.98515 0.67165,-0.7923c0.4256,0.1368 0.8854,0.3914 1.31575,0.5529c0.9994,0.37335 1.93705,0.54245 2.99155,0.6346c1.78125,0.1558 2.91935,-0.4484 4.484,-0.99465" id="Fill_3_" fill="url(#color-6)"/>
        <path d="M218.58415,189.00799v0c-0.0038,0.0285 -0.0057,0.05795 -0.00855,0.0855c-0.16055,-0.04275 -0.32015,-0.0855 -0.4807,-0.12825c0.2166,-0.3743 0.1862,-1.07065 0.25745,-1.4972c0.0209,-0.12255 0.44745,0.0076 0.4788,0.1026c0.30115,0.9386 0.5339,1.89335 0.96045,2.78445c0.31065,0.646 1.7651,1.52665 1.6074,0.3135c-0.0722,-0.56715 -0.36765,-1.13715 -0.5852,-1.6568c-0.73245,-1.7233 0.969,-3.77815 0.1064,-5.3903c-0.04655,-0.0836 0.4085,-0.04845 0.475,0.0779c0.51395,0.9652 -0.02375,2.4757 -0.2147,3.47225c-0.1748,0.9272 0.01995,1.68245 0.3686,2.55075c0.19285,0.4902 0.4503,1.0697 0.3097,1.6036c-0.1748,0.66975 -1.59885,-0.02565 -1.87625,-0.19665c-1.0602,-0.6384 -1.2863,-2.57165 -1.62925,-3.6328c0.1596,0.03325 0.31825,0.0665 0.4769,0.10165c-0.07315,0.42465 -0.0437,1.12385 -0.25935,1.4953c-0.0627,0.11115 -0.49305,0.0057 -0.4788,-0.12825c0.00285,-0.0304 0.0057,-0.05985 0.0095,-0.0893c0.0152,-0.10545 0.4978,-0.00855 0.4826,0.13205zM220.8499,194.10664v0c-0.38665,-1.3414 -1.15045,-2.1926 -2.34935,-2.88515c-0.88065,-0.50825 -0.56905,-1.36895 -0.4161,-2.24105c0.0209,-0.11495 0.50065,-0.0057 0.4788,0.1292c-0.1387,0.80465 -0.43035,1.65965 0.4142,2.14795c0.28405,0.1634 0.5396,0.3021 0.7942,0.51585c0.7904,0.66975 1.2635,1.41455 1.55325,2.41395c0.03325,0.11495 -0.43795,0.04655 -0.475,-0.08075zM221.33915,194.09429v0c0.3458,1.96745 -1.46585,0.817 -2.1793,0.1843c-0.8322,-0.7391 -1.7651,-1.14285 -2.6505,-1.79075c-0.89775,-0.65645 -1.12955,-2.1204 -1.46205,-3.10745c-0.03705,-0.1102 0.43035,-0.05415 0.475,0.0779c0.2432,0.72105 0.47025,1.43545 0.76665,2.1375c0.3857,0.91675 1.1951,1.2388 2.01685,1.6644c0.34865,0.1786 0.627,0.4332 0.91105,0.69255c0.3078,0.28215 0.61275,0.56145 0.93955,0.8189c0.6897,0.53865 0.7885,-0.30305 0.70965,-0.76095c-0.02185,-0.1273 0.45125,-0.04275 0.4731,0.0836zM218.3077,193.49674v0c-0.99085,-0.4256 -2.4339,0.0247 -3.29935,-0.7334c-1.0792,-0.9462 -1.45255,-2.29995 -1.93135,-3.60715c-0.03705,-0.10545 0.4256,-0.0513 0.475,0.0779c0.4085,1.1134 0.73245,2.299 1.5238,3.21005c0.75145,0.86355 2.3845,0.4864 3.40195,0.92435c0.31445,0.13585 0.019,0.20995 -0.17005,0.12825zM215.67715,193.07399v0c-0.71345,0.18905 -1.5846,0.5225 -2.18215,-0.0836c-0.77045,-0.77995 -0.988,-2.02825 -1.5257,-2.9583c-0.04465,-0.0779 0.4028,-0.0456 0.4731,0.0798c0.3743,0.6403 0.61465,1.3566 0.9405,2.02255c0.1653,0.3401 0.35245,0.68495 0.62035,0.9557c0.18905,0.19285 1.07635,-0.1577 1.28345,-0.21185c0.1178,-0.02945 0.5434,0.15485 0.39045,0.1957zM213.2309,192.60564v0c-3.4504,-2.01495 -2.42535,-6.0116 -1.72045,-9.23115c0.0247,-0.11875 0.5073,0.00095 0.4788,0.13015c-0.6821,3.116 -1.76605,7.10125 1.615,9.07155c0.2071,0.1216 -0.27835,0.0836 -0.37335,0.02945z" id="Outline_8_" fill="#010101"/>
      </g>
      <path d="M238.89323,113.58644c0,0 5.18086,-1.95104 7.41211,-0.73135c0,0 0.32121,1.19097 0.16257,2.06212c-0.0076,0.03705 -0.22633,0.63708 -0.25768,0.67413c0,0.06925 -0.36893,0.07047 -0.43796,0.07605c-0.20709,0.01672 -0.70576,-0.42943 -0.70576,-0.21437c0,0.52725 -0.2814,-0.54026 -0.62435,-0.10515c-0.3002,0.37905 -0.96495,0.10264 -1.44375,0.16535c-0.7714,0.1064 -1.2822,0.23006 -1.95195,0.36175c-0.93747,-0.09815 -1.06799,0.16233 -1.7311,-0.16199c-0.12065,-0.16625 -0.10183,-1.02716 -0.19303,-1.19911c-0.51015,-0.3173 -0.39535,-0.25766 -0.2291,-0.92741z" data-paper-data="{&quot;origPos&quot;:null}" id="Mouth" fill="#700f10" stroke="none" stroke-width="1"/>
      <path d="M238.7603,113.61879c1.3806,-0.57218 2.96286,-0.93513 4.4185,-1.05314c0.71641,-0.05808 2.0815,-0.18528 2.74463,0.09199c0.51102,0.21367 -0.19039,0.30686 0.34989,0.18485c-0.01995,0.01805 0.34415,0.43729 0.32515,0.45629c-0.0057,0.00095 -0.11856,-0.21053 -0.12236,-0.20768c-0.24545,0.1882 -0.18692,0.83559 -0.49366,0.79591c-5.13636,-0.66444 -4.58546,1.12771 -7.206,-0.06875c-0.00855,-0.04465 -0.0114,-0.0893 -0.01615,-0.13395z" data-paper-data="{&quot;origPos&quot;:null}" id="Teeth" fill="#ffffff" stroke="none" stroke-width="1"/>
      <path d="M239.33925,115.71289c0.00475,-0.04465 0.0076,-0.03667 0.01615,-0.08132c2.66211,-0.23866 3.50673,-0.371 3.9974,-0.43525c0.16356,-0.02142 2.04502,0.17714 2.20861,0.15598c0.30674,-0.03968 0.564,-0.0765 0.80945,0.11169c0.0038,0.00285 -0.25176,0.05454 -0.24606,0.05549c0.019,0.019 -0.23984,0.22771 -0.21989,0.24576c-0.54028,-0.12201 0.21376,-0.39724 -0.29726,-0.18358c-0.66313,0.27727 -1.39664,0.09744 -2.11305,0.03936c-1.45564,-0.11801 -2.77474,0.67694 -4.15534,0.10476z" data-paper-data="{&quot;origPos&quot;:null,&quot;index&quot;:null}" id="Teeth" fill="#ffffff" stroke="none" stroke-width="1"/>
    </g>
  </g>
</svg>
