<?xml version="1.0"?>
<svg xmlns="http://www.w3.org/2000/svg" xmlns:xlink="http://www.w3.org/1999/xlink" version="1.1" width="76.00774" height="192.30754" viewBox="0,-0.00763,76.00774,192.30754">
  <defs>
    <radialGradient cx="234.26524" cy="113.45515" r="16.42197" gradientUnits="userSpaceOnUse" id="color-1">
      <stop offset="0" stop-color="#67ff66"/>
      <stop offset="1" stop-color="#cbe7b7"/>
    </radialGradient>
    <radialGradient cx="240.09071" cy="121.89897" r="6.30277" gradientUnits="userSpaceOnUse" id="color-2">
      <stop offset="0" stop-color="#67ff66"/>
      <stop offset="1" stop-color="#cbe7b7"/>
    </radialGradient>
    <radialGradient cx="252.49593" cy="107.40583" r="2.14655" gradientUnits="userSpaceOnUse" id="color-3">
      <stop offset="0" stop-color="#67ff66"/>
      <stop offset="1" stop-color="#cbe7b7"/>
    </radialGradient>
    <linearGradient x1="238.8804" y1="85.56391" x2="238.8804" y2="106.66525" gradientUnits="userSpaceOnUse" id="color-4">
      <stop offset="0" stop-color="#000000"/>
      <stop offset="1" stop-color="#1a1a1a"/>
    </linearGradient>
    <linearGradient x1="239.15718" y1="82.61503" x2="239.15718" y2="107.16928" gradientUnits="userSpaceOnUse" id="color-5">
      <stop offset="0" stop-color="#000000"/>
      <stop offset="1" stop-color="#1a1a1a"/>
    </linearGradient>
    <radialGradient cx="202.50001" cy="184.03052" r="6.78205" gradientUnits="userSpaceOnUse" id="color-6">
      <stop offset="0" stop-color="#71fd6e"/>
      <stop offset="1" stop-color="#c7e1c0"/>
    </radialGradient>
    <radialGradient cx="257.75001" cy="118.03052" r="10.4062" gradientUnits="userSpaceOnUse" id="color-7">
      <stop offset="0" stop-color="#71fd6e"/>
      <stop offset="1" stop-color="#c7e1c0"/>
    </radialGradient>
    <linearGradient x1="235.401" y1="102.52907" x2="235.401" y2="104.61864" gradientUnits="userSpaceOnUse" id="color-8">
      <stop offset="0" stop-color="#ff0000"/>
      <stop offset="1" stop-color="#ff3a3a"/>
    </linearGradient>
    <linearGradient x1="247.73433" y1="101.91002" x2="247.73433" y2="103.99959" gradientUnits="userSpaceOnUse" id="color-9">
      <stop offset="0" stop-color="#ff0000"/>
      <stop offset="1" stop-color="#ff3a3a"/>
    </linearGradient>
  </defs>
  <g transform="translate(-199.90565,-82.61502)">
    <g data-paper-data="{&quot;isPaintingLayer&quot;:true}" fill="none" fill-rule="nonzero" stroke="none" stroke-width="none" stroke-linecap="butt" stroke-linejoin="miter" stroke-miterlimit="10" stroke-dasharray="" stroke-dashoffset="0" font-family="none" font-weight="none" font-size="none" text-anchor="none" style="mix-blend-mode: normal">
      <path d="M250.36233,113.34342c-0.4389,0.6422 -0.93523,1.2688 -1.45393,1.8654c-0.23845,0.2755 -0.489,0.5427 -0.74265,0.80395c-0.47025,0.4845 -0.96077,0.95532 -1.47377,1.37902c-1.1001,0.90725 -2.32129,1.90126 -3.73299,2.24801c-2.4738,-0.06365 -5.45227,-1.29406 -7.60877,-2.42361c-2.70085,-1.4079 -5.03717,-3.43476 -6.05367,-6.37976c-0.019,-0.05415 -0.11174,-0.09096 -0.20769,-0.11281c-0.02375,-0.0057 -0.04575,-0.01539 -0.0695,-0.01824c0.01615,-0.01995 0.03035,-0.04186 0.0465,-0.06181c0.076,-0.095 0.1508,-0.19126 0.22015,-0.29386c0.2356,-0.62605 -0.13541,-1.10491 -0.71016,-1.14576c-1.15045,-0.0836 -2.46057,0.52617 -3.07237,-0.89978c-0.0589,-0.13205 -0.42258,-0.21371 -0.37983,-0.11396c0.342,0.8018 1.07803,1.18657 1.91688,1.28632c0.53865,0.0665 2.22905,-0.32458 1.8481,0.68527c0,0.00095 -0.07959,0.06023 -0.07959,0.06118c-0.5814,0.85975 -1.33586,1.28707 -2.38371,0.47672c-0.3762,-0.28785 -0.76515,-0.57502 -1.091,-0.91987c-0.5434,-0.5757 -1.07939,-1.25671 -1.27699,-2.04616c-0.2527,-1.0089 0.10979,-3.93448 1.45689,-4.19383c0.01805,-0.00285 0.13607,-0.01008 0.15507,-0.01293c0.31255,-0.04275 0.67539,0.0516 1.09529,0.3442c0.09785,0.06555 0.47681,0.11771 0.27446,-0.02289c-0.0874,-0.0608 -0.17008,-0.09855 -0.25558,-0.14795c-0.8702,-9.5038 0.88296,-17.77991 14.98476,-16.82991c13.6515,0.9196 10.69977,12.91809 10.46227,13.79304c-0.0019,0.00285 -0.01045,0.00096 -0.01235,0.00476c-0.5035,0.95 -0.72793,2.28748 -0.63483,3.40183c-0.04275,0.00855 -0.06747,0.02684 -0.05987,0.05914c0.71725,3.02195 0.64008,6.57044 -1.16112,9.21429z" data-paper-data="{&quot;noHover&quot;:false,&quot;origItem&quot;:[&quot;Path&quot;,{&quot;applyMatrix&quot;:true,&quot;segments&quot;:[[[248.32405,113.29765],[0,0],[1.8012,-2.64385]],[[249.47355,104.1121],[0.71725,3.02195],[-0.0076,-0.0323]],[[249.5334,104.0532],[-0.04275,0.00855],[-0.0931,-1.11435]],[[250.16895,100.6636],[-0.5035,0.95],[0.0019,-0.0038]],[[250.1813,100.65885],[-0.0019,0.00285],[0.2375,-0.87495]],[[239.7579,86.9057],[13.6515,0.9196],[-14.1018,-0.95]],[[224.8334,103.6846],[-0.8702,-9.5038],[0.0855,0.0494]],[[225.08895,103.83185],[-0.0874,-0.0608],[0.20235,0.1406]],[[224.71465,103.86035],[0.09785,0.06555],[-0.4199,-0.2926]],[[223.6193,103.51455],[0.31255,-0.04275],[-0.019,0.00285]],[[223.5642,103.525],[0.01805,-0.00285],[-1.3471,0.25935]],[[222.105,107.705],[-0.2527,-1.0089],[0.1976,0.78945]],[[223.37895,109.7437],[-0.5434,-0.5757],[0.32585,0.34485]],[[224.46765,110.6595],[-0.3762,-0.28785],[1.04785,0.81035]],[[226.8493,110.17975],[-0.5814,0.85975],[0,-0.00095]],[[226.84835,110.17785],[0,0.00095],[0.38095,-1.00985]],[[224.9968,109.4872],[0.53865,0.0665],[-0.83885,-0.09975]],[[223.07685,108.19425],[0.342,0.8018],[-0.04275,-0.09975]],[[223.54995,108.27215],[-0.0589,-0.13205],[0.6118,1.42595]],[[226.61845,109.1642],[-1.15045,-0.0836],[0.57475,0.04085]],[[227.32525,110.30515],[0.2356,-0.62605],[-0.06935,0.1026]],[[227.10485,110.5987],[0.076,-0.095],[-0.01615,0.01995]],[[227.0583,110.66045],[0.01615,-0.01995],[0.02375,0.00285]],[[227.12765,110.6785],[-0.02375,-0.0057],[0.09595,0.02185]],[[227.33475,110.7906],[-0.019,-0.05415],[1.0165,2.945]],[[233.3606,117.1537],[-2.70085,-1.4079],[2.1565,1.12955]],[[240.9454,119.5781],[-2.4738,-0.06365],[1.4117,-0.34675]],[[244.66655,117.33515],[-1.1001,0.90725],[0.513,-0.4237]],[[246.13525,115.95955],[-0.47025,0.4845],[0.25365,-0.26125]],[[246.8753,115.15775],[-0.23845,0.2755],[0.5187,-0.5966]],[[248.32405,113.29765],[-0.4389,0.6422],[0,0]]],&quot;closed&quot;:true,&quot;fillColor&quot;:[0,0,0,1]}],&quot;origPos&quot;:null}" fill="url(#color-1)" stroke="none" stroke-width="0.5"/>
      <g id="R_Shoe" stroke="none" stroke-width="1">
        <path d="M260.05521,257.29402c-0.27455,0.59375 1.6036,0.9861 2.06815,1.0412c1.23025,0.13965 3.05995,-0.2945 4.24935,-0.3002c1.0564,-0.00855 2.2363,0.1596 3.1654,0.56335c0.5966,0.2584 1.68435,1.4744 1.8392,2.109c0.0342,0.1406 0.0152,0.4161 -0.019,0.5548c-0.99465,0.3876 -1.8449,1.12955 -2.8025,1.634c-1.3281,0.70015 -2.7664,1.2236 -4.2769,1.5314c-1.5808,0.3249 -1.4839,0.60325 -3.1084,0.68115c-1.38225,0.06555 -4.5011,0.1596 -5.80925,-0.0931c-2.78065,-0.5282 -5.08345,-0.60135 -7.65415,-1.8924c-0.80275,-0.09595 -5.2991,-1.8278 -3.8741,-2.1584c1.24545,-0.2888 4.80795,-0.32585 6.0914,-0.2584c1.8981,0.0988 3.857,-0.66595 5.64205,-1.4003c0.84835,-0.34865 1.53425,-0.66215 2.33225,-1.083c0.7163,-0.37715 1.25305,-0.53485 1.7651,-1.12195" id="Fill_8_" fill="#eaa06d"/>
        <path d="M271.56066,261.21372c0.24415,0.91295 0.29355,1.85915 0.32395,2.8538c0.0133,0.48735 -0.10735,0.8512 -0.16625,1.26635c-0.0608,0.45505 0.1064,0.89015 0.0437,1.34425c-1.01175,0.399 -1.89335,1.0089 -2.9488,1.35565c-1.13905,0.37525 -2.32275,0.66405 -3.4713,1.0241c-2.698,0.8493 -5.75415,0.68685 -8.4778,0.0551c-1.08395,-0.2508 -2.10995,-0.63935 -3.13785,-1.05545c-0.9918,-0.4028 -1.72805,-0.9405 -2.83005,-1.03265c-1.1229,-0.0969 -2.20685,0.23465 -3.3421,0.15485c-1.0583,-0.0722 -2.2629,-0.14535 -3.24805,-0.5225c-2.09855,-0.8056 -0.64695,-3.9748 -0.70585,-5.51285c0.42275,0.25175 1.25305,0.70585 1.66915,0.99655c0.89775,0.6175 1.63685,0.75335 2.67805,1.0488c1.11055,0.3173 2.0083,0.70775 3.11505,1.00985c2.39305,0.65455 4.8887,0.88635 7.38245,1.0241c2.3997,0.133 4.70915,-0.0038 6.93215,-0.85785c1.2388,-0.475 2.4282,-1.0811 3.60525,-1.69575c0.7201,-0.3762 1.71665,-1.56465 2.5137,-1.57605" id="Trim_1_" fill="#bc7240"/>
        <path d="M271.15311,260.93157v0v0c-1.0754,-3.32595 -4.1078,-3.0305 -6.9711,-2.6486c-0.87305,0.11685 -1.76035,0.23275 -2.641,0.10735c-0.9709,-0.1387 -1.4402,-0.59565 -2.09855,-1.2882c-0.133,-0.1406 0.3439,-0.1064 0.4427,-0.00285c0.6764,0.7125 1.2597,1.08205 2.2762,1.08965c0.57475,0.00665 1.1552,-0.08265 1.7271,-0.1558c1.08965,-0.1406 2.17835,-0.2983 3.28225,-0.27835c2.185,0.03705 3.78195,1.14665 4.4593,3.23855c0.0513,0.1577 -0.4256,0.09215 -0.4769,-0.06175zM271.77726,260.99237v0v0c0.3211,1.93325 0.21945,3.88645 0.25935,5.8387c0.0057,0.19095 -0.4731,0.08455 -0.4769,-0.0627c-0.03895,-1.95035 0.0608,-3.9026 -0.25935,-5.8387c-0.0285,-0.1786 0.4522,-0.09405 0.4769,0.0627zM261.66641,269.68772v0v0c-2.7702,0.0627 -5.28865,-0.31065 -7.85175,-1.37845c-0.8018,-0.33535 -1.5561,-0.7372 -2.3883,-0.99655c-1.0944,-0.3363 -2.06245,-0.05415 -3.15495,0.0304c-1.74705,0.1368 -3.39625,-0.30115 -5.0483,-0.82745c-0.06555,-0.019 -0.19095,-0.05795 -0.2109,-0.14155c-0.34485,-1.78505 0.41895,-3.47415 0.34865,-5.26015c-0.0076,-0.18905 0.4693,-0.0874 0.4769,0.05985c0.0513,1.33285 -1.2844,4.902 0.3078,5.38745c1.4193,0.4313 2.85,0.6897 4.32915,0.46075c0.74195,-0.11495 1.45635,-0.2109 2.2021,-0.1159c1.64065,0.209 3.13595,1.19415 4.6721,1.7461c1.976,0.70965 4.047,0.8246 6.1275,0.77805c0.171,-0.0038 0.5149,0.24985 0.19,0.25745zM271.99196,266.91087v0v0c-3.3459,1.5086 -6.6557,2.6315 -10.3246,2.78065c-0.17195,0.00665 -0.51015,-0.2451 -0.1881,-0.25745c3.5948,-0.1463 6.85615,-1.2654 10.1327,-2.7455c0.1311,-0.06175 0.57095,0.13585 0.38,0.2223zM271.61386,261.05507v0v0c-3.5644,3.078 -8.59085,4.4441 -13.2107,4.34245c-2.6163,-0.06175 -5.206,-0.56525 -7.7387,-1.19795c-1.1932,-0.29925 -2.3636,-0.6669 -3.52165,-1.083c-1.3566,-0.4845 -2.3066,-1.3509 -3.5853,-1.95605c-0.29925,-0.1406 -0.02185,-0.27835 0.18335,-0.17955c0.741,0.3496 1.35945,0.8512 2.04155,1.2996c1.15425,0.75525 2.755,1.08775 4.06505,1.45825c2.57545,0.7315 5.2326,1.22455 7.9059,1.3775c4.63885,0.26125 9.83535,-1.1609 13.41305,-4.2465c0.12635,-0.1026 0.56905,0.0817 0.44745,0.18525z" id="Outline_13_" fill="#000000"/>
      </g>
      <g id="L_Shoe" stroke="none" stroke-width="1">
        <path d="M237.00821,267.36592c0.0076,0.6897 -0.4636,2.02445 -0.99845,2.37215c-0.7239,0.46645 -2.0387,0.96805 -2.8747,1.1381c-3.6613,0.74955 -8.9243,0.779 -12.5704,-0.1387c-0.83505,-0.20995 -1.653,-0.6593 -1.86485,-1.3262c-0.1102,-0.35245 -0.36955,-1.7936 -0.3173,-2.1147c0.0931,-0.59375 1.3661,-1.3509 1.7423,-1.88005c0.40375,-0.56715 1.24735,-1.0241 1.8088,-1.47535c1.13145,-0.91485 2.8709,-1.19225 4.29495,-1.40505c1.62735,-0.2451 3.06755,-0.0228 4.7481,0.456c1.3034,0.3762 2.36265,0.9652 3.5264,1.6302c0.5605,0.323 1.07065,0.57475 1.4079,1.17325c0.27835,0.4921 0.57475,1.2749 1.09725,1.57035" id="Fill_6_" fill="#eaa06d"/>
        <path d="M237.11271,268.71112c0.3781,0.98895 -0.18335,2.8082 -0.46075,3.8589c-0.1349,0.5092 -1.04785,0.66025 -1.49815,0.94525c-0.65265,0.40945 -1.4307,0.43415 -2.17455,0.6137c-1.46585,0.35435 -3.0039,0.57475 -4.5277,0.57475c-1.38605,0 -2.40255,-0.12635 -3.7924,-0.18525c-1.1476,-0.0475 -2.33795,-0.3078 -3.458,-0.5415c-0.92815,-0.1957 -1.9323,-0.3439 -2.5669,-1.0868c-0.76285,-0.89205 -1.16755,-1.90475 -1.3262,-2.98775c-0.11875,-0.8056 -0.3458,-2.17455 0.51965,-2.5289c0.85025,-0.3458 0.7201,1.36325 0.8702,2.03205c0.24415,1.0811 2.01875,1.3547 3.078,1.6302c2.774,0.7239 5.10245,0.83885 7.79665,0.47405c1.5219,-0.2052 3.1122,-0.25365 4.5125,-0.83885c0.4142,-0.1729 1.15235,-0.28785 1.5029,-0.60325c0.35055,-0.3173 0.58805,-0.49495 0.82175,-0.82365c0.08265,0.0209 0.21375,-0.5624 0.25935,-0.5168" id="Trim" fill="#bc7240"/>
        <path d="M236.74126,267.34407v0v0c-0.1843,-1.12955 -2.77685,-2.2971 -3.6727,-2.7398c-1.5637,-0.77045 -3.24805,-0.95855 -4.96755,-0.90155c-1.81355,0.05795 -3.72875,0.17005 -5.44635,0.78375c-1.62545,0.58045 -2.96685,1.73565 -4.1268,2.9792c-0.11115,0.11685 -0.5662,-0.05605 -0.44745,-0.1805c1.3775,-1.47915 2.9222,-2.6391 4.86875,-3.249c1.8335,-0.57285 4.047,-0.6175 5.95745,-0.60705c1.64065,0.0133 3.28605,0.4142 4.7386,1.1856c0.93005,0.49495 3.37345,1.5694 3.572,2.7911c0.02945,0.17955 -0.45125,0.0931 -0.47595,-0.06175zM218.61716,267.48847v0v0c0.057,0.7961 0.03135,1.5903 0.42845,2.3066c0.4579,0.8208 1.9817,1.0298 2.81295,1.1818c1.75275,0.3249 3.54255,0.494 5.32285,0.49115c1.9855,-0.00095 3.97955,-0.2641 5.91755,-0.70205c0.95665,-0.2166 1.87815,-0.5586 2.6752,-1.1381c0.7999,-0.58425 0.73435,-1.46205 0.9652,-2.3161c0.04085,-0.15485 0.45505,-0.038 0.4769,0.0988c0.24415,1.49245 0.13395,3.0153 -0.21375,4.484c-0.13395,0.5643 -0.00855,0.70775 -0.49875,1.08395c-0.46075,0.3496 -1.0279,0.6194 -1.5713,0.8132c-3.08845,1.09535 -6.70225,1.2768 -9.94555,1.0203c-2.44435,-0.19475 -5.79405,-0.40375 -7.201,-2.74835c-0.7068,-1.17515 -1.5086,-4.7766 0.56715,-5.1034c0.14345,-0.019 0.5624,0.20995 0.2964,0.25175c-2.0292,0.3192 -0.8911,4.0641 -0.266,5.1015c0.8113,1.34995 2.5555,1.65015 3.9786,1.9266c1.38415,0.26885 2.8044,0.35625 4.2142,0.3819c2.71795,0.05035 5.59265,-0.21375 8.1719,-1.1286c0.38095,-0.13775 0.74005,-0.35435 1.0887,-0.5567c0.7277,-0.4237 0.60325,-0.78755 0.76855,-1.4839c0.31445,-1.33285 0.36385,-2.76165 0.1387,-4.10875c0.1596,0.03325 0.3173,0.0627 0.4769,0.0988c-0.2584,0.96615 -0.19475,1.67105 -0.99655,2.3693c-0.6897,0.60325 -1.63685,0.88445 -2.49375,1.12575c-2.33605,0.65265 -4.86305,0.83315 -7.277,0.7904c-1.919,-0.03135 -3.94345,-0.2793 -5.7988,-0.77425c-0.6821,-0.1767 -1.32525,-0.4674 -1.8525,-0.9348c-0.68875,-0.6137 -0.5947,-1.76225 -0.6536,-2.5897c-0.019,-0.1919 0.4598,-0.095 0.46835,0.0589z" id="Outline_12_" fill="#000000"/>
      </g>
      <g id="Pants_3_" stroke="none" stroke-width="1">
        <path d="M261.76045,257.98942v0c-0.01805,0.02755 0.0722,0.08455 0.17955,0.1235c-0.60135,0.532 -2.05485,-0.9975 -2.75025,-0.7258c-1.20745,0.3553 -1.0241,0.91485 -2.22395,1.4041c-1.3756,0.55765 -3.15115,1.56465 -4.6132,1.69385c-2.7037,0.2375 -4.25315,0.24605 -6.83905,0.22325c-2.75785,0 -2.0311,1.2217 -1.9475,1.6093c-1.995,1.2464 -4.3548,-0.3515 -4.87065,-1.6093c-0.96995,1.23405 -1.6093,0.70015 -1.1951,1.99595c0.7923,2.4814 0.03705,3.4618 -0.70015,3.54635c-0.4465,0.05035 -2.3522,-1.88005 -3.1635,-2.18595c-1.672,-1.06875 -2.0881,-1.07255 -4.08785,-1.36515c-2.0957,-0.304 -3.62235,-0.3667 -5.9831,0.2717c-2.11945,0.1938 -3.1958,2.4909 -4.5828,3.496c-0.05225,-0.057 -0.2907,-0.1558 -0.35625,-0.1596c-2.21635,-0.02945 -1.1362,-1.12005 -2.11185,-1.99975c-1.1153,-1.0013 -2.09475,-2.147 -2.907,-3.4086c-0.4674,-0.72865 -0.9101,-1.3585 -0.5738,-2.25245c0.1843,-0.49495 0.4142,-0.96235 0.7334,-1.38605c0.69255,-0.9215 1.52095,-1.72995 2.13275,-2.71605c0.00095,-0.02185 -0.0038,-0.03515 -0.01995,-0.0494c-0.7885,-0.61845 -1.54185,-1.01935 -0.5662,-1.7936c0.61085,-0.4826 0.37525,-0.60515 0.2546,-1.2236c-0.5852,-2.98965 0.6004,-6.1104 1.32715,-8.98035c1.60265,-6.3422 2.9222,-12.85635 3.32405,-19.3952c0,-0.0019 -0.00285,-0.00285 -0.00285,-0.0038c0.9652,-10.23625 1.9342,-20.47725 2.8994,-30.71065c0.15295,0.04845 0.0209,-0.21945 0.0209,-0.21945l1.1153,-12.85445c15.97235,-2.67235 29.1536,-2.5536 29.1536,-2.5536l1.15235,15.5363c-0.0038,0.0038 -0.019,0.0038 -0.019,0.00855c0.0076,7.8128 0.532,15.61135 0.33155,23.427c0,0.0057 0.0114,0.01045 0.0133,0.01615c-0.00095,0.00285 -0.0095,0.00285 -0.00855,0.00665c0.5624,2.6391 0.4256,5.1908 0.66215,7.847c0.2204,2.50705 0.63745,5.0103 1.0127,7.4955c0.37905,2.508 0.71915,4.97895 0.81035,7.5145c0.0494,1.44495 0.0817,3.2395 1.18465,4.3168c-0.3306,-0.0703 -0.66595,-0.1159 -1.00415,-0.12255c-0.2356,-0.00475 0.209,0.19475 0.3097,0.1938c0.6384,0.0133 1.4003,0.23845 2.00925,0.63555c0.06555,0.0456 0.13585,0.09405 0.2033,0.1425c0.57855,0.44745 0.96425,1.07065 0.83505,1.85725c-0.11305,0.6897 -0.418,1.27585 -0.6745,1.91805c-0.48355,1.2198 -0.5358,2.2762 0.64315,3.0172c1.3357,0.8436 2.7398,1.406 2.4453,3.2984c-0.22135,1.43165 -0.7353,2.91745 -1.5523,4.12015z" id="Fill_7_" fill="#3d6767"/>
        <path d="M263.73645,252.75777v0c0.52155,1.60835 -0.61655,4.0641 -1.4991,5.36465c-0.0171,0.0247 -0.057,0.02755 -0.09595,0.02945c-0.0551,0.14535 -0.60135,0.24225 -0.60135,0.24225l-0.01425,-0.0456c-0.6935,-0.1007 -1.4098,-1.32145 -1.89905,-0.988c-1.5618,1.0621 -3.2433,1.9342 -5.01125,2.59825c-1.9019,0.7163 -3.8,0.931 -5.814,0.91865c-2.19925,-0.01425 -4.49825,-0.20235 -6.55215,0.7391c-0.12825,0.0627 -0.50825,-0.1349 -0.44935,-0.16055c1.62355,-0.74385 3.3782,-0.8018 5.1338,-0.79325c2.39305,0.01235 4.5942,-0.00095 6.89605,-0.7486c1.1343,-0.3686 2.2154,-0.8854 3.2642,-1.44495c0.7315,-0.3914 1.59125,-1.2369 2.3731,-1.4573c0.19855,-0.05985 0.3933,-0.02945 0.5833,0.0589c0.33915,0.1634 1.0089,1.12195 1.30245,1.0982c0.0266,-0.0019 0.0741,0.00855 0.1292,0.0266l-0.00285,-0.00855l0.2812,-0.1957c0.81795,-1.2027 1.3319,-2.6885 1.5523,-4.12015c0.2945,-1.89335 -1.1096,-2.4548 -2.4453,-3.2984c-1.17895,-0.741 -1.1267,-1.7974 -0.64315,-3.0172c0.2565,-0.6422 0.56145,-1.22835 0.6745,-1.91805c0.1292,-0.7866 -0.2565,-1.4098 -0.83505,-1.85725c-0.0646,-0.0494 -0.133,-0.0969 -0.2033,-0.1425c-0.608,-0.3971 -1.37085,-0.62225 -2.00925,-0.63555c-0.1007,0.00095 -0.5453,-0.19855 -0.3097,-0.1938c0.33915,0.00665 0.67355,0.05225 1.00415,0.12255c-1.10295,-1.0773 -1.13525,-2.87185 -1.18465,-4.3168c-0.0912,-2.53555 -0.43225,-5.00555 -0.81035,-7.5145c-0.3743,-2.48615 -0.7923,-4.98845 -1.0127,-7.4955c-0.23655,-2.6562 -0.09975,-5.20885 -0.66215,-7.847c-0.00095,-0.0038 0.0076,-0.0038 0.00855,-0.00665c-0.0019,-0.0057 -0.0133,-0.01045 -0.0133,-0.01615c0.20045,-7.8147 -0.32395,-15.61325 -0.33155,-23.427c0,-0.00475 0.0152,-0.00475 0.019,-0.00855l-1.15235,-15.5363c0,0 -13.1822,-0.1178 -29.1536,2.5536l-1.1153,12.85445c0,0 0.13205,0.2679 -0.0209,0.21945c-0.9652,10.2334 -1.9342,20.4744 -2.8994,30.71065c0,0.00095 0.00285,0.0019 0.00285,0.0038c-0.40185,6.53885 -1.7214,13.053 -3.32405,19.3952c-0.7106,2.80535 -1.8487,5.85105 -1.3528,8.78085c2.546,0.7752 4.86685,2.5175 7.59335,2.53745c2.5726,0.01995 5.07775,-1.2806 7.51165,-1.9494c0.11495,-0.03135 0.5358,0.14725 0.39615,0.1862c-2.6163,0.7182 -5.28485,2.147 -8.0332,1.95605c-2.6923,-0.1862 -4.9248,-1.7822 -7.44705,-2.56025c0.0019,0.0095 0.0019,0.019 0.0038,0.02945c0.12065,0.61845 0.35625,0.741 -0.2546,1.2236c-0.97565,0.7752 -0.2223,1.1761 0.5662,1.7936c0.0152,0.01425 0.0209,0.0285 0.01995,0.0494c-0.61085,0.9861 -1.4402,1.7936 -2.13275,2.71605c-0.31825,0.4237 -0.5491,0.8911 -0.7334,1.38605c-0.3363,0.89395 0.10735,1.5238 0.5738,2.25245c0.8132,1.2616 1.7917,2.4073 2.907,3.4086c0.9766,0.87875 -0.1045,1.9703 2.11185,1.99975l0.58045,-0.2299c3.4238,-5.63825 13.39215,-4.43935 17.3622,0.0855c0.7391,-0.4579 1.3699,-0.8474 1.1704,-1.8658c-0.1824,-0.92815 -0.5206,-1.45255 -0.44555,-2.3351c-1.2597,0.26125 -2.68945,-0.0285 -3.9292,-0.22895c-2.0463,-0.32775 -4.0109,-0.91295 -6.10375,-0.855c-0.0988,0.0019 -0.5453,-0.19095 -0.3078,-0.19855c3.2262,-0.08265 6.2966,1.1685 9.5228,1.17895c0.04845,-0.22895 0.0988,-0.45885 0.1463,-0.6897c-0.31635,-0.1995 -0.6536,-0.35435 -1.0089,-0.4655c-0.54055,-0.1881 -1.0659,-0.38665 -1.6169,-0.55575c-0.85025,-0.25745 -1.7195,-0.44935 -2.58305,-0.646c-1.98455,-0.45505 -3.98525,-0.84645 -6.00875,-1.0754c-0.1216,-0.0133 -0.5168,-0.22895 -0.20425,-0.1938c2.5441,0.28785 5.05495,0.81795 7.54205,1.41835c1.4155,0.342 3.6841,0.7239 4.71295,1.9513c2.0216,-1.672 3.22905,-4.7367 2.36075,-7.29315c-0.3705,-1.0868 -1.6207,-1.3186 -2.2116,-2.2002c-0.39805,-0.59185 -0.076,-1.00605 0.29735,-1.539c0.494,-0.69445 0.2033,-1.51145 0.1045,-2.29425c0,-0.0019 -0.00285,-0.00285 -0.00285,-0.0038c0,-0.00665 0,-0.0152 0,-0.02375c-0.0038,-0.0342 -0.01045,-0.0684 -0.0133,-0.1026c0,-0.00285 0.0095,-0.0019 0.01045,-0.00475c-0.00095,-0.03705 -0.00285,-0.07315 -0.00285,-0.1102c-0.0095,-0.01235 -0.01995,-0.02375 -0.02945,-0.0361c-0.0266,-0.03325 -0.0095,-0.05035 0.0266,-0.0589c-0.1672,-8.22035 -0.87305,-16.492 0.4617,-24.65915c0.00475,-0.02185 0.038,-0.03135 0.0779,-0.03515c1.216,-4.4137 1.91615,-8.9338 2.47095,-13.47195c0.2755,-2.2667 0.59565,-4.541 0.73815,-6.82005c0.1387,-2.1432 0.1007,-4.1363 1.0089,-6.13605c0.04845,-0.1121 0.513,0.0494 0.47405,0.13205c-0.84075,1.85725 -0.90915,3.7316 -0.988,5.7323c-0.0874,2.25625 -0.43985,4.5201 -0.703,6.7583c-0.5624,4.7899 -1.2882,9.5646 -2.59255,14.2158c-0.0038,0.0133 -0.0285,0.0133 -0.0437,0.01995c-1.27965,8.09685 -0.58805,16.2982 -0.4237,24.4492c1.5371,1.9323 3.62995,4.256 6.3232,3.9786c0.10355,-0.0133 0.55005,0.17195 0.31065,0.19665c-2.72745,0.28025 -4.9115,-1.6473 -6.5854,-3.6233c0.1121,0.7049 0.2717,1.35755 -0.1406,2.02255c-0.1729,0.2793 -0.3496,0.5092 -0.4864,0.8113c-0.2622,0.59565 0.67355,1.12955 1.03455,1.38985c0.8113,0.58235 1.3053,1.102 1.5238,2.10235c0.43795,1.976 -0.2565,4.14485 -1.52855,5.73515c0.00285,0.00285 0.0114,0.0038 0.0133,0.0076c0.41705,0.5871 0.8607,1.1172 1.4649,1.52c0.91105,0.60705 2.03965,0.2869 2.9697,-0.0589c0.1064,-0.0399 0.5339,0.13395 0.39045,0.1862c-2.1071,0.7752 -3.72305,0.2356 -5.04355,-1.41645c-0.2907,0.3325 -0.5985,0.6422 -0.93575,0.9063c-0.17385,1.159 0.4484,1.95605 0.50065,3.07895c0.03515,0.7581 -0.97185,1.1856 -1.4839,1.5105c-0.09975,0.0608 -0.37145,-0.0133 -0.44175,-0.0988c-3.7449,-4.63315 -13.6572,-5.7095 -16.84255,0.09405c-0.06745,0.10925 -0.4465,-0.0323 -0.4693,-0.11115c-0.05605,0.01995 -0.11115,0.03895 -0.1634,0.05605c0.04275,0.0209 0.07885,0.04275 0.09595,0.0608c0.0209,0.0228 0.0133,0.038 -0.04655,0.03895c-0.00285,0 -0.00285,0.00095 -0.00665,0.00095c-0.03895,-0.00095 -0.07695,-0.0038 -0.1159,-0.00475c-0.60705,-0.0171 -1.1818,-0.1121 -1.634,-0.41895c-0.00665,-0.0038 -0.01235,-0.0095 -0.01805,-0.0133c-0.2508,-0.17385 -0.4655,-0.4104 -0.6213,-0.74385c-0.3553,-0.76665 -0.5719,-1.12765 -1.20745,-1.7537c-0.83695,-0.82745 -1.54755,-1.7746 -2.19735,-2.75215c-0.27645,-0.41325 -0.5282,-0.8417 -0.77995,-1.26825c-0.152,-0.25555 0.21565,-1.0773 0.3135,-1.33095c0.29165,-0.78185 0.8854,-1.4459 1.42025,-2.071c0.33725,-0.3933 0.67545,-0.7828 0.9861,-1.19985c0.4712,-0.6327 -0.16055,-0.8303 -0.5738,-1.21315c-0.3211,-0.2983 -0.28785,-0.62225 0,-0.9139c0.3819,-0.3838 1.00605,-0.58235 0.7163,-1.2407c-0.39615,-0.89965 -0.3116,-1.95985 -0.21755,-2.9317c0.25555,-2.7531 1.22455,-5.4587 1.8734,-8.132c1.3889,-5.73895 2.5061,-11.64035 2.8671,-17.5427c0,-0.00095 -0.0019,-0.0019 -0.0019,-0.00285c0.4408,-4.66735 0.8816,-9.33375 1.3224,-14.0011c0.0779,-0.82555 0.1558,-1.65015 0.2337,-2.47475c0.456,-4.8203 0.91105,-9.6406 1.3661,-14.459l1.17705,-13.2012c0,0 17.87235,-2.9697 30.04375,-2.5536l1.13525,16.15095c0.00855,7.8109 0.53295,15.6066 0.3325,23.41845c0.43225,2.03395 0.56905,4.03275 0.5795,6.10565c0.01235,2.64195 0.54815,5.25825 0.9044,7.8679c0.35245,2.57165 0.855,5.1357 0.96995,7.73585c0.076,1.7119 -0.16055,4.0584 1.1609,5.3751c0.04845,0.04845 0.08265,0.1045 0.13585,0.1501c0.0228,0.0076 0.04655,0.01805 0.06935,0.0266c0.63365,0.2242 1.22455,0.5586 1.70715,1.045c1.33095,1.33665 -0.25935,3.22335 -0.5016,4.6512c-0.34105,2.0235 2.7949,2.19925 3.363,3.94345z" id="Outline_11_" fill="#000000"/>
      </g>
      <g id="Undershirt_3_" stroke="none" stroke-width="1">
        <path d="M222.72306,191.28517v0c0,-0.00095 -0.0019,-0.00095 -0.0019,-0.00285c0.0342,-2.8557 0.6023,-5.6658 0.8189,-8.50535c0.0988,-0.5149 0.15105,-1.01175 0.18335,-1.63115c-0.02945,-0.3173 0.03135,0.12445 0.3021,-0.19095c0.21565,-0.2508 0.342,0.3002 0.7125,0.4161c0.5377,0.17195 1.5143,0.4446 2.05865,0.5738c1.2084,0.2926 2.91175,0.67165 4.1667,0.67165c2.91175,0 5.58315,-0.0323 8.4759,-0.3819c3.36585,-0.4066 5.66865,-1.34805 8.8597,-2.44055c2.53175,-0.8683 5.08345,-2.755 7.61995,-3.6176c0.29165,0.7923 0.27455,1.72995 0.34295,2.5612c0.0874,1.0792 0.27645,2.15365 0.42275,3.2262c0.3173,2.3313 0.6631,4.6493 1.2179,6.9331c-0.0342,0.0342 -0.04465,0.0798 0.0304,0.1387c0.00095,0.00095 0.00095,0.00095 0.00095,0.0019c0.00665,0.02375 0.0114,0.04845 0.0171,0.0722c0.0114,0.04655 0.0608,0.07885 0.1178,0.10165c0.03325,0.0684 0.04465,0.14345 0.03705,0.2223c-0.0019,0.0266 -0.00855,0.0551 -0.0114,0.08265c-0.29545,1.18845 -4.44885,3.2205 -4.7652,3.33925c-2.96495,1.1343 -6.08475,1.6283 -9.2283,1.9589c-0.68305,-0.62035 -0.3401,-2.6961 -0.31635,-3.47605c0.06175,-1.957 -0.2926,-3.89405 -0.6194,-5.814c-0.02185,-0.12065 -0.3363,-0.21565 -0.36005,-0.0627c-0.2375,1.56465 -0.69445,3.0894 -0.92245,4.6664c-0.1254,0.86545 -0.27265,1.72615 -0.38285,2.59255c-0.09975,0.7847 -0.36575,1.52855 -0.45885,2.30565c-0.00095,0.00855 0.0095,0.0152 0.01045,0.02375c-3.82755,0.1577 -7.61235,-0.31065 -11.38765,-0.8949c-0.68115,-0.1045 -1.52665,-0.1767 -2.39495,-0.3021c-0.8151,-0.13965 -1.6606,-0.32015 -2.4187,-0.58235c-0.98515,-0.38665 -1.79075,-0.988 -2.12705,-1.9855z" id="Fill_5_" fill="#c0e1e1"/>
        <path d="M258.28441,189.02132v0c0.87305,1.0317 -2.16695,2.7778 -2.8329,3.1635c-3.38485,1.9779 -7.6,2.49945 -11.4266,2.89275c-0.1235,0.01425 -0.2736,-0.11685 -0.23085,-0.1919c-0.58995,-0.62795 -0.41325,-2.01495 -0.39805,-2.75595c0.038,-1.86295 -0.1387,-3.65655 -0.41135,-5.47485c-0.00285,-0.019 -0.0057,-0.03895 -0.0095,-0.0589c-0.0038,0.01805 -0.0057,0.0361 -0.0095,0.0551c-0.24035,1.1875 -0.54435,2.3674 -0.72675,3.57485c-0.1292,0.86545 -0.27075,1.72615 -0.3819,2.59255c-0.0988,0.779 -0.3629,1.5181 -0.45505,2.2914c0.08835,0.0684 0.13015,0.1672 -0.02945,0.1748c-4.4118,0.209 -8.702,-0.4978 -13.05585,-1.08965c-2.07195,-0.28215 -5.168,-0.61655 -5.9546,-2.9355c0,-0.00285 -0.00285,-0.0038 -0.00285,-0.0057c0.00475,-0.38285 0.0228,-0.76475 0.04465,-1.14665c0.08645,-1.5257 0.2888,-3.0419 0.47975,-4.55905c0.209,-1.66155 0.3971,-3.325 0.37905,-5.00555c-0.0019,-0.17385 0.36195,-0.1102 0.36385,0.0342c0.0076,0.73625 -0.0304,1.46965 -0.08645,2.20115c-0.2166,2.83955 -0.7847,5.64965 -0.8189,8.50535c0.00095,0.00095 0.0019,0.00095 0.0019,0.0019c0.33535,0.9975 1.1419,1.59885 2.12705,1.9855c0.7448,0.29165 1.5903,0.4636 2.4187,0.58235c0.8683,0.12445 1.7138,0.1976 2.39495,0.3021c3.7753,0.58425 7.5601,1.0526 11.38765,0.8949c-0.00095,-0.0076 -0.0114,-0.01425 -0.01045,-0.02375c0.09215,-0.77805 0.3591,-1.52095 0.45885,-2.30565c0.1102,-0.8664 0.25745,-1.7271 0.38285,-2.59255c0.22895,-1.577 0.68495,-3.10175 0.92245,-4.6664c0.02375,-0.1539 0.33915,-0.05795 0.36005,0.0627c0.32585,1.91995 0.6802,3.85605 0.6194,5.814c-0.02375,0.77995 -0.3667,2.8557 0.31635,3.47605c3.14355,-0.3306 6.26335,-0.82555 9.2283,-1.9589c0.31635,-0.11875 4.46975,-2.1508 4.7652,-3.33925c0.00665,-0.0285 0.00855,-0.05605 0.0114,-0.08265c0.0076,-0.07885 -0.0038,-0.1539 -0.03705,-0.2223c-0.057,-0.0228 -0.1064,-0.05415 -0.1178,-0.10165c-0.0057,-0.02375 -0.01045,-0.04845 -0.0171,-0.0722c0,-0.00095 0,-0.00095 -0.00095,-0.0019c-0.07505,-0.05985 -0.0646,-0.10545 -0.0304,-0.1387c-0.5548,-2.2838 -0.9006,-4.6018 -1.2179,-6.9331c-0.1463,-1.0716 -0.3344,-2.14605 -0.42275,-3.2262c-0.0684,-0.83125 -0.05035,-1.7689 -0.34295,-2.5612c-0.00665,-0.01805 -0.0095,-0.03705 -0.01615,-0.0551c-0.07315,-0.1824 0.285,-0.1615 0.33725,-0.02755c0.57475,1.4706 0.46645,3.44185 0.68115,4.997c0.36385,2.66095 0.722,5.32 1.36325,7.9306z" id="Outline_10_" fill="#000000"/>
      </g>
      <g data-paper-data="{&quot;origPos&quot;:null}" id="Neck" stroke="none" stroke-width="1">
        <path d="M242.28422,124.5186c-4.21325,0.2109 -6.61485,-2.3712 -7.40335,-3.4048l0.209,-2.736l0.06935,-0.92245c0.05985,0.0323 0.11875,0.06555 0.17955,0.095c2.3123,1.1267 5.2497,2.375 7.8584,2.4263c0.04085,0.00095 0.06935,-0.00285 0.0893,-0.0076c0.00095,0 0.0019,0 0.0019,0c0.6479,-0.15295 1.2673,-0.44365 1.8544,-0.80085c0.0209,2.18215 1.90665,1.8848 2.34365,1.786c-0.1881,1.03835 -1.0659,3.3573 -5.2022,3.5644z" data-paper-data="{&quot;origPos&quot;:null}" id="Fill_1_" fill="url(#color-2)"/>
        <path d="M235.09082,118.3778l-0.21755,2.85095l-0.19475,-0.28025l-0.1216,-0.1748l0.2375,-2.75215l0.1482,-0.8911l0.2375,0.05985l-0.01995,0.2641l-0.06935,0.9234" id="L_Side" fill="#000000"/>
        <path d="M247.57952,120.9314c0,0 -2.41205,0.70585 -2.4358,-1.76415c-0.00095,-0.0969 -0.0057,-0.1881 0.00095,-0.2945h0.2375c0,0 -0.25745,2.29615 2.1774,1.8411l0.0171,0.1824z" id="R_Side" fill="#000000"/>
      </g>
      <path d="M253.48947,103.32882c0.7885,1.80215 -0.51965,3.6366 -1.08965,5.29815c-0.00855,0.02565 -0.0437,0.03325 -0.07885,0.0399c-0.12635,1.85345 -0.65265,3.6556 -1.74135,5.2516c-0.9538,1.40315 -2.19355,2.64575 -3.46465,3.7582c-0.46075,0.4028 -0.9614,0.81035 -1.4915,1.17515c0.00855,0.00285 0.01425,0.0076 0.02185,0.01045c-0.171,0.0722 -0.32395,0.1634 -0.4598,0.2736c-0.59945,0.3686 -1.23405,0.6688 -1.89715,0.82555c-0.00095,0 -0.0019,0 -0.0019,0c-0.01995,0.0057 -0.0494,0.00855 -0.0893,0.0076c-2.6087,-0.0513 -5.54515,-1.2996 -7.8584,-2.4263c-0.09975,-0.04845 -0.1938,-0.1045 -0.2926,-0.15485c0.00095,0.0038 0.0019,0.0076 0.00285,0.0114c-0.1292,-0.09025 -0.2736,-0.16245 -0.43035,-0.22135c0.0076,-0.0019 0.01235,-0.00475 0.01995,-0.0057c-2.54125,-1.38225 -4.7234,-3.3972 -5.7247,-6.16835c-0.44555,0.475 -1.0013,0.7619 -1.71475,0.4807c-1.2844,-0.50445 -2.4263,-1.59505 -3.1521,-2.7455c-1.23025,-1.9437 -0.09975,-5.85675 2.24485,-5.1262c0.08455,0.0266 0.16625,0.0437 0.25365,0.08265c-0.1406,-1.0013 -1.41835,-11.0181 3.28985,-14.21105c2.71605,-1.8411 5.3352,-2.7474 8.2555,-2.926c2.26005,-0.13775 4.7044,0.16245 7.5126,0.8094c0.1862,0.0437 0.36955,0.08265 0.55955,0.12825c6.7393,1.63305 7.676,9.68335 6.49515,13.4216c0,0 -0.01045,0.0095 -0.0266,0.0228c0.0019,0.0076 0.01805,0.0171 0.01425,0.02375c-0.28595,0.5396 -0.4845,1.21315 -0.58805,1.89715c0.02185,-0.0095 0.0494,-0.0095 0.0722,-0.0171c0.50065,-0.17195 1.12765,-0.04845 1.35945,0.4845zM250.32407,113.46912c1.8012,-2.64385 1.86675,-6.1636 1.1495,-9.18555c-0.0076,-0.0323 0.0171,-0.05035 0.05985,-0.0589c-0.0931,-1.11435 0.13205,-2.4396 0.63555,-3.3896c0.0019,-0.0038 0.01045,-0.0019 0.01235,-0.00475c0.2375,-0.87495 3.2281,-12.83355 -10.4234,-13.75315c-14.1018,-0.95 -15.7947,7.2751 -14.9245,16.7789c0.0855,0.0494 0.16815,0.08645 0.25555,0.14725c0.20235,0.1406 -0.27645,0.09405 -0.3743,0.0285c-0.4199,-0.2926 -0.7828,-0.38855 -1.09535,-0.3458c-0.019,0.00285 -0.03705,0.0076 -0.0551,0.01045c-1.3471,0.25935 -1.7119,3.1711 -1.4592,4.18c0.1976,0.78945 0.73055,1.463 1.27395,2.0387c0.32585,0.34485 0.7125,0.62795 1.0887,0.9158c1.04785,0.81035 1.80025,0.38 2.38165,-0.47975c0,-0.00095 -0.00095,-0.00095 -0.00095,-0.0019c0.38095,-1.00985 -1.3129,-0.62415 -1.85155,-0.69065c-0.83885,-0.09975 -1.57795,-0.49115 -1.91995,-1.29295c-0.04275,-0.09975 0.4142,-0.05415 0.4731,0.0779c0.6118,1.42595 1.91805,0.80845 3.0685,0.89205c0.57475,0.04085 0.9424,0.5149 0.7068,1.14095c-0.06935,0.1026 -0.1444,0.19855 -0.2204,0.29355c-0.01615,0.01995 -0.0304,0.0418 -0.04655,0.06175c0.02375,0.00285 0.0456,0.01235 0.06935,0.01805c0.09595,0.02185 0.1881,0.05795 0.2071,0.1121c1.0165,2.945 3.325,4.9552 6.02585,6.3631c2.1565,1.12955 5.111,2.36075 7.5848,2.4244c1.4117,-0.34675 2.62105,-1.3357 3.72115,-2.24295c0.513,-0.4237 0.99845,-0.8911 1.4687,-1.3756c0.25365,-0.26125 0.5016,-0.5263 0.74005,-0.8018c0.5187,-0.5966 1.00985,-1.2179 1.44875,-1.8601zM252.99167,105.87197c0.16435,-0.45885 0.22705,-0.9291 0.2508,-1.4136c0.00285,-0.2451 -0.0171,-0.48925 -0.0589,-0.73245c-0.0513,-0.51395 -0.43795,-0.6137 -1.1609,-0.2964c-0.0019,0.0057 -0.0152,0.0038 -0.01995,0.00855c-0.02945,0.42085 -0.0323,0.8341 0.0247,1.20745c0.0019,0.0114 -0.0152,0.01235 -0.01995,0.0209c0.1995,0.91865 0.31445,1.84965 0.33915,2.7778c0.2242,-0.51965 0.45315,-1.03835 0.64505,-1.57225z" data-paper-data="{&quot;origPos&quot;:null}" id="Outline_4_" fill="#000000" stroke="none" stroke-width="1"/>
      <path d="M252.34034,107.49382c-0.0247,-0.92815 -0.1666,-1.94611 -0.3661,-2.86476c0.00475,-0.00855 0.02304,-0.01053 0.02114,-0.02193c-0.057,-0.37335 -0.03732,-0.79585 -0.00787,-1.2167c0.00475,-0.00475 0.01856,-0.00301 0.02046,-0.00871c0.72295,-0.3173 1.14093,-0.21692 1.19223,0.29703c0.0418,0.2432 0.07406,0.49373 0.07121,0.73883c-0.02375,0.4845 -0.08613,1.03608 -0.25048,1.49493c-0.1919,0.5339 -0.45639,1.06165 -0.68059,1.5813z" data-paper-data="{&quot;noHover&quot;:false,&quot;origItem&quot;:[&quot;Path&quot;,{&quot;applyMatrix&quot;:true,&quot;segments&quot;:[[[252.99167,105.84145],[-0.1919,0.5339],[0.16435,-0.45885]],[[253.24247,104.42785],[-0.02375,0.4845],[0.00285,-0.2451]],[[253.18357,103.6954],[0.0418,0.2432],[-0.0513,-0.51395]],[[252.02267,103.399],[0.72295,-0.3173],[-0.0019,0.0057]],[[252.00272,103.40755],[0.00475,-0.00475],[-0.02945,0.42085]],[[252.02742,104.615],[-0.057,-0.37335],[0.0019,0.0114]],[[252.00747,104.6359],[0.00475,-0.00855],[0.1995,0.91865]],[[252.34662,107.4137],[-0.0247,-0.92815],[0.2242,-0.51965]]],&quot;closed&quot;:true,&quot;strokeWidth&quot;:null}]}" fill="url(#color-3)" stroke="none" stroke-width="NaN"/>
      <g data-paper-data="{&quot;origPos&quot;:null}" id="Hair" stroke="#000000" stroke-width="0.5">
        <path d="M253.16932,99.3417c0.0019,0.8968 0.057,1.98265 -0.50825,2.73125c-0.22135,0.2907 -0.46075,0.5567 -0.6688,0.8455l-0.09215,0.09595c0.04845,-0.14915 0.1976,-0.95665 0.3325,-1.98645c0.13015,0.10355 0.40755,0.0931 0.42655,-0.10355c0.23465,-3.38105 0.0817,-7.94295 -3.22335,-9.90755c-0.8854,-0.52915 -1.8715,-0.81225 -2.888,-0.9462c-1.57985,-0.2071 -3.1749,-0.43225 -4.7633,-0.51015c-2.9298,-0.14345 -6.12655,-0.13585 -8.8635,1.04785c-1.79075,0.7752 -3.9672,2.10615 -4.82125,3.9425c-0.8455,1.80975 -1.36325,4.3871 -0.6004,6.3175c0.4617,1.17135 1.0298,2.35125 1.5637,3.49315c0.18715,0.4104 0.49495,0.7904 0.6555,1.20745c0.18525,0.48925 -0.2926,0.83505 -0.703,1.0963c-0.4883,-1.026 -0.99845,-1.94845 -1.7651,-2.8196c-0.04845,-0.05605 -0.12825,-0.08075 -0.2071,-0.08455c-0.0133,-0.0228 -0.0285,-0.0456 -0.0551,-0.06935c-0.62985,-0.57665 -1.13715,-1.25875 -1.5314,-2.01685c0.00475,-0.01425 0.0209,-0.01805 0.02185,-0.03515c0.00475,-0.13585 -0.038,-0.22895 -0.1387,-0.32015c-0.14725,-0.1292 -0.1957,-0.37715 -0.2451,-0.55765c-0.0855,-0.323 -0.1083,-0.627 -0.29735,-0.8968c-0.095,-0.4294 -0.15485,-0.86355 -0.1881,-1.30055c0.0133,-0.02755 0.00855,-0.05985 -0.0095,-0.09595c-0.00095,-0.0247 -0.0057,-0.04845 -0.00665,-0.0722c-0.0057,-0.0779 -0.06935,-0.12635 -0.1444,-0.1596c-0.1862,-0.4028 0.15485,-0.81415 0.23845,-1.2445c0.01235,-0.0589 -0.00855,-0.11115 -0.04655,-0.152c0.05795,-0.51585 0.15105,-1.0241 0.2774,-1.5276c0.0304,-0.0095 0.05795,-0.0247 0.0798,-0.0475c0.26695,-0.2869 0.16815,-0.64885 0.2242,-1.0013c0.06365,-0.3952 0.41325,-0.6327 0.49495,-1.0222c0.0076,-0.03325 -0.01425,-0.05795 -0.0247,-0.0855c0.24035,-0.50635 0.50635,-0.99655 0.81035,-1.4687c0.0114,-0.0171 0.0133,-0.0342 0.0171,-0.0513c0.07885,-0.0703 0.1463,-0.15105 0.1596,-0.2584c0.0209,-0.1368 -0.00855,-0.28405 0.019,-0.41895c0.07885,-0.4028 0.6365,-0.6498 0.96995,-0.81985c0.0266,-0.0133 0.04275,-0.02945 0.0589,-0.0456c0,-0.00095 0.00095,-0.00095 0.00095,-0.00095v0c0.00665,-0.00665 0.0133,-0.01235 0.01805,-0.01805c0.4484,-0.494 0.9424,-0.9386 1.4706,-1.34615c0.1406,0.04465 0.31255,0.0152 0.3116,-0.14345c-0.0057,-1.1058 1.51715,-1.08585 2.2876,-1.30625c0.09405,-0.02755 0.1178,-0.07885 0.1045,-0.13395c0.5738,-0.2508 1.15615,-0.4712 1.75275,-0.6555c0.10925,0.04655 0.2527,0.05035 0.3268,-0.03325c0.5605,-0.6251 1.2236,-0.7619 2.01305,-0.51585c0.0095,0.0038 0.01425,-0.0019 0.02375,0c0.0076,-0.00095 0.0133,0.00475 0.0209,0.0038c0.0133,-0.0019 0.0266,-0.00285 0.0399,-0.00475c0.0399,0 0.07885,0.0019 0.10735,-0.01425c0.70965,-0.10165 1.42025,-0.17575 2.1375,-0.21945c0.0247,-0.00095 0.02565,-0.0152 0.04465,-0.01995c0.02755,0.01235 0.05035,0.03325 0.0855,0.03515c0.4997,0.03135 0.9842,0.01995 1.4801,-0.05415c0.5776,-0.0855 1.25115,-0.20615 1.8012,0.06175c0.0114,0.0019 0.0171,0.0114 0.02945,0.01235c0.0038,0 0.00665,0.00095 0.01045,0.00095c0.0703,0.038 0.13775,0.03705 0.19665,0.019c0.44365,0.03515 0.8873,0.0741 1.32905,0.1254c0.0665,0.0076 0.1045,-0.01045 0.1387,-0.03135c0.09405,0.0475 0.21185,0.0646 0.29165,0.01235c0.63745,-0.4123 1.5504,0.2185 2.19925,0.36195c0.0152,0.00285 0.02185,-0.00475 0.0361,-0.0038c0.01045,0.00285 0.01615,0.01235 0.0285,0.0133c0.77995,0.08265 2.1375,0.1311 2.5137,0.96045c0.05795,0.1292 0.26885,0.17195 0.3895,0.12255c0.77995,0.1748 1.27965,0.86925 1.66915,1.5238c0.0057,0.0095 0.01615,0.0171 0.0247,0.0266c0.0019,0.0304 0.01235,0.0627 0.0456,0.10165c0.4522,0.5301 0.97375,1.0526 1.1134,1.7613c0.0133,0.06555 0.06555,0.11115 0.12825,0.1444c0.7011,0.7258 1.51715,1.7822 1.07635,2.8253c-0.0513,0.0342 -0.076,0.08835 -0.03895,0.16815c0.42465,0.92245 0.5168,2.0558 0.23845,3.0324c-0.0057,0.019 0.0114,0.03135 0.01235,0.0494c-0.05415,0.0342 -0.08265,0.0893 -0.04655,0.1729c0.26885,0.62035 0.32965,1.42595 0.01235,2.04155c-0.03325,0.0646 -0.0171,0.12255 0.0171,0.1729z" id="Fill" fill="url(#color-4)"/>
        <path d="M253.60536,97.08068c0.0152,-0.0171 0.0399,-0.02185 0.0475,-0.0475c0.28595,-1.0146 0.1957,-2.18595 -0.2318,-3.1521c0.0057,-0.00855 0.019,-0.00855 0.0228,-0.019c0.51965,-1.16565 -0.41135,-2.394 -1.19035,-3.1901c-0.0114,-0.0114 -0.02565,-0.01805 -0.03895,-0.0266c-0.0861,-0.33556 -1.11279,-3.33065 -1.29682,-3.62416c-0.26867,-0.42849 0.46911,2.18096 0.14067,1.79636c-0.00095,-0.00095 -0.0019,-0.00095 -0.00285,-0.0019c-0.00475,-0.0114 -0.0038,-0.02185 -0.0114,-0.03515c-0.48545,-0.8189 -1.1191,-1.6606 -2.11755,-1.8316c-0.02185,-0.0038 -0.0342,0.0076 -0.0551,0.0076c-0.5548,-0.8664 -1.9114,-0.9861 -2.84525,-1.08395c-0.84835,-0.19095 -1.77935,-0.82365 -2.62105,-0.30305c-0.0361,-0.0247 -0.0722,-0.0513 -0.1216,-0.057c-0.47405,-0.05415 -0.9481,-0.09785 -1.42215,-0.1311c-1.04595,-0.4503 -2.337,0.0342 -3.42665,-0.03515c-0.05415,-0.00285 -0.08075,0.0171 -0.114,0.03135c-0.04465,-0.02185 -0.0912,-0.0418 -0.1406,-0.03895c-0.50445,0.0285 -1.00795,0.07885 -1.50955,0.1387c-0.2242,0.0266 -0.4484,0.0532 -0.67165,0.08645c-0.08075,-0.0228 -0.1615,-0.0456 -0.2413,-0.0608c-0.7106,-0.1387 -1.35755,0.0019 -1.90855,0.4636c-0.0304,0.02565 -0.05985,0.05605 -0.09025,0.0836c-0.02375,-0.00095 0.71178,-1.71053 0.68898,-1.70483c-0.18145,0.05225 -1.11648,1.83023 -1.29508,1.88913c-0.66785,0.21755 -1.3243,0.4636 -1.9589,0.76855c-0.0209,0.01045 -0.0323,0.0228 -0.04655,0.0342c-0.62415,0.13395 -1.3509,0.2565 -1.767,0.66595c-0.04845,0.04845 -0.09215,0.1007 -0.1311,0.1577c-0.076,0.1102 -0.12825,0.24035 -0.1615,0.38855c-0.00095,0.00095 -0.0038,0.00095 -0.00475,0.0019c-0.64315,0.4674 -1.2236,1.0032 -1.75845,1.5884c-0.34295,0.171 -0.817,0.3914 -1.00225,0.72485c-0.0969,0.17385 -0.0874,0.3857 -0.12065,0.57095c-0.01235,0.0703 -0.038,0.1349 -0.07315,0.19285c-0.0304,0.0494 -0.05985,0.0988 -0.1197,0.133c-0.0893,0.05225 -0.08835,0.1216 -0.04085,0.18145c-0.30875,0.5016 -0.5871,1.0146 -0.83125,1.5504c-0.0228,0.05035 -0.01045,0.09595 0.019,0.13395c-0.13015,0.23655 -0.3477,0.43035 -0.39235,0.7087c-0.038,0.2413 0,0.5339 -0.0703,0.77425c-0.0038,0.01425 -0.01045,0.0266 -0.01615,0.0399c-0.00475,0.01425 -0.0171,0.02565 -0.0228,0.0399c-0.0779,0.00665 -0.1482,0.03325 -0.16815,0.1121c-0.14582,0.54373 -0.21076,-2.56622 -0.28878,-2.00871c-0.02697,0.19274 -0.03973,3.72255 -0.05797,3.91631c-0.00285,0.03515 0.0209,0.05985 0.0361,0.0893c-0.0798,0.25935 -0.45981,0.26884 -0.49971,0.53674c-0.038,0.28595 0.27646,0.74386 0.44461,0.95951c0.03325,0.43035 0.0931,0.85405 0.18335,1.2768c-0.0285,0.04085 -0.0285,0.095 0.0304,0.1596c0.228,0.25555 0.2413,0.6536 0.3268,0.9747c0.03325,0.13205 0.076,0.26125 0.1406,0.38095c0.03895,0.06935 0.13585,0.16435 0.1748,0.25175c-0.0323,0.0342 -0.04085,0.0817 -0.0076,0.1463c0.4313,0.85025 0.9994,1.6017 1.7043,2.24295c0.04845,0.0456 0.1102,0.0646 0.17005,0.0665c0.00285,0.00285 0.00285,0.0057 0.0057,0.00855c0.1995,0.228 0.38285,0.4598 0.55195,0.69635c0.03515,0.0494 0.0646,0.1007 0.0988,0.1501c0.4655,0.67735 0.8379,1.3927 1.19605,2.166c0.0684,0.14535 0.28215,0.19855 0.4161,0.11115c0.27265,-0.18335 0.6327,-0.3971 0.8778,-0.6707c0.02185,-0.0247 0.0456,-0.04845 0.06555,-0.0741c0.1539,-0.19665 0.2432,-0.4237 0.1957,-0.69255c-0.12445,-0.6878 -0.77235,-1.4991 -1.0469,-2.147c-0.4332,-1.0355 -1.15995,-2.1052 -1.38035,-3.20815c-0.2185,-1.0887 -0.21185,-2.22775 0.0057,-3.3174c0.50255,-2.5194 1.89715,-4.21515 4.13915,-5.47865c2.72365,-1.5333 5.9413,-1.7556 9.0079,-1.64445c1.7651,0.0627 3.51025,2.5885 5.26585,2.7861c0.93005,0.1045 1.87435,-1.97955 2.70085,-1.5188c3.34495,1.86675 3.46085,6.3764 3.22525,9.7299c-0.0038,0.05605 0.02375,0.10165 0.06555,0.13585c0.13015,0.1026 0.4085,0.09215 0.42655,-0.10355c0.23465,-3.38105 1.223,-2.05019 -2.083,-4.01574c-0.8854,-0.52915 0.50166,-6.70406 -0.51484,-6.83801c-1.57985,-0.2071 -6.68841,-0.43225 -8.27681,-0.51015c-2.9298,-0.14345 -5.55637,1.95384 -8.29332,3.13849c-1.79075,0.7752 -4.53738,0.01646 -5.39143,1.85186c-0.8455,1.80975 -1.36325,4.3871 -0.6004,6.3175c0.4617,1.1704 1.0298,2.35125 1.5637,3.49315c0.18715,0.4104 0.49495,0.78945 0.6555,1.20745c0.18525,0.4902 -0.2926,0.83505 -0.703,1.0963c-0.4883,-1.026 -0.99845,-1.9475 -1.7651,-2.8196c-0.0494,-0.05605 -0.12825,-0.0798 -0.2071,-0.08455c-0.0133,-0.0228 -0.0285,-0.0456 -0.0551,-0.06935c-0.62985,-0.57665 -1.13715,-1.25875 -1.5314,-2.01685c0.00475,-0.01425 0.0209,-0.019 0.02185,-0.03515c0.0057,-0.13585 -0.03705,-0.22895 -0.1387,-0.32015c-0.14725,-0.1292 -2.54227,-2.72277 -2.59167,-2.90422c-0.0855,-0.323 2.23827,1.71862 2.04922,1.44977c-0.095,-0.4294 -0.1558,-0.86355 -0.1881,-1.30055c0.0133,-0.0266 0.00855,-0.0589 -0.0095,-0.09595c-0.00095,-0.02375 -0.0057,-0.0475 -0.00665,-0.0722c-0.0057,-0.0779 -0.0703,-0.12635 -0.1444,-0.1596c-0.1862,-0.40185 0.15485,-0.8132 0.23845,-1.2445c0.01235,-0.0589 -0.00855,-0.1102 -0.04655,-0.152c0.05795,-0.51585 0.15105,-1.0241 0.2774,-1.5276c0.0304,-0.01045 0.05795,-0.0247 0.0798,-0.0475c0.26695,-0.2869 -0.60074,-4.40336 -0.54564,-4.75581c0.0627,-0.3952 1.18309,3.12181 1.26479,2.73231c0.0076,-0.03325 -0.01425,-0.05795 -0.0247,-0.0855c0.2394,-0.50635 0.50635,-0.99655 0.81035,-1.4687c0.0114,-0.01805 0.0133,-0.0342 0.0171,-0.0513c0.07885,-0.0703 0.1463,-0.15105 0.1596,-0.2584c0.01995,-0.13775 -0.0095,-0.285 0.019,-0.41895c0.07885,-0.4028 0.6365,-0.65075 0.96995,-0.81985c0.0266,-0.0133 0.04275,-0.02945 0.0589,-0.0456c0,0 0.00095,0 0.00095,-0.00095v0c0.0057,-0.0057 -0.29889,-4.20229 -0.29414,-4.20894c0.4484,-0.494 1.25459,3.25229 1.78279,2.84474c0.64547,0.20062 0.58015,-3.34328 0.89301,-3.94245c0.25064,-0.48001 0.59511,1.75926 0.59187,1.21777c-0.0057,-1.1058 0.34482,1.49538 1.11432,1.27498c0.09405,-0.0266 -0.58617,-3.83336 -0.59947,-3.88846c0.5738,-0.25175 1.86012,3.28236 2.45672,3.09901c0.10925,0.04655 0.2527,0.05035 0.3268,-0.03325c0.5605,-0.6251 1.2236,-0.7619 2.01305,-0.51585c0.0095,0.00285 0.01425,-0.0019 0.02375,0c0.0076,0 0.0133,0.00475 0.0209,0.0038c0.0133,-0.0019 0.0266,-0.00285 0.0399,-0.00475c0.0399,0 -1.09443,-3.04769 -1.06688,-3.06384c1.139,-0.16467 1.36835,0.16254 2.15138,1.00593c0.39519,0.42566 0.57961,1.85973 1.15941,1.82517c0.0247,-0.00095 0.0266,-0.0152 0.04465,-0.01995c0.0285,0.01235 0.05035,0.03325 0.0855,0.03515c0.4997,0.03135 0.9842,-3.03059 1.48105,-3.10374c0.5776,-0.0855 1.2502,2.84439 1.8012,3.11229c0.0114,0.0019 0.01805,0.0114 0.02945,0.01235c0.0038,0 0.00665,0.00095 0.01045,0.00095c0.0703,0.038 0.13775,0.0361 0.19665,0.019c0.44365,0.03515 0.8873,0.0741 1.32905,0.1254c0.0665,0.0076 -0.27467,-1.1508 -0.24142,-1.1717c0.09405,0.04655 0.35731,-1.84559 0.43711,-1.89784c0.63745,-0.4123 1.78506,3.26904 2.43296,3.41344c0.0152,0.00285 0.02185,-0.00475 0.0361,-0.0038c0.0114,0.0019 0.0171,-2.10051 0.0285,-2.09861c0.779,0.08265 1.90284,0.83507 2.27904,1.66442c0.0589,0.1292 1.91145,-1.00133 2.0321,-1.05073c0.77995,0.1748 -0.12829,3.44953 0.26121,4.10503c0.00665,0.01045 0.0171,0.01805 0.0247,0.0266c0.0019,0.0304 0.01235,0.06365 0.0456,0.10165c0.4522,0.5301 0.9728,1.05165 1.1134,1.7613c0.01235,0.0627 2.88048,-1.06403 2.94413,-1.03078c0.7011,0.7258 -1.29778,2.95548 -1.73763,3.99763c-0.0513,0.0342 2.50523,-1.5552 2.54228,-1.47445c0.42465,0.9234 -2.06443,3.6984 -2.34278,4.675c-0.0057,0.019 0.0114,0.0323 0.01235,0.0494c-0.05415,0.0342 -0.08265,0.0893 -0.04655,0.1729c0.2679,0.62035 0.32965,1.42595 0.01235,2.04155c-0.03325,0.0646 -0.01805,0.12255 0.0171,0.1729c0.0019,0.8968 0.057,1.98265 -0.50825,2.73125c-0.22135,0.2907 -0.46075,0.5567 -0.6688,0.8455c-0.1121,0.15675 -0.21755,0.3173 -0.30115,0.49685c-0.0988,0.21565 0.3762,0.35055 0.4769,0.13015c0.28785,-0.62605 0.90535,-1.03075 1.1685,-1.6682c0.3344,-0.81035 0.3173,-1.7252 0.31825,-2.58495c0,-0.0152 -0.01615,-0.0228 -0.01995,-0.03705c0.2964,-0.6821 0.25555,-1.49435 -0.03135,-2.1736z" data-paper-data="{&quot;origPos&quot;:null}" id="Outline" fill="url(#color-5)"/>
      </g>
      <path d="M237.30665,100.42398c0.28025,0.06175 0.90268,1.033 0.61673,0.9684c-0.88368,-0.19646 -1.34258,-0.571 -2.18453,-0.90357c-1.51368,-0.59792 -3.01162,-0.88594 -3.61047,0.62737c-0.04275,0.10735 0.4256,0.25745 0.47785,0.1273c0.8341,-2.10425 2.73202,-1.25555 4.70042,-0.8195z" data-paper-data="{&quot;origPos&quot;:null}" id="L_Eyebrow" fill="#000000" stroke="none" stroke-width="1"/>
      <path d="M243.91157,101.54171c0,0 0.30448,-0.00866 0.49937,-0.34971c0.1018,-0.17816 0.26086,-0.84965 0.26086,-0.84965c1.8145,-0.68495 4.21325,-2.35731 5.3238,-0.42311c0.0722,0.1254 0.51965,0.15865 0.4731,0.0779c-0.67301,-1.1718 -2.52741,-0.57645 -3.77326,-0.0531c-0.61574,0.25866 -0.35844,-0.02295 -0.97109,0.24295c-0.82035,0.35604 -0.34389,0.60524 -1.1809,0.92012c-0.1596,0.05985 -0.74778,0.47639 -0.63188,0.43459z" data-paper-data="{&quot;origPos&quot;:null}" id="R_Eyebrow" fill="#000000" stroke="none" stroke-width="1"/>
      <path d="M238.89323,112.18199c0,0 5.18086,-3.17062 7.41211,-1.18851c0,0 0.32121,1.93544 0.16257,3.35114c-0.0076,0.06021 -0.22633,1.03532 -0.25768,1.09552c0,0.11254 -0.36893,0.11452 -0.43796,0.12359c-0.20709,0.02717 -0.70576,-0.69786 -0.70576,-0.34837c0,0.85683 -0.2814,-0.87797 -0.62435,-0.17088c-0.3002,0.61599 -0.96495,0.1668 -1.44375,0.26871c-0.7714,0.17291 -1.2822,0.37387 -1.95195,0.58788c-0.93747,-0.1595 -1.06799,0.2638 -1.7311,-0.26325c-0.12065,-0.27017 -0.10183,-1.66923 -0.19303,-1.94867c-0.51015,-0.51564 -0.39535,-0.41872 -0.2291,-1.50713z" data-paper-data="{&quot;origPos&quot;:null}" id="Mouth" fill="#700f10" stroke="none" stroke-width="1"/>
      <path d="M238.90315,111.51408c1.3806,-0.57218 2.96286,-1.22084 4.4185,-1.33885c1.28784,0.08478 2.0815,0.10043 2.74463,0.3777c0.51102,0.21367 -0.19039,0.30686 0.34989,0.18485c-0.01995,0.01805 0.34415,0.43729 0.32515,0.45629c-0.0057,0.00095 -0.11856,-0.21053 -0.12236,-0.20768c-0.24545,0.1882 -0.18692,0.83559 -0.49366,0.79591c-5.13636,-0.66444 -4.58546,1.12771 -7.206,-0.06875c-0.00855,-0.04465 -0.0114,-0.0893 -0.01615,-0.13395z" data-paper-data="{&quot;origPos&quot;:null}" id="Teeth" fill="#ffffff" stroke="none" stroke-width="1"/>
      <path d="M239.33925,115.75104c0.00475,-0.04465 0.0076,-0.03667 0.01615,-0.08132c2.66211,-0.23866 3.50673,-0.371 3.9974,-0.43525c0.16356,-0.02142 2.04502,0.17714 2.20861,0.15598c0.30674,-0.03968 0.564,-0.0765 0.80945,0.11169c0.0038,0.00285 -0.25176,0.05454 -0.24606,0.05549c0.019,0.019 -0.23984,0.22771 -0.21989,0.24576c-0.54028,-0.12201 0.21376,-0.39724 -0.29726,-0.18358c-0.66313,0.27727 -1.39664,0.09744 -2.11305,0.03936c-1.45564,-0.11801 -2.77474,0.67694 -4.15534,0.10476z" data-paper-data="{&quot;origPos&quot;:null,&quot;index&quot;:null}" id="Teeth" fill="#ffffff" stroke="none" stroke-width="1"/>
      <g id="Sweater" stroke="none" stroke-width="1">
        <path d="M266.58646,124.41087v0c-0.65835,0.9557 -1.54375,1.70905 -2.58115,2.1375c-0.56335,0.1919 -1.10865,0.32775 -1.7062,0.3819c-3.78575,0.18335 -6.69085,-2.49375 -5.8634,-6.3726c0,0 2.5479,-4.42035 9.13045,-2.06435c1.7841,1.5428 2.4263,3.87505 1.0203,5.91755z" id="Cuff" fill="#c0e1e1"/>
        <path d="M273.77891,133.24112v0c0.2451,1.05165 0.4484,2.10995 0.63365,3.173c0.4104,2.375 1.07445,4.84025 1.0431,7.2637c-0.0171,1.2312 -0.323,2.3161 -0.51965,3.51405c-0.13775,0.83885 -0.152,1.843 -0.5757,2.60015c-0.8189,1.46015 -1.84015,1.53995 -3.41145,1.5789c-2.8063,0.06935 -5.69525,-0.45695 -8.36665,-1.2844c-2.97825,-0.92055 -6.1028,-2.2838 -8.01325,-4.85545c-0.0228,-0.0304 -0.0741,-0.0551 -0.133,-0.0741c0.03325,-0.61655 0.0798,-1.23595 0.1577,-1.8658c0.00665,-0.0608 0.01425,-0.12255 0.02185,-0.18335c1.13905,-1.8848 2.30375,-3.83705 1.96935,-6.12085c-0.01995,-0.1425 -0.4978,-0.2337 -0.4769,-0.0703c0.2717,1.8411 -0.46075,3.4637 -1.349,5.0065c0.35055,-2.926 0.6327,-5.82445 0.41515,-8.7875c-0.0095,-0.1387 -0.48925,-0.2413 -0.47785,-0.07125c0.247,3.363 -0.19855,6.61295 -0.57095,9.92845c-0.0057,0.0114 -0.0133,0.0228 -0.01995,0.0342c-0.0057,0.01045 0.0114,0.0209 0.0133,0.03135c-0.0304,0.2698 -0.0608,0.53865 -0.0893,0.8094c-0.35625,3.3782 -0.057,6.5949 0.931,9.85815c1.15045,3.79905 2.9298,7.3188 4.313,11.0238c0.70585,1.8962 0.75525,3.66795 -0.5909,5.27535c-0.9006,1.0792 -1.98265,1.9817 -2.8766,3.06565c-0.1026,0.12635 0.35435,0.29165 0.4484,0.1786c0.5301,-0.6422 1.1419,-1.2464 1.7252,-1.85725c0.09025,0.91105 0.9652,1.83635 1.1172,2.68185c0.16435,0.90345 -1.577,1.6606 -2.2306,1.9988c-0.8512,0.44365 -1.7328,0.80845 -2.64195,1.11245c-4.3016,1.44875 -8.5519,3.78575 -13.0701,4.43935c-4.65025,0.67355 -9.3423,0.7182 -13.98305,0.114c-1.0317,-0.13395 -4.76995,-0.8094 -4.13915,-2.3313c0.1976,-0.475 0.5339,-0.96615 0.67545,-1.46015c0.0741,-0.2717 0.07695,-0.56715 0.06365,-0.8626c0.247,0.39425 0.48735,0.7106 0.4313,1.27585c-0.01615,0.16245 0.46455,0.26315 0.4788,0.1292c0.1083,-1.09155 -0.88825,-2.0064 -1.2236,-3.01435c-0.43605,-1.29675 -0.59755,-2.5574 -0.37145,-3.92065c0.475,-2.81485 0.82935,-5.59645 0.9253,-8.4512c0.1672,-5.1262 0.6441,-10.2011 1.4269,-15.2703v0c0,-0.00095 0.0019,0 0.0019,-0.00095c-0.04275,-1.10485 -0.30305,-2.1888 -0.4465,-3.2832c-0.00855,-0.05985 -0.09975,-0.1045 -0.1976,-0.13205c-0.94525,-0.9329 -1.8772,-1.8012 -2.56405,-2.97065c-0.0665,-0.1197 -0.5415,-0.1862 -0.4408,-0.0076c0.73055,1.2464 1.7366,2.14225 2.74265,3.15115c0.1444,1.03645 0.38475,2.06625 0.4256,3.11315c0,0.00095 -0.0019,0.00095 -0.0019,0.00095c-0.1178,0.76475 -0.21565,1.5295 -0.32015,2.2952c-0.05795,0.0019 -0.1064,0.0171 -0.1235,0.057c-0.323,0.76475 -0.8512,1.44305 -1.2521,2.16695c-0.65645,1.1894 -1.1761,2.4738 -1.66725,3.73825c-1.159,2.9887 -2.0805,6.07145 -3.3573,9.01455c-0.55005,1.2673 -1.1856,2.47665 -1.52475,3.8247c-0.3192,1.27015 -0.532,2.5593 -0.7315,3.8513c-0.3344,2.19165 -0.5586,4.5885 -1.72425,6.52555c-0.00095,0.0019 0.0019,0.0038 0.0019,0.00475c-0.00095,0.0019 -0.0038,0.0019 -0.0038,0.00285c-1.0545,5.0255 -7.2124,4.82885 -10.65425,2.36835c-1.8943,-1.3509 -3.46085,-3.70975 -3.20245,-6.1484c0.17195,-1.66345 1.09915,-3.0058 2.2895,-4.1363c0.84265,-0.7999 1.89525,-1.6625 2.2287,-2.83005c0.4864,-1.7138 0.5643,-3.5359 1.0488,-5.26015c0.475,-1.69765 1.1875,-3.23665 1.88765,-4.84405c1.5105,-3.47225 2.1546,-7.16775 3.2509,-10.7749c1.11435,-3.65845 2.4016,-7.2618 3.45515,-10.93735c0.513,-1.78125 0.98515,-3.5739 1.4839,-5.35895c0.4693,-1.67675 0.7866,-3.5321 1.8848,-4.92765c0.00095,-0.00095 0,-0.00095 0,-0.0019c1.47345,-1.2635 2.99915,-2.55455 4.84595,-3.2243c1.95605,-0.7106 4.0584,-1.01175 6.12275,-1.32905c0.3021,-0.04655 0.60515,-0.0931 0.90535,-0.1406c0.02945,-0.00475 0.0589,-0.0095 0.08835,-0.01425l3.82375,-0.28025c0,0 1.6226,3.325 7.125,3.64135c5.5024,0.31635 6.05625,-3.75725 6.05625,-3.75725l3.47415,1.0355l0.09975,0.02945c0.0171,0.0247 0.05415,0.05225 0.12445,0.08075c0.1121,0.04465 0.22895,0.08455 0.34295,0.12635c1.0203,0.3781 2.09,0.6878 2.9887,1.3053c0.06745,0.532 0.1634,1.0602 0.30875,1.56275c0.49495,1.73375 1.50765,3.21005 2.6277,4.59705c0.46645,2.47 1.9532,4.6911 2.40825,7.1573c0.71725,3.9045 3.12455,6.69465 6.78395,8.1662c0.20615,0.0817 0.4959,-0.03705 0.1786,-0.16435c-1.93325,-0.77615 -3.67745,-1.96365 -4.85925,-3.71165c-1.02885,-1.5238 -1.23215,-3.04095 -1.7613,-4.73005c-0.6194,-1.9798 -1.60835,-3.93015 -2.11565,-5.9508c0.15485,0.1843 0.31065,0.3686 0.4655,0.551c0.0912,0.10545 0.5662,0.15295 0.44555,0.0057c-0.35245,-0.41325 -0.71535,-0.8341 -1.0716,-1.2673c-0.00095,-0.00285 -0.00095,-0.00475 -0.0019,-0.0076c-0.0019,-0.0114 -0.0209,-0.019 -0.0285,-0.02945c-1.06875,-1.3034 -2.07005,-2.7094 -2.5289,-4.3168c-0.2451,-0.86735 -0.53105,-1.93705 -0.4617,-2.8424c0.019,-0.25555 0.0703,-0.48735 0.1387,-0.70585c0.00665,-0.0209 0.0114,-0.0437 0.019,-0.0646c0.0703,-0.2071 0.16435,-0.399 0.2736,-0.5795c0.01425,-0.0228 0.0266,-0.04655 0.04085,-0.0684c0.114,-0.17955 0.24415,-0.34865 0.38855,-0.5092c0.0152,-0.01615 0.0285,-0.03135 0.0437,-0.0475c0.15295,-0.1672 0.31825,-0.3268 0.49685,-0.4845v0c0.076,-0.0665 0.152,-0.13395 0.2318,-0.20045l0.2869,-0.14535c-0.0912,0.133 -0.18715,0.24795 -0.2755,0.39235c-0.44555,2.08335 0.0019,4.06125 1.70525,5.42735c1.31955,1.05545 3.22335,1.5276 4.8925,1.3718c2.0615,-0.1919 3.76295,-1.2882 4.7633,-3.1198c1.1362,-2.08335 0.3306,-4.2579 -1.36325,-5.71805c-0.01805,-0.01615 -0.04465,-0.02945 -0.07315,-0.0399c-0.21375,-0.1121 -0.8835,-0.4427 -1.8012,-0.71535c0.6156,-0.0038 1.64635,0 2.0368,0.0665c3.03145,0.75905 4.1743,3.01055 4.69965,5.87765c0.48355,2.64005 0.79515,5.2877 2.0805,7.69025c0.0038,0.0076 0.019,0.01235 0.02565,0.019c0.304,0.6536 0.68685,1.23025 0.85405,1.94845z" id="Fill_3_" fill="#302d63"/>
        <path d="M275.04051,137.39832v0c0.44175,2.57925 1.06495,5.15185 0.81605,7.78335c-0.1045,1.1058 -0.45885,2.1926 -0.62225,3.29365c-0.1387,0.95855 -0.4864,1.75465 -1.1077,2.489c-0.67165,0.7923 -2.242,0.63175 -3.1825,0.6536c-3.02765,0.076 -6.15315,-0.59375 -9.02025,-1.5143c-2.75975,-0.8854 -5.6316,-2.24675 -7.50785,-4.5353c-0.1102,2.93835 0.2755,5.7608 1.15615,8.6678c1.1875,3.91875 3.1901,7.5202 4.46025,11.3943c0.72485,2.21065 -0.21945,3.75535 -1.4991,5.1851c0.0057,0.0133 0.02565,0.02755 0.019,0.04085c-0.60135,1.30815 1.30435,2.49755 1.026,3.8019c-0.11875,0.55955 -1.5314,1.20745 -1.9912,1.46205c-1.05925,0.59185 -2.16695,1.0279 -3.3155,1.4136c-1.8145,0.61085 -3.5948,1.33665 -5.3827,2.0292c-0.5643,0.21945 -1.12955,0.4332 -1.69765,0.6403c-2.2496,0.8227 -4.5391,1.4991 -6.93785,1.7765c-0.1083,0.01235 -0.21565,0.02945 -0.32395,0.0399c-0.14535,0.0152 -0.2888,0.0437 -0.4351,0.0551c-4.5904,0.34675 -9.2625,0.7828 -13.7769,-0.3933c-0.89775,-0.2337 -2.83575,-0.69255 -3.2528,-1.6834c-0.2413,-0.57285 0.4066,-1.4478 0.67545,-1.9722c0.26315,-0.5092 0.13015,-1.1913 0.1121,-1.7347c-0.00095,-0.03135 0.0304,-0.0475 0.076,-0.05415c-0.1748,-0.3857 -0.33535,-0.7752 -0.47215,-1.18085c-0.40755,-1.2027 -0.42655,-2.36835 -0.24795,-3.61095c0.0057,-0.0418 0.01235,-0.0836 0.01805,-0.1254c0.038,-0.266 0.076,-0.5301 0.114,-0.79515c0.3629,-2.50895 0.7106,-4.978 0.79135,-7.53065c0.12255,-3.9615 0.44555,-7.8945 0.9443,-11.8161c-0.20615,0.3363 -0.4237,0.665 -0.6194,0.9975c-0.6536,1.102 -1.1324,2.32465 -1.6131,3.51025c-0.0209,0.0513 -0.03895,0.1026 -0.0589,0.1539c-0.06555,0.1615 -0.1235,0.3268 -0.18715,0.48925c-1.1419,2.9127 -2.06435,5.909 -3.2794,8.797c-0.49495,1.1704 -1.0773,2.2762 -1.43735,3.49885c-0.3686,1.2445 -0.56525,2.53935 -0.7657,3.81995c-0.36005,2.3009 -0.5548,4.84215 -1.7803,6.88085c-0.8265,3.9463 -4.8241,4.7348 -8.24885,3.819c-0.93575,-0.2489 -1.8563,-0.6479 -2.698,-1.17135c-0.3933,-0.24415 -0.76855,-0.51775 -1.121,-0.8132c-1.9057,-1.5979 -3.1274,-3.91115 -2.6524,-6.5455c0.24985,-1.38985 1.2502,-2.5574 2.22585,-3.51025c1.21505,-1.1856 2.16885,-2.15745 2.4206,-3.9083c0.2375,-1.6663 0.5719,-3.31265 1.05355,-4.9286c0.55385,-1.8487 1.47345,-3.55015 2.19925,-5.33425c0.70585,-1.73755 1.121,-3.5245 1.5618,-5.3409c0.4902,-2.0159 1.0944,-4.00235 1.71665,-5.9793c1.19035,-3.77435 2.4605,-7.5107 3.5093,-11.3278c0.41135,-1.4877 0.8113,-2.9811 1.2369,-4.465c0.37335,-1.30245 0.68875,-2.5631 1.539,-3.6442c0.00095,-0.00095 0,-0.0019 0,-0.0019c1.50575,-1.2882 3.0381,-2.5403 4.90675,-3.2604c2.01115,-0.7733 4.23225,-1.05165 6.3688,-1.37465c0.2793,-0.0418 0.55765,-0.0855 0.8341,-0.13015l4.2845,-0.31825c0,0 2.3351,3.1236 6.96635,3.5986c4.63125,0.475 5.8976,-3.64135 5.8976,-3.64135l4.0375,1.1837c0.0684,0.02755 0.1387,0.05225 0.2071,0.07885c0.98515,0.38 2.00355,0.6992 2.9203,1.23025c-0.0266,-0.27455 -0.0646,-0.551 -0.06935,-0.82175c-0.019,-1.2711 0.9367,-2.11755 1.8411,-2.85475l1.0469,-0.46835c2.07195,-2.41585 4.83075,-2.375 6.79155,-1.9095l2.489,0.01425c0.0399,-0.01425 0.0931,-0.019 0.1729,0.00095c0.1216,0.0304 0.2299,0.07315 0.34675,0.1083c0.5035,0.14915 0.97565,0.3268 1.3946,0.55385c1.56275,0.8436 2.56025,2.22395 3.0856,4.1496c0.83125,3.03905 0.8531,6.16645 2.36645,9.0117c0.00475,0.00665 0.01995,0.0114 0.02375,0.019c0.3154,0.6783 0.66785,1.235 0.8645,1.9665c0.35815,1.33665 0.5548,2.72555 0.7866,4.08785zM256.43571,120.55767v0c-0.82745,3.87885 2.0767,6.55595 5.86245,6.3726c0.0247,-0.00095 0.05035,0 0.07505,-0.00095c0.57855,-0.03325 1.12195,-0.171 1.63115,-0.38095c1.03835,-0.42845 1.92375,-1.1818 2.5821,-2.1375c1.40695,-2.0425 0.7638,-4.37475 -1.0203,-5.91755c-6.5816,-2.356 -9.13045,2.06435 -9.13045,2.06435zM274.93316,147.19377v0c0.19665,-1.19795 0.50255,-2.28285 0.5187,-3.5112c0.03135,-2.42345 -0.6327,-4.8887 -1.0431,-7.2637c-0.18145,-1.06495 -0.3857,-2.12325 -0.6308,-3.1749c-0.16625,-0.7182 -0.55005,-1.29485 -0.85405,-1.94845c-0.0057,-0.00665 -0.02185,-0.0114 -0.02565,-0.019c-1.2844,-2.40255 -1.596,-5.0502 -2.0805,-7.69025c-0.5244,-2.8671 -1.6682,-5.1186 -4.69965,-5.87765c-0.3914,-0.0665 -1.42215,-0.0703 -2.0368,-0.0665c0.91675,0.27265 1.5865,0.6023 1.8012,0.71535c0.0285,0.01045 0.05415,0.02375 0.07315,0.0399c1.6948,1.46015 2.49945,3.6347 1.36325,5.71805c-1.00035,1.8316 -2.7018,2.9279 -4.7633,3.1198c-1.6682,0.1558 -3.572,-0.31635 -4.8925,-1.3718c-1.70335,-1.3661 -2.1508,-3.344 -1.70525,-5.42735c0.08835,-0.1444 0.1843,-0.25935 0.2755,-0.39235l-0.2869,0.14535c-0.0798,0.0665 -0.1558,0.133 -0.2318,0.20045c-0.17765,0.1577 -0.3439,0.31825 -0.49685,0.4845c-0.0152,0.01615 -0.0285,0.03135 -0.0437,0.0475c-0.1444,0.1615 -0.27455,0.3306 -0.38855,0.5092c-0.01425,0.0228 -0.0266,0.0456 -0.04085,0.0684c-0.10925,0.18145 -0.2033,0.3724 -0.2736,0.5795c-0.0076,0.0209 -0.01235,0.0437 -0.019,0.0646c-0.0684,0.2185 -0.11875,0.44935 -0.1387,0.70585c-0.0703,0.90535 0.21565,1.97505 0.4617,2.8424c0.45885,1.6074 1.46015,3.0134 2.5289,4.3168c0.0076,0.01045 0.0266,0.01805 0.0285,0.02945c0.00095,0.00285 0.00095,0.00475 0.0019,0.0076c0.35625,0.43225 0.71915,0.8531 1.0716,1.2673c0.12065,0.14725 -0.35435,0.09975 -0.44555,-0.0057c-0.15485,-0.1824 -0.31065,-0.3667 -0.4655,-0.551c0.50825,2.0216 1.4972,3.971 2.11565,5.9508c0.52915,1.6891 0.73245,3.20625 1.7613,4.73005c1.1818,1.748 2.926,2.9355 4.85925,3.71165c0.31635,0.1273 0.02755,0.24605 -0.1786,0.16435c-3.6594,-1.47155 -6.0667,-4.2617 -6.78395,-8.1662c-0.4541,-2.4662 -1.9418,-4.6873 -2.40825,-7.1573c-1.12005,-1.387 -2.13275,-2.8633 -2.6277,-4.59705c-0.14535,-0.5035 -0.2413,-1.03075 -0.30875,-1.56275c-0.89965,-0.6175 -1.96935,-0.9272 -2.9887,-1.3053c-0.114,-0.0418 -0.23085,-0.0817 -0.34295,-0.12635c-0.0703,-0.02755 -0.10735,-0.0551 -0.12445,-0.08075l-0.09975,-0.02945l-3.47415,-1.0355c0,0 -0.55385,4.0736 -6.05625,3.75725c-5.5024,-0.31635 -7.125,-3.64135 -7.125,-3.64135l-3.82375,0.28025c-0.02945,0.00475 -0.0589,0.0095 -0.08835,0.01425c-0.3002,0.0475 -0.60325,0.09405 -0.90535,0.1406c-2.06435,0.3173 -4.1667,0.61845 -6.12275,1.32905c-1.8468,0.6707 -3.3725,1.96175 -4.84595,3.2243c-0.00095,0.00095 0,0.00095 0,0.0019c-1.0982,1.39555 -1.4155,3.2509 -1.8848,4.92765c-0.49875,1.78505 -0.9709,3.5777 -1.4839,5.35895c-1.05355,3.67555 -2.3408,7.2789 -3.45515,10.93735c-1.0963,3.60715 -1.7404,7.30265 -3.2509,10.7749c-0.70015,1.6074 -1.41265,3.1464 -1.88765,4.84405c-0.4845,1.72425 -0.5624,3.54635 -1.0488,5.26015c-0.33345,1.16755 -1.38605,2.03015 -2.2287,2.83005c-1.19035,1.1305 -2.11755,2.47285 -2.2895,4.1363c-0.2584,2.43865 1.30815,4.79845 3.20245,6.1484c3.44185,2.4605 9.59975,2.65715 10.65425,-2.36835c0,-0.0019 0.00285,-0.0019 0.0038,-0.00285c0.00095,-0.0019 -0.00285,-0.0038 -0.0019,-0.00475c0.1007,-0.1672 0.18525,-0.342 0.27265,-0.5149c-1.84585,1.38225 -5.5499,1.20745 -7.20005,0.09025c-0.21755,-0.1444 0.26885,-0.12825 0.3762,-0.05415c2.1926,1.48295 7.9648,0.81985 7.39005,-2.7588c-0.0152,-0.114 0.20805,-0.1007 0.35625,-0.038c0.2299,-1.0811 0.36765,-2.18975 0.52915,-3.2509c0.1995,-1.292 0.4123,-2.58115 0.7315,-3.8513c0.33915,-1.34805 0.9747,-2.5574 1.52475,-3.8247c1.2768,-2.9431 2.1983,-6.02585 3.3573,-9.01455c0.49115,-1.26445 1.0108,-2.54885 1.66725,-3.73825c0.4009,-0.7239 0.9291,-1.4022 1.2521,-2.16695c0.01615,-0.0399 0.0646,-0.0551 0.1235,-0.057c0.1045,-0.7657 0.20235,-1.53045 0.32015,-2.2952c0,0 0.0019,0 0.0019,-0.00095c-0.04085,-1.0469 -0.2812,-2.0767 -0.4256,-3.11315c-1.00605,-1.00985 -2.0121,-1.90475 -2.74265,-3.15115c-0.1007,-0.1786 0.3743,-0.1121 0.4408,0.0076c0.68685,1.16945 1.6188,2.03775 2.56405,2.97065c0.0988,0.02755 0.19,0.07315 0.1976,0.13205c0.14345,1.0944 0.40375,2.17835 0.4465,3.2832c0,0.00095 -0.0019,0 -0.0019,0.00095v0c-0.7828,5.0692 -1.2597,10.1441 -1.4269,15.2703c-0.0817,2.4263 -0.35625,4.80035 -0.72675,7.18675c0.01045,0.00855 0.02375,0.0171 0.02945,0.0266c5.225,7.9211 17.0525,9.46485 25.0363,5.08345c0.12065,-0.06745 0.56525,0.1159 0.3838,0.2147c-8.0351,4.4099 -20.007,2.86615 -25.52555,-4.85165c-0.04275,0.2641 -0.0798,0.52725 -0.12445,0.79135c-0.2261,1.36325 -0.0646,2.6239 0.37145,3.92065c0.33535,1.00795 1.3319,1.9228 1.2236,3.01435c-0.01425,0.13395 -0.49495,0.03325 -0.4788,-0.1292c0.0551,-0.56525 -0.1843,-0.8816 -0.4313,-1.27585c0.01425,0.29545 0.0114,0.5909 -0.06365,0.8626c-0.14155,0.494 -0.47785,0.98515 -0.67545,1.46015c-0.6308,1.5219 3.10745,2.19735 4.13915,2.3313c4.64075,0.6042 9.3328,0.55955 13.98305,-0.114c4.5182,-0.6536 8.76945,-2.9906 13.0701,-4.43935c0.90915,-0.304 1.79075,-0.6688 2.64195,-1.11245c0.6536,-0.3382 2.3959,-1.09535 2.2306,-1.9988c-0.152,-0.8455 -1.02695,-1.7708 -1.1172,-2.68185c-0.5833,0.61085 -1.19415,1.216 -1.7252,1.85725c-0.09405,0.11305 -0.551,-0.05225 -0.4484,-0.1786c0.89395,-1.08395 1.976,-1.98645 2.8766,-3.06565c1.34615,-1.6074 1.29675,-3.37915 0.5909,-5.27535c-1.3832,-3.705 -3.16255,-7.22475 -4.313,-11.0238c-0.988,-3.26325 -1.28725,-6.47995 -0.931,-9.85815c0.02945,-0.27075 0.05985,-0.5396 0.0893,-0.8094c-0.0019,-0.01045 -0.019,-0.02185 -0.0133,-0.03135c0.0057,-0.0114 0.0133,-0.0228 0.01995,-0.0342c0.3724,-3.3155 0.8189,-6.56545 0.57095,-9.92845c-0.0114,-0.17005 0.46835,-0.06745 0.47785,0.07125c0.21755,2.96305 -0.06555,5.8615 -0.41515,8.7875c0.88825,-1.5428 1.6207,-3.1654 1.349,-5.0065c-0.0209,-0.1634 0.45695,-0.0722 0.4769,0.0703c0.3344,2.2838 -0.8303,4.23605 -1.96935,6.12085c-0.00665,0.0608 -0.01425,0.12255 -0.02185,0.18335c-0.0779,0.6289 -0.12445,1.24925 -0.1577,1.8658c0.05985,0.019 0.11115,0.04465 0.133,0.0741c1.91045,2.57165 5.035,3.9349 8.01325,4.85545c2.67235,0.82745 5.56035,1.35375 8.36665,1.2844c1.5713,-0.03895 2.5935,-0.11875 3.41145,-1.5789c0.4237,-0.75715 0.437,-1.7613 0.5757,-2.60015z" id="Outline_7_" fill="#000000"/>
      </g>
      <g id="Collar_3_" stroke="none" stroke-width="1">
        <path d="M245.47556,120.22802v0c0.1425,-0.1862 -0.3097,-0.36765 -0.43985,-0.2071c-0.03895,0.04845 -0.0722,0.1007 -0.1083,0.1501c0.00285,-0.0323 0.0019,-0.12825 0.0019,-0.09595c0.00475,0.6783 -0.589,-0.72675 -0.0836,-0.93005l0.0171,-0.01045c0.0285,0.0228 0.05225,0.04845 0.10165,0.0608c1.7195,0.44555 3.69455,1.0621 5.1072,2.20305c-1.30815,2.87375 -2.86615,5.75225 -3.8342,8.7666c-0.8037,-0.85595 -1.596,-1.72425 -2.3959,-2.5859c-0.4104,-0.4408 -0.81985,-0.8816 -1.23975,-1.3129c-0.6061,-0.6251 -0.87495,-0.9006 -0.1824,-1.6131c0.53485,-0.54815 0.9633,-1.1742 1.3661,-1.8202c0.0741,-0.11875 0.1482,-0.23655 0.2204,-0.35625c0.4655,-0.76665 0.91295,-1.54755 1.46965,-2.24865z" id="R_Fill" fill="#c0e1e1"/>
        <path d="M235.29821,128.64027v0c-0.0779,-0.11115 -0.16245,-0.21185 -0.31635,-0.2869c-0.00855,-0.00475 -0.0152,-0.01045 -0.02375,-0.01425c-0.703,-0.6118 -1.3813,-1.2426 -1.9589,-1.9437c-0.36575,-0.4465 -3.44755,-4.13535 -2.87375,-4.5828c0.01425,-0.0095 0.0285,-0.0171 0.038,-0.03135c0.93005,-1.3471 2.50895,-2.20685 3.9045,-3.03145c0.00665,0.00855 0.0133,0.0171 0.01995,0.02565c0.22135,0.3059 0.456,0.6023 0.7011,0.89015c0.35055,0.41135 0.71725,0.81035 1.10675,1.18845c0.09025,0.0874 0.1843,0.1691 0.2755,0.2546c1.16375,1.08965 2.4567,2.05485 3.7468,2.94785c0.6859,0.47785 1.4839,0.73815 0.9367,1.64825c-0.3933,0.6498 -0.7866,1.30245 -1.159,1.9665c-0.59755,1.0678 -0.9709,2.2534 -1.62925,3.28415c-0.8854,-0.78565 -1.84585,-1.5333 -2.7683,-2.31515z" id="L_Fill" fill="#c0e1e1"/>
        <path d="M250.57991,121.43262v0c-0.0019,0.0076 0.0076,0.0133 0.0019,0.01995c-1.3642,3.00485 -3.0172,6.01255 -3.98145,9.177c-0.00665,0.02565 -0.02945,0.0456 -0.0608,0.05985c-0.10165,0.07885 -0.3002,0.0437 -0.38285,-0.0589c-1.02125,-1.06875 -2.0102,-2.166 -3.0153,-3.25185c-0.45695,-0.4921 -1.4117,-1.1115 -1.634,-1.824c-0.60705,0.988 -1.22075,1.976 -1.73945,3.01055c-0.47595,0.94525 -0.77425,1.9361 -1.38795,2.812c-0.09595,0.1368 -0.32585,0.0456 -0.4161,-0.03895c-2.01305,-1.84205 -4.29495,-3.44375 -5.9831,-5.6012c-0.4009,-0.5092 -2.9165,-3.39435 -2.26955,-4.13345c0.00475,-0.0095 0.0038,-0.019 0.01045,-0.02945c1.00225,-1.45065 2.72555,-2.3446 4.2047,-3.2262c0.1387,-0.08265 0.3287,-0.01615 0.41325,0.1083c0.0019,0.00285 0.0038,0.0057 0.0057,0.00855c1.8639,2.71605 4.66925,4.4365 7.2523,6.37165c0.16625,-0.2337 0.43415,-0.44365 0.5871,-0.59755c0.38855,-0.39995 0.69445,-0.89205 0.9994,-1.35565c0.494,-0.7619 0.9329,-1.56085 1.44875,-2.30945c0.095,-0.1368 0.1938,-0.2698 0.2926,-0.4028c0.0361,-0.0494 0.06935,-0.10165 0.1083,-0.1501c0.13015,-0.1615 0.58235,0.0209 0.43985,0.2071c-0.5567,0.70205 -1.00415,1.482 -1.46965,2.24865c-0.0722,0.11875 -0.1463,0.2375 -0.2204,0.35625c-0.40185,0.646 -0.83125,1.27205 -1.3661,1.8202c-0.69255,0.7125 -0.42465,0.988 0.1824,1.6131c0.42085,0.4313 0.82935,0.8721 1.23975,1.3129c0.79895,0.86165 1.59125,1.7309 2.3959,2.5859c0.9671,-3.0153 2.52605,-5.89285 3.8342,-8.7666c-1.41265,-1.14095 -3.3877,-1.75655 -5.1072,-2.20305c-0.04845,-0.01235 -0.07315,-0.038 -0.10165,-0.0608c-0.1444,-0.11305 -0.0608,-0.31065 0.18715,-0.24795c0.3021,0.0779 0.6118,0.16435 0.9234,0.2546c0.0798,0.0228 0.1596,0.04655 0.2394,0.0703c1.5276,0.456 3.11125,1.0773 4.2902,2.07385c0.0057,0.00475 0.00665,0.00855 0.0114,0.0133c0.0266,0.01805 0.04085,0.0361 0.0532,0.05985c0.0152,0.02755 0.01805,0.05225 0.01425,0.0741zM232.99921,126.39447v0c0.5776,0.70015 1.2559,1.3319 1.9589,1.94275c0.11495,0.09975 0.2242,0.2033 0.3401,0.3021c0.92245,0.78185 1.8829,1.5295 2.7683,2.31515c0.6593,-1.03075 1.0317,-2.21635 1.62925,-3.28415c0.3724,-0.66405 0.7657,-1.31575 1.159,-1.9665c0.5472,-0.9101 -0.24985,-1.1704 -0.9367,-1.64825c-1.2901,-0.89395 -2.5821,-1.85915 -3.7468,-2.94785c-0.0912,-0.0855 -0.18525,-0.1672 -0.2755,-0.2546c-0.3895,-0.3781 -0.7562,-0.7771 -1.10675,-1.18845c-0.24605,-0.28785 -0.47975,-0.58425 -0.7011,-0.89015c-0.00665,-0.00855 -0.0133,-0.0171 -0.01995,-0.02565c-1.39555,0.8246 -2.97445,1.6853 -3.9045,3.03145c-0.0095,0.01425 -0.02375,0.02185 -0.038,0.03135c-0.57475,0.44745 2.508,4.13725 2.87375,4.5828z" id="Outline_6_" fill="#000000"/>
      </g>
      <g id="Nose" fill="#000000" stroke="none" stroke-width="1">
        <path d="M239.86106,109.12727v0c-0.12445,0.07695 -0.53675,-0.1159 -0.44935,-0.1729c0.41135,-0.2584 0.87305,-0.28215 1.3262,-0.4313c0.09785,-0.03325 0.4218,0.09405 0.41895,0.16625c0.6802,0.1197 1.2768,0.40375 2.00355,0.3914c0.84075,-0.0152 1.64445,-0.6821 1.79075,-1.4991c0.02185,-0.11875 0.50065,-0.0076 0.4769,0.12635c-0.14345,0.80275 -0.89775,1.46015 -1.70905,1.5542c-0.92435,0.1083 -1.6549,-0.2451 -2.5365,-0.38475c-0.0874,-0.0133 -0.17005,-0.0646 -0.2166,-0.1121c-0.37715,0.10165 -0.7657,0.14535 -1.10485,0.36195z" id="Outline_3_"/>
        <path d="M241.02386,107.08287v0c-0.11305,0.04465 -0.5472,-0.13585 -0.3876,-0.1976c1.37085,-0.53675 2.7835,-0.7296 4.199,-0.266c0.32205,0.1064 0.01995,0.19475 -0.1729,0.13205c-1.21885,-0.39995 -2.47855,-0.1235 -3.6385,0.33155z" id="Outline_2_"/>
      </g>
      <g id="L_Eye" stroke="none" stroke-width="1">
        <path d="M238.85691,103.64862c-0.057,0.00475 -0.09975,0.01045 -0.1539,0.03705c-0.11305,0.5662 -1.5542,1.00985 -2.00925,1.13335c-0.8816,0.24035 -1.98645,0.1235 -2.88515,-0.07885c-0.66785,-0.14725 -1.2635,-0.4218 -1.37275,-1.1837c-0.0684,-0.47025 0.18715,-0.8892 0.4484,-1.2502c0.8493,-1.1704 2.14415,-2.03395 3.5891,-1.35185c0.57475,0.2679 1.0944,0.58425 1.3908,1.11815c0.3249,0.57665 0.8835,0.9918 1.0298,1.6739" id="L_White" fill="#ffffff"/>
        <path d="M238.58806,103.99347v0v0c-0.4712,-1.33475 -1.2844,-3.29175 -3.01245,-3.13215c-0.8094,0.0741 -1.5428,0.61465 -2.11755,1.14475c-0.91675,0.8379 -1.31195,2.0387 0.4009,2.5536c1.4117,0.4237 3.5017,0.06175 4.7766,-0.6365c0.11875,-0.06365 0.56145,0.11495 0.3819,0.21375c-1.5618,0.855 -3.7943,1.05165 -5.4948,0.5415c-0.61655,-0.1843 -1.08015,-0.57285 -1.3091,-1.1723c-0.23465,-0.608 0.1824,-1.0298 0.56525,-1.44495c0.76475,-0.82555 1.96935,-1.61215 3.14735,-1.43735c1.76415,0.26315 2.5935,1.90855 3.1369,3.43995c0.05035,0.1349 -0.42275,0.0722 -0.475,-0.0703z" id="L_Outline" fill="#000000"/>
      </g>
      <g id="R_Eye" stroke="none" stroke-width="1">
        <path d="M250.62646,101.84552c0,0.01045 0,0.01995 0,0.0323c0,0.6194 -0.4066,1.0393 -0.99845,1.32525c-0.76475,0.37335 -1.1932,0.5225 -2.0425,0.56335c-0.84835,0.04275 -1.63495,0.06365 -2.4339,-0.1748c-0.37145,-0.10925 -0.3914,-0.1463 -0.35435,-0.5206c0.03135,-0.31825 0.1444,-0.48545 0.28405,-0.77235c0.13395,-0.27265 0.1539,-0.6004 0.3249,-0.8398c0.1501,-0.2166 0.0988,-0.5396 0.28025,-0.73245c0.45505,-0.4883 1.07445,-0.63555 1.7613,-0.6536c0.60515,-0.0152 1.32525,0.0646 1.8221,0.3857c0.35245,0.2261 1.44875,0.8702 1.425,1.4174" id="R_White" fill="#ffffff"/>
        <path d="M244.54551,103.47572v0v0c0.2546,-1.50385 0.7809,-3.3212 2.50135,-3.6233c1.00035,-0.17765 2.0558,0.32585 2.8576,0.85975c0.32775,0.2185 0.64315,0.48355 0.89205,0.7885c0.4845,0.59755 -0.35625,1.56655 -0.83505,1.805c-1.52285,0.76285 -3.6556,0.86735 -5.26395,0.31635c-0.31825,-0.10925 -0.02185,-0.23085 0.1786,-0.16055c1.45065,0.49305 3.58625,0.3306 4.8944,-0.49305c1.2445,-0.7828 0.3952,-1.8107 -0.44555,-2.3389c-0.7733,-0.48545 -1.68435,-0.7486 -2.55455,-0.3724c-1.2065,0.5263 -1.55325,2.19925 -1.748,3.34495c-0.02185,0.13965 -0.50255,0.0266 -0.4769,-0.12635z" id="R_Outline" fill="#000000"/>
      </g>
      <g id="L_Hand" stroke="none" stroke-width="1">
        <path d="M200.50066,183.08382v0c0.0095,-0.01235 0.02945,-0.01425 0.0304,-0.02945c0.1881,-1.1742 0.46455,-2.31705 0.8018,-3.4542c0.152,0.133 0.32205,0.3135 0.37715,0.35815c0.13015,0.10165 0.27645,0.20045 0.37715,0.3249c0.1311,0.1558 0.2299,0.3173 0.3515,0.4693c0.18145,0.228 0.28025,0.2964 0.5092,0.42655c0.25555,0.14155 0.39615,0.3306 0.5947,0.5149c0.2774,0.25555 0.69255,0.40375 1.0298,0.57475c0.63555,0.3211 1.2882,0.6346 1.9836,0.7809c0.70965,0.15295 1.39935,0.22325 2.11565,0.29545c0.60705,0.0589 1.27205,0.03515 1.8525,-0.13205c-0.2983,1.43355 -0.3306,2.9203 -0.39805,4.37855c-2.08335,-0.4883 -0.4313,-2.73885 -1.3718,-4.0983c-0.0988,-0.1406 -0.5149,-0.1615 -0.47025,-0.0057c-0.01235,0.0114 -0.0342,0.01235 -0.0418,0.02945c-0.8816,1.93895 -1.00795,4.1287 -1.93705,6.05815c-0.03135,0.06365 0.0228,0.1178 0.09595,0.15865c0.0779,1.15995 -0.06555,2.19355 -0.67165,3.2281c-0.35625,-1.3547 -0.9918,-2.6733 -1.03645,-4.08215c0.02185,-0.01615 0.05225,-0.02565 0.05795,-0.0551c0.3059,-1.60455 0.36575,-3.2243 0.4028,-4.85355c0.00665,-0.19095 -0.4769,-0.27835 -0.4826,-0.04845c-0.0361,1.56275 -0.09975,3.11315 -0.3819,4.6531c-0.05225,0.0209 -0.0912,0.057 -0.0912,0.12065c0.0057,1.5447 0.7657,2.97825 1.11055,4.46785c-0.5833,-0.0171 -2.1983,-2.2268 -2.6695,-3.10745c0.01045,-0.01425 0.03325,-0.01805 0.03515,-0.038c0.19665,-1.99975 0.57285,-3.97955 0.836,-5.97265c0.02755,-0.21185 -0.45505,-0.3287 -0.47975,-0.13015c-0.2508,1.90095 -0.59945,3.78765 -0.8018,5.6943c-0.02755,-0.00285 -0.0456,0.00665 -0.0703,0.00855c-0.2242,-0.24415 -0.49305,-0.49305 -0.57855,-0.79705c-0.0038,-0.0114 -0.0209,-0.01805 -0.02755,-0.02945c-0.1235,-1.88385 -0.0589,-3.7525 0.4655,-5.57745c0.05415,-0.19855 -0.42275,-0.3287 -0.4826,-0.12825c-0.5073,1.7803 -0.58045,3.59765 -0.4769,5.43115c-0.23465,-0.16055 -0.4598,-0.3477 -0.58235,-0.60515c-0.0152,-0.03135 -0.0475,-0.057 -0.08455,-0.0779c0.07315,-1.58365 -0.10925,-3.17585 0.10925,-4.75095z" id="Fill_4_" fill="url(#color-6)"/>
        <path d="M211.01526,183.27667v0c-0.3173,1.501 -0.3382,3.05995 -0.41135,4.58565c-0.0019,0.02755 -0.0285,0.03515 -0.04655,0.0513c-0.00665,0.0076 -0.01045,0.0152 -0.01995,0.0209c-0.0323,0.01615 -0.06935,0.01995 -0.1159,0.01615c-0.0152,-0.00095 -0.01805,0.0076 -0.03515,0.00475c-0.01045,-0.0019 -0.0209,-0.00475 -0.03135,-0.0057c-0.00095,-0.00095 -0.00095,-0.00095 -0.00095,-0.00095c-0.8949,-0.1463 -1.69005,-0.4978 -1.84775,-1.4744c-0.12825,-0.7714 0.19665,-1.615 0.03325,-2.3731c-0.68875,1.7594 -0.8873,3.68125 -1.67105,5.41215c0.00095,0.0038 0.00665,0.0057 0.00665,0.0095c0.12635,1.33285 -0.0209,2.49375 -0.7125,3.6613c-0.04085,0.0684 -0.14155,0.0779 -0.2394,0.05415c0,0.02185 -0.00665,0.04465 -0.0228,0.0665c-0.0209,0.02755 -0.04655,0.0399 -0.0684,0.06365c0.0152,0.076 -0.04655,0.1064 -0.1254,0.1159c-0.9918,0.589 -3.05045,-2.39495 -3.5644,-3.4808c-0.08645,-0.00475 -0.17765,-0.0361 -0.2204,-0.0931c-0.2052,-0.2698 -0.4826,-0.51205 -0.6688,-0.8037c-0.0893,-0.02945 -0.16815,-0.07885 -0.17385,-0.152c-0.00285,-0.03705 -0.0019,-0.0741 -0.00475,-0.11115c-0.076,-0.00095 -0.1539,-0.019 -0.2128,-0.05605c-0.25935,-0.1653 -0.51965,-0.36955 -0.7049,-0.62415c-0.12825,-0.02565 -0.2584,-0.1045 -0.2508,-0.2166c0.10925,-1.6796 -0.11875,-3.36395 0.11875,-5.03595c0.00285,-0.0209 0.0266,-0.0247 0.03895,-0.0399c0.20235,-1.24925 0.49115,-2.46525 0.86735,-3.67555c0.06365,-0.19855 0.53865,-0.0665 0.47975,0.12825c-0.02755,0.09025 -0.0475,0.18145 -0.0741,0.2717c-0.3382,1.13715 -0.61465,2.28 -0.8018,3.4542c-0.00285,0.0171 -0.02375,0.019 -0.0323,0.0323c-0.2185,1.5751 -0.0361,3.1673 -0.10925,4.75095c0.03705,0.0209 0.06935,0.04655 0.08455,0.0779c0.12255,0.25745 0.3477,0.4446 0.58235,0.60515c-0.10355,-1.8335 -0.0304,-3.65085 0.4769,-5.43115c0.05985,-0.20045 0.53675,-0.0703 0.4826,0.12825c-0.5244,1.82495 -0.589,3.6936 -0.4655,5.57745c0.0076,0.01045 0.02375,0.0171 0.02755,0.02945c0.0855,0.304 0.35435,0.5529 0.57855,0.79705c0.0247,-0.0019 0.04275,-0.0114 0.0703,-0.00855c0.20235,-1.90665 0.55005,-3.79335 0.8018,-5.6943c0.0247,-0.19855 0.5073,-0.0817 0.47975,0.13015c-0.26315,1.9931 -0.63935,3.9729 -0.836,5.97265c-0.0019,0.01995 -0.0247,0.02375 -0.03515,0.038c0.4712,0.88065 2.0862,3.09035 2.6695,3.10745c-0.34485,-1.4896 -1.10485,-2.92315 -1.11055,-4.46785c0,-0.06365 0.03895,-0.1007 0.0912,-0.12065c0.28215,-1.53995 0.3458,-3.0894 0.3819,-4.6531c0.0057,-0.2299 0.48925,-0.1425 0.4826,0.04845c-0.03705,1.6283 -0.0969,3.249 -0.4028,4.85355c-0.00665,0.0304 -0.0361,0.03895 -0.05795,0.0551c0.04465,1.4098 0.6802,2.72745 1.03645,4.08215c0.6061,-1.0336 0.74955,-2.0672 0.67165,-3.2281c-0.07315,-0.04085 -0.1273,-0.095 -0.09595,-0.15865c0.9291,-1.92945 1.05545,-4.1192 1.93705,-6.05815c0.0076,-0.01615 0.02945,-0.0171 0.0418,-0.02945c-0.04465,-0.1558 0.37145,-0.13395 0.47025,0.0057c0.9405,1.3585 -0.7106,3.60905 1.3718,4.0983c0.06745,-1.45825 0.1007,-2.94405 0.39805,-4.37855c0.0038,-0.0209 0.0057,-0.0437 0.01045,-0.0646c0.04085,-0.20045 0.52155,-0.0779 0.4788,0.13015z" id="Outline_8_" fill="#010101"/>
      </g>
      <g id="R_Hand" stroke="none">
        <path d="M261.80986,123.47512v0c-0.09595,-0.0133 -0.1824,-0.02945 -0.2432,-0.04465c-0.29355,-0.0646 -0.61085,-0.1881 -0.91105,-0.30875c-0.86925,-0.5529 -1.3718,-1.67675 -1.1267,-2.79015c0.26695,-1.21505 0.88445,-2.23345 1.76795,-3.10365c0.0589,-0.0589 -0.37145,-0.24035 -0.45505,-0.1577c-1.2578,1.235 -2.25625,3.12265 -1.61215,4.77375c-0.34105,-0.1786 -0.7334,-0.27265 -1.1001,-0.40565c-0.11495,-0.05225 -0.2318,-0.1045 -0.3268,-0.1615c-0.0988,-0.05985 -0.3002,-0.15105 -0.5301,-0.25745c-1.26635,-0.7961 -1.6112,-1.8791 -1.58935,-3.496c0.02185,-1.51905 0.26695,-2.98775 0.19285,-4.51155c-0.03515,-0.7277 0.03895,-1.51525 -0.0912,-2.23155c-0.05795,-0.3268 -0.39805,-1.20555 -0.0418,-1.4516c2.1014,-0.3211 0.6042,5.84725 2.61915,6.5132c0.0589,0.01995 0.247,0.0893 0.3059,0.0342c1.0982,-0.9899 1.5865,-2.6011 1.7461,-4.0299c0,-0.00095 -0.00285,-0.0019 -0.00285,-0.00285c0.532,-1.9608 0.8607,-3.97195 1.4003,-5.9337c0.2318,-0.84075 0.5168,-2.09095 1.23595,-2.698c0.32775,-0.24795 0.80275,-0.47405 1.17325,-0.3819c0.095,0.09025 0.12445,0.2641 0.02185,0.5871c-1.21505,0.9044 -1.5922,2.63245 -1.9988,4.00615c-0.55765,1.8829 -0.8208,3.88455 -1.6264,5.6848c-0.03135,0.06935 0.43035,0.2337 0.47975,0.12635c0.80465,-1.7993 1.0735,-3.80095 1.6264,-5.6829c0.4009,-1.35755 0.77805,-3.1008 1.9855,-3.9862l-0.00095,-0.00095c0.00095,0 0.0019,0 0.0019,0c0.1083,-0.0779 0.247,-0.1672 0.38855,-0.1748c0.00475,0.0133 0.06175,0.038 0.08265,0.05795c0.0304,0.0304 0.0589,0.06365 0.0855,0.0988c0.11685,0.1729 0.18905,0.36195 0.2014,0.5719c0.00285,0.038 0.0475,0.0684 0.10545,0.09215c-0.893,0.63555 -1.28725,2.1375 -1.6188,3.05805c-0.3876,1.06685 -0.7714,2.11185 -1.0868,3.20625c-0.28975,1.01935 -0.5586,2.1166 -1.24545,2.9564c-0.02185,0.0285 0.3914,0.2356 0.4826,0.12825c1.22835,-1.49625 1.38605,-3.78005 2.09475,-5.54135c0.43795,-1.0982 0.9177,-3.59955 2.3294,-3.89975c0.00285,0.0019 0.00665,0.00285 0.0095,0.00475c0.2166,0.44745 0.1235,1.04785 -0.00095,1.4972c-0.00665,0.02375 0.01805,0.0494 0.0589,0.07315c-0.9329,0.27835 -1.4383,1.13525 -1.7689,2.2439c-0.5833,1.9646 -1.3718,3.84275 -2.11755,5.75035c-0.02945,0.07695 0.43985,0.2318 0.47975,0.12635c0.64505,-1.64445 1.40505,-3.2737 1.89145,-4.9742c0.3781,-1.3186 0.79895,-2.8899 2.28855,-3.02955c0.02185,0.01235 0.0399,0.0266 0.0589,0.0399c-0.11305,0.30875 -0.18715,0.5985 -0.24985,0.9443c0,0.00285 0.00665,0.0057 0.00665,0.0076c-2.05865,2.1052 -1.9076,5.2554 -3.46655,7.6665c-0.02755,0.04655 0.4104,0.23845 0.4807,0.1292c1.56655,-2.4282 1.3908,-5.61735 3.5112,-7.70925c0.456,0.741 -0.36005,2.87185 -0.53485,3.4656c-0.475,1.6207 -0.703,3.27845 -0.98135,4.94095c-0.28025,1.6872 -0.66215,3.32785 -1.349,4.89915c-0.43795,1.00415 -1.13905,2.95355 -2.3731,3.19295c-0.00475,0.00095 0.00285,0.00475 -0.00095,0.0057c-0.22705,0.06175 -0.4484,0.0855 -0.66215,0.08265z" id="Fill_2_" fill="#a86c35" stroke-width="1"/>
        <path d="M267.9269,106.70097v0c0.7866,0.49495 0.17575,2.12135 0.00475,2.7968c-0.4674,1.8297 -0.89395,3.60715 -1.1856,5.48245c-0.30305,1.9456 -0.7448,3.79525 -1.53235,5.60025c-0.39425,0.90345 -1.01935,2.4453 -2.0539,2.8804c0.0057,0.00475 0.02185,0.0152 0.019,0.01615c-1.12765,0.42275 -2.5878,0.23085 -3.4124,-0.73245c-0.16435,-0.1919 -0.2926,-0.3914 -0.399,-0.59375c-0.07695,-0.0152 -0.1482,-0.0361 -0.18145,-0.07315c-0.22135,-0.25555 -1.1628,-0.513 -1.56085,-0.6745c-0.5472,-0.2204 -1.0393,-0.5339 -1.4991,-0.89775c-0.8208,-0.6517 -0.9044,-1.82305 -0.92435,-2.7835c-0.03515,-1.6226 0.27265,-3.2072 0.19285,-4.83835c-0.03515,-0.74195 -0.0304,-1.48675 -0.0893,-2.2306c-0.04465,-0.53865 -0.58615,-1.1723 0.0038,-1.501c0.03135,-0.0171 0.08075,-0.01425 0.1368,-0.0019c0.2755,-0.02945 0.4997,0.00855 0.7049,0.07315c0.0874,0.02755 0.17575,0.0532 0.25175,0.09405c0.02185,0.01235 0.04465,0.02375 0.06555,0.03705c0.2033,0.1273 0.361,0.3116 0.49115,0.52345c0.3534,0.57475 0.48165,1.387 0.5567,2.10235c0.11115,1.06875 0.08645,2.2211 0.50065,3.2281c0.4009,0.9709 1.0184,-0.52345 1.24165,-0.99085c0.37335,-0.7752 0.58235,-1.64255 0.67735,-2.4966c0,-0.00095 -0.0019,-0.0019 -0.0019,-0.0019c0.42845,-1.57415 0.6612,-3.19485 1.0925,-4.76995c0.02185,-0.0817 0.0437,-0.1653 0.0646,-0.24795c0.02185,-0.0874 0.0456,-0.17385 0.06745,-0.2622c0.2983,-1.18085 0.58045,-2.44815 1.4041,-3.35825c0.6004,-0.66405 2.30185,-0.95475 2.22585,0.13205c0.49875,-0.0342 0.9785,0.30685 1.1172,0.817c0.1919,-0.0779 0.3971,-0.1292 0.63175,-0.1235c0.02945,0.00095 0.0988,0.0209 0.16815,0.0475c0.0931,0.0152 0.1881,0.0399 0.22325,0.08645c0.32585,0.42085 0.24795,1.0621 0.12255,1.56655c0.1805,-0.01615 0.37525,-0.0152 0.5852,0.00665c0.03895,0.00475 0.38095,0.07125 0.34675,0.152c-0.13205,0.30495 -0.2014,0.5814 -0.2622,0.8797c0.0874,0.01425 0.1767,0.0361 0.20615,0.05605zM260.65276,123.12267v0c0.3382,0.21565 0.7296,0.34485 1.1552,0.3534c0.2128,0.00285 0.4351,-0.02185 0.66215,-0.08265c0.0038,-0.00095 -0.0038,-0.00475 0.00095,-0.0057c1.23405,-0.2394 1.93515,-2.1888 2.3731,-3.19295c0.68685,-1.5713 1.06875,-3.21195 1.349,-4.89915c0.27835,-1.6625 0.50635,-3.32025 0.98135,-4.94095c0.17385,-0.59375 0.9899,-2.72365 0.53485,-3.4656c-2.1204,2.09095 -1.94465,5.2801 -3.5112,7.70925c-0.0703,0.10925 -0.50825,-0.08265 -0.4807,-0.1292c1.558,-2.4111 1.4079,-5.56225 3.46655,-7.6665c0,-0.00285 -0.00665,-0.0057 -0.00665,-0.0076c0.06365,-0.3458 0.1368,-0.63555 0.24985,-0.9443c0.00665,-0.01805 0.01045,-0.03515 0.01805,-0.05415c-0.02755,0.0019 -0.05035,0.01235 -0.07695,0.0152c-1.4896,0.13965 -1.91045,1.71095 -2.28855,3.02955c-0.4864,1.7005 -1.24545,3.32975 -1.89145,4.9742c-0.0399,0.10545 -0.5092,-0.0494 -0.47975,-0.12635c0.74575,-1.9076 1.53425,-3.78575 2.11755,-5.75035c0.32965,-1.1077 0.836,-1.96555 1.7689,-2.2439c-0.0399,-0.0247 -0.06555,-0.05035 -0.0589,-0.07315c0.12445,-0.44935 0.21755,-1.04975 0.00095,-1.4972c-0.0019,-0.0019 -0.0019,-0.0057 -0.00285,-0.0076c-0.0019,0.00095 -0.0038,0.00285 -0.00665,0.00285c-1.4117,0.29925 -1.89145,2.80155 -2.3294,3.89975c-0.7087,1.7613 -0.8664,4.0451 -2.09475,5.54135c-0.0912,0.10735 -0.50445,-0.09975 -0.4826,-0.12825c0.68685,-0.8398 0.9557,-1.93705 1.24545,-2.9564c0.3154,-1.0944 0.70015,-2.1394 1.0868,-3.20625c0.33155,-0.92055 0.7258,-2.4225 1.6188,-3.05805c-0.057,-0.02375 -0.1026,-0.0532 -0.10545,-0.09215c-0.01235,-0.20995 -0.08455,-0.399 -0.2014,-0.5719c-0.0266,-0.03515 -0.0551,-0.0684 -0.0855,-0.0988c-0.02185,-0.01995 -0.0779,-0.0456 -0.08265,-0.05795c-0.14155,0.0076 -0.28025,0.09595 -0.38855,0.1748c0,0 -0.00095,0 -0.0019,0l0.00095,0.00095c-1.2084,0.8854 -1.5846,2.62865 -1.9855,3.9862c-0.5529,1.88195 -0.82175,3.8836 -1.6264,5.6829c-0.0494,0.10735 -0.5111,-0.057 -0.47975,-0.12635c0.8056,-1.80025 1.06875,-3.8019 1.6264,-5.6848c0.4066,-1.3737 0.7847,-3.1008 1.9988,-4.00615c0.10355,-0.323 0.0741,-0.4978 -0.02185,-0.5871c-0.1957,-0.1824 -0.6916,0.0266 -1.0564,0.28025c-0.0418,0.02945 -0.07695,0.0684 -0.11685,0.10165c-0.71915,0.60705 -1.00415,1.85725 -1.23595,2.698c-0.54055,1.96175 -0.8683,3.9729 -1.4003,5.9337c0,0.00095 0.00285,0.0019 0.00285,0.00285c-0.1596,1.4288 -0.6479,3.04 -1.7461,4.0299c-0.0589,0.0551 -0.247,-0.01425 -0.3059,-0.0342c-2.01495,-0.66595 -0.51775,-6.8343 -2.61915,-6.5132c-0.35625,0.24605 -0.01615,1.1248 0.0418,1.4516c0.13015,0.7163 0.05605,1.50385 0.0912,2.23155c0.0741,1.5238 -0.171,2.9925 -0.19285,4.51155c-0.02185,1.6169 0.323,2.70085 1.58935,3.496c0.18715,0.1178 0.39425,0.2299 0.62415,0.3363c0.07315,0.0342 0.15485,0.0532 0.2318,0.0817c0.3667,0.133 0.75905,0.22705 1.1001,0.40565c-0.6441,-1.65015 0.35435,-3.5378 1.61215,-4.77375c0.0836,-0.08265 0.51395,0.0988 0.45505,0.1577c-0.88255,0.8702 -1.501,1.8886 -1.76795,3.10365c-0.24415,1.1134 0.25745,2.23725 1.1267,2.79015z" id="Outline_1_" fill="#010101" stroke-width="1"/>
        <path d="M260.64749,123.17239c-0.86925,-0.5529 -1.38009,-1.67862 -1.13594,-2.79202c0.26695,-1.21505 0.90498,-2.33104 1.78753,-3.20124c0.0589,-0.0589 -0.38733,-0.14179 -0.47093,-0.05914c-1.2578,1.23595 -2.25915,3.12287 -1.61505,4.77302c-0.34105,-0.1786 -0.73949,-0.27482 -1.10619,-0.40782c-0.07695,-0.0285 -0.15988,-0.04805 -0.23303,-0.08225c-0.2299,-0.1064 -0.44048,-0.22028 -0.62763,-0.33808c-1.26635,-0.79515 -1.62707,-1.89319 -1.60522,-3.51009c0.02185,-1.51905 0.25733,-3.01815 0.18323,-4.54195c-0.03515,-0.7277 0.04242,-1.53268 -0.08773,-2.24898c-0.05795,-0.3268 -0.30931,-1.16043 0.04694,-1.40648c2.1014,-0.3211 0.60079,5.78893 2.61574,6.45488c0.0589,0.01995 0.17113,0.15439 0.23003,0.09929c1.0982,-0.9899 1.58781,-2.66961 1.74741,-4.09841c0,-0.00095 -0.00285,-0.0019 -0.00285,-0.00285c0.532,-1.9608 0.89618,-3.987 1.43673,-5.94875c0.2318,-0.84075 0.5228,-2.09051 1.24195,-2.69756c0.0399,-0.03325 0.07555,-0.07213 0.11735,-0.10158c0.3648,-0.25365 0.86537,-0.46175 1.06107,-0.27935c0.09595,0.0893 0.10096,0.36106 -0.00259,0.68406c-1.2141,0.90535 -1.58422,2.63385 -1.99082,4.00755c-0.55765,1.8829 -0.76618,3.83521 -1.57178,5.63546c-0.03135,0.06935 0.33122,0.24252 0.38062,0.13517c0.80465,-1.7993 1.13155,-3.85942 1.68445,-5.74137c0.4009,-1.35755 0.78314,-3.09931 1.99154,-3.98471l-0.00096,-0.00095c0.00095,0 0.00191,0 0.00191,0c0.1083,-0.07885 0.24847,-0.16671 0.39002,-0.17431c0.00475,0.01235 0.06125,0.03816 0.0831,0.05811c0.0304,0.0304 0.05942,0.06384 0.08602,0.09899c0.11685,0.1729 0.1909,0.36268 0.20325,0.57263c0.00285,0.03895 0.00933,0.16043 0.06633,0.18418c-0.893,0.63555 -1.2495,2.04493 -1.58105,2.96548c-0.38665,1.06685 -0.76929,2.11271 -1.08469,3.20711c-0.28975,1.01935 -0.59275,2.21038 -1.2796,3.05018c-0.02185,0.0285 0.37244,0.15018 0.46364,0.04283c1.22835,-1.49625 1.39726,-3.69764 2.10596,-5.45894c0.43795,-1.0982 0.96319,-3.68954 2.37489,-3.98879c0.00285,0 0.00477,-0.00189 0.00667,-0.00284c0.00095,0.0019 0.00098,0.00571 0.00288,0.00761c0.2166,0.44745 0.12692,1.04986 0.00247,1.49921c-0.00665,0.0228 -0.03552,0.13228 0.00438,0.15698c-0.9329,0.27835 -1.38603,1.05156 -1.71568,2.15926c-0.5833,1.9646 -1.35416,3.91045 -2.09991,5.81805c-0.02945,0.07695 0.35124,0.18562 0.39114,0.08017c0.646,-1.64445 1.41935,-3.21307 1.90575,-4.91357c0.3781,-1.3186 0.86047,-2.96874 2.35007,-3.10839c0.0266,-0.00285 0.04962,-0.01313 0.07717,-0.01503c-0.0076,0.019 -0.01132,0.03616 -0.01797,0.05421c-0.11305,0.30875 -0.18441,0.59997 -0.24806,0.94577c0,0.0019 0.0067,0.00479 0.0067,0.00764c-2.05865,2.10425 -1.89981,5.32112 -3.45781,7.73222c-0.02755,0.04655 0.32596,0.18495 0.39626,0.0757c1.56655,-2.42915 1.39909,-5.5567 3.51949,-7.64765c0.45505,0.74195 -0.28172,2.81324 -0.45557,3.40699c-0.475,1.6207 -0.70263,3.32288 -0.98098,4.98538c-0.28025,1.6872 -0.68689,3.35173 -1.37374,4.92303c-0.43795,1.00415 -1.1556,2.95769 -2.38965,3.19709c-0.00475,0.00095 0.00284,0.00475 -0.00096,0.0057c-0.22705,0.0608 -0.45257,0.08563 -0.66537,0.08278c-0.4256,-0.00855 -0.82273,-0.13803 -1.16093,-0.35368l0.01054,-0.09944z" data-paper-data="{&quot;noHover&quot;:false,&quot;origItem&quot;:[&quot;Path&quot;,{&quot;applyMatrix&quot;:true,&quot;segments&quot;:[[260.65275,123.09215],[[260.65275,123.09215],[0,0],[0.3382,0.21565]],[[261.80795,123.44555],[-0.4256,-0.00855],[0.2128,0.00285]],[[262.4701,123.3629],[-0.22705,0.0608],[0.0038,-0.00095]],[[262.47105,123.3572],[-0.00475,0.00095],[1.23405,-0.2394]],[[264.84415,120.16425],[-0.43795,1.00415],[0.68685,-1.5713]],[[266.19315,115.2651],[-0.28025,1.6872],[0.27835,-1.6625]],[[267.1745,110.32415],[-0.475,1.6207],[0.17385,-0.59375]],[[267.70935,106.85855],[0.45505,0.74195],[-2.1204,2.09095]],[[264.19815,114.5678],[1.56655,-2.42915],[-0.0703,0.10925]],[[263.71745,114.4386],[-0.02755,0.04655],[1.558,-2.4111]],[[267.184,106.7721],[-2.05865,2.10425],[0,-0.00285]],[[267.17735,106.7645],[0,0.0019],[0.06365,-0.3458]],[[267.4272,105.8202],[-0.11305,0.30875],[0.00665,-0.01805]],[[267.44525,105.76605],[-0.0076,0.019],[-0.02755,0.0019]],[[267.3683,105.78125],[0.0266,-0.00285],[-1.4896,0.13965]],[[265.07975,108.8108],[0.3781,-1.3186],[-0.4864,1.7005]],[[263.1883,113.785],[0.646,-1.64445],[-0.0399,0.10545]],[[262.70855,113.65865],[-0.02945,0.07695],[0.74575,-1.9076]],[[264.8261,107.9083],[-0.5833,1.9646],[0.32965,-1.1077]],[[266.595,105.6644],[-0.9329,0.27835],[-0.0399,-0.0247]],[[266.5361,105.59125],[-0.00665,0.0228],[0.12445,-0.44935]],[[266.53705,104.09405],[0.2166,0.44745],[-0.0019,-0.0019]],[[266.5342,104.08645],[0.00095,0.0019],[-0.0019,0.00095]],[[266.52755,104.0893],[0.00285,0],[-1.4117,0.29925]],[[264.19815,107.98905],[0.43795,-1.0982],[-0.7087,1.7613]],[[262.1034,113.5304],[1.22835,-1.49625],[-0.0912,0.10735]],[[261.6208,113.40215],[-0.02185,0.0285],[0.68685,-0.8398]],[[262.86625,110.44575],[-0.28975,1.01935],[0.3154,-1.0944]],[[263.95305,107.2395],[-0.38665,1.06685],[0.33155,-0.92055]],[[265.57185,104.18145],[-0.893,0.63555],[-0.057,-0.02375]],[[265.4664,104.0893],[0.00285,0.03895],[-0.01235,-0.20995]],[[265.265,103.5174],[0.11685,0.1729],[-0.0266,-0.03515]],[[265.1795,103.4186],[0.0304,0.0304],[-0.02185,-0.01995]],[[265.09685,103.36065],[0.00475,0.01235],[-0.14155,0.0076]],[[264.7083,103.53545],[0.1083,-0.07885],[0,0]],[[264.7064,103.53545],[0.00095,0],[0,0]],[[264.70735,103.5364],[0,0],[-1.2084,0.8854]],[[262.72185,107.5226],[0.4009,-1.35755],[-0.5529,1.88195]],[[261.09545,113.2055],[0.80465,-1.7993],[-0.0494,0.10735]],[[260.6157,113.07915],[-0.03135,0.06935],[0.8056,-1.80025]],[[262.2421,107.39435],[-0.55765,1.8829],[0.4066,-1.3737]],[[264.2409,103.3882],[-1.2141,0.90535],[0.10355,-0.323]],[[264.21905,102.8011],[0.09595,0.0893],[-0.1957,-0.1824]],[[263.16265,103.08135],[0.3648,-0.25365],[-0.0418,0.02945]],[[263.0458,103.183],[0.0399,-0.03325],[-0.71915,0.60705]],[[261.80985,105.881],[0.2318,-0.84075],[-0.54055,1.96175]],[[260.40955,111.8147],[0.532,-1.9608],[0,0.00095]],[[260.4124,111.81755],[0,-0.00095],[-0.1596,1.4288]],[[258.6663,115.84745],[1.0982,-0.9899],[-0.0589,0.0551]],[[258.3604,115.81325],[0.0589,0.01995],[-2.01495,-0.66595]],[[255.74125,109.30005],[2.1014,-0.3211],[-0.35625,0.24605]],[[255.78305,110.75165],[-0.05795,-0.3268],[0.13015,0.7163]],[[255.87425,112.9832],[-0.03515,-0.7277],[0.0741,1.5238]],[[255.6814,117.49475],[0.02185,-1.51905],[-0.02185,1.6169]],[[257.27075,120.99075],[-1.26635,-0.79515],[0.18715,0.1178]],[[257.8949,121.32705],[-0.2299,-0.1064],[0.07315,0.0342]],[[258.1267,121.40875],[-0.07695,-0.0285],[0.3667,0.133]],[[259.2268,121.8144],[-0.34105,-0.1786],[-0.6441,-1.65015]],[[260.83895,117.04065],[-1.2578,1.23595],[0.0836,-0.08265]],[[261.294,117.19835],[0.0589,-0.0589],[-0.88255,0.8702]],[[259.52605,120.302],[0.26695,-1.21505],[-0.24415,1.1134]],[[260.65275,123.09215],[-0.86925,-0.5529],[0,0]]],&quot;closed&quot;:true,&quot;fillColor&quot;:[0,0,0,1]}]}" fill="url(#color-7)" stroke-width="0.5"/>
      </g>
      <path d="M235.43961,102.5299c0.57665,0.0209 1.02505,0.50635 1.00415,1.08205c-0.0209,0.5776 -0.5073,1.026 -1.083,1.00605c-0.57665,-0.0228 -1.02695,-0.5092 -1.00225,-1.0849c0.01995,-0.5757 0.50445,-1.026 1.0811,-1.0032z" data-paper-data="{&quot;origPos&quot;:null}" id="R_Pupil" fill="url(#color-8)" stroke="#010101" stroke-width="0.2494"/>
      <path d="M247.77294,101.91085c0.57665,0.0209 1.02505,0.50635 1.00415,1.08205c-0.0209,0.5776 -0.5073,1.026 -1.083,1.00605c-0.57665,-0.0228 -1.02695,-0.5092 -1.00225,-1.0849c0.01995,-0.5757 0.50445,-1.026 1.0811,-1.0032z" data-paper-data="{&quot;origPos&quot;:null}" id="R_Pupil" fill="url(#color-9)" stroke="#010101" stroke-width="0.2494"/>
    </g>
  </g>
</svg>
