<?xml version="1.0"?>
<svg xmlns="http://www.w3.org/2000/svg" xmlns:xlink="http://www.w3.org/1999/xlink" version="1.1" width="103.0406" height="193.55086" viewBox="0,-0.00763,103.0406,193.55086">
  <defs>
    <radialGradient cx="305.94622" cy="141.51124" r="7.07789" gradientUnits="userSpaceOnUse" id="color-1">
      <stop offset="0" stop-color="#71fd6e"/>
      <stop offset="1" stop-color="#c7e1c0"/>
    </radialGradient>
    <radialGradient cx="240.09072" cy="121.89134" r="6.30277" gradientUnits="userSpaceOnUse" id="color-2">
      <stop offset="0" stop-color="#67ff66"/>
      <stop offset="1" stop-color="#cbe7b7"/>
    </radialGradient>
    <radialGradient cx="234.26525" cy="113.44752" r="16.42197" gradientUnits="userSpaceOnUse" id="color-3">
      <stop offset="0" stop-color="#67ff66"/>
      <stop offset="1" stop-color="#cbe7b7"/>
    </radialGradient>
    <linearGradient x1="238.88041" y1="85.55628" x2="238.88041" y2="106.65762" gradientUnits="userSpaceOnUse" id="color-4">
      <stop offset="0" stop-color="#000000"/>
      <stop offset="1" stop-color="#1a1a1a"/>
    </linearGradient>
    <linearGradient x1="239.15719" y1="82.6074" x2="239.15719" y2="107.16165" gradientUnits="userSpaceOnUse" id="color-5">
      <stop offset="0" stop-color="#000000"/>
      <stop offset="1" stop-color="#1a1a1a"/>
    </linearGradient>
    <radialGradient cx="274.16643" cy="165.13754" r="5.82826" gradientUnits="userSpaceOnUse" id="color-6">
      <stop offset="0" stop-color="#71fd6e"/>
      <stop offset="1" stop-color="#c7e1c0"/>
    </radialGradient>
    <linearGradient x1="235.56766" y1="102.20336" x2="235.56766" y2="104.29293" gradientUnits="userSpaceOnUse" id="color-7">
      <stop offset="0" stop-color="#ff0000"/>
      <stop offset="1" stop-color="#ff3a3a"/>
    </linearGradient>
    <linearGradient x1="248.90099" y1="102.58431" x2="248.90099" y2="104.67388" gradientUnits="userSpaceOnUse" id="color-8">
      <stop offset="0" stop-color="#ff0000"/>
      <stop offset="1" stop-color="#ff3a3a"/>
    </linearGradient>
  </defs>
  <g transform="translate(-211.71891,-82.60738)">
    <g data-paper-data="{&quot;isPaintingLayer&quot;:true}" fill="none" fill-rule="nonzero" stroke="none" stroke-width="none" stroke-linecap="butt" stroke-linejoin="miter" stroke-miterlimit="10" stroke-dasharray="" stroke-dashoffset="0" font-family="none" font-weight="none" font-size="none" text-anchor="none" style="mix-blend-mode: normal">
      <g data-paper-data="{&quot;origPos&quot;:null}" stroke="none" stroke-width="1">
        <g data-paper-data="{&quot;origPos&quot;:null}" id="R_Shoe">
          <path d="M262.45666,258.03066c-0.27455,0.59375 1.6036,0.9861 2.06815,1.0412c1.23025,0.13965 3.05995,-0.2945 4.24935,-0.3002c1.0564,-0.00855 2.2363,0.1596 3.1654,0.56335c0.5966,0.2584 1.68435,1.4744 1.8392,2.109c0.0342,0.1406 0.0152,0.4161 -0.019,0.5548c-0.99465,0.3876 -1.8449,1.12955 -2.8025,1.634c-1.3281,0.70015 -2.7664,1.2236 -4.2769,1.5314c-1.5808,0.3249 -1.4839,0.60325 -3.1084,0.68115c-1.38225,0.06555 -4.5011,0.1596 -5.80925,-0.0931c-2.78065,-0.5282 -5.08345,-0.60135 -7.65415,-1.8924c-0.80275,-0.09595 -5.2991,-1.8278 -3.8741,-2.1584c1.24545,-0.2888 4.80795,-0.32585 6.0914,-0.2584c1.8981,0.0988 3.857,-0.66595 5.64205,-1.4003c0.84835,-0.34865 1.53425,-0.66215 2.33225,-1.083c0.7163,-0.37715 1.25305,-0.53485 1.7651,-1.12195" id="Fill_8_" fill="#eaa06d"/>
          <path d="M273.96116,261.94941c0.24415,0.91295 0.29355,1.85915 0.32395,2.8538c0.0133,0.48735 -0.10735,0.8512 -0.16625,1.26635c-0.0608,0.45505 0.1064,0.89015 0.0437,1.34425c-1.01175,0.399 -1.89335,1.0089 -2.9488,1.35565c-1.13905,0.37525 -2.32275,0.66405 -3.4713,1.0241c-2.698,0.8493 -5.75415,0.68685 -8.4778,0.0551c-1.08395,-0.2508 -2.10995,-0.63935 -3.13785,-1.05545c-0.9918,-0.4028 -1.72805,-0.9405 -2.83005,-1.03265c-1.1229,-0.0969 -2.20685,0.23465 -3.3421,0.15485c-1.0583,-0.0722 -2.2629,-0.14535 -3.24805,-0.5225c-2.09855,-0.8056 -0.64695,-3.9748 -0.70585,-5.51285c0.42275,0.25175 1.25305,0.70585 1.66915,0.99655c0.89775,0.6175 1.63685,0.75335 2.67805,1.0488c1.11055,0.3173 2.0083,0.70775 3.11505,1.00985c2.39305,0.65455 4.8887,0.88635 7.38245,1.0241c2.3997,0.133 4.70915,-0.0038 6.93215,-0.85785c1.2388,-0.475 2.4282,-1.0811 3.60525,-1.69575c0.7201,-0.3762 1.71665,-1.56465 2.5137,-1.57605" id="Trim_1_" fill="#bc7240"/>
          <path d="M273.55361,261.66726v0c-1.07445,-3.32595 -4.1078,-3.02955 -6.9711,-2.6486c-0.87305,0.11685 -1.76035,0.23275 -2.641,0.10735c-0.9709,-0.1387 -1.4402,-0.59565 -2.09855,-1.2882c-0.133,-0.1406 0.3439,-0.1064 0.4427,-0.00285c0.6764,0.7125 1.2597,1.08205 2.2762,1.08965c0.57475,0.00665 1.1552,-0.08265 1.7271,-0.1558c1.08965,-0.1406 2.17835,-0.2983 3.28225,-0.27835c2.185,0.03705 3.78195,1.14665 4.4593,3.23855c0.0513,0.1577 -0.4256,0.09215 -0.4769,-0.06175zM274.1787,261.729v0c0.3211,1.93325 0.2185,3.8855 0.25935,5.8387c0.0057,0.19095 -0.4731,0.08455 -0.4769,-0.0627c-0.03895,-1.95035 0.0608,-3.9026 -0.25935,-5.8387c-0.0285,-0.1786 0.4522,-0.09405 0.4769,0.0627zM264.06691,270.42435v0c-2.7702,0.06175 -5.2877,-0.31065 -7.85175,-1.37845c-0.8018,-0.33535 -1.5561,-0.7372 -2.3883,-0.99655c-1.0944,-0.3363 -2.06245,-0.05415 -3.15495,0.0304c-1.74705,0.1368 -3.39625,-0.30115 -5.0483,-0.82745c-0.06555,-0.019 -0.19095,-0.05795 -0.2109,-0.14155c-0.34485,-1.78505 0.41895,-3.47415 0.34865,-5.26015c-0.0076,-0.18905 0.4693,-0.0874 0.4769,0.05985c0.0513,1.33285 -1.2844,4.902 0.3078,5.38745c1.4193,0.4313 2.85,0.6897 4.32915,0.46075c0.74195,-0.11495 1.45635,-0.2109 2.2021,-0.1159c1.64065,0.209 3.13595,1.19415 4.6721,1.7461c1.976,0.70965 4.047,0.8246 6.1275,0.77805c0.171,-0.0038 0.5149,0.24985 0.19,0.25745zM274.39246,267.64655v0c-3.34495,1.5086 -6.6557,2.63245 -10.3246,2.78065c-0.17195,0.00665 -0.51015,-0.2451 -0.1881,-0.25745c3.5948,-0.1463 6.85615,-1.2654 10.1327,-2.7455c0.1311,-0.06175 0.57095,0.13585 0.38,0.2223zM274.01531,261.79075v0c-3.5644,3.078 -8.59085,4.44505 -13.2107,4.34245c-2.6163,-0.06175 -5.206,-0.56525 -7.7387,-1.19795c-1.1932,-0.29925 -2.3636,-0.6669 -3.52165,-1.083c-1.3566,-0.4845 -2.3066,-1.3509 -3.5853,-1.95605c-0.29925,-0.1406 -0.02185,-0.27835 0.18335,-0.17955c0.741,0.3496 1.35945,0.8512 2.04155,1.2996c1.15425,0.75525 2.755,1.08775 4.06505,1.45825c2.57545,0.7315 5.2326,1.22455 7.9059,1.3775c4.63885,0.26125 9.83535,-1.1609 13.41305,-4.2465c0.12635,-0.1026 0.56905,0.0817 0.44745,0.18525z" id="Outline_13_" fill="#000000"/>
        </g>
        <path d="M264.16191,258.7251c-0.019,0.0285 0.07125,0.08455 0.17955,0.1235c-0.60135,0.532 -2.05485,-0.9975 -2.75025,-0.7258c-1.20745,0.3553 -1.0241,0.91485 -2.22395,1.4041c-1.3756,0.55765 -3.15115,1.56465 -4.6132,1.69385c-2.7037,0.2375 -4.25315,0.24605 -6.83905,0.22325c-2.75785,0 -2.0311,1.2217 -1.9475,1.6093c-1.66335,1.0392 -5.58031,-0.47027 -6.47066,-1.53988l0.44629,0.76745c0,0 0.07613,-1.94311 -0.83561,-2.2191c0.00086,-0.04025 0.43031,-0.36621 0.43118,-0.40647l0.46651,2.49558c-0.30202,-0.25168 -0.87944,-1.61298 -1.73509,-4.6606c0.05069,-2.07337 -1.45277,-2.28447 -0.54497,-4.14924c1.16615,-2.39546 0.65015,-3.88462 0.40749,-6.58537c-0.47938,-5.33535 -0.13265,-10.6372 -0.13265,-16.00567c0,-2.36107 1.2,-3.48888 1.2,-5.84995c0,-1.92277 -1.18317,-2.40149 -1.57938,-4.28299c-0.56366,-2.67669 0.09366,-4.63971 0.09366,-7.37511c0.66813,-0.31149 0.28717,-3.82258 0.45347,-4.31204c0.10695,-0.27831 -0.03442,2.01941 -0.03442,1.70343c0,-0.43273 0.2,-3.66545 0.2,-4.09817c0,0 -0.12094,-0.40226 0.05767,-0.65973c0.18082,-0.26066 0.57763,-1.09649 0.57763,-1.09649c0,0 0.67337,-0.84635 0.7052,-1.43044c0.30755,-0.10983 -1.78678,-2.82303 -1.48904,-2.95063c0,0 1.69787,0.0152 0.71307,-2.28267c-0.01486,-0.03467 -0.79787,-4.5152 -0.79787,-4.5152c0,-2.85577 0.35484,-5.31981 0.44086,-5.55294c0.02867,-0.07772 0.81305,-3.33416 0.75914,-3.39705c0.89596,-0.44798 1.55718,-3.31072 1.55718,-3.31072c0,0 -0.88964,-2.54583 -0.34805,-2.32147c0.18053,0.07478 3.66594,0.82973 3.52641,-1.03755c7.12246,-0.52585 11.77208,-0.48396 11.77208,-0.48396l1.15235,15.5363c-0.0038,0.0038 -0.019,0.0038 -0.019,0.00855c0.0076,7.8128 0.532,15.61135 0.33155,23.427c0,0.0057 0.0114,0.01045 0.0133,0.01615c-0.00095,0.00285 -0.0095,0.00285 -0.00855,0.00665c0.5624,2.6391 0.4256,5.1908 0.66215,7.847c0.2204,2.50705 0.63745,5.0103 1.0127,7.4955c0.37905,2.508 0.71915,4.97895 0.81035,7.5145c0.0494,1.44495 0.0817,3.2395 1.18465,4.3168c-0.3306,-0.0703 -0.66595,-0.1159 -1.00415,-0.12255c-0.2356,-0.00475 0.209,0.19475 0.3097,0.1938c0.6384,0.0133 1.4003,0.23845 2.00925,0.63555c0.06555,0.0456 0.13585,0.09405 0.2033,0.1425c0.57855,0.44745 0.96425,1.07065 0.83505,1.85725c-0.11305,0.6897 -0.418,1.27585 -0.6745,1.91805c-0.48355,1.2198 -0.5358,2.2762 0.64315,3.0172c1.3357,0.8436 2.7398,1.406 2.4453,3.2984c-0.22135,1.43165 -0.7353,2.91745 -1.5523,4.12015z" data-paper-data="{&quot;origPos&quot;:null}" id="Fill_7_" fill="#3d6767"/>
        <path d="M237.77897,254.9796c-0.4501,-0.96049 0.31682,-0.45105 -0.40103,-1.23019c-0.48357,-0.52306 -0.09233,-0.88912 0.36123,-1.36012c0.60013,-0.61373 0.24697,-1.33578 0.12695,-2.0276c0,-0.00168 -0.00347,-0.00252 -0.00347,-0.00336c0,-0.00588 0,-0.01344 0,-0.02099c-0.00462,-0.03023 -0.0127,-0.06045 -0.01615,-0.09068c0,-0.00252 0.01154,-0.00167 0.0127,-0.00419c-0.00116,-0.03275 -0.00347,-0.06465 -0.00347,-0.0974c-0.01154,-0.01092 -0.02424,-0.02099 -0.03578,-0.0319c-0.03232,-0.02938 -0.01154,-0.0445 0.03232,-0.05205c-0.20312,-7.26492 -1.06062,-14.57517 0.56089,-21.79307c0.00577,-0.01931 0.04617,-0.02771 0.09464,-0.03107c1.47726,-3.9007 -2.00435,-9.22878 -1.33151,-13.23947c0.33469,-2.00324 0.39029,-7.67988 0.56341,-9.69404c0.08662,-0.97367 2.44985,-1.57895 2.60832,-2.50133c0.21757,-0.0174 -2.18317,3.41928 -2.00066,3.37895c-0.17682,0.87293 -0.28988,5.62915 -0.3397,6.54892c-0.10618,1.99401 0.13231,3.99473 -0.18737,5.97279c-0.68323,4.23318 2.76837,5.78627 1.18379,9.89687c-0.00462,0.01175 -0.03463,0.01175 -0.05309,0.01763c-1.55458,7.15577 -0.71439,14.4039 -0.51473,21.60752c1.86734,1.70772 4.41099,3.76134 7.68171,3.51618c0.1258,-0.01175 0.66822,0.15196 0.37739,0.17379c-3.31227,0.24767 -5.96787,-1.45584 -7.99909,-3.20217c0.13503,0.62297 0.32892,1.19977 -0.17196,1.78748c-0.21005,0.24684 -0.42471,0.45002 -0.5909,0.71701c-0.31853,0.52642 0.81826,0.99827 1.25682,1.22831c0.9856,0.51467 -1.41426,2.11678 -1.14882,3.00086c0.53204,1.74633 2.68839,2.52024 1.14305,3.92571c0.00346,0.00252 0.01385,0.00335 0.01616,0.00671c0.50665,0.51887 1.04561,0.98735 1.77962,1.34334c1.10679,0.5365 2.47787,0.25356 3.60773,-0.05205c0.12926,-0.03526 0.64861,0.11838 0.47433,0.16456c-2.30624,0.61696 -4.12673,0.29158 -5.63761,-0.84553l-0.18678,-0.40765l-0.06064,0.0147c-0.04157,-0.24836 -0.13529,-0.46318 -0.2637,-0.64885c0,0 -0.63943,-3.32183 -0.71941,-3.51696c-0.02666,-0.06504 0.59837,-0.71009 -0.21518,-2.45066z" data-paper-data="{&quot;origPos&quot;:null}" id="Outline_11_" fill="#000000"/>
        <path d="M266.13791,253.49441c0.52155,1.6074 -0.6175,4.06315 -1.4991,5.36465c-0.0171,0.0247 -0.057,0.02755 -0.09595,0.02945c-0.0551,0.14535 -0.60135,0.24225 -0.60135,0.24225l-0.01425,-0.0456c-0.6935,-0.1007 -1.4098,-1.32145 -1.89905,-0.988c-1.5618,1.0621 -3.2433,1.9342 -5.01125,2.59825c-1.9019,0.7163 -3.8,0.931 -5.814,0.91865c-2.19925,-0.01425 -4.49825,-0.20235 -6.55215,0.7391c-0.12825,0.0627 -0.50825,-0.1349 -0.44935,-0.16055c1.62355,-0.74385 3.3782,-0.8018 5.1338,-0.79325c2.39305,0.01235 4.5942,-0.00095 6.89605,-0.7486c1.1343,-0.3686 2.2154,-0.8854 3.2642,-1.44495c0.7315,-0.3914 1.59125,-1.2369 2.3731,-1.4573c0.19855,-0.05985 0.3933,-0.02945 0.5833,0.0589c0.33915,0.1634 1.0089,1.12195 1.30245,1.0982c0.0266,-0.0019 0.0741,0.00855 0.1292,0.0266l-0.00285,-0.00855l0.2812,-0.1957c0.81795,-1.2027 1.3319,-2.6885 1.5523,-4.12015c0.2945,-1.89335 -1.1096,-2.4548 -2.4453,-3.2984c-1.17895,-0.741 -1.1267,-1.7974 -0.64315,-3.0172c0.2565,-0.6422 0.56145,-1.22835 0.6745,-1.91805c0.1292,-0.7866 -0.2565,-1.4098 -0.83505,-1.85725c-0.0646,-0.0494 -0.133,-0.0969 -0.2033,-0.1425c-0.608,-0.3971 -1.37085,-0.62225 -2.00925,-0.63555c-0.1007,0.00095 -0.5453,-0.19855 -0.3097,-0.1938c0.33915,0.00665 0.67355,0.05225 1.00415,0.12255c-1.10295,-1.0773 -1.13525,-2.87185 -1.18465,-4.3168c-0.0912,-2.53555 -0.43225,-5.00555 -0.81035,-7.5145c-0.3743,-2.48615 -0.7923,-4.98845 -1.0127,-7.4955c-0.23655,-2.6562 -0.09975,-5.20885 -0.66215,-7.847c-0.00095,-0.0038 0.0076,-0.0038 0.00855,-0.00665c-0.0019,-0.0057 -0.0133,-0.01045 -0.0133,-0.01615c0.20045,-7.8147 -0.32395,-15.61325 -0.33155,-23.427c0,-0.00475 0.0152,-0.00475 0.019,-0.00855l-1.15235,-15.5363c0,0 -4.64967,-0.04155 -11.77184,0.48432c-0.01359,-0.18117 -0.02344,-0.36696 -0.02933,-0.55835c4.17106,-0.33312 8.4977,-0.53011 12.27521,-0.40097l1.13525,16.15095c0.00855,7.8109 0.53295,15.6066 0.3325,23.41845c0.43225,2.03395 0.56905,4.03275 0.5795,6.10565c0.01235,2.64195 0.54815,5.25825 0.9044,7.8679c0.35245,2.57165 0.855,5.1357 0.96995,7.73585c0.076,1.7119 -0.16055,4.0584 1.1609,5.3751c0.04845,0.04845 0.08265,0.1045 0.13585,0.1501c0.0228,0.0076 0.04655,0.01805 0.06935,0.0266c0.63365,0.2242 1.22455,0.5586 1.70715,1.045c1.33095,1.33665 -0.25935,3.22335 -0.5016,4.6512c-0.34105,2.0235 2.7949,2.19925 3.363,3.94345z" id="Outline_11_" fill="#000000"/>
      </g>
      <g data-paper-data="{&quot;origPos&quot;:null}" stroke="none" stroke-width="1">
        <g data-paper-data="{&quot;origPos&quot;:null}" id="L_Shoe">
          <path d="M236.40871,268.60161c0.0076,0.6897 -0.4636,2.02445 -0.99845,2.37215c-0.7239,0.46645 -2.0387,0.96805 -2.8747,1.1381c-3.6613,0.74955 -8.9243,0.779 -12.5704,-0.1387c-0.83505,-0.20995 -1.653,-0.6593 -1.86485,-1.3262c-0.1102,-0.35245 -0.36955,-1.7936 -0.3173,-2.1147c0.0931,-0.59375 1.3661,-1.3509 1.7423,-1.88005c0.40375,-0.56715 1.24735,-1.0241 1.8088,-1.47535c1.13145,-0.91485 2.8709,-1.19225 4.29495,-1.40505c1.62735,-0.2451 3.06755,-0.0228 4.7481,0.456c1.3034,0.3762 2.36265,0.9652 3.5264,1.6302c0.5605,0.323 1.07065,0.57475 1.4079,1.17325c0.2793,0.49305 0.57475,1.2749 1.09725,1.57035" id="Fill_6_" fill="#eaa06d"/>
          <path d="M236.51416,269.94681c0.3781,0.98895 -0.18335,2.8082 -0.46075,3.8589c-0.1349,0.5092 -1.04785,0.66025 -1.49815,0.94525c-0.65265,0.40945 -1.4307,0.43415 -2.17455,0.6137c-1.46585,0.35435 -3.0039,0.57475 -4.5277,0.57475c-1.38605,0 -2.40255,-0.12635 -3.7924,-0.18525c-1.1476,-0.0475 -2.33795,-0.3078 -3.458,-0.5415c-0.92815,-0.1957 -1.9323,-0.3439 -2.5669,-1.0868c-0.76285,-0.89205 -1.16755,-1.90475 -1.3262,-2.98775c-0.11875,-0.8056 -0.3458,-2.17455 0.51965,-2.5289c0.85025,-0.3458 0.7201,1.36325 0.8702,2.03205c0.24415,1.0811 2.01875,1.3547 3.078,1.6302c2.774,0.7239 5.10245,0.83885 7.79665,0.47405c1.5219,-0.2052 3.1122,-0.25365 4.5125,-0.83885c0.4142,-0.1729 1.15235,-0.28785 1.5029,-0.60325c0.35055,-0.3173 0.58805,-0.49495 0.82175,-0.82365c0.08265,0.0209 0.21375,-0.5624 0.25935,-0.5168" id="Trim" fill="#bc7240"/>
          <path d="M236.14271,268.57975v0c-0.18525,-1.1286 -2.7778,-2.2971 -3.6727,-2.7398c-1.5637,-0.77045 -3.24805,-0.95855 -4.96755,-0.90155c-1.81355,0.05795 -3.72875,0.17005 -5.44635,0.78375c-1.62545,0.58045 -2.96685,1.73565 -4.1268,2.9792c-0.11115,0.11685 -0.5662,-0.05605 -0.44745,-0.1805c1.3775,-1.47915 2.9222,-2.6391 4.86875,-3.249c1.8335,-0.57285 4.047,-0.6175 5.95745,-0.60705c1.64065,0.0133 3.28605,0.4142 4.7386,1.1856c0.93005,0.49495 3.37345,1.5694 3.572,2.7911c0.02945,0.17955 -0.45125,0.0931 -0.47595,-0.06175zM218.01861,268.72416v0c0.05605,0.7961 0.03135,1.5903 0.42845,2.3066c0.4579,0.8208 1.9817,1.0298 2.81295,1.1818c1.75275,0.3249 3.54255,0.494 5.32285,0.49115c1.9855,-0.00095 3.97955,-0.2641 5.91755,-0.70205c0.95665,-0.2166 1.87815,-0.5586 2.6752,-1.1381c0.7999,-0.58425 0.73435,-1.46205 0.9652,-2.3161c0.04085,-0.15485 0.45505,-0.038 0.4769,0.0988c0.24415,1.49245 0.13395,3.0153 -0.21375,4.484c-0.13395,0.5643 -0.00855,0.70775 -0.49875,1.08395c-0.46075,0.3496 -1.0279,0.6194 -1.5713,0.8132c-3.08845,1.09535 -6.70225,1.2768 -9.94555,1.0203c-2.44435,-0.19475 -5.79405,-0.40375 -7.201,-2.74835c-0.7068,-1.17515 -1.5086,-4.7766 0.56715,-5.1034c0.14345,-0.019 0.5624,0.20995 0.2964,0.25175c-2.0292,0.3192 -0.8911,4.0641 -0.266,5.1015c0.8113,1.34995 2.5555,1.65015 3.9786,1.9266c1.38415,0.26885 2.8044,0.35625 4.2142,0.3819c2.71795,0.05035 5.59265,-0.21375 8.1719,-1.1286c0.38095,-0.13775 0.74005,-0.35435 1.0887,-0.5567c0.7277,-0.4237 0.60325,-0.78755 0.76855,-1.4839c0.31445,-1.33285 0.36385,-2.76165 0.1387,-4.10875c0.1596,0.03325 0.3173,0.0627 0.4769,0.0988c-0.2584,0.96615 -0.19475,1.67105 -0.99655,2.3693c-0.6897,0.60325 -1.63685,0.88445 -2.49375,1.12575c-2.33605,0.65265 -4.86305,0.83315 -7.277,0.7904c-1.919,-0.03135 -3.94345,-0.2793 -5.7988,-0.77425c-0.6821,-0.1767 -1.32525,-0.4674 -1.8525,-0.9348c-0.68875,-0.6137 -0.5947,-1.76225 -0.6536,-2.5897c-0.019,-0.1919 0.4598,-0.095 0.46835,0.0589z" id="Outline_12_" fill="#000000"/>
        </g>
        <path d="M238.09686,261.94399c-0.96995,1.23405 -1.6093,0.70015 -1.1951,1.99595c0.7923,2.4814 0.03705,3.4618 -0.70015,3.54635c-0.4465,0.05035 -2.3522,-1.88005 -3.1635,-2.18595c-1.672,-1.06875 -2.0881,-1.07255 -4.08785,-1.36515c-2.0957,-0.304 -3.62235,-0.3667 -5.9831,0.2717c-2.11945,0.1938 -3.1958,2.4909 -4.5828,3.496c-0.05225,-0.057 -0.2907,-0.1558 -0.35625,-0.1596c-2.21635,-0.02945 -1.1362,-1.12005 -2.11185,-1.99975c-1.1153,-1.0013 -2.09475,-2.147 -2.907,-3.4086c-0.4674,-0.72865 -0.9101,-1.3585 -0.5738,-2.25245c0.1843,-0.49495 0.4142,-0.96235 0.7334,-1.38605c0.69255,-0.9215 1.52095,-1.72995 2.13275,-2.71605c0.00095,-0.02185 -0.0038,-0.03515 -0.01995,-0.0494c-0.7885,-0.61845 -1.54185,-1.01935 -0.5662,-1.7936c0.61085,-0.4826 0.37525,-0.60515 0.2546,-1.2236c-0.5852,-2.98965 0.6004,-6.1104 1.32715,-8.98035c1.60265,-6.3422 2.9222,-12.85635 3.32405,-19.3952c0,-0.0019 -0.00285,-0.00285 -0.00285,-0.0038c0.9652,-10.23625 1.9342,-20.47725 2.8994,-30.71065c0.15295,0.04845 0.0209,-0.21945 0.0209,-0.21945l1.1153,-12.85445c11.79188,-1.97291 22.06249,-2.42456 26.631,-2.52583c-0.17571,2.50287 -0.78959,4.67826 -1.15672,7.18536c-0.23145,1.58057 0.02257,3.20028 -0.12829,4.79057c-0.16132,1.70049 -1.32246,2.97019 -2.01872,4.45256c-0.55391,1.17929 -0.91282,2.92976 -1.68385,4.17731c-0.25044,-0.08423 -0.5186,-0.12987 -0.79743,-0.12987c-1.38071,0 -2.5,1.11929 -2.5,2.5c0,0.29365 0.05063,0.57547 0.14363,0.83722c-0.05564,0.17711 -0.08973,0.34147 -0.11061,0.47638c-0.05835,0.12653 -0.11821,0.25213 -0.18039,0.37632c-0.38354,3.06838 0.16615,6.21376 -0.14373,9.27049c-0.40744,1.63734 -0.94485,3.3131 -1.31704,5.02226c-0.62986,1.73891 -1.30362,3.46967 -1.59943,5.23436c-0.30621,1.82668 -0.14373,3.846 0.01216,5.86991c-0.8046,0.73898 -0.8046,1.91306 -0.8046,1.91306c0,2.3041 -0.09124,3.75368 0.4148,5.37441c-0.00226,0.00642 -0.00455,0.01283 -0.00683,0.01925c-1.27877,5.11511 -0.40797,11.33499 -0.40797,16.60634c0,1.3092 0.91261,2.47808 1.91451,3.43963c-0.0548,0.47334 -0.099,0.94745 -0.12656,1.4223c-0.29287,0.2762 -0.50771,0.64578 -0.65561,1.01831c-0.58038,1.46182 -0.73293,2.98239 -0.78039,4.51669c-0.10816,-0.15223 -0.19439,-0.30494 -0.25509,-0.45294z" id="Fill_7_" fill="#3d6767"/>
        <path d="" id="Fill_7_" fill="#3d6767"/>
        <path d="M223.65401,180.55276l-1.1153,12.85445c0,0 0.13205,0.2679 -0.0209,0.21945c-0.9652,10.2334 -1.9342,20.4744 -2.8994,30.71065c0,0.00095 0.00285,0.0019 0.00285,0.0038c-0.40185,6.53885 -1.7214,13.053 -3.32405,19.3952c-0.7106,2.80535 -1.8487,5.85105 -1.3528,8.78085c2.546,0.7752 4.86685,2.5175 7.59335,2.53745c2.5726,0.01995 5.07775,-1.2806 7.51165,-1.9494c0.11495,-0.03135 0.5358,0.14725 0.39615,0.1862c-2.6163,0.7182 -5.28485,2.147 -8.0332,1.95605c-2.6923,-0.1862 -4.9248,-1.7822 -7.44705,-2.56025c0.0019,0.0095 0.0019,0.019 0.0038,0.02945c0.12065,0.61845 0.35625,0.741 -0.2546,1.2236c-0.97565,0.7752 -0.2223,1.1761 0.5662,1.7936c0.0152,0.01425 0.0209,0.0285 0.01995,0.0494c-0.61085,0.9861 -1.4402,1.7936 -2.13275,2.71605c-0.31825,0.4237 -0.5491,0.8911 -0.7334,1.38605c-0.3363,0.89395 0.10735,1.5238 0.5738,2.25245c0.8132,1.2616 1.7917,2.4073 2.907,3.4086c0.9766,0.87875 -0.1045,1.9703 2.11185,1.99975l0.58045,-0.2299c3.4238,-5.63825 13.39215,-4.43935 17.3622,0.0855c0.7391,-0.4579 1.3699,-0.8474 1.1704,-1.8658c-0.1824,-0.92815 -0.5206,-1.45255 -0.44555,-2.3351c-1.2597,0.26125 -2.68945,-0.0285 -3.9292,-0.22895c-2.0463,-0.32775 -4.0109,-0.91295 -6.10375,-0.855c-0.0988,0.0019 -0.5453,-0.19095 -0.3078,-0.19855c3.2262,-0.08265 6.2966,1.1685 9.5228,1.17895c0.04845,-0.22895 0.0988,-0.45885 0.1463,-0.6897c-0.31635,-0.1995 -0.6536,-0.35435 -1.0089,-0.4655c-0.54055,-0.1881 -1.0659,-0.38665 -1.6169,-0.55575c-0.85025,-0.25745 -1.7195,-0.44935 -2.58305,-0.646c-1.98455,-0.45505 -3.98525,-0.84645 -6.00875,-1.0754c-0.1216,-0.0133 -0.5168,-0.22895 -0.20425,-0.1938c2.5441,0.28785 5.05495,0.81795 7.54205,1.41835c1.4155,0.342 3.6841,0.7239 4.71295,1.9513c0.61252,-0.50659 1.15038,-1.14103 1.57842,-1.85046c-0.02883,0.30836 -0.04929,0.61786 -0.06405,0.92812c-0.0142,0.01808 -0.02847,0.0361 -0.04282,0.05404c0.00285,0.00285 0.0114,0.0038 0.0133,0.0076c0.00835,0.01177 0.01673,0.02351 0.0251,0.03523c-0.00679,0.15492 -0.01223,0.31002 -0.01666,0.46526c-0.07662,-0.0863 -0.15225,-0.17618 -0.22695,-0.26963c-0.28975,0.3325 -0.5985,0.6422 -0.93575,0.9063c-0.17385,1.159 0.4484,1.95605 0.50065,3.07895c0.03515,0.7581 -0.97185,1.1856 -1.4839,1.5105c-0.09975,0.0608 -0.37145,-0.0133 -0.44175,-0.0988c-3.7449,-4.63315 -13.6572,-5.7095 -16.84255,0.09405c-0.06745,0.10925 -0.4465,-0.0323 -0.4693,-0.11115c-0.05605,0.01995 -0.11115,0.03895 -0.1634,0.05605c0.04275,0.0209 0.07885,0.04275 0.09595,0.0608c0.0209,0.0228 0.0133,0.038 -0.04655,0.03895c-0.00285,0 -0.00285,0.00095 -0.00665,0.00095c-0.03895,-0.00095 -0.07695,-0.0038 -0.1159,-0.00475c-0.60705,-0.0171 -1.1818,-0.1121 -1.634,-0.41895c-0.00665,-0.0038 -0.01235,-0.0095 -0.01805,-0.0133c-0.2508,-0.17385 -0.4655,-0.4104 -0.6213,-0.74385c-0.3553,-0.76665 -0.5719,-1.12765 -1.20745,-1.7537c-0.83695,-0.82745 -1.54755,-1.7746 -2.19735,-2.75215c-0.27645,-0.41325 -0.5282,-0.8417 -0.77995,-1.26825c-0.152,-0.25555 0.21565,-1.0773 0.3135,-1.33095c0.29165,-0.78185 0.8854,-1.4459 1.42025,-2.071c0.33725,-0.3933 0.67545,-0.7828 0.9861,-1.19985c0.4712,-0.6327 -0.16055,-0.8303 -0.5738,-1.21315c-0.3211,-0.2983 -0.28785,-0.62225 0,-0.9139c0.3819,-0.3838 1.00605,-0.58235 0.7163,-1.2407c-0.39615,-0.89965 -0.3116,-1.95985 -0.21755,-2.9317c0.25555,-2.7531 1.22455,-5.4587 1.8734,-8.132c1.3889,-5.73895 2.5061,-11.64035 2.8671,-17.5427c0,-0.00095 -0.0019,-0.0019 -0.0019,-0.00285c0.4408,-4.66735 0.8816,-9.33375 1.3224,-14.0011c0.0779,-0.82555 0.1558,-1.65015 0.2337,-2.47475c0.456,-4.8203 0.91105,-9.6406 1.3661,-14.459l1.17705,-13.2012c0,0 15.17164,-2.52094 27.07765,-2.59204c-0.00786,0.18228 -0.01819,0.36265 -0.03077,0.54136c-4.56877,0.10149 -14.83967,0.55348 -26.63079,2.52568z" id="Outline_11_" fill="#000000"/>
        <path d="M239.21691,255.54766c-0.3705,-1.0868 -1.6207,-1.3186 -2.2116,-2.2002c-0.39805,-0.59185 -0.076,-1.00605 0.29735,-1.539c0.494,-0.69445 0.2033,-1.51145 0.1045,-2.29425c0,-0.0019 -0.00285,-0.00285 -0.00285,-0.0038c0,-0.00665 0,-0.0152 0,-0.02375c-0.0038,-0.0342 -0.01045,-0.0684 -0.0133,-0.1026c0,-0.00285 0.0095,-0.0019 0.01045,-0.00475c-0.00095,-0.03705 -0.00285,-0.07315 -0.00285,-0.1102c-0.0095,-0.01235 -0.01995,-0.02375 -0.02945,-0.0361c-0.0266,-0.03325 -0.0095,-0.05035 0.0266,-0.0589c-0.1672,-8.22035 -0.87305,-16.492 0.4617,-24.65915c0.00475,-0.02185 0.038,-0.03135 0.0779,-0.03515c1.216,-4.4137 1.9171,-8.9338 2.47095,-13.47195c0.2755,-2.2667 0.59565,-4.541 0.73815,-6.82005c0.1387,-2.1432 0.1007,-4.1363 1.0089,-6.13605c0.04845,-0.1121 0.513,0.0494 0.47405,0.13205c-0.84075,1.85725 -0.90915,3.7316 -0.988,5.7323c-0.0874,2.25625 -0.43985,4.5201 -0.703,6.7583c-0.31718,2.70138 -0.68633,5.39791 -1.18192,8.07019c-0.40473,1.15075 -0.76622,2.30415 -0.96205,3.47243c-0.08707,0.51944 -0.13624,1.05445 -0.15845,1.60072c-0.09343,0.35818 -0.19008,0.71568 -0.29013,1.07246c-0.0038,0.0133 -0.0285,0.0133 -0.0437,0.01995c-1.27965,8.09685 -0.58805,16.2982 -0.4237,24.4492c0.02339,0.02941 0.04692,0.05892 0.07058,0.0885c0.00615,0.17019 0.01192,0.33978 0.01722,0.50871c-0.01283,-0.01508 -0.02563,-0.03018 -0.0384,-0.04527c0.01477,0.09369 0.03041,0.18647 0.04543,0.27847c0.01209,0.41897 0.02106,0.83372 0.02553,1.24331c-0.0412,0.16682 -0.10874,0.3334 -0.21251,0.50077c-0.1729,0.2793 -0.3496,0.5092 -0.4864,0.8113c-0.2622,0.59565 0.67355,1.12955 1.03455,1.38985c0.79144,0.56809 1.28092,1.07652 1.50726,2.02974c-0.02077,0.23221 -0.03827,0.46461 -0.05177,0.69718c-0.1056,0.09959 -0.20105,0.21133 -0.28688,0.33096c-0.01231,-0.559 -0.10323,-1.11313 -0.28415,-1.64523z" id="Outline_11_" fill="#000000"/>
      </g>
      <g data-paper-data="{&quot;origPos&quot;:null}" stroke="none" stroke-width="1">
        <path d="M297.84941,142.19514c-0.04334,-0.00527 -0.08513,0.00712 -0.12342,0.03045c-0.23693,-0.15802 -0.5109,-0.31466 -0.81661,-0.46944c-0.02751,-0.20308 -0.06046,-0.40543 -0.10118,-0.60667c-0.1117,-0.55238 -0.21862,-2.0562 -0.75133,-2.38046c-1.14643,-0.69599 -2.91143,0.69539 -3.93012,-0.28804c-0.01986,-0.01802 -0.04255,-0.00784 -0.06412,-0.01236c-0.91982,-1.63424 -2.03394,-2.94898 -4.39026,-3.11817c-1.90942,-0.13763 -3.91352,0.19384 -5.81878,0.30323c-1.99309,0.11591 -3.99466,0.21577 -5.99177,0.15615c-3.96202,-0.12205 -7.49767,-0.93634 -11.04706,-2.68944c-0.0525,-0.02542 -0.10411,-0.05052 -0.1563,-0.07683c-1.40528,-1.69941 -2.88,-3.45634 -5.14943,-3.89405c-0.22377,-0.04507 -0.44304,0.39755 -0.19201,0.44814c1.82211,0.35267 3.09992,1.57067 4.25601,2.91217c-2.64724,-1.29958 -4.95891,0.80542 -7.83115,0.031c-0.21996,-0.05884 -1.44013,0.05013 -1.19596,0.11744c3.24424,0.87337 6.82937,-0.63856 9.82697,0.80171c0.03188,0.03833 0.06954,0.0515 0.10917,0.05329c0.22942,0.10945 0.45733,0.22039 0.68796,0.32926c2.9436,1.3932 5.95049,2.18554 9.21612,2.36488c3.96481,0.21764 7.89861,-0.18952 11.85118,-0.38277c2.13234,-0.10543 3.97993,0.31251 5.13498,2.25249c0.39513,0.66149 0.72267,1.35756 1.05802,2.04967c-4.29156,-1.223 -7.92149,-1.63119 -10.1788,-1.83849c-0.894,-0.0821 -3.25581,0.29758 -4.06428,0.29012c-6.61762,-0.0611 -19.49643,-2.54053 -25.36892,-4.59512c-2.98479,-1.04427 -3.52717,-0.50448 -5.37007,-1.20535l-0.15744,-0.1035l-0.58367,-0.45141l-0.00692,-0.00832l-0.06942,-0.37598l-0.53685,-0.3529l-0.41084,-0.49392l-0.38139,-0.02686l-0.82427,-0.54184l-1.60753,-0.56242l0.02811,-0.05738c0.96491,-1.0463 1.9112,-2.15447 3.02292,-3.05077c1.21509,-0.9789 2.49605,-1.88141 3.73002,-2.8366c1.76608,-0.34731 3.60439,0.16904 5.34647,0.48867c1.72863,0.31493 3.453,0.65353 5.18392,0.95616c3.47353,0.60636 6.97474,1.02715 10.46091,1.55137c3.54674,0.53233 7.05887,1.55478 10.61944,1.92387c3.23149,0.33447 6.43696,0.19385 9.61547,1.00195c2.15386,0.55227 4.97048,2.10132 7.23863,1.28553c1.47526,-0.53159 3.01214,-1.6938 4.30909,-0.06449c0.64391,0.80903 0.98954,1.67373 1.00172,2.69754c0.04185,3.15984 -1.38714,9.02779 -5.57719,8.43847z" data-paper-data="{&quot;origPos&quot;:null,&quot;origRot&quot;:0}" id="Fill_4_" fill="#302d63"/>
        <path d="M292.45938,139.21029c0.85249,0.21572 1.97013,-0.20849 2.76722,-0.16814c0.84571,0.04248 1.11367,1.51912 1.23487,2.49874c-0.95131,-0.43528 -2.13993,-0.85344 -3.44396,-1.24284c-0.19067,-0.36607 -0.3736,-0.73089 -0.55813,-1.08776z" data-paper-data="{&quot;origPos&quot;:null,&quot;origRot&quot;:0}" id="Fill_4_" fill="#302d63"/>
        <path d="M298.3923,130.58931c1.10465,-0.39856 2.08043,-1.3062 3.31978,-0.67733c1.81101,0.91945 2.21358,2.84978 2.09252,4.69456c-0.19802,3.0256 -1.56788,7.70044 -5.16526,8.09244c-0.10303,0.01031 -0.20721,0.01351 -0.31176,0.01162c-0.15828,-0.16233 -0.36004,-0.32377 -0.59979,-0.4838c0.03774,-0.0231 0.07912,-0.03513 0.12189,-0.02954c4.19005,0.58933 5.61904,-5.27863 5.57719,-8.43847c-0.01308,-1.02412 -0.35782,-1.88851 -1.00172,-2.69754c-1.29816,-1.62873 -2.83384,-0.46709 -4.3091,0.06449c-2.26784,0.81489 -5.08476,-0.73327 -7.23862,-1.28553c-3.1785,-0.8081 -6.38398,-0.66748 -9.61547,-1.00195c-3.56057,-0.36909 -7.0727,-1.39154 -10.61944,-1.92387c-3.48737,-0.52364 -6.98859,-0.94442 -10.46091,-1.55136c-1.73091,-0.30264 -3.4556,-0.64034 -5.18392,-0.95617c-1.74119,-0.31932 -3.5795,-0.83567 -5.34647,-0.48867c-1.23397,0.95519 -2.51462,1.8568 -3.73002,2.8366c-1.11172,0.8963 -2.05711,2.00479 -3.02292,3.05078l-0.02728,0.05566l-0.28137,-0.09845c-0.01937,-0.00678 -0.03876,-0.01343 -0.05815,-0.01995c0.06945,-0.12172 0.12292,-0.20697 0.15534,-0.24474c0.2345,-0.25311 0.46692,-0.50896 0.70204,-0.76386c0.73593,-0.80031 1.48559,-1.59382 2.32209,-2.28749c0.80334,-0.66502 1.64267,-1.28624 2.48201,-1.90746c0.27642,-0.20322 0.54988,-0.40948 0.82365,-0.61664c0.18716,-0.14084 0.37818,-0.27833 0.56328,-0.42191c0.06778,-0.05277 0.11956,-0.05982 0.15776,-0.04243c1.52653,-0.30128 3.00241,0.06007 4.51247,0.3237c2.04529,0.35627 4.08234,0.76199 6.12602,1.12575c3.9429,0.70314 7.9289,1.15364 11.88779,1.77079c3.97024,0.62212 7.81922,1.72317 11.84899,1.8961c1.6418,0.07118 3.23729,0.10502 4.86418,0.37127c1.8517,0.30263 3.65137,0.85175 5.43791,1.4154c1.33407,0.42145 2.6183,0.71778 3.97727,0.22804z" data-paper-data="{&quot;origPos&quot;:null,&quot;origRot&quot;:0}" id="Outline_9_" fill="#010101"/>
        <path d="M295.23019,139.04341c-0.7971,-0.04035 -1.91474,0.38387 -2.76722,0.16815c0.18472,0.3565 0.3677,0.7214 0.55838,1.08765c-0.19344,-0.05778 -0.38943,-0.11493 -0.58757,-0.17141c-0.33531,-0.69202 -0.66279,-1.38799 -1.05788,-2.0494c-1.15594,-1.94029 -3.00264,-2.35792 -5.13498,-2.25249c-3.95346,0.19294 -7.88637,0.60041 -11.85118,0.38277c-3.26505,-0.17813 -6.27251,-0.97168 -9.21612,-2.36488c-0.22974,-0.10856 -0.45854,-0.21981 -0.68796,-0.32926c-0.03842,-0.00237 -0.07698,-0.01586 -0.10917,-0.05329c-2.99759,-1.44027 -6.41695,0.23801 -9.66029,-0.63504c-0.24385,-0.06821 -0.524,-0.50961 -0.30405,-0.45077c2.87256,0.77353 6.51725,-1.16392 9.16449,0.13566c-1.15609,-1.3415 -2.433,-2.55919 -4.25601,-2.91217c-0.25103,-0.05059 -0.03175,-0.49321 0.19202,-0.44813c2.26974,0.43681 3.74415,2.19464 5.14943,3.89405c0.0525,0.02542 0.10411,0.05051 0.1563,0.07682c3.54939,1.7531 7.08504,2.56739 11.04706,2.68944c1.9959,0.06019 3.99836,-0.03935 5.99177,-0.15616c1.90616,-0.10908 3.91026,-0.44055 5.81878,-0.30323c2.35663,0.16829 3.47076,1.48302 4.39026,3.11816c0.02157,0.00453 0.04456,-0.00655 0.06411,0.01237c1.01958,0.98374 2.7837,-0.40796 3.93012,0.28803c0.23463,0.14348 0.385,0.51917 0.49085,0.93866c0.00242,-0.00116 0.00458,-0.00444 0.007,-0.00561c2.23026,-1.19942 4.6734,-3.52509 3.67446,-6.24783c-0.32343,0.35485 -0.43435,1.02861 -0.53859,1.43298c-0.13547,0.52528 -0.24812,1.07163 -0.48496,1.56447c-0.12169,0.24427 -0.50484,0.20886 -0.36168,-0.08527c0.46889,-0.96622 0.38155,-2.87987 1.43932,-3.4609c0.01121,-0.00615 0.02021,-0.00601 0.03079,-0.01036c0.01542,-0.00668 0.03022,-0.01157 0.0456,-0.01525c0.01117,-0.00314 0.02291,-0.00507 0.03313,-0.00552c0.01533,-0.00068 0.02852,0.00192 0.04318,0.00605c0.00838,0.00192 0.01646,0.00475 0.02301,0.00905c0.03013,0.01457 0.05712,0.0381 0.07631,0.08105c1.32514,3.03313 -1.38103,5.77402 -3.86902,7.11174c-0.01211,0.00583 -0.02143,0.00659 -0.03322,0.01153c0.0795,0.4143 0.12846,0.82093 0.17606,1.05598c0.04073,0.20136 0.07362,0.40402 0.1011,0.60734c-0.14272,-0.07233 -0.29236,-0.14425 -0.44841,-0.21571c-0.12079,-0.98001 -0.38824,-2.45726 -1.2352,-2.49928z" data-paper-data="{&quot;origPos&quot;:null,&quot;origRot&quot;:0}" id="Outline_9_" fill="#010101"/>
        <g data-paper-data="{&quot;origPos&quot;:null,&quot;origRot&quot;:0}" id="R_Hand">
          <path d="M303.702,134.04827c0.48685,0.43805 2.23098,0.63964 2.96537,0.7758c0.41593,0.07406 0.8361,0.08418 1.30114,0.27104c0.40917,0.16529 0.82829,0.34817 1.20603,0.54575c0.85767,0.45406 1.47121,1.16289 2.28078,1.63937c0.43631,0.26034 0.7723,0.39601 1.13558,0.77875c0.32092,0.34276 0.67552,0.86539 1.15857,0.97199c-0.07885,0.47564 -0.22355,1.03594 -0.1787,1.49749c0.04116,0.42604 0.22211,0.86678 0.27162,1.31788c0.10185,0.9948 0.48795,1.80421 0.70542,2.78209c0.09666,0.43138 0.04142,1.38328 -0.19095,1.77704c-0.25891,0.44083 -0.69725,0.31867 -1.15743,0.23013c-0.45448,-0.08755 -0.97564,-0.21755 -1.35635,-0.47857c-0.36403,-0.25116 -0.61972,-0.65664 -1.01092,-0.91932c-0.8397,-0.57157 -1.88828,-0.9978 -2.77917,-1.4806c-0.93354,-0.50475 -1.86725,-0.95723 -2.91311,-1.26175c-0.28057,0.7674 1.34445,1.40438 1.76836,1.81235c0.3709,0.35521 0.37366,0.53432 0.32324,1.09842c-0.04522,0.49748 -0.3815,1.03 -0.3815,1.03c-0.4943,-0.07733 -0.79277,-0.61655 -1.15443,-0.886c-0.39753,-0.30213 -0.87122,-0.49302 -1.31689,-0.72946c-0.8365,-0.44263 -1.62814,-0.93297 -2.07196,-1.82196c-0.24714,-0.49609 -0.51731,-0.95797 -0.76288,-1.45855c-0.27086,-0.55774 0.08463,-0.88628 0.43059,-1.42347c0.56775,-0.88633 0.65983,-1.34225 0.97291,-2.3982c0.35597,-1.19292 0.59968,-2.37278 0.79922,-3.59325" id="Fill_2_" fill="url(#color-1)"/>
          <path d="M309.81428,136.12234v0c-2.06845,-0.57774 -4.09992,-1.52299 -6.24034,-1.80585c-0.18171,-0.02433 0.05361,-0.45529 0.21461,-0.43218c2.14163,0.28229 4.17067,1.2287 6.24034,1.80586c0.19153,0.05091 -0.06136,0.47169 -0.21461,0.43217zM302.46844,143.70147v0c-0.18829,-0.35071 -0.39806,-0.67168 -0.63755,-0.99401c-0.32119,-0.42539 -0.55501,-0.90776 -0.78708,-1.38651c-0.0735,-0.14951 0.24356,-0.52068 0.3202,-0.36001c0.23296,0.47906 0.47105,0.9579 0.78888,1.38714c0.23591,0.32107 0.44809,0.64088 0.63728,0.99191c0.08076,0.14601 -0.23603,0.51929 -0.32173,0.36148zM302.61424,143.29052v0c1.57403,0.89491 2.99694,2.01172 4.40857,3.14067c0.13626,0.11108 -0.15332,0.513 -0.28007,0.40927c-1.41225,-1.12716 -2.83543,-2.24607 -4.40946,-3.14098c-0.14065,-0.0784 0.12964,-0.49713 0.28096,-0.40896zM305.05045,142.28492v0c0.21468,0.94269 1.33372,1.35735 1.97115,1.9749c0.75472,0.73105 0.47306,1.65407 -0.03674,2.44091c-0.16298,0.25297 -0.36161,0.11302 -0.20262,-0.1343c1.349,-2.08948 -1.68726,-2.31741 -2.07491,-3.99695c-0.03445,-0.14893 0.29077,-0.50316 0.34312,-0.28456zM310.67307,145.20622v0c-2.05971,-0.57971 -3.79115,-1.92223 -5.82432,-2.54902c-0.18813,-0.05777 0.06594,-0.47613 0.21371,-0.43248c2.03497,0.62742 3.76403,1.96809 5.82459,2.55112c0.18885,0.04996 -0.06137,0.4717 -0.21398,0.43038zM311.32635,143.08872v0c-1.3945,-0.82405 -2.63955,-1.83937 -3.87613,-2.87891c-0.13532,-0.11377 0.15695,-0.51475 0.28159,-0.41075c1.23595,1.04133 2.48127,2.05876 3.8764,2.88101c0.14303,0.08023 -0.12964,0.49713 -0.28186,0.40865zM313.6578,147.02847v0c-1.31378,-0.24929 -2.26894,-0.89648 -3.17738,-1.85845c-0.12421,-0.13404 0.17533,-0.51838 0.2807,-0.41107c0.88974,0.94637 1.81248,1.59127 3.11039,1.83703c0.18727,0.03432 -0.05433,0.46308 -0.21371,0.43248zM311.61901,142.60031v0c1.21314,1.06052 1.78123,2.66732 2.73194,3.93998c0.09488,0.12579 -0.20591,0.51373 -0.32384,0.36176c-0.93689,-1.25172 -1.49615,-2.84638 -2.68638,-3.89184c-0.1359,-0.11498 0.15874,-0.51413 0.27828,-0.4099zM308.84182,138.59115v0c1.67291,1.1157 3.40149,2.14419 5.03325,3.31997c0.14029,0.10243 -0.14452,0.50803 -0.28096,0.40896c-1.63117,-1.17457 -3.3607,-2.20037 -5.03298,-3.31787c-0.14101,-0.09463 0.13816,-0.50421 0.28069,-0.41107zM313.85922,141.68315v0c0.44191,0.69307 1.74622,5.3363 0.06653,5.2267c-0.17588,-0.01222 0.04922,-0.44273 0.21461,-0.43217c0.69846,0.0461 -0.33892,-4.01662 -0.60582,-4.43609c-0.08448,-0.13825 0.22186,-0.5162 0.32468,-0.35844zM309.20393,136.92331v0c1.79043,0.84884 3.29402,2.09754 4.67478,3.50456c0.12546,0.13045 -0.17353,0.51901 -0.28249,0.41044c-1.37987,-1.4067 -2.88282,-2.6572 -4.67209,-3.50361c-0.14051,-0.06728 0.1175,-0.4883 0.2798,-0.41138zM313.75338,140.3488v0c0.24138,0.37733 0.20222,0.89202 0.28723,1.31932c0.02992,0.15036 -0.29799,0.50365 -0.34128,0.28218c-0.08119,-0.4008 -0.03938,-0.89141 -0.26758,-1.24601c-0.08726,-0.13319 0.2206,-0.51261 0.32163,-0.35548zM310.07574,135.67133v0c1.41164,0.92465 2.52348,2.21141 3.85672,3.23646c0.13662,0.10718 -0.15089,0.51183 -0.28007,0.40927c-1.33414,-1.02535 -2.44419,-2.31149 -3.85583,-3.23614c-0.14164,-0.09284 0.13484,-0.50336 0.27917,-0.40959zM313.82478,138.95666v0c0.14781,0.36573 0.13298,0.77923 0.07465,1.16745c-0.01909,0.11209 -0.09954,0.22987 -0.19804,0.287c-0.08666,0.04919 -0.15629,0.00369 -0.14159,-0.09583c0.05322,-0.32761 0.07201,-0.68336 -0.05702,-0.99924c-0.06381,-0.15418 0.25702,-0.51597 0.322,-0.35937z" id="Outline_7_" fill="#010101"/>
        </g>
      </g>
      <g data-paper-data="{&quot;origPos&quot;:null}" id="Undershirt" stroke="none" stroke-width="1">
        <path d="M222.62356,191.52181c0,-0.00095 -0.00095,-0.00095 -0.0019,-0.00285c0.0342,-2.8557 0.6023,-5.6658 0.8189,-8.50535c0.0988,-0.5149 0.15105,-1.01175 0.18335,-1.63115c-0.02945,-0.3173 0.03135,0.12445 0.3021,-0.19095c0.21565,-0.2508 0.342,0.3002 0.7125,0.4161c0.5377,0.17195 1.5143,0.4446 2.05865,0.5738c1.2084,0.2926 2.91175,0.67165 4.1667,0.67165c2.91175,0 5.58315,-0.0323 8.4759,-0.3819c3.36585,-0.4066 5.66865,-1.34805 8.8597,-2.44055c2.53175,-0.8683 5.08345,-2.755 7.61995,-3.6176c0.29165,0.7923 0.27455,1.72995 0.34295,2.5612c0.0874,1.0792 0.27645,2.15365 0.42275,3.2262c0.3173,2.3313 0.6631,4.6493 1.2179,6.9331c-0.0342,0.0342 -0.04465,0.0798 0.0304,0.1387c0.00095,0.00095 0.00095,0.00095 0.00095,0.0019c0.00665,0.02375 0.0114,0.04845 0.0171,0.0722c0.0114,0.04655 0.0608,0.07885 0.1178,0.10165c0.03325,0.0684 0.04465,0.14345 0.03705,0.2223c-0.0019,0.0266 -0.00855,0.0551 -0.0114,0.08265c-0.29545,1.18845 -4.44885,3.2205 -4.7652,3.33925c-2.96495,1.1343 -6.08475,1.6283 -9.2283,1.9589c-0.684,-0.62035 -0.3401,-2.6961 -0.31635,-3.47605c0.06175,-1.957 -0.2926,-3.89405 -0.6194,-5.814c-0.02185,-0.12065 -0.3363,-0.21565 -0.36005,-0.0627c-0.2375,1.56465 -0.69445,3.0894 -0.92245,4.6664c-0.1254,0.86545 -0.27265,1.72615 -0.38285,2.59255c-0.09975,0.7847 -0.36575,1.52855 -0.45885,2.30565c-0.0019,0.00855 0.0095,0.0152 0.0114,0.02375c-3.8285,0.1577 -7.6133,-0.31065 -11.3886,-0.8949c-0.68115,-0.1045 -1.52665,-0.1767 -2.39495,-0.3021c-0.8151,-0.13965 -1.6606,-0.32015 -2.4187,-0.58235c-0.98515,-0.38665 -1.79075,-0.988 -2.12705,-1.9855z" id="Fill_5_" fill="#c0e1e1"/>
        <path d="M258.18586,189.25796c0.87305,1.0317 -2.1679,2.7778 -2.8329,3.1635c-3.38485,1.9779 -7.6,2.49945 -11.4266,2.89275c-0.1235,0.01425 -0.27265,-0.11685 -0.23085,-0.1919c-0.58995,-0.62795 -0.41325,-2.01495 -0.39805,-2.75595c0.038,-1.86295 -0.13775,-3.65655 -0.4104,-5.47485c-0.0038,-0.019 -0.0076,-0.03895 -0.0095,-0.0589c-0.0038,0.01805 -0.0076,0.0361 -0.0114,0.0551c-0.2394,1.1875 -0.54245,2.3674 -0.7258,3.57485c-0.1292,0.86545 -0.27075,1.72615 -0.3819,2.59255c-0.0988,0.779 -0.3629,1.5181 -0.45505,2.2914c0.08835,0.0684 0.1292,0.1672 -0.02945,0.1748c-4.4118,0.209 -8.702,-0.4978 -13.05585,-1.08965c-2.07195,-0.28215 -5.168,-0.61655 -5.9546,-2.9355c0,-0.00285 -0.00285,-0.0038 -0.00285,-0.0057c0.00475,-0.38285 0.0228,-0.76475 0.04465,-1.14665c0.08645,-1.5257 0.2888,-3.0419 0.47975,-4.55905c0.209,-1.66155 0.3971,-3.325 0.37905,-5.00555c-0.0019,-0.17385 0.36195,-0.1102 0.36385,0.0342c0.0076,0.73625 -0.0304,1.46965 -0.08645,2.20115c-0.2166,2.83955 -0.7847,5.64965 -0.8189,8.50535c0.00095,0.00095 0.0019,0.00095 0.0019,0.0019c0.33535,0.9975 1.1419,1.59885 2.12705,1.9855c0.7448,0.29165 1.5903,0.4636 2.4187,0.58235c0.8683,0.12445 1.7138,0.1976 2.39495,0.3021c3.7753,0.58425 7.5601,1.0526 11.3886,0.8949c-0.0019,-0.0076 -0.0133,-0.01425 -0.0114,-0.02375c0.09215,-0.77805 0.3591,-1.52095 0.45885,-2.30565c0.1102,-0.8664 0.25745,-1.7271 0.38285,-2.59255c0.22895,-1.577 0.68495,-3.10175 0.92245,-4.6664c0.02375,-0.1539 0.33915,-0.05795 0.36005,0.0627c0.32585,1.91995 0.6802,3.85605 0.6194,5.814c-0.02375,0.77995 -0.36765,2.8557 0.31635,3.47605c3.14355,-0.3306 6.26335,-0.82555 9.2283,-1.9589c0.31635,-0.11875 4.46975,-2.1508 4.7652,-3.33925c0.00665,-0.0285 0.00855,-0.05605 0.0114,-0.08265c0.0076,-0.07885 -0.0038,-0.1539 -0.03705,-0.2223c-0.057,-0.0228 -0.1064,-0.05415 -0.1178,-0.10165c-0.0057,-0.02375 -0.01045,-0.04845 -0.0171,-0.0722c0,-0.00095 0,-0.00095 -0.00095,-0.0019c-0.07505,-0.05985 -0.0646,-0.10545 -0.0304,-0.1387c-0.5548,-2.2838 -0.9006,-4.6018 -1.2179,-6.9331c-0.1463,-1.0716 -0.3344,-2.14605 -0.42275,-3.2262c-0.0684,-0.83125 -0.05035,-1.7689 -0.34295,-2.5612c-0.00665,-0.01805 -0.0095,-0.03705 -0.01615,-0.0551c-0.07315,-0.1824 0.285,-0.1615 0.33725,-0.02755c0.17322,0.44322 0.2844,0.93191 0.36107,1.44098c-0.03804,0.17336 -0.05809,0.35346 -0.05809,0.53824c0,0.3581 0.07529,0.69862 0.21091,1.00658c0.04705,0.69789 0.08121,1.38795 0.16726,2.01119c0.36385,2.66095 0.722,5.32 1.36325,7.9306z" id="Outline_10_" fill="#000000"/>
      </g>
      <path d="M255.25321,142.06196c0.35245,-2.9279 0.6384,-5.83015 0.42085,-8.797c-0.0171,-0.22705 -0.5073,-0.2888 -0.4902,-0.0361c0.247,3.35065 -0.1938,6.5968 -0.56335,9.90185c-0.02565,0.04275 -0.02565,0.08265 -0.01425,0.12065c-0.02755,0.2527 -0.057,0.50445 -0.0836,0.7581c-0.34295,3.23855 -0.09785,6.3384 0.8113,9.48005c1.1039,3.81425 2.7873,7.3929 4.275,11.0599c0.8037,1.9779 1.01935,3.85985 -0.43035,5.59075c-0.89965,1.0773 -1.9817,1.98075 -2.87565,3.06375c-0.1615,0.1957 0.29355,0.39235 0.43795,0.21565c0.5548,-0.66975 1.15805,-1.2768 1.7271,-1.8791c0.0525,0.59027 0.41909,1.19825 0.7215,1.76633c-0.76832,1.12636 -1.31592,1.98187 -1.65021,2.80579c-0.17712,0.08699 -0.33513,0.16119 -0.45734,0.22063c-0.855,0.41515 -1.7404,0.75335 -2.64575,1.04975c-4.31015,1.425 -8.55,3.8399 -13.10715,4.3738c-4.57615,0.5377 -9.0725,0.64885 -13.63535,0.057c-0.91295,-0.11875 -1.8525,-0.36005 -2.7037,-0.7163c-0.9367,-0.38855 -1.83825,-0.7011 -1.3129,-1.8848c0.3762,-0.8493 0.5301,-1.2996 0.5624,-2.03965c0.2584,0.41895 0.51965,0.86355 0.4712,1.3338c-0.02375,0.2375 0.45505,0.35815 0.4769,0.1273c0.10545,-1.0374 -0.73815,-1.78695 -1.0944,-2.717c-0.43032,-1.13267 -0.65242,-2.21872 -0.58937,-3.37781c0.4094,-0.78815 0.80509,-1.60369 0.80509,-2.50922c0,-1.51183 0.0371,-2.99875 0.09443,-4.47117c0.05069,-0.64734 0.08763,-1.29699 0.10785,-1.95c0.01386,-0.44983 0.02999,-0.89924 0.04843,-1.34829c0.06676,-1.24371 0.13903,-2.48257 0.20629,-3.72307c0.2465,-3.52781 0.63789,-7.03784 1.17979,-10.54569c0.00095,-0.00855 -0.00855,-0.01425 -0.00855,-0.0228c0.0019,-0.01045 0.0133,-0.01235 0.0133,-0.0247c-0.0399,-1.0697 -0.29165,-2.1242 -0.4351,-3.1844c-0.00095,-0.0019 0,-0.0038 -0.00095,-0.0057c-0.00285,-0.01995 -0.00665,-0.0399 -0.0095,-0.05985c-0.0114,-0.09405 -0.1064,-0.1501 -0.20615,-0.1767c-0.9348,-0.9272 -1.87055,-1.78315 -2.546,-2.9431c-0.11115,-0.1919 -0.5985,-0.1767 -0.4598,0.0608c0.73245,1.2559 1.73945,2.166 2.75025,3.1768c0.14535,1.026 0.37715,2.0444 0.4199,3.0818c-0.15783,1.02439 -0.3038,2.0492 -0.43755,3.07475c0.00461,-1.31282 -0.01859,-2.64129 -0.08112,-3.99251c-0.0397,-0.85806 -0.09763,-1.82196 -0.625,-2.5c-0.5598,-0.71974 -2.06207,-0.50071 -2.375,-1.35714c-0.54132,-1.48151 -0.38465,-2.62663 -0.21042,-3.70305c0.13687,-0.45595 0.21042,-0.9393 0.21042,-1.43982c0,-0.17571 -0.00906,-0.34931 -0.02675,-0.52035c-0.0332,-0.61401 -0.19235,-1.25806 -0.59825,-1.97965c-0.10897,-0.19371 -0.24017,-0.36535 -0.38919,-0.51928c-0.91305,-1.20347 -2.35866,-1.98072 -3.98581,-1.98072c-0.07878,0 -0.15714,0.00183 -0.23503,0.00543c0.02789,-0.27107 0.05614,-0.54209 0.08494,-0.81302c0.15741,-1.4868 0.1877,-3.08991 0.7381,-4.49789c0.1852,-0.18647 0.34119,-0.40198 0.46055,-0.6391c1.66404,-1.16082 3.34276,-2.34819 5.18724,-3.19545c2.2363,-1.0241 4.60845,-1.57035 7.0338,-1.93895c0.0437,-0.00665 0.0551,-0.02945 0.07885,-0.0456c0.20805,-0.02375 0.38285,-0.05605 0.38285,-0.05605l3.44375,-1.1476c0,0 2.85,4.275 7.56105,4.35385c4.71105,0.07885 4.86875,-3.87885 4.86875,-3.87885l4.4308,0.5301c1.30625,0.56525 2.66475,1.0925 3.8779,1.84585c1.32525,0.82365 2.60015,1.7347 3.90925,2.584c0.50622,0.86253 0.76812,1.83418 0.94786,2.82759c-1.83575,1.24621 -3.34794,3.46849 -3.43733,5.0657c-0.11647,2.08101 -0.22269,4.1893 -0.12215,6.27569c-0.24591,0.6201 -0.56259,1.22053 -0.90242,1.81002z" data-paper-data="{&quot;origPos&quot;:null}" id="Fill_4_" fill="#302d63" stroke="none" stroke-width="1"/>
      <path d="M223.26386,174.87116c0.14915,0.5092 0.32775,1.0089 0.54815,1.49245c-0.0304,0.02755 -0.0589,0.057 -0.05795,0.1083c0.02185,0.69825 0.0969,1.2692 -0.2185,1.9c-0.23655,0.47595 -0.6954,1.11245 -0.5966,1.65965c-0.05805,0.56304 -0.19266,1.06874 -0.3909,1.51986c0.22835,-2.3193 0.02724,-4.87713 0.06305,-6.54782c0.01102,-0.5144 0.18231,-1.01293 0.41221,-1.51225c0.03008,0.45873 0.10548,0.91666 0.24054,1.37981z" data-paper-data="{&quot;origPos&quot;:null}" id="Fill_4_" fill="#302d63" stroke="none" stroke-width="1"/>
      <path d="M258.32266,160.35516c-0.7676,-1.843 -1.52285,-3.6993 -2.1261,-5.60405c-1.1932,-3.78005 -1.5922,-7.38625 -1.1096,-11.31545c0.00665,-0.05795 0.0133,-0.11495 0.0209,-0.1729c0.38876,-0.64371 0.78115,-1.29725 1.11617,-1.96975c0.07113,0.84494 0.18186,1.6849 0.34542,2.51657c0.19871,1.01039 -1.23283,2.59812 -0.95833,3.83334c0.66418,2.9888 1.11332,5.57788 1.8612,8.5694c0.33184,1.32736 2.09338,3.60089 2.1388,4.6765c0.04496,1.06474 0.21449,2.17963 0.39679,3.30491c-0.51024,-1.30099 -1.16002,-2.57492 -1.68524,-3.83857z" data-paper-data="{&quot;origPos&quot;:null}" id="Fill_4_" fill="#302d63" stroke="none" stroke-width="1"/>
      <path d="M259.04656,170.98566c0.01045,-0.0247 -0.00665,-0.04275 -0.0095,-0.0646c0.66095,-0.75116 1.21777,-1.52451 1.49951,-2.42882c0.04588,1.60384 -0.19286,3.11925 -1.07576,4.4184c-0.37273,-0.63727 -0.71525,-1.2708 -0.41425,-1.92498z" data-paper-data="{&quot;origPos&quot;:null}" id="Fill_4_" fill="#302d63" stroke="none" stroke-width="1"/>
      <path d="" data-paper-data="{&quot;origPos&quot;:null}" id="Fill_4_" fill="#302d63" stroke="none" stroke-width="1"/>
      <path d="" data-paper-data="{&quot;origPos&quot;:null}" id="Fill_4_" fill="#302d63" stroke="none" stroke-width="1"/>
      <path d="M258.76536,126.08391c-1.3091,-0.8493 -2.58305,-1.76035 -3.90925,-2.584c-1.21315,-0.75335 -2.57165,-1.27965 -3.8779,-1.84585l-4.4308,-0.5301c0,0 -0.1577,3.9577 -4.86875,3.87885c-4.71105,-0.07885 -7.56105,-4.35385 -7.56105,-4.35385l-3.44375,1.1476c0,0 -0.1748,0.0323 -0.38285,0.05605c-0.02375,0.01615 -0.03515,0.03895 -0.07885,0.0456c-2.42535,0.3686 -4.7975,0.91485 -7.0338,1.93895c-1.84371,0.84691 -3.5218,2.0345 -5.18516,3.19413c0.10901,-0.21665 0.18745,-0.45133 0.22964,-0.69837c1.42469,-0.98318 2.86663,-1.9386 4.42162,-2.70856c2.1945,-1.08585 4.59705,-1.6435 7.00245,-2.0273c0.00095,-0.00095 0,-0.00095 0.00095,-0.0019l0.01805,-0.00095c0.0532,-0.0076 0.10735,-0.0171 0.16055,-0.02565c0.0741,-0.01235 0.14915,-0.0247 0.2242,-0.0361c0.0551,-0.00855 0.10735,0.0076 0.15485,0.02945l4.19235,-1.3129c0,0 2.81105,4.11635 7.28365,4.3149c4.4726,0.19855 4.4726,-3.87885 4.4726,-3.87885c0,0 4.6265,0.50445 5.0445,0.66785c0.31635,0.13775 0.6346,0.27265 0.95285,0.4104c0.99845,0.43035 1.995,0.8759 2.926,1.4364c0.893,0.53865 1.75655,1.12575 2.6201,1.71285c0.2831,0.1938 0.5681,0.3838 0.85405,0.5738c0.19475,0.13015 0.3876,0.26505 0.58425,0.39235c0.0722,0.04655 0.09595,0.0931 0.09215,0.1349c0.48617,0.82707 0.7282,1.71916 0.90089,2.63617c-0.14008,0.08149 -0.27881,0.16908 -0.41574,0.2621c-0.17973,-0.99323 -0.44163,-1.965 -0.9478,-2.82797z" data-paper-data="{&quot;origPos&quot;:null}" id="Outline_9_" fill="#010101" stroke="none" stroke-width="1"/>
      <path d="M216.79246,132.1696c-0.02878,0.27062 -0.05701,0.54135 -0.08488,0.81215c-0.16637,0.00776 -0.33062,0.02365 -0.49236,0.04729c0.08022,-0.78972 0.16218,-1.57924 0.25139,-2.36709c0.06342,-0.5631 0.12382,-1.11474 0.21992,-1.65443c0.02084,-0.08483 0.03735,-0.17137 0.04928,-0.25935c0.04114,-0.203 0.0883,-0.40427 0.14359,-0.60379c0.24201,-0.12158 0.46154,-0.2813 0.65072,-0.47128c-0.54997,1.40838 -0.5803,3.01096 -0.73766,4.49649z" data-paper-data="{&quot;origPos&quot;:null}" id="Outline_9_" fill="#010101" stroke="none" stroke-width="1"/>
      <path d="M222.93706,180.03251c-0.09785,-0.5472 0.36005,-1.1837 0.5966,-1.65965c0.3154,-0.6308 0.24035,-1.20175 0.2185,-1.9c-0.00095,-0.0513 0.0285,-0.08075 0.05795,-0.1083c-0.06175,-0.13395 -0.1121,-0.2717 -0.1672,-0.4085c-0.15544,0.58454 -0.51397,1.08475 -1.00176,1.49771c-0.00431,-0.20658 -0.00896,-0.40949 -0.01341,-0.60781c0.5754,-0.65211 0.82089,-1.48562 0.48411,-2.48685c-0.0152,-0.04465 0.00285,-0.0722 0.0152,-0.10355c-0.04784,-0.25982 -0.07957,-0.51891 -0.09723,-0.77831c0.14391,-0.3111 0.31019,-0.62258 0.47427,-0.93845c-0.0639,1.1611 0.15822,2.24793 0.58912,3.3821c0.35625,0.93005 1.19985,1.67865 1.0944,2.717c-0.02185,0.23085 -0.50065,0.1102 -0.4769,-0.1273c0.0475,-0.47025 -0.21375,-0.91485 -0.4712,-1.3338c-0.03135,0.74005 -0.1862,1.19035 -0.5624,2.03965c-0.52535,1.1837 0.3762,1.49625 1.3129,1.8848c0.8512,0.35625 1.79075,0.59755 2.7037,0.7163c4.5638,0.59185 9.06015,0.47975 13.63535,-0.057c4.55715,-0.53295 8.797,-2.9488 13.10715,-4.3738c0.90535,-0.2964 1.79075,-0.63365 2.64575,-1.04975c0.1218,-0.05917 0.27906,-0.13293 0.45529,-0.21936c-0.02332,0.05763 -0.04561,0.11511 -0.06685,0.17252c-0.22921,0.1676 -0.42882,0.37327 -0.58951,0.60772c-0.599,0.26918 -1.21512,0.50365 -1.83477,0.71783c-4.8051,1.6644 -9.5855,4.25315 -14.7212,4.62365c-4.6284,0.33535 -9.2758,0.8018 -13.8472,-0.28785c-0.7999,-0.19095 -2.3693,-0.5529 -3.13405,-1.2768c-0.16905,0.81074 -0.50293,1.4986 -0.95918,2.0701c0.07038,-0.38752 0.12381,-0.78855 0.16394,-1.19696c0.19708,-0.44998 0.3309,-0.95418 0.38864,-1.51534z" data-paper-data="{&quot;origPos&quot;:null}" id="Outline_9_" fill="#010101" stroke="none" stroke-width="1"/>
      <path d="M249.33091,174.25081c0.19095,-0.1045 0.60515,0.15295 0.36575,0.285c-7.98731,4.38521 -19.81522,2.95761 -25.38762,-4.64294c0.00035,-0.23816 0.00161,-0.4757 0.00372,-0.71267c5.22559,7.85009 17.06133,9.43526 25.01816,5.07062z" data-paper-data="{&quot;origPos&quot;:null}" id="Outline_9_" fill="#010101" stroke="none" stroke-width="1"/>
      <path d="M225.46216,147.8959c-0.04275,-1.0374 -0.2736,-2.0558 -0.4199,-3.0818c-1.0108,-1.01175 -2.0178,-1.92185 -2.75025,-3.1768c-0.1387,-0.2375 0.34865,-0.25175 0.4598,-0.0608c0.67545,1.15995 1.6112,2.0159 2.546,2.9431c0.09975,0.0266 0.1938,0.08265 0.20615,0.1767c0.00285,0.01995 0.00665,0.0399 0.0095,0.05985c0.00095,0.0019 0,0.0038 0.00095,0.0057c0.14345,1.06115 0.3952,2.1147 0.4351,3.1844c0,0.0114 -0.0114,0.01425 -0.0133,0.0247c0,0.0076 0.0095,0.0133 0.00855,0.0228c-0.5391,3.48975 -0.92925,6.98122 -1.17596,10.49065c0.13431,-2.48276 0.24799,-4.97246 0.25678,-7.52117c0.13348,-1.02308 0.27913,-2.0454 0.43658,-3.06733z" data-paper-data="{&quot;origPos&quot;:null}" id="Outline_9_" fill="#010101" stroke="none" stroke-width="1"/>
      <path d="M224.51026,163.6108c-0.0194,0.63139 -0.05531,1.2596 -0.10446,1.88561c0.04176,-1.06181 0.09392,-2.11616 0.15015,-3.16697c-0.0173,0.42676 -0.03253,0.85387 -0.04569,1.28136z" data-paper-data="{&quot;origPos&quot;:null}" id="Outline_9_" fill="#010101" stroke="none" stroke-width="1"/>
      <path d="M258.46801,171.54426c-0.5681,0.6023 -1.1723,1.20935 -1.7271,1.8791c-0.1444,0.17575 -0.59945,-0.0209 -0.43795,-0.21565c0.89395,-1.083 1.976,-1.98645 2.87565,-3.06375c1.4497,-1.73185 1.23405,-3.61285 0.43035,-5.59075c-1.4877,-3.66795 -3.1711,-7.24565 -4.275,-11.0599c-0.9101,-3.1407 -1.15425,-6.2415 -0.8113,-9.48005c0.0266,-0.2527 0.05605,-0.5054 0.0836,-0.7581c-0.01045,-0.03705 -0.01045,-0.0779 0.01425,-0.12065c0.36955,-3.30505 0.81035,-6.55215 0.56335,-9.90185c-0.01615,-0.2527 0.4731,-0.19095 0.4902,0.0361c0.2185,2.96685 -0.0684,5.8691 -0.42085,8.797c0.3399,-0.58963 0.65666,-1.19007 0.90259,-1.8102c0.0168,0.34771 0.03934,0.69481 0.06853,1.04108c-0.33514,0.67255 -0.72769,1.32616 -1.11648,1.96992c-0.00665,0.05795 -0.0133,0.11495 -0.0209,0.1729c-0.4826,3.9292 -0.0836,7.5354 1.1096,11.31545c0.6023,1.9038 1.35755,3.76105 2.1261,5.60405c0.52564,1.26534 1.17603,2.54047 1.68645,3.84224c0.23386,1.44318 0.48833,2.90333 0.52763,4.29661c-0.28188,0.90355 -0.83865,1.67637 -1.49967,2.42705c0.00285,0.02185 0.0209,0.0399 0.0095,0.0646c-0.30064,0.6539 0.04072,1.28671 0.41295,1.92309c-0.005,0.00735 -0.01002,0.01469 -0.01506,0.02203c-0.08793,0.12797 -0.17329,0.25249 -0.25608,0.37387c-0.30219,-0.56748 -0.66793,-1.17466 -0.72036,-1.7642z" data-paper-data="{&quot;origPos&quot;:null}" id="Outline_9_" fill="#010101" stroke="none" stroke-width="1"/>
      <path d="" data-paper-data="{&quot;origPos&quot;:null}" id="Outline_9_" fill="#010101" stroke="none" stroke-width="1"/>
      <path d="" data-paper-data="{&quot;origPos&quot;:null}" id="Outline_9_" fill="#010101" stroke="none" stroke-width="1"/>
      <path d="M235.30666,101.42398c0.28025,0.06175 0.90268,1.033 0.61673,0.9684c-0.88368,-0.19646 -1.34258,-0.571 -2.18453,-0.90357c-1.51368,-0.59792 -3.01162,-0.88594 -3.61047,0.62737c-0.04275,0.10735 0.4256,0.25745 0.47785,0.1273c0.8341,-2.10425 2.73202,-1.25555 4.70042,-0.8195z" data-paper-data="{&quot;origPos&quot;:null}" id="L_Eyebrow" fill="#000000" stroke="none" stroke-width="1"/>
      <path d="M241.91158,102.54171c0,0 0.30448,-0.00866 0.49937,-0.34971c0.1018,-0.17816 0.26086,-0.84965 0.26086,-0.84965c1.8145,-0.68495 4.21325,-2.35731 5.3238,-0.42311c0.0722,0.1254 0.51965,0.15865 0.4731,0.0779c-0.67301,-1.1718 -2.52741,-0.57645 -3.77326,-0.0531c-0.61574,0.25866 -0.35844,-0.02295 -0.97109,0.24295c-0.82035,0.35604 -0.34389,0.60524 -1.1809,0.92012c-0.1596,0.05985 -0.74778,0.47639 -0.63188,0.43459z" data-paper-data="{&quot;origPos&quot;:null}" id="R_Eyebrow" fill="#000000" stroke="none" stroke-width="1"/>
      <g data-paper-data="{&quot;origPos&quot;:null}" id="Neck" stroke="none" stroke-width="1">
        <path d="M242.28423,124.51097c-4.21325,0.2109 -6.61485,-2.3712 -7.40335,-3.4048l0.209,-2.736l0.06935,-0.92245c0.05985,0.0323 0.11875,0.06555 0.17955,0.095c2.3123,1.1267 5.2497,2.375 7.8584,2.4263c0.04085,0.00095 0.06935,-0.00285 0.0893,-0.0076c0.00095,0 0.0019,0 0.0019,0c0.6479,-0.15295 1.2673,-0.44365 1.8544,-0.80085c0.0209,2.18215 1.90665,1.8848 2.34365,1.786c-0.1881,1.03835 -1.0659,3.3573 -5.2022,3.5644z" data-paper-data="{&quot;origPos&quot;:null}" id="Fill_1_" fill="url(#color-2)"/>
        <path d="M235.09083,118.37017l-0.21755,2.85095l-0.19475,-0.28025l-0.1216,-0.1748l0.2375,-2.75215l0.1482,-0.8911l0.2375,0.05985l-0.01995,0.2641l-0.06935,0.9234" id="L_Side" fill="#000000"/>
        <path d="M247.57953,120.92377c0,0 -2.41205,0.70585 -2.4358,-1.76415c-0.00095,-0.0969 -0.0057,-0.1881 0.00095,-0.2945h0.2375c0,0 -0.25745,2.29615 2.1774,1.8411l0.0171,0.1824z" id="R_Side" fill="#000000"/>
      </g>
      <g id="Collar_3_" stroke="none" stroke-width="1">
        <path d="M245.64491,119.77686c0.14345,-0.18715 -0.3097,-0.3686 -0.4408,-0.2071c-0.038,0.04845 -0.07125,0.1007 -0.1083,0.1501c0.0019,-0.0323 0.0019,-0.12825 0.0019,-0.09595c0.0038,0.6783 -0.58995,-0.72675 -0.0836,-0.93005l0.0171,-0.01045c0.0285,0.0228 0.05225,0.04845 0.10165,0.0608c1.71855,0.44555 3.69455,1.0621 5.1072,2.20305c-1.30815,2.87375 -2.86615,5.75225 -3.8342,8.7666c-0.8037,-0.85595 -1.59695,-1.72425 -2.3959,-2.5859c-0.4104,-0.4408 -0.81985,-0.8816 -1.23975,-1.3129c-0.6061,-0.6251 -0.87495,-0.9006 -0.1824,-1.6131c0.53485,-0.54815 0.9633,-1.1742 1.3661,-1.8202c0.0741,-0.11875 0.14915,-0.23655 0.22135,-0.35625c0.46455,-0.76665 0.91295,-1.54755 1.46965,-2.24865z" data-paper-data="{&quot;origPos&quot;:null}" id="R_Fill" fill="#c0e1e1"/>
        <path d="M235.46756,128.18911c-0.07695,-0.1121 -0.1615,-0.2128 -0.31635,-0.2869c-0.00855,-0.00475 -0.0152,-0.01045 -0.02375,-0.01425c-0.703,-0.6118 -1.3813,-1.2426 -1.9589,-1.9437c-0.36575,-0.4465 -3.44755,-4.13535 -2.87375,-4.5828c0.01425,-0.0095 0.0285,-0.0171 0.038,-0.03135c0.93005,-1.3471 2.50895,-2.20685 3.9045,-3.03145c0.00665,0.00855 0.0133,0.0171 0.01995,0.02565c0.22135,0.3059 0.456,0.6023 0.7011,0.89015c0.35055,0.41135 0.71725,0.81035 1.10675,1.18845c0.09025,0.0874 0.1843,0.1691 0.2755,0.2546c1.16375,1.08965 2.4567,2.05485 3.7468,2.94785c0.6859,0.47785 1.4839,0.73815 0.9367,1.64825c-0.3933,0.6498 -0.7866,1.30245 -1.159,1.9665c-0.59755,1.0678 -0.9709,2.2534 -1.62925,3.28415c-0.8854,-0.78565 -1.84585,-1.5333 -2.7683,-2.31515z" id="L_Fill" fill="#c0e1e1"/>
        <path d="M250.74926,120.98051c-0.0019,0.0076 0.0076,0.0133 0.00285,0.01995c-1.3642,3.00485 -3.0172,6.01255 -3.9805,9.177c-0.00855,0.02565 -0.0304,0.0456 -0.0627,0.05985c-0.1007,0.07885 -0.2983,0.0437 -0.3819,-0.0589c-1.0203,-1.06875 -2.0102,-2.166 -3.0153,-3.25185c-0.45695,-0.4921 -1.41075,-1.1115 -1.634,-1.824c-0.6061,0.988 -1.22075,1.976 -1.73945,3.01055c-0.47595,0.94525 -0.77425,1.9361 -1.38795,2.812c-0.09595,0.1368 -0.32585,0.0456 -0.4161,-0.03895c-2.01305,-1.84205 -4.29495,-3.44375 -5.9831,-5.6012c-0.4009,-0.5092 -2.9165,-3.39435 -2.26955,-4.13345c0.00475,-0.0095 0.0038,-0.019 0.01045,-0.02945c1.00225,-1.45065 2.72555,-2.3446 4.2047,-3.2262c0.1387,-0.08265 0.3287,-0.01615 0.41325,0.1083c0.0019,0.00285 0.0038,0.0057 0.0057,0.00855c1.8639,2.71605 4.66925,4.4365 7.2523,6.37165c0.16625,-0.2337 0.4351,-0.44365 0.5871,-0.59755c0.38855,-0.39995 0.69445,-0.89205 0.9994,-1.35565c0.494,-0.7619 0.9329,-1.56085 1.4497,-2.30945c0.09405,-0.1368 0.19285,-0.2698 0.29165,-0.4028c0.03705,-0.0494 0.0703,-0.10165 0.1083,-0.1501c0.13015,-0.1615 0.58235,0.0209 0.43985,0.2071c-0.5567,0.70205 -1.0051,1.482 -1.46965,2.24865c-0.0722,0.11875 -0.14725,0.2375 -0.22135,0.35625c-0.4028,0.646 -0.8322,1.27205 -1.3661,1.8202c-0.69255,0.7125 -0.42465,0.988 0.1824,1.6131c0.42085,0.4313 0.82935,0.8721 1.23975,1.3129c0.798,0.86165 1.59125,1.7309 2.3959,2.5859c0.9671,-3.0153 2.52605,-5.89285 3.8342,-8.7666c-1.41265,-1.14095 -3.38865,-1.75655 -5.1072,-2.20305c-0.04845,-0.01235 -0.07315,-0.038 -0.10165,-0.0608c-0.1444,-0.11305 -0.05985,-0.31065 0.18715,-0.24795c0.3021,0.0779 0.6118,0.16435 0.92435,0.2546c0.07885,0.0228 0.15865,0.04655 0.23845,0.0703c1.5276,0.456 3.11125,1.0773 4.2902,2.07385c0.0057,0.00475 0.00665,0.00855 0.0114,0.0133c0.0266,0.01805 0.04085,0.0361 0.0532,0.05985c0.0152,0.02755 0.01805,0.05225 0.01425,0.0741zM233.16951,125.94236c0.5776,0.7011 1.25495,1.3319 1.9589,1.94275c0.11495,0.09975 0.2242,0.2033 0.3401,0.3021c0.92245,0.78185 1.8829,1.5295 2.7683,2.31515c0.65835,-1.03075 1.0317,-2.21635 1.62925,-3.28415c0.3724,-0.66405 0.7657,-1.31575 1.159,-1.9665c0.5472,-0.9101 -0.24985,-1.1704 -0.9367,-1.64825c-1.2901,-0.89395 -2.5821,-1.85915 -3.7468,-2.94785c-0.0912,-0.0855 -0.18525,-0.1672 -0.2755,-0.2546c-0.3895,-0.3781 -0.7562,-0.7771 -1.10675,-1.18845c-0.24605,-0.28785 -0.47975,-0.58425 -0.7011,-0.89015c-0.00665,-0.00855 -0.0133,-0.0171 -0.01995,-0.02565c-1.39555,0.8246 -2.97445,1.6853 -3.9045,3.03145c-0.0095,0.01425 -0.02375,0.02185 -0.038,0.03135c-0.57475,0.44745 2.508,4.13725 2.87375,4.5828z" id="Outline_6_" fill="#000000"/>
      </g>
      <path d="M252.02268,103.42189c0.72295,-0.3173 1.1096,-0.21755 1.16185,0.29735c0.04085,0.24225 0.06175,0.4864 0.0589,0.73245c-0.0247,0.4826 -0.0874,0.9538 -0.25175,1.41265c-0.1919,0.5339 -0.4218,1.0526 -0.64505,1.57225c-0.0247,-0.92815 -0.13965,-1.85915 -0.33915,-2.7778c0.0038,-0.00855 0.02185,-0.0095 0.01995,-0.0209c-0.05605,-0.37335 -0.0532,-0.7866 -0.0247,-1.20745c0.0038,-0.00475 0.0171,-0.00285 0.01995,-0.00855z" data-paper-data="{&quot;origPos&quot;:null}" id="R_Ear" fill="#cbe7b7" stroke="none" stroke-width="1"/>
      <path d="M248.13528,116.12434c-0.4712,0.4845 -0.95665,0.9519 -1.46775,1.3756c-1.1001,0.9063 -2.30945,1.8962 -3.72115,2.24295c-2.47475,-0.06365 -5.4283,-1.2958 -7.5848,-2.4244c-2.70085,-1.4079 -5.0103,-3.41715 -6.02585,-6.3631c-0.019,-0.05415 -0.11115,-0.09025 -0.2071,-0.1121c-0.00665,-0.02565 -0.0171,-0.0551 -0.0228,-0.0798c0.076,-0.095 0.15105,-0.19095 0.2204,-0.29355c0.05035,-0.07125 -0.3895,-0.2565 -0.475,-0.12825c-0.58235,0.8607 -1.33475,1.29295 -2.38355,0.48165c-0.3762,-0.28785 -0.76285,-0.57095 -1.0887,-0.9158c-0.5434,-0.5757 -1.07635,-1.24925 -1.27395,-2.0387c-0.2527,-1.0089 0.1121,-3.92065 1.4592,-4.18c0.01805,-0.0038 0.0361,-0.0076 0.0551,-0.01045c0.31255,-0.04275 0.67545,0.05225 1.09535,0.3458c0.09785,0.0665 0.5776,0.1121 0.3743,-0.0285c-0.08835,-0.0608 -0.171,-0.09785 -0.25555,-0.14725c-0.8702,-9.5038 0.8227,-17.7289 14.9245,-16.7789c13.65055,0.92055 10.6609,12.8782 10.4234,13.75315c-0.0019,0.00285 -0.01045,0.00095 -0.01235,0.00475c-0.5035,0.95 -0.72865,2.27525 -0.63555,3.3896c-0.0418,0.00855 -0.06745,0.0266 -0.05985,0.0589c0.71725,3.0229 0.6517,6.54265 -1.1495,9.1865c-0.4389,0.64125 -0.9291,1.26255 -1.44875,1.8601c-0.2508,0.2622 -0.49685,0.52915 -0.74005,0.8018z" id="Head_Fill" fill="#a86c35" stroke="none" stroke-width="1"/>
      <path d="M253.48948,103.32119c0.7885,1.80215 -0.51965,3.6366 -1.08965,5.29815c-0.00855,0.02565 -0.0437,0.03325 -0.07885,0.0399c-0.12635,1.85345 -0.65265,3.6556 -1.74135,5.2516c-0.9538,1.40315 -2.19355,2.64575 -3.46465,3.7582c-0.46075,0.4028 -0.9614,0.81035 -1.4915,1.17515c0.00855,0.00285 0.01425,0.0076 0.02185,0.01045c-0.171,0.0722 -0.32395,0.1634 -0.4598,0.2736c-0.59945,0.3686 -1.23405,0.6688 -1.89715,0.82555c-0.00095,0 -0.0019,0 -0.0019,0c-0.01995,0.0057 -0.0494,0.00855 -0.0893,0.0076c-2.6087,-0.0513 -5.54515,-1.2996 -7.8584,-2.4263c-0.09975,-0.04845 -0.1938,-0.1045 -0.2926,-0.15485c0.00095,0.0038 0.0019,0.0076 0.00285,0.0114c-0.1292,-0.09025 -0.2736,-0.16245 -0.43035,-0.22135c0.0076,-0.0019 0.01235,-0.00475 0.01995,-0.0057c-2.54125,-1.38225 -4.7234,-3.3972 -5.7247,-6.16835c-0.44555,0.475 -1.0013,0.7619 -1.71475,0.4807c-1.2844,-0.50445 -2.4263,-1.59505 -3.1521,-2.7455c-1.23025,-1.9437 -0.09975,-5.85675 2.24485,-5.1262c0.08455,0.0266 0.16625,0.0437 0.25365,0.08265c-0.1406,-1.0013 -1.41835,-11.0181 3.28985,-14.21105c2.71605,-1.8411 5.3352,-2.7474 8.2555,-2.926c2.26005,-0.13775 4.7044,0.16245 7.5126,0.8094c0.1862,0.0437 0.36955,0.08265 0.55955,0.12825c6.7393,1.63305 7.676,9.68335 6.49515,13.4216c0,0 -0.01045,0.0095 -0.0266,0.0228c0.0019,0.0076 0.01805,0.0171 0.01425,0.02375c-0.28595,0.5396 -0.4845,1.21315 -0.58805,1.89715c0.02185,-0.0095 0.0494,-0.0095 0.0722,-0.0171c0.50065,-0.17195 1.12765,-0.04845 1.35945,0.4845zM250.32408,113.46149c1.8012,-2.64385 1.86675,-6.1636 1.1495,-9.18555c-0.0076,-0.0323 0.0171,-0.05035 0.05985,-0.0589c-0.0931,-1.11435 0.13205,-2.4396 0.63555,-3.3896c0.0019,-0.0038 0.01045,-0.0019 0.01235,-0.00475c0.2375,-0.87495 3.2281,-12.83355 -10.4234,-13.75315c-14.1018,-0.95 -15.7947,7.2751 -14.9245,16.7789c0.0855,0.0494 0.16815,0.08645 0.25555,0.14725c0.20235,0.1406 -0.27645,0.09405 -0.3743,0.0285c-0.4199,-0.2926 -0.7828,-0.38855 -1.09535,-0.3458c-0.019,0.00285 -0.03705,0.0076 -0.0551,0.01045c-1.3471,0.25935 -1.7119,3.1711 -1.4592,4.18c0.1976,0.78945 0.73055,1.463 1.27395,2.0387c0.32585,0.34485 0.7125,0.62795 1.0887,0.9158c1.04785,0.81035 1.80025,0.38 2.38165,-0.47975c0,-0.00095 -0.00095,-0.00095 -0.00095,-0.0019c0.38095,-1.00985 -1.3129,-0.62415 -1.85155,-0.69065c-0.83885,-0.09975 -1.57795,-0.49115 -1.91995,-1.29295c-0.04275,-0.09975 0.4142,-0.05415 0.4731,0.0779c0.6118,1.42595 1.91805,0.80845 3.0685,0.89205c0.57475,0.04085 0.9424,0.5149 0.7068,1.14095c-0.06935,0.1026 -0.1444,0.19855 -0.2204,0.29355c-0.01615,0.01995 -0.0304,0.0418 -0.04655,0.06175c0.02375,0.00285 0.0456,0.01235 0.06935,0.01805c0.09595,0.02185 0.1881,0.05795 0.2071,0.1121c1.0165,2.945 3.325,4.9552 6.02585,6.3631c2.1565,1.12955 5.111,2.36075 7.5848,2.4244c1.4117,-0.34675 2.62105,-1.3357 3.72115,-2.24295c0.513,-0.4237 0.99845,-0.8911 1.4687,-1.3756c0.25365,-0.26125 0.5016,-0.5263 0.74005,-0.8018c0.5187,-0.5966 1.00985,-1.2179 1.44875,-1.8601zM252.99168,105.86434c0.16435,-0.45885 0.22705,-0.9291 0.2508,-1.4136c0.00285,-0.2451 -0.0171,-0.48925 -0.0589,-0.73245c-0.0513,-0.51395 -0.43795,-0.6137 -1.1609,-0.2964c-0.0019,0.0057 -0.0152,0.0038 -0.01995,0.00855c-0.02945,0.42085 -0.0323,0.8341 0.0247,1.20745c0.0019,0.0114 -0.0152,0.01235 -0.01995,0.0209c0.1995,0.91865 0.31445,1.84965 0.33915,2.7778c0.2242,-0.51965 0.45315,-1.03835 0.64505,-1.57225z" data-paper-data="{&quot;origPos&quot;:null}" id="Outline_4_" fill="#000000" stroke="none" stroke-width="1"/>
      <path d="M250.36234,113.33579c-0.4389,0.6422 -0.93523,1.2688 -1.45393,1.8654c-0.23845,0.2755 -0.489,0.5427 -0.74265,0.80395c-0.47025,0.4845 -0.96077,0.95532 -1.47377,1.37902c-1.1001,0.90725 -2.32129,1.90126 -3.73299,2.24801c-2.4738,-0.06365 -5.45227,-1.29406 -7.60877,-2.42361c-2.70085,-1.4079 -5.03717,-3.43476 -6.05367,-6.37976c-0.019,-0.05415 -0.11174,-0.09096 -0.20769,-0.11281c-0.02375,-0.0057 -0.04575,-0.01539 -0.0695,-0.01824c0.01615,-0.01995 0.03035,-0.04186 0.0465,-0.06181c0.076,-0.095 0.1508,-0.19126 0.22015,-0.29386c0.2356,-0.62605 -0.13541,-1.10491 -0.71016,-1.14576c-1.15045,-0.0836 -2.46057,0.52617 -3.07237,-0.89978c-0.0589,-0.13205 -0.42258,-0.21371 -0.37983,-0.11396c0.342,0.8018 1.07803,1.18657 1.91688,1.28632c0.53865,0.0665 2.22905,-0.32458 1.8481,0.68527c0,0.00095 -0.07959,0.06023 -0.07959,0.06118c-0.5814,0.85975 -1.33586,1.28707 -2.38371,0.47672c-0.3762,-0.28785 -0.76515,-0.57502 -1.091,-0.91987c-0.5434,-0.5757 -1.07939,-1.25671 -1.27699,-2.04616c-0.2527,-1.0089 0.10979,-3.93448 1.45689,-4.19383c0.01805,-0.00285 0.13607,-0.01008 0.15507,-0.01293c0.31255,-0.04275 0.67539,0.0516 1.09529,0.3442c0.09785,0.06555 0.47681,0.11771 0.27446,-0.02289c-0.0874,-0.0608 -0.17008,-0.09855 -0.25558,-0.14795c-0.8702,-9.5038 0.88296,-17.77991 14.98476,-16.82991c13.6515,0.9196 10.69977,12.91809 10.46227,13.79304c-0.0019,0.00285 -0.01045,0.00096 -0.01235,0.00476c-0.5035,0.95 -0.72793,2.28748 -0.63483,3.40183c-0.04275,0.00855 -0.06747,0.02684 -0.05987,0.05914c0.71725,3.02195 0.64008,6.57044 -1.16112,9.21429z" data-paper-data="{&quot;noHover&quot;:false,&quot;origItem&quot;:[&quot;Path&quot;,{&quot;applyMatrix&quot;:true,&quot;segments&quot;:[[[248.32405,113.29765],[0,0],[1.8012,-2.64385]],[[249.47355,104.1121],[0.71725,3.02195],[-0.0076,-0.0323]],[[249.5334,104.0532],[-0.04275,0.00855],[-0.0931,-1.11435]],[[250.16895,100.6636],[-0.5035,0.95],[0.0019,-0.0038]],[[250.1813,100.65885],[-0.0019,0.00285],[0.2375,-0.87495]],[[239.7579,86.9057],[13.6515,0.9196],[-14.1018,-0.95]],[[224.8334,103.6846],[-0.8702,-9.5038],[0.0855,0.0494]],[[225.08895,103.83185],[-0.0874,-0.0608],[0.20235,0.1406]],[[224.71465,103.86035],[0.09785,0.06555],[-0.4199,-0.2926]],[[223.6193,103.51455],[0.31255,-0.04275],[-0.019,0.00285]],[[223.5642,103.525],[0.01805,-0.00285],[-1.3471,0.25935]],[[222.105,107.705],[-0.2527,-1.0089],[0.1976,0.78945]],[[223.37895,109.7437],[-0.5434,-0.5757],[0.32585,0.34485]],[[224.46765,110.6595],[-0.3762,-0.28785],[1.04785,0.81035]],[[226.8493,110.17975],[-0.5814,0.85975],[0,-0.00095]],[[226.84835,110.17785],[0,0.00095],[0.38095,-1.00985]],[[224.9968,109.4872],[0.53865,0.0665],[-0.83885,-0.09975]],[[223.07685,108.19425],[0.342,0.8018],[-0.04275,-0.09975]],[[223.54995,108.27215],[-0.0589,-0.13205],[0.6118,1.42595]],[[226.61845,109.1642],[-1.15045,-0.0836],[0.57475,0.04085]],[[227.32525,110.30515],[0.2356,-0.62605],[-0.06935,0.1026]],[[227.10485,110.5987],[0.076,-0.095],[-0.01615,0.01995]],[[227.0583,110.66045],[0.01615,-0.01995],[0.02375,0.00285]],[[227.12765,110.6785],[-0.02375,-0.0057],[0.09595,0.02185]],[[227.33475,110.7906],[-0.019,-0.05415],[1.0165,2.945]],[[233.3606,117.1537],[-2.70085,-1.4079],[2.1565,1.12955]],[[240.9454,119.5781],[-2.4738,-0.06365],[1.4117,-0.34675]],[[244.66655,117.33515],[-1.1001,0.90725],[0.513,-0.4237]],[[246.13525,115.95955],[-0.47025,0.4845],[0.25365,-0.26125]],[[246.8753,115.15775],[-0.23845,0.2755],[0.5187,-0.5966]],[[248.32405,113.29765],[-0.4389,0.6422],[0,0]]],&quot;closed&quot;:true,&quot;fillColor&quot;:[0,0,0,1]}],&quot;origPos&quot;:null}" fill="url(#color-3)" stroke="none" stroke-width="0.5"/>
      <path d="M224.44988,106.03724c0.04845,-0.9329 1.08775,-1.09725 1.8411,-0.90915c1.24925,0.3173 1.75655,1.57415 2.63435,2.39875c0.114,0.1083 -0.34485,0.05985 -0.4351,-0.02375c-0.59945,-0.56335 -1.026,-1.27395 -1.6036,-1.8544c-0.62795,-0.6289 -1.9114,-0.4712 -1.95985,0.51775c-0.0057,0.1026 -0.48355,0.0171 -0.4769,-0.1292z" id="L_Ear" fill="#000000" stroke="none" stroke-width="1"/>
      <g data-paper-data="{&quot;origPos&quot;:null}" id="Hair" stroke="#000000" stroke-width="0.5">
        <path d="M253.16933,99.33407c0.0019,0.8968 0.057,1.98265 -0.50825,2.73125c-0.22135,0.2907 -0.46075,0.5567 -0.6688,0.8455l-0.09215,0.09595c0.04845,-0.14915 0.1976,-0.95665 0.3325,-1.98645c0.13015,0.10355 0.40755,0.0931 0.42655,-0.10355c0.23465,-3.38105 0.0817,-7.94295 -3.22335,-9.90755c-0.8854,-0.52915 -1.8715,-0.81225 -2.888,-0.9462c-1.57985,-0.2071 -3.1749,-0.43225 -4.7633,-0.51015c-2.9298,-0.14345 -6.12655,-0.13585 -8.8635,1.04785c-1.79075,0.7752 -3.9672,2.10615 -4.82125,3.9425c-0.8455,1.80975 -1.36325,4.3871 -0.6004,6.3175c0.4617,1.17135 1.0298,2.35125 1.5637,3.49315c0.18715,0.4104 0.49495,0.7904 0.6555,1.20745c0.18525,0.48925 -0.2926,0.83505 -0.703,1.0963c-0.4883,-1.026 -0.99845,-1.94845 -1.7651,-2.8196c-0.04845,-0.05605 -0.12825,-0.08075 -0.2071,-0.08455c-0.0133,-0.0228 -0.0285,-0.0456 -0.0551,-0.06935c-0.62985,-0.57665 -1.13715,-1.25875 -1.5314,-2.01685c0.00475,-0.01425 0.0209,-0.01805 0.02185,-0.03515c0.00475,-0.13585 -0.038,-0.22895 -0.1387,-0.32015c-0.14725,-0.1292 -0.1957,-0.37715 -0.2451,-0.55765c-0.0855,-0.323 -0.1083,-0.627 -0.29735,-0.8968c-0.095,-0.4294 -0.15485,-0.86355 -0.1881,-1.30055c0.0133,-0.02755 0.00855,-0.05985 -0.0095,-0.09595c-0.00095,-0.0247 -0.0057,-0.04845 -0.00665,-0.0722c-0.0057,-0.0779 -0.06935,-0.12635 -0.1444,-0.1596c-0.1862,-0.4028 0.15485,-0.81415 0.23845,-1.2445c0.01235,-0.0589 -0.00855,-0.11115 -0.04655,-0.152c0.05795,-0.51585 0.15105,-1.0241 0.2774,-1.5276c0.0304,-0.0095 0.05795,-0.0247 0.0798,-0.0475c0.26695,-0.2869 0.16815,-0.64885 0.2242,-1.0013c0.06365,-0.3952 0.41325,-0.6327 0.49495,-1.0222c0.0076,-0.03325 -0.01425,-0.05795 -0.0247,-0.0855c0.24035,-0.50635 0.50635,-0.99655 0.81035,-1.4687c0.0114,-0.0171 0.0133,-0.0342 0.0171,-0.0513c0.07885,-0.0703 0.1463,-0.15105 0.1596,-0.2584c0.0209,-0.1368 -0.00855,-0.28405 0.019,-0.41895c0.07885,-0.4028 0.6365,-0.6498 0.96995,-0.81985c0.0266,-0.0133 0.04275,-0.02945 0.0589,-0.0456c0,-0.00095 0.00095,-0.00095 0.00095,-0.00095v0c0.00665,-0.00665 0.0133,-0.01235 0.01805,-0.01805c0.4484,-0.494 0.9424,-0.9386 1.4706,-1.34615c0.1406,0.04465 0.31255,0.0152 0.3116,-0.14345c-0.0057,-1.1058 1.51715,-1.08585 2.2876,-1.30625c0.09405,-0.02755 0.1178,-0.07885 0.1045,-0.13395c0.5738,-0.2508 1.15615,-0.4712 1.75275,-0.6555c0.10925,0.04655 0.2527,0.05035 0.3268,-0.03325c0.5605,-0.6251 1.2236,-0.7619 2.01305,-0.51585c0.0095,0.0038 0.01425,-0.0019 0.02375,0c0.0076,-0.00095 0.0133,0.00475 0.0209,0.0038c0.0133,-0.0019 0.0266,-0.00285 0.0399,-0.00475c0.0399,0 0.07885,0.0019 0.10735,-0.01425c0.70965,-0.10165 1.42025,-0.17575 2.1375,-0.21945c0.0247,-0.00095 0.02565,-0.0152 0.04465,-0.01995c0.02755,0.01235 0.05035,0.03325 0.0855,0.03515c0.4997,0.03135 0.9842,0.01995 1.4801,-0.05415c0.5776,-0.0855 1.25115,-0.20615 1.8012,0.06175c0.0114,0.0019 0.0171,0.0114 0.02945,0.01235c0.0038,0 0.00665,0.00095 0.01045,0.00095c0.0703,0.038 0.13775,0.03705 0.19665,0.019c0.44365,0.03515 0.8873,0.0741 1.32905,0.1254c0.0665,0.0076 0.1045,-0.01045 0.1387,-0.03135c0.09405,0.0475 0.21185,0.0646 0.29165,0.01235c0.63745,-0.4123 1.5504,0.2185 2.19925,0.36195c0.0152,0.00285 0.02185,-0.00475 0.0361,-0.0038c0.01045,0.00285 0.01615,0.01235 0.0285,0.0133c0.77995,0.08265 2.1375,0.1311 2.5137,0.96045c0.05795,0.1292 0.26885,0.17195 0.3895,0.12255c0.77995,0.1748 1.27965,0.86925 1.66915,1.5238c0.0057,0.0095 0.01615,0.0171 0.0247,0.0266c0.0019,0.0304 0.01235,0.0627 0.0456,0.10165c0.4522,0.5301 0.97375,1.0526 1.1134,1.7613c0.0133,0.06555 0.06555,0.11115 0.12825,0.1444c0.7011,0.7258 1.51715,1.7822 1.07635,2.8253c-0.0513,0.0342 -0.076,0.08835 -0.03895,0.16815c0.42465,0.92245 0.5168,2.0558 0.23845,3.0324c-0.0057,0.019 0.0114,0.03135 0.01235,0.0494c-0.05415,0.0342 -0.08265,0.0893 -0.04655,0.1729c0.26885,0.62035 0.32965,1.42595 0.01235,2.04155c-0.03325,0.0646 -0.0171,0.12255 0.0171,0.1729z" id="Fill" fill="url(#color-4)"/>
        <path d="M253.60537,97.07305c0.0152,-0.0171 0.0399,-0.02185 0.0475,-0.0475c0.28595,-1.0146 0.1957,-2.18595 -0.2318,-3.1521c0.0057,-0.00855 0.019,-0.00855 0.0228,-0.019c0.51965,-1.16565 -0.41135,-2.394 -1.19035,-3.1901c-0.0114,-0.0114 -0.02565,-0.01805 -0.03895,-0.0266c-0.0861,-0.33556 -1.11279,-3.33065 -1.29682,-3.62416c-0.26867,-0.42849 0.46911,2.18096 0.14067,1.79636c-0.00095,-0.00095 -0.0019,-0.00095 -0.00285,-0.0019c-0.00475,-0.0114 -0.0038,-0.02185 -0.0114,-0.03515c-0.48545,-0.8189 -1.1191,-1.6606 -2.11755,-1.8316c-0.02185,-0.0038 -0.0342,0.0076 -0.0551,0.0076c-0.5548,-0.8664 -1.9114,-0.9861 -2.84525,-1.08395c-0.84835,-0.19095 -1.77935,-0.82365 -2.62105,-0.30305c-0.0361,-0.0247 -0.0722,-0.0513 -0.1216,-0.057c-0.47405,-0.05415 -0.9481,-0.09785 -1.42215,-0.1311c-1.04595,-0.4503 -2.337,0.0342 -3.42665,-0.03515c-0.05415,-0.00285 -0.08075,0.0171 -0.114,0.03135c-0.04465,-0.02185 -0.0912,-0.0418 -0.1406,-0.03895c-0.50445,0.0285 -1.00795,0.07885 -1.50955,0.1387c-0.2242,0.0266 -0.4484,0.0532 -0.67165,0.08645c-0.08075,-0.0228 -0.1615,-0.0456 -0.2413,-0.0608c-0.7106,-0.1387 -1.35755,0.0019 -1.90855,0.4636c-0.0304,0.02565 -0.05985,0.05605 -0.09025,0.0836c-0.02375,-0.00095 0.71178,-1.71053 0.68898,-1.70483c-0.18145,0.05225 -1.11648,1.83023 -1.29508,1.88913c-0.66785,0.21755 -1.3243,0.4636 -1.9589,0.76855c-0.0209,0.01045 -0.0323,0.0228 -0.04655,0.0342c-0.62415,0.13395 -1.3509,0.2565 -1.767,0.66595c-0.04845,0.04845 -0.09215,0.1007 -0.1311,0.1577c-0.076,0.1102 -0.12825,0.24035 -0.1615,0.38855c-0.00095,0.00095 -0.0038,0.00095 -0.00475,0.0019c-0.64315,0.4674 -1.2236,1.0032 -1.75845,1.5884c-0.34295,0.171 -0.817,0.3914 -1.00225,0.72485c-0.0969,0.17385 -0.0874,0.3857 -0.12065,0.57095c-0.01235,0.0703 -0.038,0.1349 -0.07315,0.19285c-0.0304,0.0494 -0.05985,0.0988 -0.1197,0.133c-0.0893,0.05225 -0.08835,0.1216 -0.04085,0.18145c-0.30875,0.5016 -0.5871,1.0146 -0.83125,1.5504c-0.0228,0.05035 -0.01045,0.09595 0.019,0.13395c-0.13015,0.23655 -0.3477,0.43035 -0.39235,0.7087c-0.038,0.2413 0,0.5339 -0.0703,0.77425c-0.0038,0.01425 -0.01045,0.0266 -0.01615,0.0399c-0.00475,0.01425 -0.0171,0.02565 -0.0228,0.0399c-0.0779,0.00665 -0.1482,0.03325 -0.16815,0.1121c-0.14582,0.54373 -0.21076,-2.56622 -0.28878,-2.00871c-0.02697,0.19274 -0.03973,3.72255 -0.05797,3.91631c-0.00285,0.03515 0.0209,0.05985 0.0361,0.0893c-0.0798,0.25935 -0.45981,0.26884 -0.49971,0.53674c-0.038,0.28595 0.27646,0.74386 0.44461,0.95951c0.03325,0.43035 0.0931,0.85405 0.18335,1.2768c-0.0285,0.04085 -0.0285,0.095 0.0304,0.1596c0.228,0.25555 0.2413,0.6536 0.3268,0.9747c0.03325,0.13205 0.076,0.26125 0.1406,0.38095c0.03895,0.06935 0.13585,0.16435 0.1748,0.25175c-0.0323,0.0342 -0.04085,0.0817 -0.0076,0.1463c0.4313,0.85025 0.9994,1.6017 1.7043,2.24295c0.04845,0.0456 0.1102,0.0646 0.17005,0.0665c0.00285,0.00285 0.00285,0.0057 0.0057,0.00855c0.1995,0.228 0.38285,0.4598 0.55195,0.69635c0.03515,0.0494 0.0646,0.1007 0.0988,0.1501c0.4655,0.67735 0.8379,1.3927 1.19605,2.166c0.0684,0.14535 0.28215,0.19855 0.4161,0.11115c0.27265,-0.18335 0.6327,-0.3971 0.8778,-0.6707c0.02185,-0.0247 0.0456,-0.04845 0.06555,-0.0741c0.1539,-0.19665 0.2432,-0.4237 0.1957,-0.69255c-0.12445,-0.6878 -0.77235,-1.4991 -1.0469,-2.147c-0.4332,-1.0355 -1.15995,-2.1052 -1.38035,-3.20815c-0.2185,-1.0887 -0.21185,-2.22775 0.0057,-3.3174c0.50255,-2.5194 1.89715,-4.21515 4.13915,-5.47865c2.72365,-1.5333 5.9413,-1.7556 9.0079,-1.64445c1.7651,0.0627 3.51025,2.5885 5.26585,2.7861c0.93005,0.1045 1.87435,-1.97955 2.70085,-1.5188c3.34495,1.86675 3.46085,6.3764 3.22525,9.7299c-0.0038,0.05605 0.02375,0.10165 0.06555,0.13585c0.13015,0.1026 0.4085,0.09215 0.42655,-0.10355c0.23465,-3.38105 1.223,-2.05019 -2.083,-4.01574c-0.8854,-0.52915 0.50166,-6.70406 -0.51484,-6.83801c-1.57985,-0.2071 -6.68841,-0.43225 -8.27681,-0.51015c-2.9298,-0.14345 -5.55637,1.95384 -8.29332,3.13849c-1.79075,0.7752 -4.53738,0.01646 -5.39143,1.85186c-0.8455,1.80975 -1.36325,4.3871 -0.6004,6.3175c0.4617,1.1704 1.0298,2.35125 1.5637,3.49315c0.18715,0.4104 0.49495,0.78945 0.6555,1.20745c0.18525,0.4902 -0.2926,0.83505 -0.703,1.0963c-0.4883,-1.026 -0.99845,-1.9475 -1.7651,-2.8196c-0.0494,-0.05605 -0.12825,-0.0798 -0.2071,-0.08455c-0.0133,-0.0228 -0.0285,-0.0456 -0.0551,-0.06935c-0.62985,-0.57665 -1.13715,-1.25875 -1.5314,-2.01685c0.00475,-0.01425 0.0209,-0.019 0.02185,-0.03515c0.0057,-0.13585 -0.03705,-0.22895 -0.1387,-0.32015c-0.14725,-0.1292 -2.54227,-2.72277 -2.59167,-2.90422c-0.0855,-0.323 2.23827,1.71862 2.04922,1.44977c-0.095,-0.4294 -0.1558,-0.86355 -0.1881,-1.30055c0.0133,-0.0266 0.00855,-0.0589 -0.0095,-0.09595c-0.00095,-0.02375 -0.0057,-0.0475 -0.00665,-0.0722c-0.0057,-0.0779 -0.0703,-0.12635 -0.1444,-0.1596c-0.1862,-0.40185 0.15485,-0.8132 0.23845,-1.2445c0.01235,-0.0589 -0.00855,-0.1102 -0.04655,-0.152c0.05795,-0.51585 0.15105,-1.0241 0.2774,-1.5276c0.0304,-0.01045 0.05795,-0.0247 0.0798,-0.0475c0.26695,-0.2869 -0.60074,-4.40336 -0.54564,-4.75581c0.0627,-0.3952 1.18309,3.12181 1.26479,2.73231c0.0076,-0.03325 -0.01425,-0.05795 -0.0247,-0.0855c0.2394,-0.50635 0.50635,-0.99655 0.81035,-1.4687c0.0114,-0.01805 0.0133,-0.0342 0.0171,-0.0513c0.07885,-0.0703 0.1463,-0.15105 0.1596,-0.2584c0.01995,-0.13775 -0.0095,-0.285 0.019,-0.41895c0.07885,-0.4028 0.6365,-0.65075 0.96995,-0.81985c0.0266,-0.0133 0.04275,-0.02945 0.0589,-0.0456c0,0 0.00095,0 0.00095,-0.00095v0c0.0057,-0.0057 -0.29889,-4.20229 -0.29414,-4.20894c0.4484,-0.494 1.25459,3.25229 1.78279,2.84474c0.64547,0.20062 0.58015,-3.34328 0.89301,-3.94245c0.25064,-0.48001 0.59511,1.75926 0.59187,1.21777c-0.0057,-1.1058 0.34482,1.49538 1.11432,1.27498c0.09405,-0.0266 -0.58617,-3.83336 -0.59947,-3.88846c0.5738,-0.25175 1.86012,3.28236 2.45672,3.09901c0.10925,0.04655 0.2527,0.05035 0.3268,-0.03325c0.5605,-0.6251 1.2236,-0.7619 2.01305,-0.51585c0.0095,0.00285 0.01425,-0.0019 0.02375,0c0.0076,0 0.0133,0.00475 0.0209,0.0038c0.0133,-0.0019 0.0266,-0.00285 0.0399,-0.00475c0.0399,0 -1.09443,-3.04769 -1.06688,-3.06384c1.139,-0.16467 1.36835,0.16254 2.15138,1.00593c0.39519,0.42566 0.57961,1.85973 1.15941,1.82517c0.0247,-0.00095 0.0266,-0.0152 0.04465,-0.01995c0.0285,0.01235 0.05035,0.03325 0.0855,0.03515c0.4997,0.03135 0.9842,-3.03059 1.48105,-3.10374c0.5776,-0.0855 1.2502,2.84439 1.8012,3.11229c0.0114,0.0019 0.01805,0.0114 0.02945,0.01235c0.0038,0 0.00665,0.00095 0.01045,0.00095c0.0703,0.038 0.13775,0.0361 0.19665,0.019c0.44365,0.03515 0.8873,0.0741 1.32905,0.1254c0.0665,0.0076 -0.27467,-1.1508 -0.24142,-1.1717c0.09405,0.04655 0.35731,-1.84559 0.43711,-1.89784c0.63745,-0.4123 1.78506,3.26904 2.43296,3.41344c0.0152,0.00285 0.02185,-0.00475 0.0361,-0.0038c0.0114,0.0019 0.0171,-2.10051 0.0285,-2.09861c0.779,0.08265 1.90284,0.83507 2.27904,1.66442c0.0589,0.1292 1.91145,-1.00133 2.0321,-1.05073c0.77995,0.1748 -0.12829,3.44953 0.26121,4.10503c0.00665,0.01045 0.0171,0.01805 0.0247,0.0266c0.0019,0.0304 0.01235,0.06365 0.0456,0.10165c0.4522,0.5301 0.9728,1.05165 1.1134,1.7613c0.01235,0.0627 2.88048,-1.06403 2.94413,-1.03078c0.7011,0.7258 -1.29778,2.95548 -1.73763,3.99763c-0.0513,0.0342 2.50523,-1.5552 2.54228,-1.47445c0.42465,0.9234 -2.06443,3.6984 -2.34278,4.675c-0.0057,0.019 0.0114,0.0323 0.01235,0.0494c-0.05415,0.0342 -0.08265,0.0893 -0.04655,0.1729c0.2679,0.62035 0.32965,1.42595 0.01235,2.04155c-0.03325,0.0646 -0.01805,0.12255 0.0171,0.1729c0.0019,0.8968 0.057,1.98265 -0.50825,2.73125c-0.22135,0.2907 -0.46075,0.5567 -0.6688,0.8455c-0.1121,0.15675 -0.21755,0.3173 -0.30115,0.49685c-0.0988,0.21565 0.3762,0.35055 0.4769,0.13015c0.28785,-0.62605 0.90535,-1.03075 1.1685,-1.6682c0.3344,-0.81035 0.3173,-1.7252 0.31825,-2.58495c0,-0.0152 -0.01615,-0.0228 -0.01995,-0.03705c0.2964,-0.6821 0.25555,-1.49435 -0.03135,-2.1736z" data-paper-data="{&quot;origPos&quot;:null}" id="Outline" fill="url(#color-5)"/>
      </g>
      <path d="M237.30666,101.41635c0.28025,0.06175 0.90268,1.033 0.61673,0.9684c-0.88368,-0.19646 -1.34258,-0.571 -2.18453,-0.90357c-1.51368,-0.59792 -3.01162,-0.88594 -3.61047,0.62737c-0.04275,0.10735 0.4256,0.25745 0.47785,0.1273c0.8341,-2.10425 2.73202,-1.25555 4.70042,-0.8195z" data-paper-data="{&quot;origPos&quot;:null}" id="L_Eyebrow" fill="#000000" stroke="none" stroke-width="1"/>
      <path d="M243.91158,102.53408c0,0 0.30448,-0.00866 0.49937,-0.34971c0.1018,-0.17816 0.26086,-0.84965 0.26086,-0.84965c1.8145,-0.68495 4.21325,-2.35731 5.3238,-0.42311c0.0722,0.1254 0.51965,0.15865 0.4731,0.0779c-0.67301,-1.1718 -2.52741,-0.57645 -3.77326,-0.0531c-0.61574,0.25866 -0.35844,-0.02295 -0.97109,0.24295c-0.82035,0.35604 -0.34389,0.60524 -1.1809,0.92012c-0.1596,0.05985 -0.74778,0.47639 -0.63188,0.43459z" data-paper-data="{&quot;origPos&quot;:null}" id="R_Eyebrow" fill="#000000" stroke="none" stroke-width="1"/>
      <g id="Nose" fill="#000000" stroke="none" stroke-width="1">
        <path d="M239.39771,111.09291c-0.12445,0.07695 -0.5358,-0.1159 -0.4503,-0.1729c0.41135,-0.2584 0.874,-0.28215 1.32715,-0.4313c0.09785,-0.03325 0.4218,0.09405 0.418,0.16625c0.68115,0.1197 1.27775,0.40375 2.0045,0.3914c0.84075,-0.0152 1.6435,-0.6821 1.79075,-1.4991c0.02185,-0.11875 0.50065,-0.0076 0.4769,0.12635c-0.1444,0.80275 -0.8987,1.46015 -1.71,1.5542c-0.9234,0.1083 -1.65395,-0.2451 -2.53555,-0.38475c-0.0874,-0.0133 -0.17005,-0.0646 -0.2166,-0.1121c-0.3781,0.10165 -0.76665,0.14535 -1.10485,0.36195z" id="Outline_3_"/>
        <path d="M240.56146,109.04851c-0.11305,0.0437 -0.5472,-0.13585 -0.3876,-0.1976c1.37085,-0.53675 2.78255,-0.7296 4.19805,-0.266c0.323,0.1064 0.01995,0.19475 -0.17195,0.13205c-1.21885,-0.39995 -2.47855,-0.1235 -3.6385,0.33155z" id="Outline_2_"/>
      </g>
      <path d="M238.89324,113.61696c0,0 5.18086,-1.95104 7.41211,-0.73135c0,0 0.32121,1.19097 0.16257,2.06212c-0.0076,0.03705 -0.22633,0.63708 -0.25768,0.67413c0,0.06925 -0.36893,0.07047 -0.43796,0.07605c-0.20709,0.01672 -0.70576,-0.42943 -0.70576,-0.21437c0,0.52725 -0.2814,-0.54026 -0.62435,-0.10515c-0.3002,0.37905 -0.96495,0.10264 -1.44375,0.16535c-0.7714,0.1064 -1.2822,0.23006 -1.95195,0.36175c-0.93747,-0.09815 -1.06799,0.16233 -1.7311,-0.16199c-0.12065,-0.16625 -0.10183,-1.02716 -0.19303,-1.19911c-0.51015,-0.3173 -0.39535,-0.25766 -0.2291,-0.92741z" data-paper-data="{&quot;origPos&quot;:null}" id="Mouth" fill="#700f10" stroke="none" stroke-width="1"/>
      <path d="M238.76031,113.64931c1.3806,-0.57218 2.96286,-0.93513 4.4185,-1.05314c0.71641,-0.05808 2.0815,-0.18528 2.74463,0.09199c0.51102,0.21367 -0.19039,0.30686 0.34989,0.18485c-0.01995,0.01805 0.34415,0.43729 0.32515,0.45629c-0.0057,0.00095 -0.11856,-0.21053 -0.12236,-0.20768c-0.24545,0.1882 -0.18692,0.83559 -0.49366,0.79591c-5.13636,-0.66444 -4.58546,1.12771 -7.206,-0.06875c-0.00855,-0.04465 -0.0114,-0.0893 -0.01615,-0.13395z" data-paper-data="{&quot;origPos&quot;:null}" id="Teeth" fill="#ffffff" stroke="none" stroke-width="1"/>
      <path d="M239.33926,115.74341c0.00475,-0.04465 0.0076,-0.03667 0.01615,-0.08132c2.66211,-0.23866 3.50673,-0.371 3.9974,-0.43525c0.16356,-0.02142 2.04502,0.17714 2.20861,0.15598c0.30674,-0.03968 0.564,-0.0765 0.80945,0.11169c0.0038,0.00285 -0.25176,0.05454 -0.24606,0.05549c0.019,0.019 -0.23984,0.22771 -0.21989,0.24576c-0.54028,-0.12201 0.21376,-0.39724 -0.29726,-0.18358c-0.66313,0.27727 -1.39664,0.09744 -2.11305,0.03936c-1.45564,-0.11801 -2.77474,0.67694 -4.15534,0.10476z" data-paper-data="{&quot;origPos&quot;:null,&quot;index&quot;:null}" id="Teeth" fill="#ffffff" stroke="none" stroke-width="1"/>
      <path d="M268.33328,151.85178c0.01006,0.00313 0.02011,0.00627 0.03018,0.00939c0.01952,0.02268 0.03928,0.04519 0.05923,0.06754c-0.0303,-0.02634 -0.06009,-0.05198 -0.0894,-0.07693z" data-paper-data="{&quot;origPos&quot;:null,&quot;origRot&quot;:0}" id="Fill_4_" fill="#302d63" stroke="none" stroke-width="1"/>
      <path d="" data-paper-data="{&quot;origPos&quot;:null}" id="Fill_4_" fill="#302d63" stroke="none" stroke-width="1"/>
      <path d="" data-paper-data="{&quot;origPos&quot;:null}" id="Outline_9_" fill="#010101" stroke="none" stroke-width="1"/>
      <path d="" data-paper-data="{&quot;origPos&quot;:null}" id="Outline_9_" fill="#010101" stroke="none" stroke-width="1"/>
      <g data-paper-data="{&quot;origPos&quot;:null}" stroke="none" stroke-width="1">
        <path d="M262.22524,149.2401c-2.4135,-1.27391 -4.83253,-2.47059 -7.39928,-3.40794c-4.92845,-1.79891 -9.70709,-3.8755 -14.37807,-6.26269c-0.00782,-0.00358 -0.01621,0.00365 -0.02433,0.00096c-0.00932,-0.00509 -0.00755,-0.0165 -0.01928,-0.02038c-1.02819,-0.29779 -2.10843,-0.38965 -3.16009,-0.58614c-0.00211,0.0003 -0.0036,-0.00119 -0.00571,-0.00089c-0.01984,-0.00356 -0.03997,-0.0062 -0.05981,-0.00976c-0.09287,-0.01869 -0.17591,0.05392 -0.23246,0.14029c-1.17371,0.59662 -2.28006,1.21651 -3.59338,1.49385c-0.21708,0.04532 -0.35558,0.51282 -0.08655,0.45566c1.4223,-0.30135 2.60243,-0.9719 3.87936,-1.61445c1.01979,0.18395 2.05949,0.28343 3.0579,0.56838c4.45078,2.27239 8.99704,4.28619 13.68827,6.01271c2.80222,1.02717 5.396,2.31564 8.0617,3.64388c1.0158,0.50481 2.02821,0.85641 3.1744,0.89704c0.53028,0.01818 1.06078,0.00539 1.58907,-0.05213c0.01662,0.03751 0.03564,0.07381 0.08465,0.08901c0.66984,0.19837 1.23549,0.30627 1.73546,0.80369c0.37768,0.37395 0.83804,1.00937 1.38861,1.08727c4.24226,1.90431 3.18828,7.50018 0.54917,10.46003c-1.52505,1.71117 -3.72863,2.87491 -6.09152,2.59826c-1.76127,-0.20488 -3.11976,-1.26219 -4.13158,-2.67817c-0.68018,-0.95419 -1.32795,-2.15481 -2.38035,-2.75776c-1.56929,-0.90385 -3.4987,-1.19032 -5.15919,-1.9302c-1.6638,-0.74198 -3.13141,-1.70528 -4.66572,-2.6756c-3.20281,-2.02203 -6.75048,-3.21252 -10.15028,-4.84742c-3.44102,-1.65851 -6.80584,-3.47794 -10.27704,-5.0754c-1.68192,-0.77498 -3.38027,-1.51537 -5.06696,-2.27892c-0.41168,-0.18615 -0.83708,-0.36462 -1.26245,-0.54966c-0.33459,-0.37431 -0.78022,-0.64725 -1.28515,-0.76706c-0.32453,-0.66188 -0.93302,-1.15926 -1.66667,-1.33333c-0.11553,-0.23562 -0.26704,-0.45039 -0.44738,-0.63716c-0.52706,-1.76935 -1.04111,-3.55922 -1.24603,-5.39086c-0.24019,-2.16981 -0.08938,-4.32312 0.235,-6.47091c0.47117,-0.23674 0.85716,-0.61808 1.09973,-1.08578l0.47172,-0.0012l0.53386,-0.13492l0.55048,0.01308l0.07105,-0.01598l1.29613,0.42836l0.19551,0.01454l0.17322,0.09181l3.16429,0.78247l0.74399,-0.0019l1.9719,0.65171c-0.92416,3.63537 2.04044,6.23646 5.57161,7.40349c7.40966,2.44886 14.4032,5.87624 21.73126,8.46575c1.77876,0.62856 2.73813,1.84418 4.26868,2.35152c0.55263,0.59014 1.25657,1.05435 2.07827,1.32591c0.07959,0.02631 0.15938,0.0505 0.2393,0.07262c0.07736,0.02987 0.15585,0.05797 0.23544,0.08428c0.19884,0.06572 0.39887,0.11827 0.59914,0.15812c1.46147,0.66261 3.46087,1.21152 3.96491,1.35439c-1.28001,-0.00507 -2.44682,-0.24543 -3.61483,-0.86245z" data-paper-data="{&quot;origPos&quot;:null,&quot;origRot&quot;:0}" id="Fill_4_" fill="#302d63"/>
        <path d="M222.55254,143.29534c1.68579,0.76325 3.38414,1.50365 5.06696,2.27893c3.4712,1.59746 6.83602,3.41689 10.27704,5.0754c3.3989,1.63459 6.94746,2.82539 10.15027,4.84742c1.53521,0.97063 3.00192,1.93362 4.66572,2.6756c1.66049,0.73988 3.5899,1.02636 5.15919,1.93021c1.0524,0.60295 1.70016,1.80356 2.38035,2.75775c1.01272,1.41628 2.37031,2.47329 4.13158,2.67817c2.36289,0.27665 4.56648,-0.88709 6.09153,-2.59826c2.63911,-2.95985 3.69338,-8.55662 -0.54917,-10.46003c-0.55027,-0.0788 -1.01092,-0.7133 -1.3886,-1.08726c-0.49997,-0.49741 -1.06563,-0.60532 -1.73547,-0.80369c-0.04901,-0.0152 -0.06772,-0.0524 -0.08464,-0.08901c-0.14656,0.01659 -0.29316,0.02117 -0.44034,0.03056c2.26172,1.47888 1.65303,6.2784 -0.00641,8.06623c-0.222,0.2388 -0.40221,-0.09691 -0.21376,-0.29777c1.75919,-1.89893 2.16654,-7.78455 -1.46276,-7.76535c-0.04717,0.00042 -0.06765,-0.02535 -0.09355,-0.04692c-0.89375,-0.12329 -1.72037,-0.4225 -2.54546,-0.83226c-2.6657,-1.32824 -5.25948,-2.6167 -8.0617,-3.64387c-4.69123,-1.72652 -9.23749,-3.74031 -13.68828,-6.0127c-0.99841,-0.28494 -2.03781,-0.38533 -3.0579,-0.56838c-1.27784,0.64226 -2.45796,1.3128 -3.87937,1.61445c-0.26902,0.05716 -0.12963,-0.41004 0.08656,-0.45566c1.31332,-0.27734 2.41967,-0.89722 3.59338,-1.49385c0.05656,-0.08637 0.13929,-0.15808 0.23246,-0.14029c0.01984,0.00356 0.03997,0.0062 0.05981,0.00976c0.00211,-0.0003 0.0036,0.00119 0.00571,0.00089c1.05256,0.19679 2.1319,0.28836 3.16009,0.58614c0.01083,0.00358 0.00996,0.0153 0.01928,0.02038c0.00722,0.00239 0.0156,-0.00484 0.02433,-0.00096c4.67099,2.38718 9.44873,4.46347 14.37807,6.26268c1.71428,0.62559 3.36007,1.37363 4.98468,2.1767c0.00158,-0.00802 0.00345,-0.01604 0.00562,-0.02405c0.10974,0.06499 0.22258,0.1261 0.3384,0.18312c-0.00308,0.00087 -0.00617,0.00173 -0.00925,0.0026c0.69636,0.34821 1.39004,0.70452 2.08193,1.06927c1.16899,0.61738 2.33541,0.85753 3.61549,0.86246c0.055,0.0156 0.0915,0.02619 0.10674,0.03137c0.91627,0.31135 1.96435,0.71231 3.05255,1.05113c0.02558,0.02178 0.0515,0.04409 0.07782,0.06692c0.55888,0.62901 1.28411,1.12511 2.13768,1.4128c2.32184,1.77201 2.3956,5.02482 1.22017,7.79803c-0.59544,1.40507 -1.53937,2.69297 -2.70517,3.67741c-0.04976,0.04158 -0.09952,0.08317 -0.14989,0.12355c-1.76101,1.42308 -4.00628,2.15282 -6.35802,1.53667c-0.93282,-0.24426 -1.6293,-0.7616 -2.22935,-1.39214c-0.33466,-0.35274 -0.64089,-0.74009 -0.93691,-1.13708c-0.94867,-1.27104 -1.81463,-2.62882 -3.36197,-3.17222c-1.56627,-0.54666 -3.13564,-1.01431 -4.65448,-1.69237c-1.80546,-0.80381 -3.3832,-1.95758 -5.05886,-2.98763c-3.32785,-2.04635 -7.14988,-3.26948 -10.65593,-4.98551c-3.55507,-1.73723 -7.05245,-3.58548 -10.66403,-5.21231c-1.30538,-0.59026 -2.61994,-1.16785 -3.9253,-1.76104c-0.10817,-0.26383 -0.26014,-0.50506 -0.44687,-0.71465c0.42463,0.18471 0.8492,0.36286 1.26002,0.54865z" data-paper-data="{&quot;origPos&quot;:null,&quot;origRot&quot;:0}" id="Outline_9_" fill="#010101"/>
        <path d="M216.64487,134.61727c0.20483,1.83086 0.7192,3.62022 1.24563,5.38871c-0.06481,-0.06712 -0.13335,-0.13062 -0.20527,-0.19016c-0.03996,-0.04826 -0.08169,-0.095 -0.12511,-0.14011c-0.07434,-0.46224 -0.27542,-0.88211 -0.56644,-1.22282c-0.29829,-1.1181 -0.55571,-2.24578 -0.71839,-3.39546c-0.24131,-1.70871 -0.20104,-3.43321 -0.01957,-5.14423c0.31571,-0.41853 0.5029,-0.93946 0.5029,-1.50411c0,-0.06883 -0.00278,-0.13701 -0.00824,-0.20444c0.04396,-0.01901 0.08725,-0.03925 0.12985,-0.06068c-0.32463,2.14858 -0.47565,4.30268 -0.23537,6.4733z" data-paper-data="{&quot;origPos&quot;:null,&quot;origRot&quot;:0}" id="Outline_9_" fill="#010101"/>
        <g data-paper-data="{&quot;origPos&quot;:null,&quot;origRot&quot;:0}" id="L_Hand">
          <path d="M272.78912,155.46987c1.47527,-0.61902 2.41266,0.58926 3.65631,1.14636c0.69446,0.31156 1.20743,0.37003 1.96889,0.33654c0.6209,-0.02592 1.52384,-0.06969 2.10897,0.36682c0.10136,1.57333 -2.80316,1.89409 -3.9391,1.75279c0.25525,0.42954 0.90602,0.92478 1.40308,1.11006c0.90904,0.34346 1.4183,-0.57381 2.238,-0.86522c1.14265,-0.40578 2.2502,-0.56303 3.4307,-0.49905c0.24843,0.8165 -1.52764,1.63728 -2.0593,2.01987c-0.93108,0.67081 -1.10027,1.47335 -1.51515,2.52888c-0.18923,0.48175 -0.15743,0.81544 -0.30162,1.29107c-0.17784,0.59258 -0.38739,0.52733 -0.83978,0.77903c-0.4311,0.23573 -0.71618,0.59575 -1.19313,0.75529c-0.43764,0.14652 -0.92224,0.25351 -1.36983,0.38173c-1.85521,0.53648 -4.33298,-1.20291 -5.93362,-1.912c-0.56241,-0.24791 -0.91602,-0.36777 -0.54152,-0.88635c0.26344,-0.36118 0.64947,-0.71786 0.93785,-1.07579c0.66811,-0.83176 1.1229,-1.66898 1.5413,-2.6413c0.70688,-1.64238 0.49034,-2.9126 0.46267,-4.56963" id="Fill_3_" fill="url(#color-6)"/>
          <path d="M277.11116,159.43965v0c0.02587,0.01255 0.05323,0.0236 0.0785,0.03495c-0.09098,0.13903 -0.18164,0.27714 -0.27261,0.41617c-0.28742,-0.32312 -0.95813,-0.51277 -1.34078,-0.71427c-0.1098,-0.0583 0.14763,-0.42246 0.24766,-0.42242c0.98569,0.0086 1.96525,0.08721 2.94519,-0.03817c0.71085,-0.09224 2.00343,-1.19688 0.80207,-1.42783c-0.56116,-0.10942 -1.19507,-0.00776 -1.75674,0.03573c-1.8661,0.15468 -3.28324,-2.10564 -5.08465,-1.79251c-0.09398,0.01797 0.08218,-0.40307 0.22302,-0.42656c1.07772,-0.18511 2.34319,0.79943 3.22949,1.29345c0.82551,0.45693 1.60372,0.50901 2.53758,0.45045c0.52596,-0.02928 1.15697,-0.09189 1.61978,0.20915c0.58107,0.37614 -0.52607,1.51004 -0.77549,1.71977c-0.93885,0.80632 -2.84539,0.41434 -3.96056,0.40698c0.08166,-0.14111 0.163,-0.28131 0.24616,-0.42091c0.38025,0.20271 1.05337,0.39415 1.33839,0.71547c0.08586,0.09441 -0.14931,0.46994 -0.27202,0.41438c-0.02797,-0.01225 -0.05504,-0.0242 -0.08181,-0.03705c-0.09535,-0.04752 0.1481,-0.47534 0.27682,-0.41679zM282.66327,158.88831v0c-1.39497,-0.05381 -2.44285,0.4043 -3.47664,1.32532c-0.75893,0.67668 -1.47837,0.11073 -2.25843,-0.30817c-0.10258,-0.05591 0.1517,-0.47715 0.27292,-0.41407c0.72048,0.3842 1.44078,0.92941 2.16943,0.28074c0.24428,-0.21843 0.45617,-0.41754 0.73901,-0.59221c0.88395,-0.54031 1.73958,-0.7558 2.77943,-0.7173c0.11957,0.0045 -0.09323,0.43044 -0.22573,0.42567zM282.80507,158.41989v0c1.97659,0.28905 0.31575,1.64818 -0.50887,2.12705c-0.96292,0.55823 -1.63902,1.31732 -2.53203,1.95469c-0.90501,0.64641 -2.36775,0.40712 -3.40928,0.41308c-0.11626,0.0006 0.08363,-0.4256 0.22302,-0.42656c0.76094,-0.00465 1.51051,0.00395 2.27011,-0.05718c0.99147,-0.07854 1.55125,-0.74599 2.21322,-1.39269c0.27899,-0.27499 0.60807,-0.45939 0.94345,-0.64771c0.36449,-0.20371 0.72538,-0.40562 1.07238,-0.63512c0.72787,-0.48584 -0.04031,-0.84377 -0.49983,-0.9126c-0.12773,-0.0192 0.10101,-0.44187 0.22783,-0.42297zM281.28643,161.11071v0c-0.71503,0.80724 -0.74031,2.31871 -1.73169,2.90255c-1.23706,0.72777 -2.63959,0.65745 -4.03101,0.70186c-0.11175,0.00208 0.08485,-0.4202 0.22303,-0.42656c1.18535,-0.03848 2.41271,0.02597 3.52607,-0.43952c1.05574,-0.44251 1.21009,-2.11142 1.9452,-2.94005c0.22767,-0.25593 0.20531,0.04784 0.06841,0.20171zM280.05957,163.47573v0c-0.04438,0.73674 -0.00114,1.66852 -0.76414,2.04569c-0.98233,0.48678 -2.23584,0.30163 -3.28764,0.52032c-0.08797,0.01795 0.08311,-0.39676 0.22423,-0.42416c0.72541,-0.15446 1.48095,-0.1579 2.21551,-0.25832c0.3748,-0.05023 0.76096,-0.1197 1.1021,-0.28911c0.24244,-0.11899 0.18802,-1.07148 0.20159,-1.28511c0.00901,-0.12109 0.31755,-0.46736 0.30834,-0.30932zM278.84724,165.65145v0c-2.99592,2.64382 -6.46902,0.41641 -9.30475,-1.26319c-0.105,-0.06071 0.16009,-0.48138 0.27382,-0.41378c2.74456,1.62545 6.18838,3.90523 9.12013,1.31323c0.18045,-0.15848 -0.00797,0.29053 -0.0892,0.36373z" id="Outline_8_" fill="#010101"/>
        </g>
      </g>
      <g data-paper-data="{&quot;origPos&quot;:null}" id="L_Eye" stroke="none" stroke-width="1">
        <path d="M238.85691,104.82291c-0.057,0.00475 -0.09975,0.01045 -0.1539,0.03705c-0.11305,0.5662 -1.5542,1.00985 -2.00925,1.13335c-0.8816,0.24035 -1.98645,0.1235 -2.88515,-0.07885c-0.66785,-0.14725 -1.2635,-0.4218 -1.37275,-1.1837c-0.0684,-0.47025 0.18715,-0.8892 0.4484,-1.2502c0.8493,-1.1704 2.14415,-2.03395 3.5891,-1.35185c0.57475,0.2679 1.0944,0.58425 1.3908,1.11815c0.3249,0.57665 0.8835,0.9918 1.0298,1.6739" id="L_White" fill="#ffffff"/>
        <path d="M238.58806,105.16776v0v0c-0.4712,-1.33475 -1.2844,-3.29175 -3.01245,-3.13215c-0.8094,0.0741 -1.5428,0.61465 -2.11755,1.14475c-0.91675,0.8379 -1.31195,2.0387 0.4009,2.5536c1.4117,0.4237 3.5017,0.06175 4.7766,-0.6365c0.11875,-0.06365 0.56145,0.11495 0.3819,0.21375c-1.5618,0.855 -3.7943,1.05165 -5.4948,0.5415c-0.61655,-0.1843 -1.08015,-0.57285 -1.3091,-1.1723c-0.23465,-0.608 0.1824,-1.0298 0.56525,-1.44495c0.76475,-0.82555 1.96935,-1.61215 3.14735,-1.43735c1.76415,0.26315 2.5935,1.90855 3.1369,3.43995c0.05035,0.1349 -0.42275,0.0722 -0.475,-0.0703z" id="L_Outline" fill="#000000"/>
      </g>
      <g data-paper-data="{&quot;origPos&quot;:null}" id="R_Eye" stroke="none" stroke-width="1">
        <path d="M250.62646,103.01981c0,0.01045 0,0.01995 0,0.0323c0,0.6194 -0.4066,1.0393 -0.99845,1.32525c-0.76475,0.37335 -1.1932,0.5225 -2.0425,0.56335c-0.84835,0.04275 -1.63495,0.06365 -2.4339,-0.1748c-0.37145,-0.10925 -0.3914,-0.1463 -0.35435,-0.5206c0.03135,-0.31825 0.1444,-0.48545 0.28405,-0.77235c0.13395,-0.27265 0.1539,-0.6004 0.3249,-0.8398c0.1501,-0.2166 0.0988,-0.5396 0.28025,-0.73245c0.45505,-0.4883 1.07445,-0.63555 1.7613,-0.6536c0.60515,-0.0152 1.32525,0.0646 1.8221,0.3857c0.35245,0.2261 1.44875,0.8702 1.425,1.4174" id="R_White" fill="#ffffff"/>
        <path d="M244.54551,104.65001v0v0c0.2546,-1.50385 0.7809,-3.3212 2.50135,-3.6233c1.00035,-0.17765 2.0558,0.32585 2.8576,0.85975c0.32775,0.2185 0.64315,0.48355 0.89205,0.7885c0.4845,0.59755 -0.35625,1.56655 -0.83505,1.805c-1.52285,0.76285 -3.6556,0.86735 -5.26395,0.31635c-0.31825,-0.10925 -0.02185,-0.23085 0.1786,-0.16055c1.45065,0.49305 3.58625,0.3306 4.8944,-0.49305c1.2445,-0.7828 0.3952,-1.8107 -0.44555,-2.3389c-0.7733,-0.48545 -1.68435,-0.7486 -2.55455,-0.3724c-1.2065,0.5263 -1.55325,2.19925 -1.748,3.34495c-0.02185,0.13965 -0.50255,0.0266 -0.4769,-0.12635z" id="R_Outline" fill="#000000"/>
      </g>
      <path d="M235.60627,102.20419c0.57665,0.0209 1.02505,0.50635 1.00415,1.08205c-0.0209,0.5776 -0.5073,1.026 -1.083,1.00605c-0.57665,-0.0228 -1.02695,-0.5092 -1.00225,-1.0849c0.01995,-0.5757 0.50445,-1.026 1.0811,-1.0032z" data-paper-data="{&quot;origPos&quot;:null}" id="R_Pupil" fill="url(#color-7)" stroke="#010101" stroke-width="0.2494"/>
      <path d="M248.9396,102.58514c0.57665,0.0209 1.02505,0.50635 1.00415,1.08205c-0.0209,0.5776 -0.5073,1.026 -1.083,1.00605c-0.57665,-0.0228 -1.02695,-0.5092 -1.00225,-1.0849c0.01995,-0.5757 0.50445,-1.026 1.0811,-1.0032z" data-paper-data="{&quot;origPos&quot;:null}" id="R_Pupil" fill="url(#color-8)" stroke="#010101" stroke-width="0.2494"/>
      <path d="" id="Outline_11_" fill="#000000" stroke="none" stroke-width="1"/>
      <path d="" id="Outline_11_" fill="#000000" stroke="none" stroke-width="1"/>
      <path d="" id="Outline_11_" fill="#000000" stroke="none" stroke-width="1"/>
    </g>
  </g>
</svg>
